<?xml version="1.0" encoding="UTF-8"?>
<svg version="1.1" xmlns="http://www.w3.org/2000/svg" width="391" height="366">
<path d="M0 0 C2.3242279 0.58581726 4.64852881 1.17134488 6.97290039 1.7565918 C12.68086059 3.19546488 18.38715493 4.64080754 24.09265137 6.0894165 C26.91075829 6.80475304 29.72922493 7.51864821 32.54785156 8.23193359 C45.23197983 11.4440194 57.91099903 14.66897904 70.51953125 18.16796875 C71.19310165 18.35486771 71.86667206 18.54176666 72.56065369 18.73432922 C75.72527165 19.6145584 78.8871848 20.5029121 82.04663086 21.40161133 C91.55429783 24.5522088 91.55429783 24.5522088 101.1875 23.875 C118.12496239 22.3470115 131.67962161 24.25364925 145.5390625 34.63671875 C192.39127404 74.32424502 214.67532067 159.785821 219.77734375 218.23046875 C221.65603176 242.50081896 218.23257928 264.68155615 204.1875 284.875 C203.71054687 285.59300781 203.23359375 286.31101562 202.7421875 287.05078125 C189.06021467 307.14348978 167.43516667 314.75844701 144.80859375 319.59765625 C139.47624827 320.78341084 135.04334878 322.36670776 130.2265625 324.96875 C121.43867066 329.52330437 112.16722027 332.70711653 102.83911133 335.96435547 C99.88701269 336.99580283 96.94032783 338.04164562 93.99414062 339.08984375 C28.58849975 362.23041995 -32.12058104 356.3952041 -97.8125 336.875 C-98.73272949 336.60719727 -99.65295898 336.33939453 -100.60107422 336.06347656 C-117.77403029 331.02460155 -136.23910894 323.79075569 -149.8125 311.875 C-150.59238281 311.215 -151.37226563 310.555 -152.17578125 309.875 C-162.91342925 300.05772183 -169.51158977 286.34469107 -170.8125 271.875 C-171.60203847 253.37180853 -170.75900765 235.16558522 -167.8125 216.875 C-167.65152832 215.86646973 -167.49055664 214.85793945 -167.32470703 213.81884766 C-161.79938505 180.33253026 -151.73600102 147.35803442 -140.55859375 115.359375 C-140.22746582 114.40458252 -139.89633789 113.44979004 -139.55517578 112.46606445 C-138.96580803 110.78474212 -138.36292185 109.10804725 -137.74169922 107.43823242 C-136.0214325 102.56378657 -135.62696047 98.43827843 -135.77661133 93.27905273 C-136.23887227 62.3138592 -114.60913104 29.95948034 -94.26513672 8.32763672 C-90.50475425 4.56725425 -86.34403723 1.62468808 -81.8125 -1.125 C-80.42998047 -1.96998047 -80.42998047 -1.96998047 -79.01953125 -2.83203125 C-54.09814918 -16.65482211 -25.66903235 -6.5068427 0 0 Z M128.1875 51.875 C128.83050189 53.35539971 129.47698499 54.83428782 130.125 56.3125 C130.48464844 57.13621094 130.84429687 57.95992188 131.21484375 58.80859375 C132.01872323 60.81910117 132.01872323 60.81910117 133.1875 61.875 C135.40613406 68.21395447 137.36143169 74.63138066 139.3203125 81.0546875 C139.91913147 83.00219786 140.54318791 84.94206372 141.1875 86.875 C141.7843271 90.04701106 142.22654539 93.24321528 142.6875 96.4375 C142.8220459 97.36755859 142.9565918 98.29761719 143.09521484 99.25585938 C144.05439698 106.19783687 144.63219084 113.09837963 144.89648438 120.09985352 C145.00306391 122.87839511 145.11735622 125.54512922 145.69677734 128.27001953 C146.21143881 131.00207819 146.28515589 133.4643842 146.25 136.2421875 C146.24226563 137.29535156 146.23453125 138.34851563 146.2265625 139.43359375 C146.2013489 141.57422866 146.17536346 143.71485469 146.1484375 145.85546875 C146.08993352 153.99727287 146.38029886 162.09034872 146.75694275 170.22201538 C147.38728696 183.93488391 147.8193224 197.65468984 148.25 211.375 C148.27236473 212.08167187 148.29472946 212.78834373 148.31777191 213.5164299 C149.05870805 236.97311759 149.47977415 260.40538586 149.1875 283.875 C150.44691406 284.07609375 151.70632813 284.2771875 153.00390625 284.484375 C153.71232666 284.59749023 154.42074707 284.71060547 155.15063477 284.82714844 C157.46549496 285.06217862 157.46549496 285.06217862 160.125 283.125 C162.38276893 280.96909332 162.38276893 280.96909332 163.1875 277.875 C162.8575 277.215 162.5275 276.555 162.1875 275.875 C162.92871094 275.84019531 163.66992188 275.80539062 164.43359375 275.76953125 C168.30644598 274.51154095 169.44287906 271.98329851 171.25 268.5625 C171.59361572 267.93311523 171.93723145 267.30373047 172.29125977 266.65527344 C176.68456132 258.37105974 179.48677298 250.14230967 180.01171875 240.73828125 C180.1875 238.875 180.1875 238.875 181.1875 237.875 C181.45125583 235.20227424 181.65598457 232.55417584 181.8125 229.875 C181.8640625 229.12476563 181.915625 228.37453125 181.96875 227.6015625 C182.08576517 225.69490351 182.1414329 223.78469078 182.1875 221.875 C181.8575 221.545 181.5275 221.215 181.1875 220.875 C181.41566406 219.85599609 181.41566406 219.85599609 181.6484375 218.81640625 C182.33111103 215.09138328 182.08740761 211.56155259 181.8125 207.8125 C181.76867187 207.10544922 181.72484375 206.39839844 181.6796875 205.66992188 C181.4511541 202.28953198 181.04961591 199.14414353 180.1875 195.875 C180.014152 194.02320307 179.87109372 192.16844658 179.75 190.3125 C179.29477876 184.40184966 178.36147255 178.6806611 177.1875 172.875 C177.0332959 172.09882324 176.8790918 171.32264648 176.72021484 170.52294922 C165.86422433 114.47801461 165.86422433 114.47801461 141.1875 63.875 C140.8575 63.215 140.5275 62.555 140.1875 61.875 C139.5275 61.875 138.8675 61.875 138.1875 61.875 C137.960625 61.318125 137.73375 60.76125 137.5 60.1875 C135.23149551 56.19061114 132.56850054 53.33533351 128.1875 51.875 Z M152.1875 285.875 C151.8575 286.535 151.5275 287.195 151.1875 287.875 C152.1775 287.545 153.1675 287.215 154.1875 286.875 C153.5275 286.545 152.8675 286.215 152.1875 285.875 Z M149.1875 286.875 C149.1875 287.535 149.1875 288.195 149.1875 288.875 C149.8475 288.545 150.5075 288.215 151.1875 287.875 C150.5275 287.545 149.8675 287.215 149.1875 286.875 Z " fill="#062A20" transform="translate(170.8125,10.125)"/>
<path d="M0 0 C2.8384221 2.10854213 4.99952854 3.99936091 7.109375 6.859375 C10.36613866 10.82270924 14.44940988 12.57483883 19.0625 14.625 C19.90578857 15.01252441 20.74907715 15.40004883 21.61791992 15.79931641 C27.17268514 18.30881076 32.76507204 20.44324783 38.59765625 22.2265625 C41.60518326 23.19483949 44.24342584 24.46856991 47 26 C46.9278125 26.81082031 46.855625 27.62164062 46.78125 28.45703125 C46.48682184 31.96972275 46.23346341 35.4827398 46 39 C45.93167969 39.98871094 45.86335938 40.97742188 45.79296875 41.99609375 C45.5377299 48.66066366 46.95584471 53.13174884 50 59 C50.33 59.99 50.66 60.98 51 62 C58.1110465 65.76467167 67.18997762 65.97267678 75 65 C80.57165856 62.21807792 83.56321764 58.657653 85.625 52.8125 C87.12288811 47.95050253 88.11186173 43.00492039 89 38 C92.51431815 36.82856062 94.1014407 37.22794656 97.69921875 37.9609375 C99.39014648 38.29738281 99.39014648 38.29738281 101.11523438 38.640625 C102.29408203 38.88296875 103.47292969 39.1253125 104.6875 39.375 C124.08086211 43.29894875 144.57969006 47.23285015 162.4921875 36.5078125 C166.32659336 33.79704206 169.22296902 30.80556097 172 27 C172.98790941 25.98805386 173.98589776 24.98569602 175 24 C174.32515541 30.92582859 173.58851127 37.84412138 172.83386135 44.76162529 C172.04764079 51.96944665 171.27253537 59.17842857 170.5011301 66.38784981 C169.98695669 71.18874576 169.46891168 75.9891502 168.94116211 80.78857422 C166.19793243 105.77045531 164.21425571 130.64854839 163.18075562 155.75933838 C162.826147 164.26377276 162.32494197 172.76029148 161.78710938 181.25488281 C161.67662181 183.04065479 161.57238502 184.82682189 161.47363281 186.61328125 C159.48298603 222.47028185 159.48298603 222.47028185 151.5 231.7421875 C138.94185538 241.22620297 116.6025723 236.1308787 101.76779175 234.07745361 C100.99879547 233.96939392 100.22979919 233.86133423 99.4375 233.75 C98.69484894 233.64757996 97.95219788 233.54515991 97.18704224 233.43963623 C79.28453585 230.93242931 62.07155915 226.344235 44.75 221.25 C43.85090912 220.98610474 42.95181824 220.72220947 42.02548218 220.45031738 C-13.35888734 204.13599047 -13.35888734 204.13599047 -28.28515625 178.8203125 C-37.48628954 160.27810474 -34.34496986 137.74799622 -32 118 C-31.89236328 117.03078613 -31.78472656 116.06157227 -31.67382812 115.06298828 C-28.44319837 86.76759969 -20.91304395 20.91304395 0 0 Z " fill="#068094" transform="translate(42,120)"/>
<path d="M0 0 C1.97827242 0.51460773 3.95678799 1.02828164 5.93554688 1.54101562 C10.86553101 2.82093608 15.79248213 4.1121023 20.71847534 5.4072876 C25.70435327 6.71749692 30.69180892 8.02164894 35.6796875 9.32421875 C37.1181604 9.69991753 37.1181604 9.69991753 38.58569336 10.08320618 C44.07897568 11.51529257 49.57669214 12.92752126 55.08203125 14.3125 C92.34605147 23.7045814 92.34605147 23.7045814 107.6875 32.1875 C105.48685328 33.30868257 103.2786405 34.37034772 101.0234375 35.37890625 C83.22492315 43.62069851 74.17687129 58.48698426 65.6328125 75.32763672 C64.7155367 77.13233895 63.77991458 78.92767967 62.84375 80.72265625 C59.83543805 86.57435077 57.15847387 92.41398606 54.8125 98.5625 C48.42419181 115.13428006 41.21052108 126.89070853 24.9921875 134.8046875 C19.61702005 137.05387104 14.83943189 137.34576448 9.0625 137.3125 C7.75023437 137.31507813 6.43796875 137.31765625 5.0859375 137.3203125 C-4.49290692 137.11171686 -13.26614186 135.67778567 -22.5 133.125 C-23.54736328 132.84333984 -24.59472656 132.56167969 -25.67382812 132.27148438 C-28.22236273 131.58489286 -30.76835863 130.89016151 -33.3125 130.1875 C-33.91188306 122.46090751 -31.2279267 115.70880763 -28.88867188 108.43164062 C-25.09398605 96.79854561 -25.09398605 96.79854561 -26.12133789 84.96069336 C-28.01101907 82.14766725 -30.8371749 80.98258604 -33.8125 79.5625 C-34.4418042 79.25691162 -35.0711084 78.95132324 -35.71948242 78.63647461 C-40.86353934 76.22656942 -45.66913195 74.71091525 -51.3125 74.1875 C-52.53646484 74.06568359 -52.53646484 74.06568359 -53.78515625 73.94140625 C-58.40870346 73.57258119 -58.40870346 73.57258119 -62.28100586 75.8503418 C-68.93540046 83.50597447 -70.74364156 95.88519958 -73.125 105.5 C-73.59196289 107.34368164 -73.59196289 107.34368164 -74.06835938 109.22460938 C-74.82355134 112.21052223 -75.57147999 115.19804477 -76.3125 118.1875 C-83.61930513 116.51060448 -90.58711748 114.6284592 -97.4375 111.5625 C-98.20666748 111.21912598 -98.97583496 110.87575195 -99.76831055 110.52197266 C-106.32827899 107.44722539 -111.41994562 103.55737675 -116.3125 98.1875 C-116.86421875 97.59453125 -117.4159375 97.0015625 -117.984375 96.390625 C-122.50633264 91.25896521 -122.6570684 86.78086295 -122.3125 80.1875 C-120.21538883 52.54688724 -102.32563029 22.83681951 -82.3125 4.1875 C-57.49198427 -16.57276067 -28.55223355 -7.5412627 0 0 Z " fill="#068094" transform="translate(167.3125,18.8125)"/>
<path d="M0 0 C9.73190687 13.79897243 12.35114132 33.91747362 16 50 C16.16236145 50.6768837 16.3247229 51.3537674 16.49200439 52.05116272 C17.7294865 57.33939691 18.53262805 62.54262346 19.0234375 67.94921875 C19.10516205 68.83187912 19.1868866 69.71453949 19.27108765 70.62394714 C20.45119072 84.24284094 20.94574691 97.91318861 21.52801514 111.56799316 C21.65763651 114.56780216 21.79387544 117.56729569 21.93017006 120.56680775 C22.06332498 123.51224515 22.19286532 126.4578333 22.32133102 129.40347862 C22.41054612 131.43929051 22.50217486 133.47499619 22.59390259 135.51069641 C22.98023692 144.68063897 23.06394647 153.82443936 23 163 C22.34 162.01 21.68 161.02 21 160 C18.13704934 156.85998959 16.25002154 155.29773442 11.93359375 154.7265625 C2.4669822 154.34137956 -6.05413199 157.26559506 -15 160 C-22.38633554 162.22601893 -29.65182154 164.1890498 -37.25 165.5 C-47.85567932 167.09524437 -47.85567932 167.09524437 -56.5480957 172.75048828 C-60.59962237 179.02773172 -60.35912221 188.25575853 -60.625 195.5625 C-60.66077148 196.49215576 -60.69654297 197.42181152 -60.73339844 198.37963867 C-61.05585128 208.24132154 -61.16866199 218.10968958 -61.23016357 227.9760437 C-61.24328968 229.85297567 -61.26116155 231.72988101 -61.28399658 233.60671997 C-61.7785033 251.4274645 -61.7785033 251.4274645 -54 267 C-52.35645624 267.7217937 -50.69085689 268.39731834 -49 269 C-49.42804932 268.02514648 -49.85609863 267.05029297 -50.29711914 266.04589844 C-55.26104561 253.96668543 -55.75989394 243.17945713 -55.4375 230.25 C-55.41589426 228.3659147 -55.39700356 226.48179626 -55.38085938 224.59765625 C-55.27236741 215.03149517 -54.92395413 205.525712 -54 196 C-52.948125 197.11375 -52.948125 197.11375 -51.875 198.25 C-41.87074337 207.81928895 -30.89622936 207.6224845 -17.79296875 207.37890625 C-10.22560046 207.0355503 -3.90874288 205.16615907 3 202 C4.01449219 201.54238281 5.02898437 201.08476562 6.07421875 200.61328125 C11.85007854 197.73717099 16.1263502 194.3295821 20.44140625 189.5390625 C22 188 22 188 24 188 C24.07524716 193.81255394 24.12910941 199.62481244 24.16479492 205.43774414 C24.17970165 207.40719554 24.20003414 209.37661485 24.22631836 211.34594727 C24.69895161 247.72017322 24.69895161 247.72017322 13.875 259.6875 C5.16432799 267.63175683 -7.07049723 270.67299125 -18 274.4375 C-19.58484074 274.98964539 -21.16947742 275.54237685 -22.75390625 276.09570312 C-27.49662303 277.74809572 -32.24718814 279.37691055 -37 281 C-37.80133362 281.27493286 -38.60266724 281.54986572 -39.42828369 281.83312988 C-56.7533843 287.76566037 -56.7533843 287.76566037 -64.875 289.375 C-65.65528564 289.53581055 -66.43557129 289.69662109 -67.23950195 289.86230469 C-73.51358407 291.076852 -79.61236188 291.45899196 -86 291 C-85.81824219 290.3915625 -85.63648438 289.783125 -85.44921875 289.15625 C-78.67760462 265.54241612 -77.82577431 241.41050404 -76.85357666 217.00662231 C-75.82586448 191.56131179 -73.98923715 166.36058348 -70.66601562 141.10107422 C-69.96903068 135.80171311 -69.31780121 130.49719884 -68.671875 125.19140625 C-67.56604725 116.13699113 -66.4250034 107.08748382 -65.26171875 98.0402832 C-65.01909038 96.14882302 -64.77896928 94.25704168 -64.5390625 92.36523438 C-59.4226742 52.1340113 -59.4226742 52.1340113 -50 38 C-48.046875 37.62890625 -48.046875 37.62890625 -45.75 37.5625 C-39.66209144 37.05517429 -36.48175728 34.51543359 -32.25 30.1875 C-27.98472699 24.1450299 -27.65182603 17.71960637 -27.375 10.5625 C-27.33632813 9.73556641 -27.29765625 8.90863281 -27.2578125 8.05664062 C-27.16446908 6.03808927 -27.08119039 4.01907669 -27 2 C-23.86501708 0.14223235 -21.62528568 -0.20140476 -18 0 C-12.91830445 9.16097445 -9.59633257 17.55549377 -8 28 C-7.80712402 29.18311768 -7.80712402 29.18311768 -7.61035156 30.39013672 C-5.71149781 42.16973182 -4.62491343 53.83473551 -4.29052734 65.76342773 C-4.2642627 66.68196533 -4.23799805 67.60050293 -4.2109375 68.546875 C-4.19337402 69.35995117 -4.17581055 70.17302734 -4.15771484 71.01074219 C-4.1192811 73.0740406 -4.1192811 73.0740406 -3 75 C-1.35 74.67 0.3 74.34 2 74 C2.77223248 51.87256945 3.01931232 27.07831054 -6.73046875 6.71484375 C-7.95037118 4.10612932 -8.56823772 1.83506555 -9 -1 C-5.17932846 -2.06129765 -3.3468555 -2.17182536 0 0 Z " fill="#077D90" transform="translate(288,63)"/>
<path d="M0 0 C2.8384221 2.10854213 4.99952854 3.99936091 7.109375 6.859375 C10.36613866 10.82270924 14.44940988 12.57483883 19.0625 14.625 C19.90578857 15.01252441 20.74907715 15.40004883 21.61791992 15.79931641 C27.17268514 18.30881076 32.76507204 20.44324783 38.59765625 22.2265625 C41.60518326 23.19483949 44.24342584 24.46856991 47 26 C46.9278125 26.81082031 46.855625 27.62164062 46.78125 28.45703125 C46.48682184 31.96972275 46.23346341 35.4827398 46 39 C45.93167969 39.98871094 45.86335938 40.97742188 45.79296875 41.99609375 C45.5377299 48.66066366 46.95584471 53.13174884 50 59 C50.33 59.99 50.66 60.98 51 62 C58.1110465 65.76467167 67.18997762 65.97267678 75 65 C80.57165856 62.21807792 83.56321764 58.657653 85.625 52.8125 C87.12288811 47.95050253 88.11186173 43.00492039 89 38 C92.51431815 36.82856062 94.1014407 37.22794656 97.69921875 37.9609375 C99.39014648 38.29738281 99.39014648 38.29738281 101.11523438 38.640625 C102.29408203 38.88296875 103.47292969 39.1253125 104.6875 39.375 C124.08086211 43.29894875 144.57969006 47.23285015 162.4921875 36.5078125 C166.32659336 33.79704206 169.22296902 30.80556097 172 27 C172.98790941 25.98805386 173.98589776 24.98569602 175 24 C174.32515541 30.92582859 173.58851127 37.84412138 172.83386135 44.76162529 C172.04764079 51.96944665 171.27253537 59.17842857 170.5011301 66.38784981 C169.98695669 71.18874576 169.46891168 75.9891502 168.94116211 80.78857422 C166.19793243 105.77045531 164.21425571 130.64854839 163.18075562 155.75933838 C162.826147 164.26377276 162.32494197 172.76029148 161.78710938 181.25488281 C161.67662181 183.04065479 161.57238502 184.82682189 161.47363281 186.61328125 C159.48298603 222.47028185 159.48298603 222.47028185 151.5 231.7421875 C138.94185538 241.22620297 116.6025723 236.1308787 101.76779175 234.07745361 C100.99879547 233.96939392 100.22979919 233.86133423 99.4375 233.75 C98.69484894 233.64757996 97.95219788 233.54515991 97.18704224 233.43963623 C79.28453585 230.93242931 62.07155915 226.344235 44.75 221.25 C43.85090912 220.98610474 42.95181824 220.72220947 42.02548218 220.45031738 C-13.35888734 204.13599047 -13.35888734 204.13599047 -28.28515625 178.8203125 C-37.48628954 160.27810474 -34.34496986 137.74799622 -32 118 C-31.89236328 117.03078613 -31.78472656 116.06157227 -31.67382812 115.06298828 C-28.44319837 86.76759969 -20.91304395 20.91304395 0 0 Z M-17.5546875 78.76953125 C-21.0419336 84.15120023 -21.63271851 90.35216627 -22.47265625 96.5703125 C-22.60063095 97.48779266 -22.72860565 98.40527283 -22.86045837 99.35055542 C-23.12950211 101.28834067 -23.39576759 103.22651344 -23.65942383 105.16503906 C-24.05846717 108.09538522 -24.46696584 111.02429222 -24.87695312 113.953125 C-31.12429748 150.89914976 -31.12429748 150.89914976 -19.66796875 185.01953125 C-4.13471254 203.4629994 26.26255136 211.64717599 49.22290039 214.46582031 C52.99393533 214.9991423 56.6684305 215.74665629 60.39453125 216.53125 C68.1700721 218.05906379 75.73540335 218.49488177 83.64697266 218.44604492 C85.76430948 218.43744186 87.87901399 218.46661957 89.99609375 218.49804688 C102.39752719 218.56133144 114.36962743 216.09155355 123.71484375 207.40625 C129.62503738 201.04809549 131.39416221 193.43446175 132.625 185.0625 C132.74979736 184.22823486 132.87459473 183.39396973 133.00317383 182.53442383 C134.89826035 169.27887833 135.08666386 156.11906374 135.125 142.75 C135.12975342 141.49469482 135.13450684 140.23938965 135.1394043 138.94604492 C135.50738179 120.01589234 135.50738179 120.01589234 128.875 102.75 C118.2129125 92.55148152 102.57786343 90.93027934 88.58496094 88.48217773 C84.4613819 87.74435332 80.48375132 86.89409572 76.48828125 85.62890625 C71.91470656 84.19642982 67.30952476 83.14780969 62.62890625 82.140625 C56.06947986 80.72429442 49.57484963 79.14682346 43.08984375 77.421875 C41.40305441 76.97893957 39.71620512 76.53623237 38.02929688 76.09375 C35.47773808 75.42358922 32.92851058 74.74754576 30.38354492 74.05273438 C14.28563673 69.67486793 -5.29164819 64.48166452 -17.5546875 78.76953125 Z " fill="#068195" transform="translate(42,120)"/>
<path d="M0 0 C2.2393444 0.54629218 4.47876731 1.09226257 6.71826172 1.63793945 C7.86035095 1.9176358 9.00244019 2.19733215 10.17913818 2.48550415 C18.74378219 4.57461867 27.32479042 6.5961301 35.90380859 8.62524414 C38.03604681 9.13038502 40.16788395 9.63722192 42.29931641 10.14575195 C45.49282317 10.90742307 48.68742393 11.66423261 51.8828125 12.41796875 C53.44563965 12.78723984 53.44563965 12.78723984 55.04003906 13.16397095 C60.47926949 14.42935915 65.92164308 15.59604079 71.41015625 16.62841797 C72.52612183 16.83969833 73.6420874 17.0509787 74.79187012 17.2686615 C76.90235518 17.66150428 79.0153069 18.04142904 81.13098145 18.4052887 C88.97046014 19.85883482 96.72714771 22.01473549 102.1015625 28.1953125 C105.42800475 35.12540052 105.89989887 41.1035877 105.8671875 48.6875 C105.86910095 49.68049103 105.8710144 50.67348206 105.87298584 51.69656372 C105.87434298 53.79608412 105.87067951 55.89561305 105.86230469 57.99511719 C105.85171262 61.15059169 105.86215688 64.30548191 105.875 67.4609375 C105.90524313 110.68753463 105.90524313 110.68753463 96.6015625 121.3203125 C91.13649652 126.78537848 84.98876963 129.36713095 77.2265625 129.6953125 C73.6015625 129.3203125 73.6015625 129.3203125 71.6015625 127.8203125 C71.1065625 127.0778125 71.1065625 127.0778125 70.6015625 126.3203125 C71.3646875 125.7221875 72.1278125 125.1240625 72.9140625 124.5078125 C80.00321819 117.30911411 79.43529706 104.19980682 80.2265625 94.6953125 C80.35341144 93.26629745 80.48093854 91.83734244 80.60913086 90.40844727 C81.36790286 81.81400501 81.98925756 73.2212134 82.29296875 64.59765625 C82.82793846 58.91614248 83.81534862 54.53274208 87.9765625 50.5078125 C91.84506693 46.35604938 94.31643992 41.87657779 95.6015625 36.3203125 C95.27093113 34.09450885 95.27093113 34.09450885 94.6015625 32.3203125 C92.69584522 32.34280887 92.69584522 32.34280887 90.6015625 33.3203125 C88.74889473 36.14139106 88.74889473 36.14139106 87.1640625 39.5703125 C84.39344825 45.25296447 81.81356284 49.71913515 76 52.6171875 C71.06240629 53.63875861 66.25574815 53.61547189 61.2265625 53.5703125 C59.62180054 53.56124878 59.62180054 53.56124878 57.98461914 53.55200195 C49.38194826 53.44525301 41.09381512 52.76170024 32.6015625 51.3203125 C31.48136719 51.14886719 30.36117187 50.97742188 29.20703125 50.80078125 C8.22645447 47.1509615 -19.61546591 40.70115554 -34.3984375 24.0703125 C-36.77636868 17.53100177 -35.77993976 10.70916925 -33.38671875 4.30078125 C-31.90073345 1.32293718 -29.97778604 -0.61620867 -27.3984375 -2.6796875 C-18.74300375 -5.56483208 -8.54605232 -2.11913795 0 0 Z " fill="#068295" transform="translate(63.3984375,200.6796875)"/>
<path d="M0 0 C2.54183844 0.6739926 5.08519042 1.3420169 7.62879944 2.0092926 C9.30411958 2.44916506 10.97880115 2.89147721 12.65281677 3.33628845 C19.07754848 5.03233805 25.53554326 6.51093384 32.02841187 7.92036438 C37.11080999 9.02590988 42.1207922 10.27602534 47.125 11.6875 C55.80343257 14.07241986 64.57449555 15.81083805 73.43579102 17.37475586 C82.94180059 19.14393622 91.11972287 22.18071512 97.25 30.0625 C109.40002128 51.42977881 103.79005937 95.23155128 98.3125 118.375 C95.91058702 126.85759231 92.13276793 132.08089423 85.0625 137.25 C82.08984375 138.69921875 82.08984375 138.69921875 79 139.9375 C77.97777344 140.35386719 76.95554688 140.77023437 75.90234375 141.19921875 C69.182911 143.68550129 62.62855516 143.47153657 55.54052734 143.49023438 C53.36124167 143.49978636 51.18296449 143.5307541 49.00390625 143.5625 C39.00662983 143.63730781 29.82252033 142.31415084 20.0625 140.25 C18.41927903 139.97603014 16.77374368 139.71505552 15.125 139.4765625 C5.0542488 137.99669564 -4.33918912 135.62135642 -13.9375 132.25 C-14.94707764 131.90364502 -14.94707764 131.90364502 -15.97705078 131.55029297 C-31.68065645 126.12947535 -48.34020065 119.67968238 -56.4375 104.1875 C-60.25259253 96.10260915 -61.30195942 88.69434695 -61.25 79.875 C-61.24581055 78.87678223 -61.24162109 77.87856445 -61.23730469 76.85009766 C-61.07996042 66.06197227 -59.84457182 55.4521348 -58.40820312 44.76953125 C-57.90333395 40.99453435 -57.42781486 37.21640356 -56.953125 33.4375 C-56.61610109 30.83313647 -56.27759089 28.2289648 -55.9375 25.625 C-55.7837793 24.40989746 -55.63005859 23.19479492 -55.47167969 21.94287109 C-53.23205781 5.41001018 -53.23205781 5.41001018 -47.125 0.375 C-46.47917969 -0.17929688 -45.83335938 -0.73359375 -45.16796875 -1.3046875 C-32.14075712 -9.74613812 -13.64964046 -3.72654365 0 0 Z M-43.125 6.9375 C-47.09444238 12.00196097 -47.42504893 18.68902262 -47.234375 24.93359375 C-46.64283847 29.54913533 -44.43616739 31.95155943 -41.0078125 34.921875 C-16.62304715 53.47728567 19.47441124 59.34930258 49.3125 59.5 C50.34890625 59.520625 51.3853125 59.54125 52.453125 59.5625 C59.23114661 59.59708174 64.39504435 59.20322468 69.84765625 54.8125 C74.02247643 49.70568632 77.07133707 44.11564929 80.0625 38.25 C81.3825 38.58 82.7025 38.91 84.0625 39.25 C82.81939484 47.26524519 80.2312584 53.22527608 74.3125 58.875 C70.12013477 63.3002744 70.77648469 70.22343648 70.37890625 76.09375 C70.25466895 77.83334131 70.13031618 79.57292438 70.00585938 81.3125 C69.81546889 84.01940901 69.62662463 86.72640965 69.44018555 89.43359375 C66.95066438 125.36183562 66.95066438 125.36183562 61.0625 131.25 C58.73974823 131.65047444 56.40510643 131.9897104 54.0625 132.25 C54.38863281 131.4971875 54.71476562 130.744375 55.05078125 129.96875 C63.26276878 110.00804875 64.3600014 87.64721605 64.0625 66.25 C63.10887573 66.2814209 63.10887573 66.2814209 62.13598633 66.31347656 C26.96700256 67.30318169 -21.65969743 62.74881545 -48.9375 37.25 C-50.4191855 43.35308983 -51.45326376 49.37547593 -52.0625 55.625 C-52.14669189 56.48134033 -52.23088379 57.33768066 -52.31762695 58.2199707 C-52.86667598 64.29622452 -53.1189082 70.33716923 -53.125 76.4375 C-53.12580566 77.19015137 -53.12661133 77.94280273 -53.12744141 78.71826172 C-53.00936138 90.5393842 -51.39153951 99.28363253 -43.17578125 108.23828125 C-31.43933601 118.78674425 -16.13535635 123.84424512 -1.1875 127.8125 C-0.46273468 128.00665497 0.26203064 128.20080994 1.00875854 128.40084839 C40.6619603 138.99581778 40.6619603 138.99581778 80.0234375 131.5 C85.71472038 128.01109095 88.65658829 123.0673941 90.4765625 116.76171875 C93.27746158 104.75519804 94.20378842 92.58155421 94.30078125 80.28125 C94.31288887 78.77890808 94.31288887 78.77890808 94.32524109 77.24621582 C94.3389618 75.14544344 94.34973663 73.04464988 94.35766602 70.94384766 C94.36922237 68.81454849 94.38973127 66.68527909 94.41918945 64.55615234 C94.46210785 61.44348929 94.47806155 58.33167306 94.48828125 55.21875 C94.51454338 53.81357117 94.51454338 53.81357117 94.54133606 52.38000488 C94.51652137 44.70684211 93.11052436 36.74626323 87.9375 30.8125 C79.55991435 26.25946432 71.15153406 24.30051589 61.8125 22.6875 C47.90224921 20.17342307 34.17434636 17.01216112 20.4375 13.6875 C19.00271301 13.34028397 19.00271301 13.34028397 17.53894043 12.98605347 C12.8849356 11.85810188 8.23194145 10.72600777 3.57910156 9.59326172 C2.67502563 9.37321472 1.77094971 9.15316772 0.83947754 8.92645264 C-1.05172528 8.46576863 -2.94275036 8.00435452 -4.83361816 7.54229736 C-7.67723119 6.84860372 -10.522058 6.16010014 -13.3671875 5.47265625 C-14.21963043 5.26354111 -15.07207336 5.05442596 -15.9503479 4.838974 C-30.22969591 1.28495504 -30.22969591 1.28495504 -43.125 6.9375 Z " fill="#04231B" transform="translate(74.9375,194.75)"/>
<path d="M0 0 C13.76541287 -0.53747816 24.42087736 1.61583079 34.875 10.8125 C41.59291842 17.03873557 46.33728757 24.17076821 51 32 C51.49081055 32.81452637 51.98162109 33.62905273 52.48730469 34.46826172 C66.80147334 58.40993509 77.91074574 83.65883261 87 110 C87.29986816 110.85851562 87.59973633 111.71703125 87.90869141 112.6015625 C100.87976141 150.10238406 112.48127566 199.13832623 95 237 C86.29144458 253.061211 73.71898061 267.10980375 55.77441406 272.69238281 C40.93965663 277 40.93965663 277 35 277 C35.22957777 275.5590974 35.48456354 274.12222985 35.75 272.6875 C35.88921875 271.88699219 36.0284375 271.08648437 36.171875 270.26171875 C37.55998587 266.47060464 40.23721844 265.3792114 43.734375 263.640625 C44.72953125 263.18171875 45.7246875 262.7228125 46.75 262.25 C59.76042478 255.79215566 68.64825129 244.44650841 74 231 C75.5005703 226.37280586 76.77789377 221.70737216 78 217 C78.2165625 216.2575 78.433125 215.515 78.65625 214.75 C84.01448502 195.83858227 82.1673421 172.17895987 79 153 C78.83870605 151.98357422 78.67741211 150.96714844 78.51123047 149.91992188 C75.95003015 133.96220195 72.60002132 118.48573953 68 103 C67.29926033 100.5925116 66.59875341 98.18495545 65.8984375 95.77734375 C53.80774207 47.09649581 53.80774207 47.09649581 22 11 C20.30706484 10.35394219 18.5973467 9.75047601 16.875 9.1875 C10.8743525 7.08931441 5.48698885 4.18393937 0 1 C0 0.67 0 0.34 0 0 Z " fill="#088396" transform="translate(279,43)"/>
<path d="M0 0 C7.67266941 1.70168127 17.97092325 4.19366899 22.82592773 10.79467773 C26.75625945 18.84393398 22.2039317 29.83533794 19.6640625 37.84765625 C16.77670276 47.05270844 16.77670276 47.05270844 15.1640625 56.53515625 C15.90269531 56.64472656 16.64132813 56.75429687 17.40234375 56.8671875 C22.61372007 57.68167198 27.66366739 58.60512648 32.7265625 60.09765625 C48.18721168 64.45835217 66.12108231 64.67762061 80.3515625 56.84765625 C87.26504138 52.47382267 91.87795389 46.39293002 96.1640625 39.53515625 C96.4940625 40.19515625 96.8240625 40.85515625 97.1640625 41.53515625 C96.8134375 42.27765625 96.4628125 43.02015625 96.1015625 43.78515625 C94.82171229 46.57916717 94.82171229 46.57916717 96.2890625 49.47265625 C97.1640625 52.53515625 97.1640625 52.53515625 95.7265625 55.53515625 C88.41085993 64.09988121 78.55644008 70.53010069 67.1015625 71.75585938 C64.78455797 71.87791586 62.48430061 71.91433226 60.1640625 71.91015625 C59.30611084 71.90999512 58.44815918 71.90983398 57.56420898 71.90966797 C47.76529406 71.74234579 38.30451458 69.90541133 28.71484375 68.02246094 C23.55640928 67.03698666 18.36011699 66.29312197 13.1640625 65.53515625 C12.92171875 66.69273437 12.679375 67.8503125 12.4296875 69.04296875 C12.09181236 70.58217771 11.75323325 72.12123226 11.4140625 73.66015625 C11.17816406 74.80097656 11.17816406 74.80097656 10.9375 75.96484375 C9.41106196 82.77510577 6.49279397 87.89400303 1.1640625 92.53515625 C-6.98351403 95.25101509 -16.19832538 94.20121007 -23.8359375 90.53515625 C-23.3409375 89.54515625 -23.3409375 89.54515625 -22.8359375 88.53515625 C-21.9078125 88.99921875 -21.9078125 88.99921875 -20.9609375 89.47265625 C-16.64791456 90.93908405 -12.3599379 91.20134651 -7.8359375 91.53515625 C-7.8359375 90.87515625 -7.8359375 90.21515625 -7.8359375 89.53515625 C-10.1459375 88.87515625 -12.4559375 88.21515625 -14.8359375 87.53515625 C-14.8359375 87.20515625 -14.8359375 86.87515625 -14.8359375 86.53515625 C-14.08828125 86.4371875 -13.340625 86.33921875 -12.5703125 86.23828125 C-6.67664741 85.40219053 -6.67664741 85.40219053 -1.3359375 82.97265625 C2.14210395 77.3208389 3.4693405 71.06554307 4.1640625 64.53515625 C3.6278125 64.52097656 3.0915625 64.50679688 2.5390625 64.4921875 C-6.01488268 63.97163491 -13.77314953 61.24609364 -21.8359375 58.53515625 C-22.3309375 61.01015625 -22.3309375 61.01015625 -22.8359375 63.53515625 C-23.1659375 63.53515625 -23.4959375 63.53515625 -23.8359375 63.53515625 C-23.8359375 61.55515625 -23.8359375 59.57515625 -23.8359375 57.53515625 C-19.86434064 56.45459566 -17.41040593 56.67700011 -13.5234375 57.97265625 C-12.19892578 58.40384766 -12.19892578 58.40384766 -10.84765625 58.84375 C-10.18378906 59.07191406 -9.51992187 59.30007812 -8.8359375 59.53515625 C-8.95228966 57.59283657 -8.95228966 57.59283657 -9.8359375 55.53515625 C-12.11562978 54.17875251 -12.11562978 54.17875251 -14.8359375 53.16015625 C-19.697636 50.88859342 -19.697636 50.88859342 -20.9609375 47.66015625 C-20.9196875 46.62890625 -20.8784375 45.59765625 -20.8359375 44.53515625 C-20.7582029 42.20311813 -20.74626022 39.86676566 -20.8359375 37.53515625 C-21.8259375 36.87515625 -22.8159375 36.21515625 -23.8359375 35.53515625 C-24.4959375 36.52515625 -25.1559375 37.51515625 -25.8359375 38.53515625 C-25.25177976 26.26784363 -21.81795405 11.828 -14.8359375 1.53515625 C-10.1173139 -1.61059282 -5.39013177 -0.88350645 0 0 Z " fill="#03241B" transform="translate(118.8359375,92.46484375)"/>
<path d="M0 0 C3.96122972 1.32040991 4.94735724 3.68279676 6.9375 7.125 C7.32373535 7.78459717 7.7099707 8.44419434 8.10791016 9.1237793 C37.82159859 60.5522172 70.30876779 137.87063085 55.4453125 198.25341797 C52.51620483 208.9234159 48.33290392 217.89480826 42 227 C41.52304687 227.71800781 41.04609375 228.43601562 40.5546875 229.17578125 C33.38984935 239.6977291 21.81821454 249.20601527 10 254 C9.34 253.67 8.68 253.34 8 253 C8.45822468 249.53058454 8.89131683 246.32604951 10 243 C12.109375 241.53515625 12.109375 241.53515625 14.75 240.0625 C29.86291861 231.57845138 39.58889747 216.34796787 44.42749023 199.98242188 C54.45959364 163.87540578 44.77233051 122.53216949 33 88 C32.6503418 86.97003906 32.30068359 85.94007813 31.94042969 84.87890625 C27.27608847 71.2694226 22.1140613 58.01971224 16 45 C15.18615078 43.23960513 14.37235087 41.47918745 13.55859375 39.71875 C9.2870373 30.55594216 4.88790434 21.66510366 -0.50390625 13.10546875 C-2.35146115 9.27046576 -2.66642811 6.22676715 -3 2 C-2.01 2 -1.02 2 0 2 C0 1.34 0 0.68 0 0 Z " fill="#062C21" transform="translate(333,68)"/>
<path d="M0 0 C3.18460088 2.63075725 5.7511001 4.8415074 6.23828125 9.06640625 C6.45237907 16.26685382 5.32897582 22.21592369 0.45703125 27.75390625 C-10.85393189 38.08130738 -27.36719246 40.40009759 -42.1875 40.21484375 C-48.01300265 39.76984008 -52.97653427 38.31965156 -57.875 35.125 C-61.40368773 29.93575333 -64.0438968 23.14824792 -63.9765625 16.78515625 C-62.40160429 13.90613265 -59.95042035 13.27848672 -57 12 C-53.89648438 11.41015625 -53.89648438 11.41015625 -50.59375 11.0625 C-42.69422742 10.05740827 -35.15491975 8.11723692 -27.5 6 C-26.16946569 5.63990425 -24.83873676 5.28052681 -23.5078125 4.921875 C-16.6134863 3.0609289 -16.6134863 3.0609289 -9.80664062 0.91015625 C-6.27284219 -0.23580761 -3.69304169 -0.47002349 0 0 Z " fill="#078295" transform="translate(301,224)"/>
<path d="M0 0 C2.4375 1.6875 2.4375 1.6875 4.4375 4.6875 C4.51655064 7.01949388 4.52548769 9.35582622 4.4375 11.6875 C3.7775 11.6875 3.1175 11.6875 2.4375 11.6875 C2.9325 13.1725 2.9325 13.1725 3.4375 14.6875 C4.06553941 20.96789415 2.21405866 25.22115013 -0.5625 30.6875 C-1.0575 29.6975 -1.0575 29.6975 -1.5625 28.6875 C-1.0984375 27.45 -1.0984375 27.45 -0.625 26.1875 C1.08042139 20.56964131 1.4981431 15.04984146 -0.9375 9.625 C-2.42502499 7.5904385 -2.42502499 7.5904385 -4.5625 6.6875 C-9.37344753 6.44116726 -13.3133711 6.95196454 -17.9140625 8.33203125 C-19.09613281 8.67943359 -20.27820313 9.02683594 -21.49609375 9.38476562 C-22.71425781 9.75279297 -23.93242187 10.12082031 -25.1875 10.5 C-37.38872052 14.13930688 -49.47788516 17.3833652 -62.1015625 19.16015625 C-64.80106814 19.58073266 -64.80106814 19.58073266 -67.5625 21.6875 C-65.91288499 32.63272571 -65.91288499 32.63272571 -60.375 41.625 C-44.91614628 47.4650114 -27.76081162 44.31323163 -12.5625 38.6875 C-11.21913139 38.04129338 -9.8824956 37.38020039 -8.5625 36.6875 C-9.5625 39.6875 -9.5625 39.6875 -11.5625 40.6875 C-9.88421592 41.65374167 -9.88421592 41.65374167 -7.5625 41.6875 C-5.31640165 40.21931864 -3.53871323 38.52897142 -1.5625 36.6875 C-0.9025 37.0175 -0.2425 37.3475 0.4375 37.6875 C-4.06916278 42.30682935 -8.70954286 44.90000929 -14.5625 47.4375 C-15.23861328 47.73084229 -15.91472656 48.02418457 -16.61132812 48.32641602 C-24.81884916 51.77242054 -31.99163079 53.02882339 -40.875 53 C-41.85662109 53.01611328 -42.83824219 53.03222656 -43.84960938 53.04882812 C-53.29491144 53.05507915 -61.2074135 51.6346741 -68.28515625 45.08984375 C-69.5625 43.6875 -69.5625 43.6875 -70.5625 41.6875 C-71.69861837 51.89654484 -71.81489004 62.09823862 -71.85766602 72.36010742 C-71.86923319 74.28856719 -71.88975891 76.21699379 -71.91918945 78.14526367 C-72.08116653 88.80588918 -72.14534203 97.84614817 -67.5625 107.6875 C-66.8125 111.375 -66.8125 111.375 -66.5625 113.6875 C-69.9029486 113.40912928 -71.28275133 112.96724867 -73.6875 110.5625 C-78.7527824 102.79573365 -79.71693005 95.80047553 -79.6953125 86.8203125 C-79.69672241 85.95663559 -79.69813232 85.09295868 -79.69958496 84.20310974 C-79.70171543 81.4061978 -79.69544158 78.6094004 -79.6875 75.8125 C-79.6859491 74.86398163 -79.68439819 73.91546326 -79.68280029 72.9382019 C-79.6617798 62.03907578 -79.6252908 51.14170436 -79.1875 40.25 C-79.15672363 39.40904785 -79.12594727 38.5680957 -79.09423828 37.70166016 C-78.74851522 30.69395419 -78.2829267 23.05666896 -75.0625 16.75 C-68.3888241 11.24421738 -59.93923813 10.03267594 -51.67553711 8.40478516 C-44.22006255 6.90632075 -36.89951306 4.99395193 -29.5625 3 C-27.85223633 2.53533325 -27.85223633 2.53533325 -26.10742188 2.0612793 C-7.9248813 -2.91969311 -7.9248813 -2.91969311 0 0 Z " fill="#04241C" transform="translate(305.5625,218.3125)"/>
<path d="M0 0 C6.48428155 2.53896905 6.48428155 2.53896905 9.12109375 5.17578125 C9.53202828 10.38567072 8.62218977 14.90300581 7.15234375 19.859375 C6.95257935 20.5597438 6.75281494 21.26011261 6.54699707 21.98170471 C5.91363352 24.19481314 5.26761147 26.40398411 4.62109375 28.61328125 C4.18665449 30.12280379 3.75305245 31.63256756 3.3203125 33.14257812 C2.26356288 36.82317143 1.19545304 40.50029144 0.12109375 44.17578125 C-2.10262438 44.22671473 -4.32668296 44.26291337 -6.55078125 44.29296875 C-7.78924805 44.31472168 -9.02771484 44.33647461 -10.30371094 44.35888672 C-16.02176275 44.06603375 -20.81654021 42.23814729 -24.87890625 38.17578125 C-25.55314975 25.43430793 -22.19344275 11.2684296 -15.87890625 0.17578125 C-11.18553577 -2.17090399 -4.90018491 -1.40290233 0 0 Z " fill="#058296" transform="translate(124.87890625,102.82421875)"/>
<path d="M0 0 C1.41778293 2.83556587 0.86257622 4.9908706 0.5625 8.125 C0.46066406 9.22070312 0.35882813 10.31640625 0.25390625 11.4453125 C0.17011719 12.28835937 0.08632812 13.13140625 0 14 C1.32 13.67 2.64 13.34 4 13 C4.33 10.69 4.66 8.38 5 6 C5.33 6 5.66 6 6 6 C6.12297582 12.49435312 5.68591465 18.68046004 4.828125 25.11328125 C4.70574966 26.06684509 4.58337433 27.02040894 4.45729065 28.00286865 C4.19512387 30.04419748 3.93070417 32.08523802 3.66421509 34.12600708 C3.09859809 38.47721158 2.55242707 42.83079211 2.00495911 47.18431091 C0.2240118 61.34240013 0.2240118 61.34240013 -0.62841797 67.75195312 C-3.84508881 91.97039505 -5.01684083 116.24735201 -6.04956055 140.63891602 C-6.07841906 141.31522442 -6.10727757 141.99153282 -6.13701057 142.68833542 C-6.27332657 145.89012889 -6.40579734 149.09198492 -6.53137207 152.29421997 C-6.79037657 158.57474794 -7.21385184 164.76278113 -8 171 C-8.33 171 -8.66 171 -9 171 C-9.88008098 166.66478627 -9.97412431 162.95824107 -9.5625 158.5625 C-9.03853923 151.64070246 -8.85112635 144.75381805 -8.8125 137.8125 C-8.79968994 136.80840088 -8.78687988 135.80430176 -8.77368164 134.76977539 C-8.77231201 133.82094482 -8.77094238 132.87211426 -8.76953125 131.89453125 C-8.76336792 130.62379761 -8.76336792 130.62379761 -8.75708008 129.32739258 C-9.02022236 126.80625145 -9.73362247 125.17671382 -11 123 C-11.0501123 124.09127197 -11.10022461 125.18254395 -11.15185547 126.30688477 C-12.84211282 162.82311762 -12.84211282 162.82311762 -14 176.8125 C-14.0707373 177.72781494 -14.14147461 178.64312988 -14.21435547 179.58618164 C-14.5585841 183.43634501 -14.81968567 185.7295285 -17 189 C-16.35453897 172.49728803 -15.40766545 156.02981809 -14.30224609 139.55224609 C-14.10562993 136.60788246 -13.91149235 133.66336966 -13.71875 130.71875 C-13.65422134 129.7415097 -13.58969269 128.76426941 -13.52320862 127.75741577 C-13.16197924 122.11617083 -12.90005529 116.48155386 -12.71534729 110.83200073 C-12.19702509 95.64483295 -10.50491511 80.60239695 -8.80297852 65.51324463 C-8.1663552 59.85262926 -7.54462882 54.19034397 -6.92005539 48.52838898 C-6.69344554 46.4793768 -6.46508642 44.43056526 -6.23648071 42.3817749 C-5.28507391 33.8000049 -4.40275655 25.21551302 -3.70545959 16.60897827 C-2.47581712 2.47581712 -2.47581712 2.47581712 0 0 Z " fill="#04231B" transform="translate(218,144)"/>
<path d="M0 0 C0.12375 0.598125 0.2475 1.19625 0.375 1.8125 C0.95475985 4.26231348 0.95475985 4.26231348 3 7 C3.99 6.01 4.98 5.02 6 4 C5.80165558 4.60631256 5.60331116 5.21262512 5.3989563 5.83731079 C3.50171562 11.85525325 2.25627993 17.71267339 1.4296875 23.9609375 C1.30312775 24.87275787 1.17656799 25.78457825 1.0461731 26.72402954 C0.78210029 28.63777469 0.52179653 30.55204345 0.26513672 32.46679688 C-0.1232457 35.36192289 -0.52348101 38.255216 -0.92578125 41.1484375 C-7.13113577 77.94563855 -7.13113577 77.94563855 4.20703125 111.953125 C18.31094253 128.05432219 46.43549141 137.68450882 67.3125 139.625 C71 140 71 140 73 142 C68.44516846 142.09489232 64.01809955 142.07592711 59.5 141.4375 C58.345 141.293125 57.19 141.14875 56 141 C55.67 141.33 55.34 141.66 55 142 C57.31 142 59.62 142 62 142 C61.67 142.99 61.34 143.98 61 145 C53.89363904 144.45335685 47.67874555 142.42670038 41 140 C39.8972876 139.59990723 38.7945752 139.19981445 37.65844727 138.78759766 C18.88271917 131.77327422 2.91044299 122.33615888 -6.3125 103.75 C-18.09911176 74.15250824 -9.87776614 31.30079624 -1 2 C-0.67 1.34 -0.34 0.68 0 0 Z " fill="#0992A6" transform="translate(19,193)"/>
<path d="M0 0 C5.88229416 0.54719015 11.20985093 2.23178806 16.81640625 4.0625 C19.87456546 4.96306222 22.84792319 5.54496335 26 6 C26.57557674 12.47523838 24.98003613 18.22388058 22 24 C18.11659658 27.51059669 14.36559517 28.41523831 9.1328125 28.34765625 C5.31128769 27.72473371 2.69707076 25.68959965 0 23 C-3.22627449 18.09045186 -2.59092791 11.16350201 -1.546875 5.57421875 C-1.08154245 3.70291714 -0.54780482 1.84884126 0 0 Z " fill="#068599" transform="translate(97,151)"/>
<path d="M0 0 C0.33 0 0.66 0 1 0 C1.0093457 0.71953857 1.01869141 1.43907715 1.02832031 2.18041992 C1.08725414 28.24350906 1.08725414 28.24350906 14.01171875 50.046875 C28.95754804 63.14033496 53.71138748 71.80310172 73.3125 73.625 C77 74 77 74 79 76 C74.44516846 76.09489232 70.01809955 76.07592711 65.5 75.4375 C64.345 75.293125 63.19 75.14875 62 75 C61.67 75.33 61.34 75.66 61 76 C63.31 76 65.62 76 68 76 C67.505 77.485 67.505 77.485 67 79 C59.89363904 78.45335685 53.67874555 76.42670038 47 74 C45.8972876 73.59990723 44.7945752 73.19981445 43.65844727 72.78759766 C24.77561081 65.73326018 8.27120132 56.14618844 -0.4375 37.0625 C-2.59492121 31.886624 -3.10846156 27.64000089 -3 22 C-2.34 22.99 -1.68 23.98 -1 25 C-0.67 16.75 -0.34 8.5 0 0 Z " fill="#0C94A8" transform="translate(13,259)"/>
<path d="M0 0 C13.76541287 -0.53747816 24.42087736 1.61583079 34.875 10.8125 C47.80494783 22.79610802 55.70934868 39.70689261 64 55 C64.40605469 55.69907471 64.81210937 56.39814941 65.23046875 57.1184082 C66 59 66 59 65 62 C64.72325439 61.46632812 64.44650879 60.93265625 64.16137695 60.3828125 C62.88181692 57.92009216 61.59719132 55.46004721 60.3125 53 C59.87744141 52.16082031 59.44238281 51.32164063 58.99414062 50.45703125 C56.21702077 45.14964664 53.25963142 40.02588662 50 35 C49.01 35.33 48.02 35.66 47 36 C46.67 36.99 46.34 37.98 46 39 C45.5153125 38.09378906 45.030625 37.18757813 44.53125 36.25390625 C36.89978444 22.26609147 29.24315059 13.33564159 13.8984375 8.11328125 C9.00739266 6.23464543 4.52351102 3.62486133 0 1 C0 0.67 0 0.34 0 0 Z " fill="#09899B" transform="translate(279,43)"/>
<path d="M0 0 C0.33 0 0.66 0 1 0 C1.33 2.64 1.66 5.28 2 8 C2.66 7.67 3.32 7.34 4 7 C6.22497189 13.16599825 6.12152559 18.58710604 5.79296875 25.0859375 C5.74811844 26.14229401 5.70326813 27.19865051 5.65705872 28.28701782 C5.56047045 30.51449917 5.45844759 32.74175072 5.35131836 34.96875 C5.18839627 38.35636407 5.04090923 41.74436424 4.89648438 45.1328125 C4.80037972 47.30472754 4.70340307 49.4766042 4.60546875 51.6484375 C4.56060837 52.65184174 4.51574799 53.65524597 4.4695282 54.6890564 C4.18806565 60.49605707 3.70367676 66.22858671 3 72 C2.67 72 2.34 72 2 72 C1.11991902 67.66478627 1.02587569 63.95824107 1.4375 59.5625 C1.96146077 52.64070246 2.14887365 45.75381805 2.1875 38.8125 C2.20031006 37.80840088 2.21312012 36.80430176 2.22631836 35.76977539 C2.22768799 34.82094482 2.22905762 33.87211426 2.23046875 32.89453125 C2.23663208 31.62379761 2.23663208 31.62379761 2.24291992 30.32739258 C1.97977764 27.80625145 1.26637753 26.17671382 0 24 C-0.0501123 25.09127197 -0.10022461 26.18254395 -0.15185547 27.30688477 C-1.84211282 63.82311762 -1.84211282 63.82311762 -3 77.8125 C-3.0707373 78.72781494 -3.14147461 79.64312988 -3.21435547 80.58618164 C-3.5585841 84.43634501 -3.81968567 86.7295285 -6 90 C-5.31504043 72.36003784 -4.33570346 54.74181918 -3.27050781 37.12158203 C-3.04073882 33.31679848 -2.81719132 29.51167389 -2.59492493 25.70644569 C-2.42134576 22.75187118 -2.24360808 19.79755785 -2.06466675 16.84330368 C-1.98021163 15.43751464 -1.89729356 14.03163237 -1.81594849 12.62565994 C-1.70330517 10.68588959 -1.58424814 8.74649482 -1.46484375 6.80712891 C-1.399021 5.70623932 -1.33319824 4.60534973 -1.26538086 3.47109985 C-1 1 -1 1 0 0 Z " fill="#031913" transform="translate(207,243)"/>
<path d="M0 0 C2.87579981 4.31369972 4 7.80734761 4 13 C5.65 13 7.3 13 9 13 C9.33 14.32 9.66 15.64 10 17 C10.66 17 11.32 17 12 17 C14.14953359 20.52453888 14.34772319 23.60674068 14.5625 27.6875 C14.43082814 31.66270613 14.43082814 31.66270613 16 35 C16.04080783 36.99958364 16.04254356 39.00045254 16 41 C15.505 39.515 15.505 39.515 15 38 C14.34 38 13.68 38 13 38 C12.87625 38.94875 12.7525 39.8975 12.625 40.875 C12 44 12 44 10 46 C9.80365967 45.11852295 9.60731934 44.2370459 9.4050293 43.32885742 C8.66343674 40.00531114 7.91950574 36.6823052 7.17407227 33.35961914 C6.85414815 31.93143809 6.53511178 30.50305784 6.21704102 29.07446289 C4.5080852 21.40165496 2.75859555 13.77017354 0.52661133 6.2277832 C0 4 0 4 0 0 Z " fill="#04231A" transform="translate(369,161)"/>
<path d="M0 0 C0.33 0 0.66 0 1 0 C1.0093457 0.71953857 1.01869141 1.43907715 1.02832031 2.18041992 C0.89747531 26.76433783 0.89747531 26.76433783 12 48 C14.49912306 50.21841033 17.05302859 52.27461121 19.73046875 54.2734375 C21.6650315 55.74517027 23.33754962 57.23466181 25 59 C23.68 58.67 22.36 58.34 21 58 C21.433125 58.433125 21.86625 58.86625 22.3125 59.3125 C23.875 60.875 25.4375 62.4375 27 64 C15.73187897 60.81122088 7.92995417 51.72008998 2 42 C-1.57612958 35.19079979 -3.14870842 29.73283767 -3 22 C-2.34 22.99 -1.68 23.98 -1 25 C-0.67 16.75 -0.34 8.5 0 0 Z " fill="#0CA0B6" transform="translate(13,259)"/>
<path d="M0 0 C0.33 0 0.66 0 1 0 C1 18.15 1 36.3 1 55 C2.32 55 3.64 55 5 55 C5 52.69 5 50.38 5 48 C5.33 48 5.66 48 6 48 C6.09796875 48.76183594 6.1959375 49.52367187 6.296875 50.30859375 C7.18003599 56.40697265 8.34946773 61.57853636 11.1953125 67.0625 C12 69 12 69 12 73 C8.6595514 72.72162928 7.27974867 72.27974867 4.875 69.875 C-0.27175998 61.98330136 -1.15447645 54.90080287 -1.1328125 45.78125 C-1.13376923 44.88692261 -1.13472595 43.99259521 -1.13571167 43.07116699 C-1.13639113 41.17830332 -1.13455314 39.2854373 -1.13037109 37.39257812 C-1.12507001 34.53770502 -1.13029777 31.6829929 -1.13671875 28.828125 C-1.13988478 19.16792266 -0.98749074 9.61847468 0 0 Z " fill="#031710" transform="translate(227,259)"/>
<path d="M0 0 C1.65 0.33 3.3 0.66 5 1 C5.33 6.28 5.66 11.56 6 17 C5.67 17 5.34 17 5 17 C4.67 25.91 4.34 34.82 4 44 C3.67 44 3.34 44 3 44 C2.67 42.35 2.34 40.7 2 39 C1.34 39 0.68 39 0 39 C-0.8689925 33.7653547 -1.15713919 28.73931841 -1.125 23.4375 C-1.12306641 22.65971191 -1.12113281 21.88192383 -1.11914062 21.08056641 C-1.06722497 14.02436427 -0.63282252 7.0288501 0 0 Z " fill="#09889C" transform="translate(9,245)"/>
<path d="M0 0 C0.625 2.0625 0.625 2.0625 1 4 C-1.08219049 4.81542431 -3.16579761 5.62723189 -5.25 6.4375 C-6.41015625 6.88996094 -7.5703125 7.34242188 -8.765625 7.80859375 C-15.98334324 10.46729431 -22.4767145 10.5046571 -30 9 C-29.34 8.67 -28.68 8.34 -28 8 C-27.34786708 5.97536745 -27.34786708 5.97536745 -27 4 C-22.87720051 3.13496818 -18.75147285 2.28482041 -14.625 1.4375 C-12.8615625 1.0672168 -12.8615625 1.0672168 -11.0625 0.68945312 C-9.94101562 0.46064453 -8.81953125 0.23183594 -7.6640625 -0.00390625 C-6.62717285 -0.21861572 -5.5902832 -0.4333252 -4.52197266 -0.65454102 C-2 -1 -2 -1 0 0 Z " fill="#052A21" transform="translate(292,261)"/>
<path d="M0 0 C2.41748481 3.72713041 2.27384139 7.39874483 2.23046875 11.6875 C2.23001053 12.42701904 2.22955231 13.16653809 2.2290802 13.9284668 C2.22606581 15.48846038 2.21820385 17.04845117 2.20581055 18.60839844 C2.18756396 20.99164538 2.18530097 23.374503 2.18554688 25.7578125 C2.18063068 27.27604501 2.17480192 28.7942749 2.16796875 30.3125 C2.16685593 31.02301514 2.1657431 31.73353027 2.16459656 32.46557617 C2.13288905 35.78297768 2.02211694 38.82710432 1 42 C-0.98 42.495 -0.98 42.495 -3 43 C-3.11144059 34.13428182 -3.01289587 25.295691 -2.625 16.4375 C-2.59414307 15.60573242 -2.56328613 14.77396484 -2.53149414 13.91699219 C-2.29171673 8.9738886 -1.55281401 4.70262778 0 0 Z " fill="#042D23" transform="translate(173,249)"/>
<path d="M0 0 C0.33 0 0.66 0 1 0 C1 8.91 1 17.82 1 27 C1.33 21.72 1.66 16.44 2 11 C2.33 11 2.66 11 3 11 C3.33 14.63 3.66 18.26 4 22 C4.33 22 4.66 22 5 22 C5.02929977 25.35414799 5.0468989 28.70826253 5.0625 32.0625 C5.07087891 33.00544922 5.07925781 33.94839844 5.08789062 34.91992188 C5.10581103 40.0630768 4.89259611 44.93258427 4 50 C2.68 50 1.36 50 0 50 C-0.9938422 42.57773406 -1.15420523 35.29581951 -1.125 27.8125 C-1.12306641 26.62100342 -1.12113281 25.42950684 -1.11914062 24.2019043 C-1.07930149 16.09519382 -0.83520862 8.06871184 0 0 Z " fill="#053129" transform="translate(228,264)"/>
<path d="M0 0 C0.66 0.33 1.32 0.66 2 1 C2 15.52 2 30.04 2 45 C2.66 45.33 3.32 45.66 4 46 C3.34 46 2.68 46 2 46 C2.15847412 46.49854492 2.31694824 46.99708984 2.48022461 47.51074219 C3.1955039 50.93628827 3.23584074 54.34247117 3.31640625 57.828125 C3.33718735 58.57713074 3.35796844 59.32613647 3.37937927 60.09783936 C3.44457088 62.48180288 3.50361783 64.86587312 3.5625 67.25 C3.60571416 68.86980254 3.64932937 70.48959443 3.69335938 72.109375 C3.80022096 76.07280832 3.90157333 80.0363486 4 84 C3.34 84 2.68 84 2 84 C1.67 80.7 1.34 77.4 1 74 C0.67 74 0.34 74 0 74 C-1.06059488 66.31068715 -1.09928082 58.75493514 -1 51 C-0.67 51 -0.34 51 0 51 C0 48.03 0 45.06 0 42 C-0.33 42 -0.66 42 -1 42 C-0.67 28.14 -0.34 14.28 0 0 Z " fill="#165045" transform="translate(316,140)"/>
<path d="M0 0 C1.32 0.66 2.64 1.32 4 2 C4.33 1.67 4.66 1.34 5 1 C9.85110358 5.41009417 13.348107 10.58004353 17 16 C16.67 16.66 16.34 17.32 16 18 C14.66666667 18.33333333 13.33333333 18.66666667 12 19 C11.67 19.66 11.34 20.32 11 21 C10.31292969 20.03578125 9.62585938 19.0715625 8.91796875 18.078125 C8.00783788 16.80206523 7.09768022 15.52602457 6.1875 14.25 C5.50977539 13.29867187 5.50977539 13.29867187 4.81835938 12.328125 C2.58023369 9.19148171 0.33201302 6.06803042 -2 3 C-1.34 3 -0.68 3 0 3 C0 2.01 0 1.02 0 0 Z " fill="#083328" transform="translate(318,51)"/>
<path d="M0 0 C0.33 0 0.66 0 1 0 C1.02505615 0.69150146 1.0501123 1.38300293 1.07592773 2.09545898 C1.19152161 5.20967866 1.31441242 8.32356789 1.4375 11.4375 C1.47681641 12.52611328 1.51613281 13.61472656 1.55664062 14.73632812 C1.59853516 15.77080078 1.64042969 16.80527344 1.68359375 17.87109375 C1.73858032 19.30859985 1.73858032 19.30859985 1.79467773 20.77514648 C1.75834424 22.97138925 1.75834424 22.97138925 3 24 C3.11348035 26.51182547 3.16418217 28.99506731 3.16796875 31.5078125 C3.17129715 32.26665741 3.17462555 33.02550232 3.17805481 33.80734253 C3.18313016 35.41973259 3.18546295 37.03213321 3.18530273 38.64453125 C3.18747248 41.09393115 3.2055745 43.5428684 3.22460938 45.9921875 C3.22754666 47.5598943 3.22952921 49.12760323 3.23046875 50.6953125 C3.23765427 51.42162872 3.24483978 52.14794495 3.25224304 52.89627075 C3.23117154 57.66974148 2.48219883 61.51705531 1 66 C0.67 66 0.34 66 0 66 C0 44.22 0 22.44 0 0 Z " fill="#0F3428" transform="translate(318,231)"/>
<path d="M0 0 C5.60726423 -0.29003091 9.1241995 -0.13444318 14 3 C16.4294516 6.6441774 16.16179575 8.71241272 16 13 C15.34 13 14.68 13 14 13 C14.33 13.99 14.66 14.98 15 16 C15.62803941 22.28039415 13.77655866 26.53365013 11 32 C10.67 31.34 10.34 30.68 10 30 C10.309375 29.175 10.61875 28.35 10.9375 27.5 C12.627318 21.9335407 12.75824575 16.59969971 11.125 11 C7.71480399 7.79040376 3.53391135 7.56992882 -1 7 C-0.01 6.34 0.98 5.68 2 5 C3.01868662 4.01904252 4.02351983 3.02297922 5 2 C3.35 1.67 1.7 1.34 0 1 C0 0.67 0 0.34 0 0 Z " fill="#041E16" transform="translate(294,217)"/>
<path d="M0 0 C0.33 0 0.66 0 1 0 C1.1786998 7.36553971 0.4871928 14.44707729 -0.4375 21.75 C-0.57220703 22.85988281 -0.70691406 23.96976563 -0.84570312 25.11328125 C-1.42177699 29.78369477 -2.02844898 34.3931198 -3 39 C-3.33 39 -3.66 39 -4 39 C-4.12375 37.88625 -4.2475 36.7725 -4.375 35.625 C-4.6465813 31.96896323 -4.6465813 31.96896323 -7 30 C-7.66 34.62 -8.32 39.24 -9 44 C-9.33 44 -9.66 44 -10 44 C-10.23950618 33.7544577 -9.77203196 24.12589689 -8 14 C-7.67 14 -7.34 14 -7 14 C-6.67 16.64 -6.34 19.28 -6 22 C-5.01 21.67 -4.02 21.34 -3 21 C-2.83069605 19.10440036 -2.66467136 17.20850769 -2.5 15.3125 C-2.4071875 14.25675781 -2.314375 13.20101562 -2.21875 12.11328125 C-2.0276585 9.39363975 -1.95956065 6.72460144 -2 4 C-1.34 4 -0.68 4 0 4 C0 2.68 0 1.36 0 0 Z " fill="#031611" transform="translate(220,173)"/>
<path d="M0 0 C0.66 0 1.32 0 2 0 C3.5078125 1.75 3.5078125 1.75 5.125 4 C5.66382813 4.7425 6.20265625 5.485 6.7578125 6.25 C7.16773438 6.8275 7.57765625 7.405 8 8 C8.33 6.35 8.66 4.7 9 3 C12.25429833 5.99096797 14.37818491 9.03607727 16.56640625 12.8671875 C17.21673828 14.00027344 17.86707031 15.13335937 18.53710938 16.30078125 C19.21223958 17.4921875 19.88736979 18.68359375 20.5625 19.875 C21.24098702 21.0589088 21.92001876 22.2425056 22.59960938 23.42578125 C24.41820532 26.60787266 26.23237083 29.78930708 28 33 C28.58644287 34.05461426 29.17288574 35.10922852 29.77709961 36.19580078 C31 39 31 39 30 42 C29.72325439 41.46632812 29.44650879 40.93265625 29.16137695 40.3828125 C27.88181692 37.92009216 26.59719132 35.46004721 25.3125 33 C24.87744141 32.16082031 24.44238281 31.32164063 23.99414062 30.45703125 C21.21702077 25.14964664 18.25963142 20.02588662 15 15 C14.01 15.33 13.02 15.66 12 16 C11.67 16.99 11.34 17.98 11 19 C10.45730469 18.04738281 9.91460937 17.09476563 9.35546875 16.11328125 C8.63284161 14.84633756 7.91018373 13.57941141 7.1875 12.3125 C6.83107422 11.68666016 6.47464844 11.06082031 6.10742188 10.41601562 C4.1116542 6.91884475 2.08731295 3.44373714 0 0 Z " fill="#0A97AC" transform="translate(314,63)"/>
<path d="M0 0 C0.33 0 0.66 0 1 0 C3.38771585 19.56318256 4.84150143 37.46467768 2 57 C1.67 57 1.34 57 1 57 C0.80372609 55.41773035 0.61834462 53.83410729 0.4375 52.25 C0.33308594 51.36828125 0.22867187 50.4865625 0.12109375 49.578125 C0 47 0 47 0.5 45.18139648 C1.1074431 42.53124798 1.01221258 40.23510661 0.87890625 37.51953125 C0.83048584 36.44493652 0.78206543 35.3703418 0.73217773 34.26318359 C0.67618408 33.12445801 0.62019043 31.98573242 0.5625 30.8125 C0.10591356 20.53037344 -0.12899159 10.29066276 0 0 Z " fill="#124237" transform="translate(387,207)"/>
<path d="M0 0 C2.0625 0.4375 2.0625 0.4375 4 1 C5.2870655 4.57887246 4.7233248 6.58526266 3.3125 10.0625 C2.97863281 10.91972656 2.64476562 11.77695313 2.30078125 12.66015625 C0.86838573 15.23674758 -0.54123418 16.42121352 -3 18 C-2.731875 17.505 -2.46375 17.01 -2.1875 16.5 C0.94022513 10.0056698 0.94022513 10.0056698 2 3 C1.34 3 0.68 3 0 3 C-0.3403125 3.78503906 -0.680625 4.57007813 -1.03125 5.37890625 C-4.26544739 12.38920112 -7.46805432 17.69643664 -14 22 C-17.7697838 23.2565946 -21.43897735 23.40795484 -25.375 23.625 C-26.17341309 23.67003662 -26.97182617 23.71507324 -27.79443359 23.76147461 C-34.61221316 24.08960669 -41.21273601 23.77945611 -48 23 C-48 22.67 -48 22.34 -48 22 C-46.73724243 21.97812622 -46.73724243 21.97812622 -45.44897461 21.95581055 C-42.2970731 21.89440846 -39.14579539 21.82019269 -35.99438477 21.73754883 C-34.63577457 21.70449066 -33.27703334 21.67640039 -31.91821289 21.65356445 C-19.58870068 21.67670284 -19.58870068 21.67670284 -9.4375 15.5 C-6.56187764 11.72634274 -4.42941078 7.48503451 -2.234375 3.29296875 C-1 1 -1 1 0 0 Z " fill="#03100B" transform="translate(155,232)"/>
<path d="M0 0 C0.33 1.32 0.66 2.64 1 4 C-8.24 4.33 -17.48 4.66 -27 5 C-27 4.01 -27 3.02 -27 2 C-25.02 1.67 -23.04 1.34 -21 1 C-21 0.67 -21 0.34 -21 0 C-18.06281233 -0.19461488 -15.12550068 -0.38097593 -12.1875 -0.5625 C-11.35412109 -0.61857422 -10.52074219 -0.67464844 -9.66210938 -0.73242188 C-8.85966797 -0.78076172 -8.05722656 -0.82910156 -7.23046875 -0.87890625 C-6.49207764 -0.9260376 -5.75368652 -0.97316895 -4.99291992 -1.02172852 C-3 -1 -3 -1 0 0 Z " fill="#042D24" transform="translate(138,333)"/>
<path d="M0 0 C0 0.99 0 1.98 0 3 C-0.66 3.33 -1.32 3.66 -2 4 C-0.32171592 4.96624167 -0.32171592 4.96624167 2 5 C4.24609835 3.53181864 6.02378677 1.84147142 8 0 C8.66 0.33 9.32 0.66 10 1 C5.54831603 5.30284347 2.10419901 7.7542451 -4 9 C-4.66 8.01 -5.32 7.02 -6 6 C-7.07894531 6.28875 -8.15789062 6.5775 -9.26953125 6.875 C-17.71999636 9.01235863 -25.76067292 10.38845935 -34.5 10.375 C-35.31831299 10.37628906 -36.13662598 10.37757813 -36.97973633 10.37890625 C-42.72842041 10.27157959 -42.72842041 10.27157959 -45 8 C-43.5459375 8.05220703 -43.5459375 8.05220703 -42.0625 8.10546875 C-28.60939138 8.43578305 -11.49769522 7.66513015 0 0 Z " fill="#03130E" transform="translate(296,255)"/>
<path d="M0 0 C0.66 1.32 1.32 2.64 2 4 C2.66 4.66 3.32 5.32 4 6 C4.30059943 8.36509361 4.49515012 10.74441881 4.625 13.125 C4.69976562 14.40632812 4.77453125 15.68765625 4.8515625 17.0078125 C4.90054688 17.99523437 4.94953125 18.98265625 5 20 C4.01 19.67 3.02 19.34 2 19 C1.67 19.66 1.34 20.32 1 21 C0.34 21 -0.32 21 -1 21 C-1 23.64 -1 26.28 -1 29 C-1.33 29 -1.66 29 -2 29 C-2.33 23.72 -2.66 18.44 -3 13 C-2.67 13 -2.34 13 -2 13 C-1.34 8.71 -0.68 4.42 0 0 Z " fill="#052E25" transform="translate(212,199)"/>
<path d="M0 0 C0.12375 0.598125 0.2475 1.19625 0.375 1.8125 C0.95475985 4.26231348 0.95475985 4.26231348 3 7 C3.99 6.01 4.98 5.02 6 4 C5.80664062 4.59425781 5.61328125 5.18851563 5.4140625 5.80078125 C3.42266784 12.13972563 2.05948769 18.44364086 1 25 C0.67 25 0.34 25 0 25 C-0.33 22.03 -0.66 19.06 -1 16 C-1.99 17.32 -2.98 18.64 -4 20 C-3.6143354 12.88515313 -2.60900601 6.64558134 0 0 Z " fill="#0993A7" transform="translate(19,193)"/>
<path d="M0 0 C0.33 0 0.66 0 1 0 C1.79585256 10.687163 2.12825004 21.28399677 2 32 C1.34 31.01 0.68 30.02 0 29 C-2.37652581 26.39348783 -3.61113222 25.12962259 -7 24 C-9.57265818 23.92970879 -12.11641431 23.90629168 -14.6875 23.9375 C-15.38939453 23.94201172 -16.09128906 23.94652344 -16.81445312 23.95117188 C-18.54300538 23.96293073 -20.27151365 23.98086546 -22 24 C-17.30772564 20.87181709 -13.63288555 20.70864385 -8 21 C-4.5625 22 -4.5625 22 -2 23 C-0.79729036 20.59458071 -0.79683337 18.89633409 -0.68359375 16.2109375 C-0.64169922 15.26992187 -0.59980469 14.32890625 -0.55664062 13.359375 C-0.51732422 12.37453125 -0.47800781 11.3896875 -0.4375 10.375 C-0.39431641 9.38242188 -0.35113281 8.38984375 -0.30664062 7.3671875 C-0.20038931 4.91160162 -0.09835036 2.45591297 0 0 Z " fill="#0B9AB0" transform="translate(309,194)"/>
<path d="M0 0 C0.66 0.33 1.32 0.66 2 1 C2 15.52 2 30.04 2 45 C2.66 45.33 3.32 45.66 4 46 C3.34 46 2.68 46 2 46 C1.67 47.32 1.34 48.64 1 50 C0.67 47.36 0.34 44.72 0 42 C-0.33 42 -0.66 42 -1 42 C-0.67 28.14 -0.34 14.28 0 0 Z " fill="#1D655B" transform="translate(316,140)"/>
<path d="M0 0 C2.73050362 2.73050362 2.4613484 4.62984574 2.75 8.4375 C2.84796875 9.59121094 2.9459375 10.74492187 3.046875 11.93359375 C3 15 3 15 1 18 C0.61500109 19.65549531 0.27206865 21.3222433 0 23 C-1.48828125 22.01171875 -1.48828125 22.01171875 -3 20 C-3.21714241 17.18872957 -3.28284276 14.6116655 -3.1875 11.8125 C-3.17396484 11.06291016 -3.16042969 10.31332031 -3.14648438 9.54101562 C-3.11118539 7.69370233 -3.05737917 5.84675934 -3 4 C-2.34 3.67 -1.68 3.34 -1 3 C-0.67 2.01 -0.34 1.02 0 0 Z " fill="#067E8F" transform="translate(17,207)"/>
<path d="M0 0 C4.04745741 0.73343188 8.0423483 0.76293576 12.1484375 0.84375 C13.02920456 0.8645311 13.90997162 0.88531219 14.81742859 0.90672302 C17.61909504 0.97188312 20.42085182 1.03094696 23.22265625 1.08984375 C25.12696231 1.1330609 27.03125937 1.17667619 28.93554688 1.22070312 C33.59365843 1.32752998 38.25186047 1.42889115 42.91015625 1.52734375 C42.91015625 1.85734375 42.91015625 2.18734375 42.91015625 2.52734375 C32.76435334 3.55137665 22.7830669 3.52702423 12.59765625 3.15234375 C11.41848633 3.10924072 10.23931641 3.0661377 9.02441406 3.02172852 C1.96152349 2.73165614 -5.05763095 2.24617235 -12.08984375 1.52734375 C-12.08984375 1.19734375 -12.08984375 0.86734375 -12.08984375 0.52734375 C-10.52852066 0.33028355 -8.96569111 0.1451422 -7.40234375 -0.03515625 C-6.53222656 -0.13957031 -5.66210938 -0.24398438 -4.765625 -0.3515625 C-2.08984375 -0.47265625 -2.08984375 -0.47265625 0 0 Z " fill="#224431" transform="translate(159.08984375,362.47265625)"/>
<path d="M0 0 C2.475 0.495 2.475 0.495 5 1 C5.33 6.28 5.66 11.56 6 17 C5.01 17 4.02 17 3 17 C2.67 20.96 2.34 24.92 2 29 C1.67 29 1.34 29 1 29 C0.67 19.43 0.34 9.86 0 0 Z " fill="#077B8B" transform="translate(9,245)"/>
<path d="M0 0 C0 0.66 0 1.32 0 2 C-1.98 2.33 -3.96 2.66 -6 3 C-6.02578125 4.29035156 -6.0515625 5.58070312 -6.078125 6.91015625 C-6.13443583 8.62763661 -6.19178248 10.34508322 -6.25 12.0625 C-6.26417969 12.91005859 -6.27835937 13.75761719 -6.29296875 14.63085938 C-6.52101706 20.53731064 -7.67515362 24.09917644 -11 29 C-12.36206217 26.27587565 -11.37881522 24.86346874 -10.52050781 22.08154297 C-9.57408307 18.29673184 -9.52524278 14.44690185 -9.375 10.5625 C-9.33632813 9.73556641 -9.29765625 8.90863281 -9.2578125 8.05664062 C-9.16446908 6.03808927 -9.08119039 4.01907669 -9 2 C-5.78360346 0.25434889 -3.67986596 -0.204437 0 0 Z " fill="#099CB3" transform="translate(270,63)"/>
<path d="M0 0 C1.6875 1.515625 1.6875 1.515625 3 3 C1.95199219 3.25523437 1.95199219 3.25523437 0.8828125 3.515625 C-0.02726562 3.75796875 -0.93734375 4.0003125 -1.875 4.25 C-2.77992187 4.48203125 -3.68484375 4.7140625 -4.6171875 4.953125 C-7.48392149 6.21260813 -7.83995481 7.18435634 -9 10 C-9.99 10.495 -9.99 10.495 -11 11 C-11.66 8.69 -12.32 6.38 -13 4 C-8.71831554 0.60418129 -5.50586983 -0.45882249 0 0 Z " fill="#052F26" transform="translate(42,192)"/>
<path d="M0 0 C0.33 0 0.66 0 1 0 C1.43264721 7.35500255 -0.18699995 13.89830033 -2 21 C-2.185625 21.7425 -2.37125 22.485 -2.5625 23.25 C-3.04166667 25.16666667 -3.52083333 27.08333333 -4 29 C-4.66 29 -5.32 29 -6 29 C-6.33 29.99 -6.66 30.98 -7 32 C-6.4003591 24.7208149 -4.85155267 17.97641759 -2.9375 10.9375 C-2.65583984 9.88111328 -2.37417969 8.82472656 -2.08398438 7.73632812 C-1.39510271 5.15594085 -0.70034171 2.57729586 0 0 Z " fill="#113A2D" transform="translate(14,178)"/>
<path d="M0 0 C1.125 1.625 1.125 1.625 2 4 C1.69578125 4.88558594 1.3915625 5.77117187 1.078125 6.68359375 C-0.96809539 12.9779456 -1.44224514 21.19826596 0.93359375 27.4609375 C1.88412406 29.01993878 2.93219767 30.51885483 4 32 C3.67 32.66 3.34 33.32 3 34 C-3.10560806 27.08031086 -3.41537003 20.87381431 -3 12 C-2.70555405 7.68385324 -2.34312186 3.74899497 0 0 Z " fill="#031B18" transform="translate(90,147)"/>
<path d="M0 0 C8.4569038 -0.33020449 17.43142302 -0.18911935 25 4 C21.45569466 5.18143511 19.52578712 4.44758723 16.0078125 3.48046875 C13.62979646 2.91141044 11.43536832 2.84778948 9 3 C9.33 3.66 9.66 4.32 10 5 C8.51800098 4.55090939 7.03944764 4.09043436 5.5625 3.625 C4.73878906 3.36976562 3.91507812 3.11453125 3.06640625 2.8515625 C1 2 1 2 0 0 Z " fill="#0D9EB3" transform="translate(279,43)"/>
<path d="M0 0 C1.98 0 3.96 0 6 0 C5.29875 0.598125 4.5975 1.19625 3.875 1.8125 C1.24536707 4.40499122 -0.29925352 7.23509548 -2 10.5 C-6.09398263 18.20998759 -6.09398263 18.20998759 -10 21 C-12.73271751 21.6691327 -15.16598622 21.8558976 -18 22 C-17.46375 21.7525 -16.9275 21.505 -16.375 21.25 C-6.86128109 16.24277952 -3.36417089 9.91545104 0 0 Z " fill="#0B9CB5" transform="translate(152,231)"/>
<path d="M0 0 C0.33 0.99 0.66 1.98 1 3 C1.99 3.33 2.98 3.66 4 4 C3.34 4 2.68 4 2 4 C2.28875 5.19625 2.5775 6.3925 2.875 7.625 C4.30782464 14.02153856 5.13183438 20.50722946 6 27 C5.34 27 4.68 27 4 27 C3.67 22.71 3.34 18.42 3 14 C2.34 14 1.68 14 1 14 C0.06380187 10.84493858 -0.1057123 8.03413498 -0.0625 4.75 C-0.05347656 3.85796875 -0.04445313 2.9659375 -0.03515625 2.046875 C-0.02355469 1.37140625 -0.01195312 0.6959375 0 0 Z " fill="#164C42" transform="translate(310,91)"/>
<path d="M0 0 C0.66 0 1.32 0 2 0 C2 13.2 2 26.4 2 40 C1.67 40 1.34 40 1 40 C1 27.79 1 15.58 1 3 C0.34 3 -0.32 3 -1 3 C-0.67 2.01 -0.34 1.02 0 0 Z " fill="#11A1B5" transform="translate(310,251)"/>
<path d="M0 0 C2.23915618 3.35873427 3.69032729 6.8389434 5.1875 10.5625 C5.47302734 11.24763672 5.75855469 11.93277344 6.05273438 12.63867188 C6.76394161 14.4019813 7.38874045 16.19960071 8 18 C7.67 18.66 7.34 19.32 7 20 C3.74046872 18.37023436 3.09897682 14.92336759 1.8125 11.6875 C1.52697266 11.01009766 1.24144531 10.33269531 0.94726562 9.63476562 C-1.07770699 4.59450531 -1.07770699 4.59450531 -0.67578125 1.51953125 C-0.45277344 1.01808594 -0.22976563 0.51664062 0 0 Z " fill="#0F372C" transform="translate(361,118)"/>
<path d="M0 0 C0.33 0 0.66 0 1 0 C1.05830787 3.39576062 1.09369946 6.7913915 1.125 10.1875 C1.15013672 11.62706055 1.15013672 11.62706055 1.17578125 13.09570312 C1.18222656 14.02705078 1.18867188 14.95839844 1.1953125 15.91796875 C1.20578613 16.77156982 1.21625977 17.6251709 1.22705078 18.50463867 C0.97204194 21.30726815 0.15541422 23.44729419 -1 26 C-1.33 26 -1.66 26 -2 26 C-2.23737365 17.08530089 -1.79362465 8.74392018 0 0 Z " fill="#0B9EB7" transform="translate(217,212)"/>
<path d="M0 0 C0.33 0 0.66 0 1 0 C0.03644647 10.55808656 0.03644647 10.55808656 -1 15 C-1.33 15 -1.66 15 -2 15 C-2 12.36 -2 9.72 -2 7 C-3.65 8.65 -5.3 10.3 -7 12 C-7.66 11.67 -8.32 11.34 -9 11 C-8.51789063 10.45730469 -8.03578125 9.91460937 -7.5390625 9.35546875 C-6.90742188 8.64003906 -6.27578125 7.92460937 -5.625 7.1875 C-4.68527344 6.12595703 -4.68527344 6.12595703 -3.7265625 5.04296875 C-1.859401 2.91196181 -1.859401 2.91196181 0 0 Z " fill="#0DA6BE" transform="translate(216,144)"/>
<path d="M0 0 C0.33 0 0.66 0 1 0 C1.02578125 0.61488281 1.0515625 1.22976562 1.078125 1.86328125 C1.2961687 6.74358113 1.2961687 6.74358113 3.5625 10.875 C6.98443139 12.45435295 10.44140805 13.75449282 14 15 C11.38104859 15.98286988 10.17098804 16.05279354 7.45703125 15.21484375 C0.3000038 11.75790435 0.3000038 11.75790435 -1.1875 8 C-1.01425806 5.22812889 -0.71053158 2.6842304 0 0 Z " fill="#03120D" transform="translate(99,132)"/>
<path d="M0 0 C2.64 0 5.28 0 8 0 C8 0.66 8 1.32 8 2 C8.99 2.66 9.98 3.32 11 4 C10.01 5.485 10.01 5.485 9 7 C5.66666667 5.33333333 2.33333333 3.66666667 -1 2 C-0.67 1.34 -0.34 0.68 0 0 Z " fill="#098192" transform="translate(56,327)"/>
<path d="M0 0 C1 2 1 2 0.8125 4.1875 C1.00963123 7.1444685 1.55946806 8.21676256 3.0625 10.6875 C3.701875 11.780625 4.34125 12.87375 5 14 C4.67 14.66 4.34 15.32 4 16 C0.12205672 12.7683806 -0.95160018 9.89253251 -2 5 C-2 3.68 -2 2.36 -2 1 C-1.34 0.67 -0.68 0.34 0 0 Z " fill="#0A8798" transform="translate(15,289)"/>
<path d="M0 0 C-6.52940894 2.95671348 -11.87399867 3.35368021 -19 3 C-15.88069175 1.2564244 -13.00889549 0.45354822 -9.5 -0.1875 C-8.5615625 -0.36667969 -7.623125 -0.54585938 -6.65625 -0.73046875 C-4.08888646 -0.99098064 -2.42584742 -0.80670869 0 0 Z " fill="#122D1C" transform="translate(230,359)"/>
<path d="M0 0 C3 1 3 1 4.1328125 2.7421875 C4.46023437 3.44601562 4.78765625 4.14984375 5.125 4.875 C5.45757813 5.57367188 5.79015625 6.27234375 6.1328125 6.9921875 C7 9 7 9 8 12 C8.66 12 9.32 12 10 12 C9.67 13.32 9.34 14.64 9 16 C1.33257403 5.62642369 1.33257403 5.62642369 0 0 Z " fill="#15382A" transform="translate(5,299)"/>
<path d="M0 0 C0.33 0 0.66 0 1 0 C1.50802981 2.79416394 1.34912792 4.47353726 -0.23046875 6.85546875 C-4.34375 11.78125 -4.34375 11.78125 -8 13 C-6.42903279 7.97290493 -3.38006951 3.97133531 0 0 Z " fill="#103B2F" transform="translate(64,34)"/>
<path d="M0 0 C3.3 0.66 6.6 1.32 10 2 C10 2.99 10 3.98 10 5 C6.04 4.67 2.08 4.34 -2 4 C-1.34 2.68 -0.68 1.36 0 0 Z " fill="#097B89" transform="translate(128,326)"/>
<path d="M0 0 C0.33 0.99 0.66 1.98 1 3 C-0.3125 5.1875 -0.3125 5.1875 -2 7 C-2.66 7 -3.32 7 -4 7 C-4.33 7.99 -4.66 8.98 -5 10 C-6.32 9.67 -7.64 9.34 -9 9 C-8.175 8.236875 -7.35 7.47375 -6.5 6.6875 C-3.65944803 4.24565858 -3.65944803 4.24565858 -4 1 C-2.68 0.67 -1.36 0.34 0 0 Z " fill="#113E32" transform="translate(337,285)"/>
<path d="M0 0 C1.62433191 2.50076998 2.07333427 3.58982529 1.5390625 6.578125 C1.23742187 7.45984375 0.93578125 8.3415625 0.625 9.25 C0.32851563 10.14203125 0.03203125 11.0340625 -0.2734375 11.953125 C-0.51320313 12.62859375 -0.75296875 13.3040625 -1 14 C-1.66 14 -2.32 14 -3 14 C-3.33 14.99 -3.66 15.98 -4 17 C-3.35729017 11.0870696 -1.80996216 5.65755469 0 0 Z " fill="#113C30" transform="translate(19,161)"/>
<path d="M0 0 C0 0.66 0 1.32 0 2 C-1.98 2.33 -3.96 2.66 -6 3 C-6.66 6.96 -7.32 10.92 -8 15 C-8.33 15 -8.66 15 -9 15 C-9 10.71 -9 6.42 -9 2 C-5.23312136 0.11656068 -3.97041037 -0.22057835 0 0 Z " fill="#0A94A9" transform="translate(270,63)"/>
<path d="M0 0 C0.33 0 0.66 0 1 0 C1 5.94 1 11.88 1 18 C0.34 18 -0.32 18 -1 18 C-1.33 18.99 -1.66 19.98 -2 21 C-1.03644647 6.21867882 -1.03644647 6.21867882 0 0 Z " fill="#1E4F40" transform="translate(4,220)"/>
<path d="M0 0 C0.58652344 0.32613281 1.17304687 0.65226563 1.77734375 0.98828125 C1.05289063 1.03726563 0.3284375 1.08625 -0.41796875 1.13671875 C-5.63724492 1.54034277 -10.32079283 2.00103932 -15.22265625 3.98828125 C-11.60100728 -1.35796246 -6.09149765 -2.77275552 0 0 Z " fill="#0C96AA" transform="translate(48.22265625,198.01171875)"/>
<path d="M0 0 C0 0.66 0 1.32 0 2 C-1.7902061 2.67057887 -3.58221489 3.3363469 -5.375 4 C-6.37273437 4.37125 -7.37046875 4.7425 -8.3984375 5.125 C-11 6 -11 6 -13 6 C-12.67 5.01 -12.34 4.02 -12 3 C-10.0390625 2.05078125 -10.0390625 2.05078125 -7.625 1.3125 C-6.83351563 1.06113281 -6.04203125 0.80976563 -5.2265625 0.55078125 C-3 0 -3 0 0 0 Z " fill="#193B2A" transform="translate(284,340)"/>
<path d="M0 0 C1.34173403 0.92543709 2.67320159 1.86577405 4 2.8125 C5.11375 3.59560547 5.11375 3.59560547 6.25 4.39453125 C6.8275 4.92433594 7.405 5.45414062 8 6 C8 6.99 8 7.98 8 9 C4.11980141 7.74155722 2.0588158 6.57583797 0 3 C0 2.01 0 1.02 0 0 Z " fill="#0B889A" transform="translate(22,307)"/>
<path d="M0 0 C2 3 2 3 1.625 5.6875 C1.41875 6.450625 1.2125 7.21375 1 8 C0.34 8 -0.32 8 -1 8 C-0.67 10.64 -0.34 13.28 0 16 C-2.34391133 12.48413301 -3.35906449 9.8979123 -2.5625 5.6875 C-2.376875 5.130625 -2.19125 4.57375 -2 4 C-1.34 4 -0.68 4 0 4 C0 2.68 0 1.36 0 0 Z " fill="#03271B" transform="translate(345,146)"/>
<path d="M0 0 C1.65 0.33 3.3 0.66 5 1 C1.98509443 3.00993705 -0.2149927 3.72623341 -3.6875 4.625 C-4.68136719 4.88539063 -5.67523438 5.14578125 -6.69921875 5.4140625 C-7.45847656 5.60742188 -8.21773437 5.80078125 -9 6 C-9.33 5.34 -9.66 4.68 -10 4 C-5.05 2.515 -5.05 2.515 0 1 C0 0.67 0 0.34 0 0 Z " fill="#1E3C29" transform="translate(252,350)"/>
<path d="M0 0 C7.63076923 1.47692308 7.63076923 1.47692308 9.5 4.125 C9.665 4.74375 9.83 5.3625 10 6 C5.26886581 6 3.67452438 4.8394052 0 2 C0 1.34 0 0.68 0 0 Z " fill="#0A7F90" transform="translate(33,316)"/>
<path d="M0 0 C-0.33 0.66 -0.66 1.32 -1 2 C-4.0625 2.625 -4.0625 2.625 -7 3 C-7.33 3.99 -7.66 4.98 -8 6 C-8.33 6 -8.66 6 -9 6 C-9 3.69 -9 1.38 -9 -1 C-5.23375329 -2.25541557 -3.62811066 -1.37061958 0 0 Z " fill="#206962" transform="translate(328,295)"/>
<path d="M0 0 C1.86551426 3.58752742 3.42535928 7.27812193 5 11 C4.34 11.66 3.68 12.32 3 13 C2.13624104 11.38007835 1.28424146 9.75388139 0.4375 8.125 C-0.27599609 6.76761719 -0.27599609 6.76761719 -1.00390625 5.3828125 C-1.33261719 4.59648438 -1.66132813 3.81015625 -2 3 C-1 1 -1 1 0 0 Z " fill="#0F3F35" transform="translate(318,79)"/>
<path d="M0 0 C5.852795 0.51482919 11.3297637 1.45357192 17 3 C13.66827126 5.06397117 11.7383836 5.12083271 7.9375 4.3125 C7.08027344 4.14363281 6.22304687 3.97476562 5.33984375 3.80078125 C2.82629722 2.94055247 1.69054104 2.01202098 0 0 Z " fill="#1B4F43" transform="translate(220,24)"/>
<path d="M0 0 C-2.46301423 2.46301423 -4.27360036 2.76766521 -7.625 3.625 C-8.62789063 3.88539063 -9.63078125 4.14578125 -10.6640625 4.4140625 C-11.43492187 4.60742188 -12.20578125 4.80078125 -13 5 C-13 4.34 -13 3.68 -13 3 C-4.738041 -1.77676538 -4.738041 -1.77676538 0 0 Z " fill="#163929" transform="translate(298,336)"/>
<path d="M0 0 C3.39208378 3.39208378 4.02657897 5.37625011 5 10 C4.625 12.4375 4.625 12.4375 4 14 C4 13.01 4 12.02 4 11 C3.34 11 2.68 11 2 11 C1.34 7.37 0.68 3.74 0 0 Z " fill="#0F382C" transform="translate(377,167)"/>
<path d="M0 0 C2.64824722 0.35787125 4.55535876 0.68239911 6.75 2.25 C8.31760089 4.44464124 8.64212875 6.35175278 9 9 C8.34 9 7.68 9 7 9 C4 5.53846154 4 5.53846154 4 3 C2.68 2.34 1.36 1.68 0 1 C0 0.67 0 0.34 0 0 Z " fill="#124337" transform="translate(302,63)"/>
<path d="M0 0 C0 0.33 0 0.66 0 1 C-6.27 0.67 -12.54 0.34 -19 0 C-19 -0.33 -19 -0.66 -19 -1 C-12.18597425 -2.05268874 -6.63198569 -1.93833398 0 0 Z " fill="#30523C" transform="translate(166,364)"/>
<path d="M0 0 C0 0.66 0 1.32 0 2 C-5.15171623 2.09038099 -9.91913204 1.84681133 -15 1 C-15 0.67 -15 0.34 -15 0 C-9.65370398 -1.0024305 -5.37625234 -0.84888195 0 0 Z " fill="#193C2A" transform="translate(148,361)"/>
<path d="M0 0 C2.97 0.99 5.94 1.98 9 3 C7.68 3.99 6.36 4.98 5 6 C2.49642808 4.74821404 0.93566621 3.00018842 -1 1 C-0.67 0.67 -0.34 0.34 0 0 Z " fill="#087F8F" transform="translate(44,322)"/>
<path d="M0 0 C1 2 1 2 0.328125 4.27734375 C-0.02765625 5.15519531 -0.3834375 6.03304687 -0.75 6.9375 C-1.26820312 8.25041016 -1.26820312 8.25041016 -1.796875 9.58984375 C-2.95642525 11.91270902 -4.05798473 13.30910739 -6 15 C-5.54979057 9.14727744 -2.96160773 4.91779881 0 0 Z " fill="#0A9CB4" transform="translate(57,62)"/>
<path d="M0 0 C0 0.66 0 1.32 0 2 C1.65 2.33 3.3 2.66 5 3 C1.36804504 4.21065165 -0.06531629 3.62784815 -3.6875 2.5625 C-5.17830078 2.13130859 -5.17830078 2.13130859 -6.69921875 1.69140625 C-7.45847656 1.46324219 -8.21773438 1.23507812 -9 1 C-5.52452927 -0.94566951 -3.87493656 -1.07637127 0 0 Z " fill="#214836" transform="translate(103,352)"/>
<path d="M0 0 C3.96 0 7.92 0 12 0 C12 0.33 12 0.66 12 1 C10.43883181 1.33951619 8.87598662 1.67132544 7.3125 2 C6.00732422 2.2784375 6.00732422 2.2784375 4.67578125 2.5625 C2.06287036 2.98972047 -0.35813038 3.07616201 -3 3 C-2.01 2.67 -1.02 2.34 0 2 C0 1.34 0 0.68 0 0 Z " fill="#1B4332" transform="translate(312,327)"/>
<path d="M0 0 C2.50719458 2.32649587 4.32183601 4.82681521 6.1875 7.6875 C6.71730469 8.49574219 7.24710938 9.30398438 7.79296875 10.13671875 C8.39044922 11.05904297 8.39044922 11.05904297 9 12 C8.01 12 7.02 12 6 12 C4.39453125 10.13671875 4.39453125 10.13671875 2.8125 7.6875 C2.28269531 6.88699219 1.75289062 6.08648437 1.20703125 5.26171875 C0 3 0 3 0 0 Z " fill="#021613" transform="translate(13,298)"/>
<path d="M0 0 C3.96 0 7.92 0 12 0 C12 0.33 12 0.66 12 1 C10.35 1 8.7 1 7 1 C6.67 1.99 6.34 2.98 6 4 C3 3 3 3 0 0 Z " fill="#031C14" transform="translate(38,190)"/>
<path d="M0 0 C0 0.33 0 0.66 0 1 C-1.0725 1.185625 -2.145 1.37125 -3.25 1.5625 C-5.69039144 2.23076135 -6.7568809 2.6966266 -8.35546875 4.69140625 C-9.32087881 6.41659751 -10.16943988 8.20599015 -11 10 C-12 7 -12 7 -10.6875 3.875 C-7.87415066 -0.91811368 -5.25887334 -0.09738654 0 0 Z " fill="#0B9EB8" transform="translate(118,102)"/>
<path d="M0 0 C0.33 0 0.66 0 1 0 C1.63019694 8.19256018 1.63019694 8.19256018 -1 11.5625 C-1.99 12.2740625 -1.99 12.2740625 -3 13 C-2.88557539 11.39504433 -2.75805306 9.79101881 -2.625 8.1875 C-2.55539063 7.29417969 -2.48578125 6.40085937 -2.4140625 5.48046875 C-2 3 -2 3 0 0 Z " fill="#113C2E" transform="translate(38,90)"/>
<path d="M0 0 C1.0625 1.875 1.0625 1.875 2 4 C1.67 4.66 1.34 5.32 1 6 C1.66 6.33 2.32 6.66 3 7 C2.67 7.66 2.34 8.32 2 9 C2.66 9 3.32 9 4 9 C3.67 9.99 3.34 10.98 3 12 C3 11.34 3 10.68 3 10 C2.360625 9.71125 1.72125 9.4225 1.0625 9.125 C-1 8 -1 8 -2 6 C-1.39421747 3.98072489 -0.73080266 1.97746603 0 0 Z " fill="#175951" transform="translate(319,90)"/>
<path d="M0 0 C0.515625 0.391875 1.03125 0.78375 1.5625 1.1875 C0.29410474 1.69365298 -0.97733102 2.19219099 -2.25 2.6875 C-3.31154297 3.10515625 -3.31154297 3.10515625 -4.39453125 3.53125 C-6.4375 4.1875 -6.4375 4.1875 -9.4375 4.1875 C-9.4375 3.5275 -9.4375 2.8675 -9.4375 2.1875 C-3.0375 -1.0125 -3.0375 -1.0125 0 0 Z " fill="#193A27" transform="translate(266.4375,346.8125)"/>
<path d="M0 0 C2.33944736 0.28730055 4.6739143 0.61936779 7 1 C6.67 1.99 6.34 2.98 6 4 C4.02 4.33 2.04 4.66 0 5 C-0.5625 3.0625 -0.5625 3.0625 -1 1 C-0.67 0.67 -0.34 0.34 0 0 Z " fill="#0A889C" transform="translate(132,157)"/>
<path d="M0 0 C0.33 0 0.66 0 1 0 C1.36923077 7.50769231 1.36923077 7.50769231 -0.5 10 C-0.995 10.33 -1.49 10.66 -2 11 C-3 9 -3 9 -2.44140625 6.8359375 C-2.15136719 6.02382812 -1.86132812 5.21171875 -1.5625 4.375 C-1.27503906 3.55773437 -0.98757812 2.74046875 -0.69140625 1.8984375 C-0.46324219 1.27195313 -0.23507813 0.64546875 0 0 Z " fill="#15483C" transform="translate(23,148)"/>
<path d="M0 0 C0.33 0 0.66 0 1 0 C1.14285714 7.42857143 1.14285714 7.42857143 0 11 C-0.99 11 -1.98 11 -3 11 C-2.01 7.37 -1.02 3.74 0 0 Z " fill="#134034" transform="translate(28,132)"/>
<path d="M0 0 C0.66 0 1.32 0 2 0 C2.69710731 1.28650706 3.38242876 2.57940665 4.0625 3.875 C4.63677734 4.95394531 4.63677734 4.95394531 5.22265625 6.0546875 C5.47917969 6.69664063 5.73570312 7.33859375 6 8 C5.67 8.66 5.34 9.32 5 10 C2.66063182 7.87330165 1.19346152 5.93775144 0 3 C0 2.01 0 1.02 0 0 Z " fill="#0D352A" transform="translate(351,99)"/>
<path d="M0 0 C0.33 0 0.66 0 1 0 C1.74926071 3.66305234 2.2380014 6.42355152 1 10 C0.34 10 -0.32 10 -1 10 C-1.33 10.99 -1.66 11.98 -2 13 C-1.85769192 11.58297487 -1.71099254 10.1663904 -1.5625 8.75 C-1.48128906 7.96109375 -1.40007813 7.1721875 -1.31640625 6.359375 C-1.02365007 4.17635361 -0.57935581 2.1226818 0 0 Z " fill="#184539" transform="translate(9,197)"/>
<path d="M0 0 C2 4 2 4 1.3125 7.1875 C0.6628125 8.5796875 0.6628125 8.5796875 0 10 C-0.99 10.33 -1.98 10.66 -3 11 C-2.01 7.37 -1.02 3.74 0 0 Z " fill="#134134" transform="translate(42,72)"/>
<path d="M0 0 C0.66 0 1.32 0 2 0 C0.60667426 3.36720387 -0.9789286 4.9859524 -4 7 C-4.66 6.67 -5.32 6.34 -6 6 C-4 4 -2 2 0 0 Z " fill="#11392C" transform="translate(358,309)"/>
<path d="M0 0 C0.99 0 1.98 0 3 0 C3 2.97 3 5.94 3 9 C2.34 9 1.68 9 1 9 C-0.4783226 6.04335481 -0.06032783 3.25770263 0 0 Z " fill="#077A89" transform="translate(144,292)"/>
<path d="M0 0 C0.99 0.33 1.98 0.66 3 1 C3.1875 3.875 3.1875 3.875 3 7 C2.01 7.66 1.02 8.32 0 9 C0 6.03 0 3.06 0 0 Z " fill="#14493D" transform="translate(352,237)"/>
<path d="M0 0 C1.1875 1.5 1.1875 1.5 2 4 C1.27101296 6.78824238 0.1843275 9.37665092 -1 12 C-1.33 12 -1.66 12 -2 12 C-1.85962479 10.18706911 -1.71255111 8.3746557 -1.5625 6.5625 C-1.48128906 5.55316406 -1.40007813 4.54382813 -1.31640625 3.50390625 C-1 1 -1 1 0 0 Z " fill="#0897AE" transform="translate(17,201)"/>
<path d="M0 0 C0.33 0 0.66 0 1 0 C1.125 6.625 1.125 6.625 0 10 C-0.99 10.33 -1.98 10.66 -3 11 C-2.01 7.37 -1.02 3.74 0 0 Z " fill="#144338" transform="translate(33,117)"/>
<path d="M0 0 C6.4 -0.36923077 6.4 -0.36923077 9.4375 1.5 C9.953125 1.995 10.46875 2.49 11 3 C3.49230769 3.36923077 3.49230769 3.36923077 1 1.5 C0.67 1.005 0.34 0.51 0 0 Z " fill="#0994AB" transform="translate(119,103)"/>
<path d="M0 0 C0.66 0.33 1.32 0.66 2 1 C0.8141763 4.37503669 -0.27573689 6.64722731 -3 9 C-2.5020163 5.26512223 -2.12508244 3.18762365 0 0 Z " fill="#123D32" transform="translate(379,283)"/>
<path d="M0 0 C2.09350689 3.4019487 2.17942163 6.05272412 2 10 C1.01 10.495 1.01 10.495 0 11 C-0.84098656 6.98195309 -1.05404945 3.98196457 0 0 Z " fill="#185B53" transform="translate(343,169)"/>
<path d="M0 0 C3.68754757 0.49831724 5.60490662 1.10067643 8 4 C7.01 4.495 7.01 4.495 6 5 C3.96855359 4.06553465 1.96466413 3.06775224 0 2 C0 1.34 0 0.68 0 0 Z " fill="#173727" transform="translate(40,332)"/>
<path d="M0 0 C0.66 0 1.32 0 2 0 C1.01 2.97 0.02 5.94 -1 9 C-1.33 9 -1.66 9 -2 9 C-2.25 3.375 -2.25 3.375 0 0 Z " fill="#134036" transform="translate(383,275)"/>
<path d="M0 0 C0.33 0 0.66 0 1 0 C1 2.97 1 5.94 1 9 C0.01 9 -0.98 9 -2 9 C-2 7.35 -2 5.7 -2 4 C-1.34 4 -0.68 4 0 4 C0 2.68 0 1.36 0 0 Z " fill="#041B14" transform="translate(220,173)"/>
<path d="M0 0 C0.33 0.66 0.66 1.32 1 2 C1.66 2 2.32 2 3 2 C4.10844919 5.32534757 3.84454356 7.62182575 3 11 C0.87953208 7.46588679 0.46800711 4.05606165 0 0 Z " fill="#144D43" transform="translate(335,131)"/>
<path d="M0 0 C0.99 0.33 1.98 0.66 3 1 C3 3.31 3 5.62 3 8 C2.01 7.67 1.02 7.34 0 7 C0 4.69 0 2.38 0 0 Z " fill="#06322D" transform="translate(214,211)"/>
<path d="M0 0 C1 2 1 2 0.3125 4.5 C-1.15567038 7.29651501 -2.09303901 7.93411431 -5 9 C-3.7508258 5.54074837 -2.32472205 2.85306797 0 0 Z " fill="#0A99B2" transform="translate(71,40)"/>
<path d="M0 0 C0.33 0 0.66 0 1 0 C1 4.29 1 8.58 1 13 C0.67 13 0.34 13 0 13 C0 8.71 0 4.42 0 0 Z " fill="#185B51" transform="translate(350,211)"/>
<path d="M0 0 C0.33 0 0.66 0 1 0 C1 3.63 1 7.26 1 11 C0.67 11 0.34 11 0 11 C0 7.37 0 3.74 0 0 Z " fill="#135851" transform="translate(317,123)"/>
<path d="M0 0 C0.33 0 0.66 0 1 0 C1 2.31 1 4.62 1 7 C0.67 7 0.34 7 0 7 C0 4.69 0 2.38 0 0 Z " fill="#175C55" transform="translate(350,241)"/>
<path d="M0 0 C0.99 1.485 0.99 1.485 2 3 C1.67 3.99 1.34 4.98 1 6 C0.67 4.02 0.34 2.04 0 0 Z " fill="#165952" transform="translate(326,109)"/>
<path d="M0 0 C1.32 0.33 2.64 0.66 4 1 C3.01 2.485 3.01 2.485 2 4 C2 3.01 2 2.02 2 1 C1.34 0.67 0.68 0.34 0 0 Z " fill="#175850" transform="translate(308,78)"/>
<path d="M0 0 C0.99 0.495 0.99 0.495 2 1 C1.67 1.99 1.34 2.98 1 4 C0.67 2.68 0.34 1.36 0 0 Z " fill="#155B53" transform="translate(335,141)"/>
<path d="M0 0 C1.32 0.33 2.64 0.66 4 1 C2.68 1 1.36 1 0 1 C0 0.67 0 0.34 0 0 Z " fill="#165B53" transform="translate(308,75)"/>
<path d="M0 0 C0.33 1.32 0.66 2.64 1 4 C0.34 3.34 -0.32 2.68 -1 2 C-0.67 1.34 -0.34 0.68 0 0 Z " fill="#1A5B51" transform="translate(343,262)"/>
<path d="M0 0 C0.99 1.485 0.99 1.485 2 3 C1.34 3 0.68 3 0 3 C0 2.01 0 1.02 0 0 Z " fill="#165A52" transform="translate(317,119)"/>
<path d="M0 0 C0.33 0.99 0.66 1.98 1 3 C0.34 2.67 -0.32 2.34 -1 2 C-0.67 1.34 -0.34 0.68 0 0 Z " fill="#175750" transform="translate(329,119)"/>
<path d="M0 0 C0.99 0.495 0.99 0.495 2 1 C1.67 1.66 1.34 2.32 1 3 C0.67 2.01 0.34 1.02 0 0 Z " fill="#175950" transform="translate(315,83)"/>
<path d="M0 0 C0.66 0.66 1.32 1.32 2 2 C1.01 2.495 1.01 2.495 0 3 C0 2.01 0 1.02 0 0 Z " fill="#175A55" transform="translate(303,66)"/>
<path d="" fill="#185E56" transform="translate(0,0)"/>
<path d="" fill="#15554F" transform="translate(0,0)"/>
<path d="M0 0 C0.33 0.66 0.66 1.32 1 2 C0.34 1.67 -0.32 1.34 -1 1 C-0.67 0.67 -0.34 0.34 0 0 Z " fill="#165C54" transform="translate(337,146)"/>
<path d="" fill="#175C55" transform="translate(0,0)"/>
<path d="M0 0 C0.66 0.66 1.32 1.32 2 2 C1.34 2 0.68 2 0 2 C0 1.34 0 0.68 0 0 Z " fill="#165A53" transform="translate(305,68)"/>
<path d="" fill="#195C56" transform="translate(0,0)"/>
<path d="M0 0 C2 1 2 1 2 1 Z " fill="#175C52" transform="translate(322,279)"/>
<path d="" fill="#175B53" transform="translate(0,0)"/>
<path d="" fill="#175C53" transform="translate(0,0)"/>
<path d="" fill="#1B5A52" transform="translate(0,0)"/>
<path d="" fill="#195951" transform="translate(0,0)"/>
<path d="M0 0 C2 1 2 1 2 1 Z " fill="#195A51" transform="translate(322,263)"/>
<path d="" fill="#16584F" transform="translate(0,0)"/>
<path d="M0 0 C2 1 2 1 2 1 Z " fill="#185B53" transform="translate(342,181)"/>
<path d="" fill="#175A53" transform="translate(0,0)"/>
<path d="M0 0 C2 1 2 1 2 1 Z " fill="#175950" transform="translate(317,99)"/>
<path d="" fill="#1B5C54" transform="translate(0,0)"/>
<path d="" fill="#1B5B52" transform="translate(0,0)"/>
<path d="" fill="#185C50" transform="translate(0,0)"/>
<path d="" fill="#185C54" transform="translate(0,0)"/>
<path d="" fill="#165B52" transform="translate(0,0)"/>
<path d="" fill="#185B53" transform="translate(0,0)"/>
<path d="" fill="#1A5C55" transform="translate(0,0)"/>
<path d="" fill="#195D57" transform="translate(0,0)"/>
<path d="" fill="#1B5A50" transform="translate(0,0)"/>
<path d="" fill="#1B5B53" transform="translate(0,0)"/>
<path d="" fill="#195A51" transform="translate(0,0)"/>
<path d="" fill="#1B5A52" transform="translate(0,0)"/>
<path d="" fill="#195B51" transform="translate(0,0)"/>
<path d="" fill="#195A52" transform="translate(0,0)"/>
<path d="" fill="#185B52" transform="translate(0,0)"/>
<path d="" fill="#18584F" transform="translate(0,0)"/>
<path d="" fill="#195F55" transform="translate(0,0)"/>
<path d="" fill="#1B5B4F" transform="translate(0,0)"/>
<path d="" fill="#1B5D51" transform="translate(0,0)"/>
<path d="" fill="#1A5F56" transform="translate(0,0)"/>
<path d="" fill="#175D55" transform="translate(0,0)"/>
<path d="" fill="#1B5B52" transform="translate(0,0)"/>
<path d="" fill="#185D55" transform="translate(0,0)"/>
<path d="" fill="#19584D" transform="translate(0,0)"/>
<path d="" fill="#1B584B" transform="translate(0,0)"/>
<path d="" fill="#1B5A50" transform="translate(0,0)"/>
<path d="" fill="#1A5A51" transform="translate(0,0)"/>
<path d="" fill="#1A5C52" transform="translate(0,0)"/>
<path d="" fill="#1A5D54" transform="translate(0,0)"/>
<path d="" fill="#195A54" transform="translate(0,0)"/>
<path d="" fill="#1C5E53" transform="translate(0,0)"/>
<path d="" fill="#1B5D55" transform="translate(0,0)"/>
<path d="" fill="#1A5C51" transform="translate(0,0)"/>
<path d="" fill="#165C53" transform="translate(0,0)"/>
<path d="" fill="#1A5E54" transform="translate(0,0)"/>
<path d="" fill="#1A5E52" transform="translate(0,0)"/>
<path d="" fill="#175D54" transform="translate(0,0)"/>
<path d="" fill="#165953" transform="translate(0,0)"/>
<path d="" fill="#165952" transform="translate(0,0)"/>
<path d="" fill="#195851" transform="translate(0,0)"/>
<path d="" fill="#185750" transform="translate(0,0)"/>
<path d="" fill="#195B50" transform="translate(0,0)"/>
<path d="" fill="#13524D" transform="translate(0,0)"/>
<path d="" fill="#165B56" transform="translate(0,0)"/>
<path d="" fill="#155550" transform="translate(0,0)"/>
<path d="" fill="#165651" transform="translate(0,0)"/>
<path d="" fill="#165851" transform="translate(0,0)"/>
<path d="" fill="#155752" transform="translate(0,0)"/>
<path d="" fill="#175A54" transform="translate(0,0)"/>
<path d="" fill="#175B52" transform="translate(0,0)"/>
<path d="" fill="#17594F" transform="translate(0,0)"/>
<path d="" fill="#185950" transform="translate(0,0)"/>
<path d="" fill="#165750" transform="translate(0,0)"/>
<path d="" fill="#16594F" transform="translate(0,0)"/>
<path d="" fill="#165851" transform="translate(0,0)"/>
<path d="" fill="#16564F" transform="translate(0,0)"/>
<path d="" fill="#185C51" transform="translate(0,0)"/>
<path d="" fill="#175950" transform="translate(0,0)"/>
<path d="" fill="#185B50" transform="translate(0,0)"/>
<path d="" fill="#16584E" transform="translate(0,0)"/>
<path d="" fill="#185B53" transform="translate(0,0)"/>
</svg>
