<?xml version="1.0" encoding="UTF-8"?>
<svg version="1.1" xmlns="http://www.w3.org/2000/svg" width="386" height="409">
<path d="M0 0 C11.30788747 9.15400414 17.74048231 20.92941122 21 35 C21 35.99 21 36.98 21 38 C21.70382812 38.00410889 22.40765625 38.00821777 23.1328125 38.01245117 C44.46943359 38.23006521 64.97506277 39.97506277 81 56 C94.17553864 71.2982643 99.21291022 88.7475737 104 108 C104.34321289 109.36560059 104.34321289 109.36560059 104.69335938 110.75878906 C107.15601381 120.81778526 108.14173585 129.95828914 107.79614258 140.29646301 C107.71785119 146.44871792 108.72629439 151.5464933 110.59765625 157.37890625 C114.54684906 170.4420019 117.55495151 183.69393278 120.5625 197 C120.84791656 198.25636261 121.13333313 199.51272522 121.42739868 200.80715942 C129.60421188 236.87251537 129.60421188 236.87251537 132 255 C132.08648804 255.62963654 132.17297607 256.25927307 132.26208496 256.9079895 C133.85185571 268.68482549 134.37265479 280.34401928 134.37060547 292.22290039 C134.37500219 295.06391402 134.4115671 297.90339685 134.44921875 300.74414062 C134.54247778 315.91397564 133.6120761 331.53670133 124 344 C123.06220703 345.22396484 123.06220703 345.22396484 122.10546875 346.47265625 C93.17202633 381.20352313 33.5753283 393.53391414 -8.93920898 397.73388672 C-21.64992259 398.83898984 -34.30841737 399.23941647 -47.0625 399.25 C-47.91450989 399.25100708 -48.76651978 399.25201416 -49.64434814 399.25305176 C-63.28517549 399.24219809 -76.57505698 398.6081633 -90 396 C-91.13671143 395.7831958 -91.13671143 395.7831958 -92.29638672 395.56201172 C-97.25994662 394.58103238 -102.12923673 393.36494235 -107 392 C-107.99169189 391.73292236 -107.99169189 391.73292236 -109.00341797 391.46044922 C-123.69041605 387.41045192 -137.15074703 380.40062556 -150.72558594 373.62988281 C-153.50979971 372.24400366 -156.30153333 370.87695714 -159.1015625 369.5234375 C-164.52333586 366.88505733 -169.66631246 364.36675683 -174.4375 360.625 C-179.04854334 357.34525215 -184.03606694 357.16720747 -189.49755859 356.6706543 C-209.1539926 354.85889245 -226.56619929 344.49361007 -239.1171875 329.46484375 C-250.3124521 314.30559061 -253.63981781 296.41926797 -251.375 277.9375 C-247.25582294 254.41483098 -236.13956191 235.18609813 -223.98034668 214.96592712 C-203.59114597 181.04881022 -188.16287014 146.77904539 -177.88684082 108.58691406 C-171.19909412 83.7408971 -165.03914155 62.06484808 -141.5625 48.3125 C-127.6149971 40.87383179 -112.44838594 40.57496441 -97 40 C-96.78085938 39.12859375 -96.56171875 38.2571875 -96.3359375 37.359375 C-92.39335246 22.55064093 -86.35914895 9.49178442 -73.4375 0.40625 C-51.03048966 -12.52087135 -21.93256272 -14.94120597 0 0 Z M-42 26 C-38 27 -38 27 -38 27 Z M-46 26 C-49.67229009 29.37453684 -52.08948843 32.37455093 -54 37 C-54 37.99 -54 38.98 -54 40 C-52.741875 40 -51.48375 40 -50.1875 40 C-47.79166667 40 -45.39583333 40 -43 40 C-41.68128906 39.75443359 -41.68128906 39.75443359 -40.3359375 39.50390625 C-36.3921379 38.90818008 -32.60432165 38.89072678 -28.625 38.9375 C-27.88894531 38.94201172 -27.15289062 38.94652344 -26.39453125 38.95117188 C-24.59631842 38.96284858 -22.79814803 38.98077989 -21 39 C-22.32 38.67 -23.64 38.34 -25 38 C-25 37.34 -25 36.68 -25 36 C-25.99 36 -26.98 36 -28 36 C-27.01 35.01 -26.02 34.02 -25 33 C-30.09843751 28.15026676 -33.59132842 27 -40.75 27 C-43 27 -43 27 -46 26 Z M-149 163 C-149.66 164.98 -150.32 166.96 -151 169 C-150.34 169 -149.68 169 -149 169 C-148.67 167.02 -148.34 165.04 -148 163 C-148.33 163 -148.66 163 -149 163 Z M-152 171 C-152.268125 171.66902344 -152.53625 172.33804688 -152.8125 173.02734375 C-154.80220087 177.9034199 -156.83366938 182.71109515 -159.1484375 187.44140625 C-159.51582031 188.19623291 -159.88320312 188.95105957 -160.26171875 189.72875977 C-160.99645107 191.22771037 -161.74107167 192.72185954 -162.49609375 194.21069336 C-164.35728981 198.01844926 -165.16755521 199.96251874 -164 204 C-165 205 -165 205 -168 206 C-169.50570264 208.62156664 -169.50570264 208.62156664 -171 212 C-171.73671206 213.44425412 -172.48215048 214.88407683 -173.234375 216.3203125 C-173.84381958 217.48602783 -173.84381958 217.48602783 -174.46557617 218.67529297 C-174.88943604 219.48369629 -175.3132959 220.29209961 -175.75 221.125 C-176.18739502 221.96305176 -176.62479004 222.80110352 -177.07543945 223.66455078 C-180.12301713 229.46091308 -183.36409446 235.05139685 -186.91796875 240.5546875 C-188.22132962 243.50018896 -187.93885884 244.97177323 -187 248 C-188.485 247.505 -188.485 247.505 -190 247 C-199.8470134 261.84035707 -207.53045432 280.92989898 -206 299 C-204.88016541 304.38292902 -203.50127294 308.7043206 -200 313 C-199.34 312.67 -198.68 312.34 -198 312 C-198.33 312.99 -198.66 313.98 -199 315 C-198.01 315 -197.02 315 -196 315 C-193.67739025 296.04657331 -193.67739025 296.04657331 -193 277 C-191.515 276.505 -191.515 276.505 -190 276 C-189.855625 275.195625 -189.71125 274.39125 -189.5625 273.5625 C-189 271 -189 271 -188 270 C-187.835 269.175 -187.67 268.35 -187.5 267.5 C-187 265 -187 265 -186 264 C-185.36824465 262.31461241 -184.74046478 260.62761291 -184.13427734 258.93286133 C-180.31105534 248.25611435 -176.14469602 237.90747037 -169 229 C-169 228.34 -169 227.68 -169 227 C-168.27039063 226.40574219 -167.54078125 225.81148437 -166.7890625 225.19921875 C-162.33920766 220.91399913 -161.15841763 214.54096041 -159.375 208.8125 C-158.80265625 207.04036133 -158.80265625 207.04036133 -158.21875 205.23242188 C-156.05999851 198.51423837 -153.99661149 191.76802903 -152 185 C-151.67346436 183.92794312 -151.67346436 183.92794312 -151.34033203 182.83422852 C-150.12215807 178.5333389 -149.91399885 175.34400459 -151 171 C-151.33 171 -151.66 171 -152 171 Z M-166 202 C-165 204 -165 204 -165 204 Z M-189 245 C-188 247 -188 247 -188 247 Z M-192 278 C-192.33 279.98 -192.66 281.96 -193 284 C-192.34 283.01 -191.68 282.02 -191 281 C-191.33 280.01 -191.66 279.02 -192 278 Z " fill="#0F261B" transform="translate(252,10)"/>
<path d="M0 0 C2.85803217 -0.00411713 5.71603918 -0.01163379 8.57406235 -0.01981354 C13.0969762 -0.03155918 17.61975245 -0.03180392 22.14267159 -0.022892 C23.80647001 -0.0208315 25.47027585 -0.02190029 27.13406944 -0.02640915 C44.95066941 -0.06642084 60.30315754 2.69403277 73.62304306 15.6208725 C85.83224465 29.91457192 90.40543431 48.90951214 94.32909775 66.82350922 C94.81143831 69.00282755 95.3196811 71.17346715 95.84179306 73.34352875 C98.38377783 84.25980913 99.48547193 93.13275382 93.86523056 103.2458725 C85.60756585 114.99475242 73.55015128 120.85315257 59.86523056 124.2458725 C56.5619074 124.73203106 53.25183209 125.06247677 49.92773056 125.3708725 C49.05310165 125.45723969 48.17847275 125.54360687 47.27733994 125.63259125 C45.14052802 125.84276947 43.00294934 126.04512768 40.86523056 126.2458725 C40.57857529 124.7121701 40.57857529 124.7121701 40.286129 123.14748383 C39.56305116 119.2899145 38.83001878 115.43428852 38.09423447 111.57912445 C37.77941634 109.92239806 37.46716406 108.26518166 37.15771103 106.60744476 C34.8016886 88.2864866 34.8016886 88.2864866 25.86523056 73.2458725 C17.75807104 69.65022853 6.08135017 70.01086911 -2.25976944 72.4333725 C-6.76130176 74.19047619 -8.99468991 76.96571344 -11.13476944 81.2458725 C-12.1299643 91.10212933 -10.21025323 101.01977821 -8.87305069 110.753685 C-7.17638464 123.14801006 -7.17638464 123.14801006 -7.13476944 128.2458725 C-9.70828648 130.81938954 -16.88012142 129.48797127 -20.32226944 129.4958725 C-38.53637376 129.47900312 -55.59731741 128.3496364 -72.13476944 120.2458725 C-73.00359756 119.83208344 -73.87242569 119.41829437 -74.76758194 118.99196625 C-83.53546132 114.48914006 -88.97459343 109.79149532 -92.19067764 100.38991547 C-93.82350819 94.95221395 -94.95390386 89.43337128 -96.07226944 83.8708725 C-96.59313205 81.38623033 -97.11527883 78.90185705 -97.63867569 76.4177475 C-98.35033118 73.0115486 -99.06071606 69.60514936 -99.76318741 66.19704437 C-103.48759582 48.34717356 -109.05556122 26.47771197 -124.93555069 15.4958725 C-128.82043074 13.28777016 -132.92268696 11.71319631 -137.13476944 10.2458725 C-137.13476944 9.5858725 -137.13476944 8.9258725 -137.13476944 8.2458725 C-135.65961389 7.61146322 -134.17933612 6.98896423 -132.69726944 6.3708725 C-131.8735585 6.02282562 -131.04984756 5.67477875 -130.20117569 5.316185 C-121.52432902 2.28757864 -113.2107295 1.84779301 -104.09180069 1.61306 C-102.68014005 1.57137009 -101.26849381 1.52919035 -99.85686111 1.48656464 C-96.022202 1.37418104 -92.18731143 1.27523167 -88.35217667 1.18061066 C-85.94004897 1.12069314 -83.52801042 1.05787901 -81.11597061 0.99452972 C-54.0796646 0.2934102 -27.0448942 0.03062359 0 0 Z " fill="#CF4218" transform="translate(253.13476943969727,58.754127502441406)"/>
<path d="M0 0 C0.33 0 0.66 0 1 0 C2.64624994 7.41563398 4.28961759 14.83190201 5.92953205 22.24893951 C6.69149306 25.69474503 7.45436279 29.14034356 8.21948242 32.58544922 C14.07396492 58.95316952 14.07396492 58.95316952 15.98046875 68.71875 C16.21016357 69.89373047 16.4398584 71.06871094 16.67651367 72.27929688 C17 75 17 75 16 78 C14.60026042 76.76302083 13.20052083 75.52604167 11.80078125 74.2890625 C6.17634412 70.26289275 0.25893113 70.61543812 -6.375 70.625 C-7.48987793 70.62588623 -8.60475586 70.62677246 -9.75341797 70.62768555 C-17.04597053 70.72935808 -23.97101138 71.42793944 -31.125 72.8125 C-50.23828762 76.47547277 -69.29470847 77.91111171 -88.71875 78.5234375 C-90.02817566 78.56473785 -91.33760132 78.60603821 -92.68670654 78.64859009 C-99.33268307 78.85331134 -105.97845755 79.02985075 -112.62597656 79.17822266 C-115.12044343 79.24378774 -117.6149096 79.3093791 -120.109375 79.375 C-121.24483765 79.39372162 -122.38030029 79.41244324 -123.5501709 79.43173218 C-134.56955054 79.74010651 -146.09437743 81.76767563 -154.5625 89.41015625 C-161.63023057 97.29824841 -162.10237581 106.72612265 -162.53515625 116.734375 C-162.57831467 117.67739975 -162.62147308 118.6204245 -162.66593933 119.59202576 C-162.8032848 122.64448299 -162.93385142 125.69716444 -163.0625 128.75 C-163.12878601 130.30383896 -163.12878601 130.30383896 -163.19641113 131.8890686 C-163.70638823 143.98530768 -164.19741119 156.079158 -164.25 168.1875 C-164.259104 169.1559082 -164.26820801 170.12431641 -164.27758789 171.12207031 C-164.22519171 183.09406341 -162.30384952 196.33123183 -153.828125 205.40625 C-139.61848921 217.79413761 -121.88831972 218.33567954 -103.97314453 218.20581055 C-101.39996218 218.18767592 -98.82714569 218.18530101 -96.25390625 218.18554688 C-84.81002036 218.16056022 -73.42120693 217.70440233 -62 217 C-65.20352433 220.20352433 -69.35035254 220.47253657 -73.6875 221.4375 C-74.66267578 221.65631836 -75.63785156 221.87513672 -76.64257812 222.10058594 C-98.14001612 226.75035128 -119.82902021 228.18718952 -141.76855469 228.18530273 C-144.627102 228.18750162 -147.48526987 228.20576494 -150.34375 228.22460938 C-179.47058931 228.31489206 -179.47058931 228.31489206 -187.90234375 220.16015625 C-197.87476628 208.50106606 -198.20409709 194.24665565 -198.1875 179.6875 C-198.18756042 178.87977142 -198.18762085 178.07204285 -198.18768311 177.23983765 C-198.17401449 164.24590996 -197.78668732 151.2888971 -197.125 138.3125 C-197.06619156 137.14163345 -197.06619156 137.14163345 -197.00619507 135.94711304 C-196.56378413 127.32731966 -195.98811584 118.7254127 -195.28669739 110.12281799 C-193.96195179 93.79275839 -193.21395706 77.45492751 -192.53027344 61.08868408 C-192.28318434 55.19284557 -192.02856371 49.29732872 -191.77354622 43.40182877 C-191.68718043 41.38830703 -191.60323473 39.37468192 -191.51939392 37.36105347 C-191.13038214 28.2318095 -190.59937165 19.1173441 -190 10 C-186.39580452 11.4015673 -183.00562949 13.01219622 -179.58398438 14.81787109 C-160.92225771 24.57696245 -141.68154463 26.19729033 -121 26.625 C-119.43487778 26.66333218 -117.86977319 26.70239166 -116.3046875 26.7421875 C-112.53660766 26.8364608 -108.76843101 26.92106318 -105 27 C-104.92483154 27.59949463 -104.84966309 28.19898926 -104.7722168 28.81665039 C-104.42125999 31.56674049 -104.0545076 34.31450777 -103.6875 37.0625 C-103.51057617 38.47692383 -103.51057617 38.47692383 -103.33007812 39.91992188 C-102.33970205 47.20807404 -101.1588904 54.24885598 -95 59 C-87.30410826 62.1602037 -76.45566687 62.44168146 -68.4375 60 C-62.99884537 56.83569185 -58.25383395 51.98506145 -56 46 C-55.71994627 42.76329724 -55.71994627 42.76329724 -55.8125 39.25 C-55.81894531 38.07953125 -55.82539063 36.9090625 -55.83203125 35.703125 C-56.01153767 31.74563468 -56.4599577 27.92286729 -57 24 C-55.89785156 23.84144531 -54.79570312 23.68289062 -53.66015625 23.51953125 C-35.35662387 20.75773159 -14.17438278 17.00055405 -1.5625 2.125 C-1.046875 1.42375 -0.53125 0.7225 0 0 Z " fill="#CF4319" transform="translate(353,170)"/>
<path d="M0 0 C0.81454627 5.01582576 1.17216876 9.90342548 1.203125 14.98828125 C1.20882507 15.73152145 1.21452515 16.47476166 1.22039795 17.24052429 C1.22978831 18.80445966 1.23635799 20.36841429 1.24023438 21.93237305 C1.24993135 24.29576947 1.28100717 26.6582916 1.3125 29.02148438 C1.41301252 43.08452159 -0.9788493 54.0340503 -10.625 64.81640625 C-15.41572112 69.2270942 -21.21880681 72.10187581 -27 75 C-27.99 75.50660156 -28.98 76.01320313 -30 76.53515625 C-59.00000695 90.70890965 -92.54917049 92.10666969 -124.25 92.3125 C-125.09111328 92.32212769 -125.93222656 92.33175537 -126.79882812 92.3416748 C-140.84203111 92.47960892 -154.88230584 91.96243077 -166.00390625 82.25 C-174.01419544 73.95542079 -174.44176945 64.05763686 -174.29296875 52.9921875 C-174.28872391 51.7855545 -174.28447906 50.57892151 -174.28010559 49.33572388 C-174.26343155 45.51524707 -174.2257995 41.695315 -174.1875 37.875 C-174.17243863 35.270841 -174.15875278 32.66667366 -174.14648438 30.0625 C-174.11356497 23.70815025 -174.06347877 17.35411406 -174 11 C-170.73222771 12.28215379 -167.69836326 13.68195427 -164.625 15.375 C-145.79828428 24.78835786 -123.60641977 24.39159132 -103.0625 24.3125 C-102.02919556 24.31001251 -100.99589111 24.30752502 -99.93127441 24.30496216 C-65.7183758 24.17778526 -27.89526397 0 0 0 Z " fill="#CF4319" transform="translate(372,288)"/>
<path d="M0 0 C6.61289931 2.75893003 9.61136388 9.77689326 12.5 16 C18.13839493 30.21383159 20.80941689 45.92606418 23.53149414 60.92773438 C24.41888554 65.66467678 25.65939845 70.16175761 27.09375 74.765625 C29.09657466 81.68839168 29.53668109 87.88964803 29.375 95.0625 C29.35920898 96.35720215 29.34341797 97.6519043 29.32714844 98.98583984 C29.25957108 103.65844761 29.13005554 108.32878396 29 113 C28.97595093 113.92693665 28.95190186 114.85387329 28.92712402 115.80889893 C28.19715003 143.90125518 26.6985569 171.87432919 24.47290039 199.88647461 C23.43784668 212.94675498 22.49150484 226.00287616 21.82104492 239.08752441 C21.73425473 240.77723587 21.64426408 242.46678705 21.55053711 244.15612793 C20.41758885 264.81708066 21.23224091 284.54561237 29 304 C29.495 305.485 29.495 305.485 30 307 C16.77244884 306.58007774 2.23333758 301.5756695 -8 293 C-8 292.34 -8 291.68 -8 291 C-6.9275 290.34 -5.855 289.68 -4.75 289 C1.37288494 284.7662781 2.86762839 277.4493034 4.16015625 270.43359375 C4.47426174 268.43694644 4.77451572 266.43808186 5.0625 264.4375 C5.2260498 263.36483887 5.38959961 262.29217773 5.55810547 261.18701172 C6.87729364 252.34394643 7.97761884 243.47399708 8.96118164 234.58764648 C9.97970359 225.50588897 11.48546582 216.60949337 13.75 207.75 C13.91338867 207.10232666 14.07677734 206.45465332 14.24511719 205.78735352 C15.32125345 201.54896439 16.44966103 197.32599127 17.59375 193.10546875 C17.86735352 192.08549805 18.14095703 191.06552734 18.42285156 190.01464844 C18.96399333 188.00149886 19.51253205 185.99031939 20.06933594 183.98144531 C21.45300637 178.82250936 22.32604759 174.34273433 22 169 C14.58825563 165.51097372 6.96726266 162.73250717 -0.75 160 C-2.52890625 159.36191406 -2.52890625 159.36191406 -4.34375 158.7109375 C-12.16860607 155.92610881 -20.041449 153.37529075 -28 151 C-27.52323912 143.75690205 -25.25130188 137.23022171 -22.93527222 130.40264893 C-19.50227247 120.24476117 -16.27815693 110.09916416 -13.9375 99.625 C-13.74639648 98.77212402 -13.55529297 97.91924805 -13.35839844 97.04052734 C-11.29089802 87.31626691 -10.8504225 77.81943398 -10.7890625 67.890625 C-10.76099326 65.3359311 -10.73232879 62.78124368 -10.703125 60.2265625 C-10.66195436 56.23987176 -10.62502263 52.25341934 -10.59863281 48.26660156 C-10.57081999 44.39102896 -10.52495527 40.51598834 -10.4765625 36.640625 C-10.47330963 35.467276 -10.47005676 34.293927 -10.46670532 33.08502197 C-10.30992309 22.37979752 -9.38408224 9.84557501 -1.8125 1.625 C-1.214375 1.08875 -0.61625 0.5525 0 0 Z " fill="#C84119" transform="translate(125,86)"/>
<path d="M0 0 C5.73180051 5.88671404 10.01556314 12.498896 9.90625 20.90234375 C8.3187903 27.51327791 1.26249391 31.96459103 -4.125 35.5625 C-29.20973499 49.55877408 -62.15011214 51.94036269 -90.16137695 51.71118164 C-93.28036851 51.68726715 -96.39851589 51.69069815 -99.51757812 51.69726562 C-110.08438926 51.68226582 -120.28136803 51.36934408 -130.6875 49.375 C-132.2806604 49.07239258 -132.2806604 49.07239258 -133.90600586 48.76367188 C-143.21226959 46.87829267 -152.0554769 42.60808543 -159.5 36.6875 C-162.82193393 31.6571429 -162.79910126 27.21841744 -161.6875 21.375 C-158.4711864 13.61389544 -152.79863974 9.59385895 -145.32495117 6.34936523 C-140.02691835 4.93017945 -134.8276891 4.94117481 -129.36328125 4.8125 C-128.14843552 4.77568115 -126.93358978 4.7388623 -125.68193054 4.70092773 C-121.78814666 4.58373493 -117.89417444 4.47833602 -114 4.375 C-77.52465514 3.66334993 -77.52465514 3.66334993 -41.4375 -1.1875 C-39.14077888 -1.62710678 -36.84390857 -2.06593499 -34.546875 -2.50390625 C-33.52029785 -2.70290527 -32.4937207 -2.9019043 -31.43603516 -3.10693359 C-20.2885825 -5.20809673 -10.06309124 -6.08465982 0 0 Z " fill="#CF4319" transform="translate(361.6875,252.625)"/>
<path d="M0 0 C0.78503906 0.00644531 1.57007812 0.01289062 2.37890625 0.01953125 C4.4375 0.1875 4.4375 0.1875 6.4375 1.1875 C6.4375 1.8475 6.4375 2.5075 6.4375 3.1875 C7.0975 3.1875 7.7575 3.1875 8.4375 3.1875 C8.1075 4.5075 7.7775 5.8275 7.4375 7.1875 C6.7775 7.1875 6.1175 7.1875 5.4375 7.1875 C1.56604377 19.10389718 -0.61883906 30.59441203 -1.5 43.0625 C-2.16283509 52.12427281 -3.3390076 60.4308828 -5.96191406 69.16210938 C-6.61201038 71.3544667 -7.20915697 73.55784927 -7.8046875 75.765625 C-15.70879462 104.35329626 -29.22898765 132.81310777 -44.5625 158.1875 C-67.73679775 196.00736103 -67.73679775 196.00736103 -69.67578125 239.0625 C-67.09656327 246.46596956 -63.33154275 253.75755917 -56.1015625 257.44140625 C-55.24304687 257.85261719 -54.38453125 258.26382812 -53.5 258.6875 C-47.02308253 262.18800196 -45.62626643 268.2597161 -43.5234375 274.8984375 C-43.20632812 275.98382813 -42.88921875 277.06921875 -42.5625 278.1875 C-49.98436022 278.51099329 -54.94137215 276.25189379 -61.5625 273.1875 C-62.42359375 272.81496094 -63.2846875 272.44242187 -64.171875 272.05859375 C-78.51432258 265.50400385 -88.631331 254.64025818 -94.5625 240.1875 C-101.44440025 218.47758789 -95.82450397 196.29976905 -85.90087891 176.68676758 C-83.86939663 172.80689299 -81.72853507 168.99344387 -79.5625 165.1875 C-78.92699219 164.04796875 -78.29148437 162.9084375 -77.63671875 161.734375 C-74.63020774 156.40377304 -71.5308766 151.13138637 -68.41015625 145.8671875 C-47.0821947 109.80070772 -31.15092487 73.11789782 -21.375 32.25 C-13.5871986 -0.246226 -13.5871986 -0.246226 0 0 Z " fill="#B33B19" transform="translate(107.5625,78.8125)"/>
<path d="M0 0 C0.78375 0.70125 1.5675 1.4025 2.375 2.125 C17.67030425 14.68773249 36.01490517 17.21910463 55 20 C53.78273826 32.2645925 52.10312402 44.3975536 50.02319336 56.54541016 C49.55608029 59.28768817 49.10499681 62.03232601 48.65429688 64.77734375 C48.35512832 66.54443391 48.05503314 68.3113675 47.75390625 70.078125 C47.62254776 70.88751526 47.49118927 71.69690552 47.35585022 72.53082275 C46.46753537 77.60459029 45.50443711 82.95934754 41.3125 86.375 C32.2968711 88.81165646 24.23000301 85.48008374 16.4296875 81.01171875 C6.97293352 75.3253702 -1.80275763 68.73334309 -4.6171875 57.546875 C-7.98196462 39.93941116 -8.64286825 16.23421015 0 0 Z " fill="#C13E19" transform="translate(73,285)"/>
<path d="M0 0 C7.90647276 3.24516668 15.86208597 6.03539169 24.04541016 8.49682617 C29.79083142 10.22833142 29.79083142 10.22833142 30.875 11.3125 C30.31162619 18.58354328 28.53837074 25.60248218 26.875 32.6875 C26.60171875 33.87472656 26.3284375 35.06195313 26.046875 36.28515625 C24.00966151 45.04317697 24.00966151 45.04317697 22.875 47.3125 C5.30624261 47.25926134 -14.93483245 42.62332305 -28.125 30.3125 C-30.44459321 25.67331358 -29.66827698 20.11795927 -28.21875 15.30078125 C-22.15532752 0.12279101 -22.15532752 0.12279101 -16.25390625 -3.9921875 C-10.83161994 -5.76313606 -4.97284986 -2.07596976 0 0 Z " fill="#CD421A" transform="translate(107.125,248.6875)"/>
<path d="M0 0 C1.16595703 0.02513672 1.16595703 0.02513672 2.35546875 0.05078125 C12.5773896 0.70245198 22.94639948 5.60551915 30 13 C35.61836679 20.45172858 41 29.34823248 41 39 C34.07 39 27.14 39 20 39 C15 30 15 30 14 27 C12.16600655 25.94450756 12.16600655 25.94450756 10 25 C8.55210536 24.01511048 7.11500673 23.01421437 5.6875 22 C-1.64773351 17.11778289 -9.26684328 15.69931708 -18 17 C-24.38917863 19.85831675 -27.84700052 24.96425813 -31 31 C-31.99 33.97 -32.98 36.94 -34 40 C-41.26 40 -48.52 40 -56 40 C-54.47183186 27.77465491 -49.4403725 18.37962693 -40.08203125 10.35546875 C-28.50276732 1.77421312 -14.0250212 -0.38200447 0 0 Z " fill="#C14019" transform="translate(222,10)"/>
<path d="M0 0 C1.20366211 -0.00386719 1.20366211 -0.00386719 2.43164062 -0.0078125 C6.9110486 0.06653452 9.65420431 0.15149615 12.9375 3.5 C14.00244141 6.54345703 14.00244141 6.54345703 14.7890625 10.2578125 C15.00651627 11.25154373 15.00651627 11.25154373 15.22836304 12.26535034 C15.68806649 14.38233619 16.12560268 16.50320286 16.5625 18.625 C16.8631173 20.02896054 17.1651866 21.43261101 17.46875 22.8359375 C18.04927451 25.52829759 18.61940769 28.2225056 19.18066406 30.91894531 C19.80010446 33.84989751 20.4609689 36.76428901 21.1484375 39.6796875 C21.78934884 42.78271368 22.14022243 45.35780235 21.9375 48.5 C11.86770011 49.85067975 2.11508697 50.81860272 -8.0625 50.5 C-17.02238983 16.24907361 -17.02238983 16.24907361 -14.0625 5.5 C-10.04819085 -0.11843666 -6.39796745 -0.22720788 0 0 Z " fill="#CE4319" transform="translate(264.0625,137.5)"/>
<path d="M0 0 C3.25212465 14.16997167 3.25212465 14.16997167 0.9375 21.25 C-1.54049637 24.76715614 -3.92896828 26.73583752 -8 28 C-13.41146918 28.64560423 -18.31055063 28.4742314 -23.5625 27 C-27.03402769 24.15156702 -28.23690714 21.30694785 -29 17 C-29.27419463 12.31838055 -29.33018548 7.67974417 -29 3 C-26.92682309 0.92682309 -22.62090142 1.62812287 -19.75 1.5 C-13.11129422 1.19773178 -6.61838389 -0.1539159 0 0 Z " fill="#D0451A" transform="translate(287,195)"/>
<path d="M0 0 C0.33 0 0.66 0 1 0 C1.03027537 4.29165038 1.04720362 8.58327221 1.0625 12.875 C1.07087891 14.0403125 1.07925781 15.205625 1.08789062 16.40625 C1.14301137 37.35213461 -0.09300409 58.23693445 -1.72949219 79.11108398 C-2.00449895 82.61990216 -2.27233122 86.12921572 -2.5390625 89.63867188 C-2.71313815 91.90628101 -2.88760236 94.17386036 -3.0625 96.44140625 C-3.18129517 97.98834923 -3.18129517 97.98834923 -3.30249023 99.56654358 C-3.76064187 105.3934043 -4.32164152 111.19455712 -5 117 C-5.33 117 -5.66 117 -6 117 C-6 109.08 -6 101.16 -6 93 C-7.485 93.495 -7.485 93.495 -9 94 C-10.18484255 97.21726877 -10.18484255 97.21726877 -11.0625 101 C-11.65192163 103.34821789 -12.28576486 105.68668781 -13 108 C-13.99 108.495 -13.99 108.495 -15 109 C-14.24043224 102.60697138 -12.76581858 96.43912766 -11.25 90.1875 C-10.98485596 89.07165527 -10.71971191 87.95581055 -10.4465332 86.80615234 C-9.27160073 81.92609539 -8.08153524 77.08316297 -6.52734375 72.30859375 C-2.97272067 61.34080235 -2.38886374 51.00296794 -2.1796875 39.50390625 C-2.0234121 31.08881576 -1.49020292 22.7088405 -0.9375 14.3125 C-0.84467691 12.87744988 -0.75198157 11.44239148 -0.65942383 10.00732422 C-0.44266495 6.67133709 -0.22297761 3.33557629 0 0 Z " fill="#E7501E" transform="translate(152,197)"/>
<path d="M0 0 C-3.44919626 2.29946417 -6.1381022 2.80769035 -10.1875 3.625 C-11.45980469 3.88539063 -12.73210937 4.14578125 -14.04296875 4.4140625 C-15.50669922 4.70410156 -15.50669922 4.70410156 -17 5 C-16.7525 6.7015625 -16.7525 6.7015625 -16.5 8.4375 C-16.3237198 9.95724902 -16.15751605 11.4781917 -16 13 C-15.92007813 13.72058594 -15.84015625 14.44117188 -15.7578125 15.18359375 C-15.28576714 22.9723422 -18.51192409 28.90671644 -23.3125 34.875 C-29.9878477 40.1531819 -35.67859947 41.63378067 -44.125 41.4375 C-44.99253906 41.44458984 -45.86007812 41.45167969 -46.75390625 41.45898438 C-52.78635826 41.39930258 -57.12247304 40.484019 -61.828125 36.421875 C-67.25970314 30.03529411 -68.28837622 24.21872218 -68 16 C-67.67 16 -67.34 16 -67 16 C-66.77957031 17.39412109 -66.77957031 17.39412109 -66.5546875 18.81640625 C-64.87690113 28.08086512 -64.87690113 28.08086512 -59.79296875 35.765625 C-52.58984487 40.72463839 -41.74013804 39.87974802 -33.42578125 38.60546875 C-27.14058723 36.69150986 -23.24582552 31.47621178 -19.81640625 26.16796875 C-17.13498785 19.04745577 -18.81454805 9.40907471 -20 2 C-17.79248152 1.66131223 -15.58394089 1.32928311 -13.375 1 C-12.14523437 0.814375 -10.91546875 0.62875 -9.6484375 0.4375 C-6.3833973 0.04597484 -3.28287549 -0.08080924 0 0 Z " fill="#EA501E" transform="translate(316,192)"/>
<path d="M0 0 C0.66 0 1.32 0 2 0 C3.16289658 2.32579316 3.0696807 3.47481378 2.94921875 6.05078125 C2.91111084 6.88520752 2.87300293 7.71963379 2.83374023 8.5793457 C2.78548096 9.48128662 2.73722168 10.38322754 2.6875 11.3125 C2.64117432 12.23571045 2.59484863 13.1589209 2.54711914 14.11010742 C2.00600842 24.10250618 1.03847093 34.04882712 0 44 C-0.33 44 -0.66 44 -1 44 C-1 36.08 -1 28.16 -1 20 C-1.99 20.33 -2.98 20.66 -4 21 C-5.18484255 24.21726877 -5.18484255 24.21726877 -6.0625 28 C-6.65192163 30.34821789 -7.28576486 32.68668781 -8 35 C-8.99 35.495 -8.99 35.495 -10 36 C-9.35401634 31.12689995 -8.49028264 26.36868161 -7.4375 21.5625 C-7.16808594 20.32628906 -6.89867187 19.09007812 -6.62109375 17.81640625 C-6.41613281 16.88699219 -6.21117187 15.95757812 -6 15 C-5.34 15 -4.68 15 -4 15 C-2.68 10.05 -1.36 5.1 0 0 Z " fill="#DA4A1D" transform="translate(147,270)"/>
<path d="M0 0 C-3.37431106 3.37431106 -8.12698095 3.6148142 -12.6875 4.625 C-14.15993164 4.96917969 -14.15993164 4.96917969 -15.66210938 5.3203125 C-20.89323305 6.49915727 -25.63835664 7.28495447 -31 7 C-30.01 6.34 -29.02 5.68 -28 5 C-28.78648926 4.97494385 -29.57297852 4.9498877 -30.38330078 4.92407227 C-33.96401494 4.80767134 -37.5444945 4.68514513 -41.125 4.5625 C-42.98125 4.50352539 -42.98125 4.50352539 -44.875 4.44335938 C-46.07382813 4.40146484 -47.27265625 4.35957031 -48.5078125 4.31640625 C-49.60754395 4.27974854 -50.70727539 4.24309082 -51.84033203 4.20532227 C-54.95129116 4.00316521 -57.93644338 3.56710106 -61 3 C-61 2.67 -61 2.34 -61 2 C-59.79053711 1.97494385 -58.58107422 1.9498877 -57.33496094 1.92407227 C-52.7948366 1.82902321 -48.25483108 1.72905147 -43.71484375 1.62768555 C-41.75979415 1.5847015 -39.80471574 1.5430055 -37.84960938 1.50268555 C-23.54318287 1.23148664 -23.54318287 1.23148664 -9.27539062 0.20507812 C-6.16879921 -0.07491509 -3.11653829 -0.07083042 0 0 Z " fill="#E34E1D" transform="translate(291,387)"/>
<path d="M0 0 C0.33 0 0.66 0 1 0 C4.99626987 22.55037996 4.29684845 45.18986054 4 68 C3.67 68 3.34 68 3 68 C3 54.47 3 40.94 3 27 C2.34 27 1.68 27 1 27 C0.63156744 23.81398285 0.28287514 20.62609239 -0.0625 17.4375 C-0.16626953 16.54224609 -0.27003906 15.64699219 -0.37695312 14.72460938 C-0.92488885 9.56645584 -0.99966222 5.09618013 0 0 Z " fill="#35361F" transform="translate(382,259)"/>
<path d="M0 0 C6.02497542 1.39037894 10.70220169 4.64679729 15 9 C15.85461917 10.77196269 16.66724458 12.5647701 17.4375 14.375 C18.66192789 17.06950231 18.66192789 17.06950231 21 19 C26.82362559 20.56653973 33.02596296 20.21291117 39 20 C38.34 17.03 37.68 14.06 37 11 C37.66 11.33 38.32 11.66 39 12 C39.66 15.3 40.32 18.6 41 22 C34.07 22 27.14 22 20 22 C15 13 15 13 14 10 C12.20369859 8.97079729 12.20369859 8.97079729 10 8 C8.23171748 6.8398995 6.48232736 5.65063568 4.75 4.4375 C3.85796875 3.81746094 2.9659375 3.19742187 2.046875 2.55859375 C1.37140625 2.04425781 0.6959375 1.52992187 0 1 C0 0.67 0 0.34 0 0 Z " fill="#E24B1B" transform="translate(222,27)"/>
<path d="M0 0 C1.67110042 2.96178773 2.32682752 5.37071192 2.625 8.75 C2.69976562 9.54921875 2.77453125 10.3484375 2.8515625 11.171875 C2.90054687 11.77515625 2.94953125 12.3784375 3 13 C6.00021487 12.85785272 9.00011789 12.71138304 12 12.5625 C12.83917969 12.52318359 13.67835938 12.48386719 14.54296875 12.44335938 C19.74013458 12.18148668 24.84457153 11.7100648 30 11 C29.67 8.03 29.34 5.06 29 2 C31.56616632 5.84924948 31.55097676 8.4349304 32 13 C21.93020011 14.35067975 12.17758697 15.31860272 2 15 C0.73694665 9.92523206 -0.27036084 5.27203646 0 0 Z " fill="#ED4F1C" transform="translate(254,173)"/>
<path d="M0 0 C1.485 0.99 1.485 0.99 3 2 C3.58984375 5.125 3.58984375 5.125 3.9375 9 C4.9299037 17.740666 6.06625263 24.99868162 13.125 30.8125 C17.80024802 34.09528646 22.80454481 36.6463178 28 39 C25 40 25 40 22.58203125 39.03125 C13.07381761 33.77424048 6.0764145 29.58409185 2.7421875 18.84375 C1.097591 12.54234869 -0.34531511 6.56098702 0 0 Z " fill="#E7511E" transform="translate(158,140)"/>
<path d="M0 0 C2.475 0.99 2.475 0.99 5 2 C4.01 2.33 3.02 2.66 2 3 C1.97494385 3.9065332 1.9498877 4.81306641 1.92407227 5.74707031 C1.82790325 9.16903001 1.72874713 12.5908779 1.62768555 16.01269531 C1.58485545 17.48271396 1.54315419 18.95276601 1.50268555 20.42285156 C1.25721183 29.30839413 0.86497935 38.14855483 0 47 C-0.33 47 -0.66 47 -1 47 C-1.20638953 13.29182746 -1.20638953 13.29182746 0 0 Z " fill="#E34C1B" transform="translate(163,180)"/>
<path d="M0 0 C1.21701352 3.58199015 0.8238374 6.36808069 0.1875 10.0625 C0.01605469 11.10535156 -0.15539062 12.14820313 -0.33203125 13.22265625 C-1 16 -1 16 -3 19 C-3.66 18.34 -4.32 17.68 -5 17 C-5.25394531 17.67546875 -5.50789063 18.3509375 -5.76953125 19.046875 C-6.11371094 19.93890625 -6.45789063 20.8309375 -6.8125 21.75 C-7.14894531 22.63171875 -7.48539062 23.5134375 -7.83203125 24.421875 C-8.96846822 26.93039808 -10.26542927 28.87279005 -12 31 C-12 29.35 -12 27.7 -12 26 C-11.34 26 -10.68 26 -10 26 C-9.896875 25.01 -9.79375 24.02 -9.6875 23 C-9.09191294 18.71702837 -7.61404973 15.00003629 -6 11 C-4.68 11.66 -3.36 12.32 -2 13 C-2.04125 11.783125 -2.0825 10.56625 -2.125 9.3125 C-2.13754508 5.78105873 -1.59998217 3.19996434 0 0 Z " fill="#2F2B18" transform="translate(105,166)"/>
<path d="M0 0 C1.32 0.66 2.64 1.32 4 2 C3.01 2 2.02 2 1 2 C0.34 4.31 -0.32 6.62 -1 9 C-0.34 9.33 0.32 9.66 1 10 C1.625 12.0625 1.625 12.0625 2 14 C1.67 13.34 1.34 12.68 1 12 C-2.62793998 13.86566488 -2.62793998 13.86566488 -5 17 C-4.34 17.66 -3.68 18.32 -3 19 C-3.598125 19.04125 -4.19625 19.0825 -4.8125 19.125 C-7.35100832 19.87739901 -7.35100832 19.87739901 -8.75 23.0625 C-9.36875 24.5165625 -9.36875 24.5165625 -10 26 C-11.17976601 22.50028494 -11.00967899 22.02302426 -9.453125 18.3203125 C-8.73084734 16.91558866 -7.99596163 15.5172914 -7.25 14.125 C-6.8890625 13.43019531 -6.528125 12.73539063 -6.15625 12.01953125 C-5.44659116 10.65420935 -4.73250787 9.2911766 -4.01367188 7.93066406 C-2.63603697 5.30678717 -1.3152922 2.6555583 0 0 Z M-2 9 C-1 11 -1 11 -1 11 Z " fill="#41321A" transform="translate(88,203)"/>
<path d="M0 0 C2 3 2 3 2 6 C2.73001221 6.01458252 3.46002441 6.02916504 4.2121582 6.04418945 C7.57942142 6.11951437 10.94578279 6.21589144 14.3125 6.3125 C15.46041016 6.33505859 16.60832031 6.35761719 17.79101562 6.38085938 C25.26362232 6.61371681 31.89269235 7.66635136 39 10 C39 10.33 39 10.66 39 11 C32.96130397 11.09585232 26.96351721 11.07822521 21 10 C20.67 9.67 20.34 9.34 20 9 C18.65984779 8.84417697 17.31241097 8.74955858 15.96484375 8.68359375 C15.15595703 8.64169922 14.34707031 8.59980469 13.51367188 8.55664062 C12.66353516 8.51732422 11.81339844 8.47800781 10.9375 8.4375 C10.08349609 8.39431641 9.22949219 8.35113281 8.34960938 8.30664062 C6.23327963 8.20023298 4.11666187 8.09958269 2 8 C0.23537317 4.91190305 0 3.76687864 0 0 Z " fill="#3F371F" transform="translate(271,42)"/>
<path d="M0 0 C1.93383443 3.86766885 2.37482343 5.97918087 2.6875 10.1875 C2.77386719 11.25355469 2.86023438 12.31960937 2.94921875 13.41796875 C2.97435547 14.69607422 2.97435547 14.69607422 3 16 C2 17 2 17 0.14233398 17.11352539 C-0.64842529 17.10828857 -1.43918457 17.10305176 -2.25390625 17.09765625 C-3.10791016 17.09443359 -3.96191406 17.09121094 -4.84179688 17.08789062 C-5.73962891 17.07951172 -6.63746094 17.07113281 -7.5625 17.0625 C-8.46419922 17.05798828 -9.36589844 17.05347656 -10.29492188 17.04882812 C-12.53001314 17.03700225 -14.76497437 17.0205222 -17 17 C-15 15 -15 15 -11.3046875 14.8046875 C-9.82799892 14.817991 -8.35137642 14.84185165 -6.875 14.875 C-6.12089844 14.88402344 -5.36679688 14.89304688 -4.58984375 14.90234375 C-2.72642746 14.9259313 -0.86317407 14.96180281 1 15 C0.67 10.05 0.34 5.1 0 0 Z " fill="#E8511E" transform="translate(243,171)"/>
<path d="M0 0 C0.33 0 0.66 0 1 0 C1.07347656 1.90458984 1.07347656 1.90458984 1.1484375 3.84765625 C1.59126082 14.3404213 2.38002083 24.61955094 4 35 C-0.22371128 31.66976611 -0.08141751 27.2571416 -0.7265625 22.20703125 C-1.3566168 14.81190236 -0.61879634 7.37538336 0 0 Z " fill="#382F19" transform="translate(1,285)"/>
<path d="M0 0 C2.84762066 2.84762066 3.00436089 6.11124795 3.6875 9.9375 C3.82994141 10.66646484 3.97238281 11.39542969 4.11914062 12.14648438 C4.745173 15.54450089 5.10939778 17.67180665 4 21 C1.69 19.02 -0.62 17.04 -3 15 C-2.67 14.34 -2.34 13.68 -2 13 C-1.34 13 -0.68 13 0 13 C0 8.71 0 4.42 0 0 Z " fill="#DA4C1D" transform="translate(365,227)"/>
<path d="M0 0 C0.99 0.66 1.98 1.32 3 2 C2.67 2.66 2.34 3.32 2 4 C2.721875 4.061875 3.44375 4.12375 4.1875 4.1875 C7.8999813 5.2599946 9.42615096 7.16216644 12 10 C12.763125 10.763125 13.52625 11.52625 14.3125 12.3125 C14.869375 12.869375 15.42625 13.42625 16 14 C15.67 14.66 15.34 15.32 15 16 C14.56171875 15.55269531 14.1234375 15.10539062 13.671875 14.64453125 C8.07400712 9.30835231 2.22823589 6.61421198 -5 4 C-5 3.34 -5 2.68 -5 2 C-2.6875 0.875 -2.6875 0.875 0 0 Z " fill="#D8481B" transform="translate(121,65)"/>
<path d="M0 0 C1.13087014 3.39261042 0.86514295 4.16517757 -0.21484375 7.44921875 C-0.62573242 8.72055664 -0.62573242 8.72055664 -1.04492188 10.01757812 C-1.48674805 11.33918945 -1.48674805 11.33918945 -1.9375 12.6875 C-2.22818359 13.58017578 -2.51886719 14.47285156 -2.81835938 15.39257812 C-3.53769987 17.59776948 -4.26516672 19.79993258 -5 22 C-3.02 22.66 -1.04 23.32 1 24 C-2.05263664 24.98120464 -3.94736336 24.98120464 -7 24 C-6.65475475 18.36099428 -5.28562775 13.38906484 -3.5 8.0625 C-3.27417236 7.38759521 -3.04834473 6.71269043 -2.81567383 6.01733398 C-1.14041539 1.14041539 -1.14041539 1.14041539 0 0 Z " fill="#E34D1C" transform="translate(104,213)"/>
<path d="M0 0 C4.2863382 0.98636346 8.15787742 2.64136682 12.1875 4.375 C12.92419922 4.67921875 13.66089844 4.9834375 14.41992188 5.296875 C16.31823339 6.11417931 18.16445529 7.05007969 20 8 C20.33 8.99 20.66 9.98 21 11 C13.55620912 8.76686274 6.88023305 5.59727921 0 2 C0 1.34 0 0.68 0 0 Z " fill="#272D19" transform="translate(111,386)"/>
<path d="M0 0 C2.64 0.33 5.28 0.66 8 1 C-0.52935856 5.97545916 -12.42331461 5.3157149 -22 5 C-22 4.67 -22 4.34 -22 4 C-19.45887768 3.66198848 -16.91723254 3.32946621 -14.375 3 C-13.66214844 2.90460938 -12.94929688 2.80921875 -12.21484375 2.7109375 C-8.11178391 2.18393899 -4.14754258 1.89533016 0 2 C0 1.34 0 0.68 0 0 Z " fill="#EE501D" transform="translate(311,241)"/>
<path d="M0 0 C0.99 0.33 1.98 0.66 3 1 C2.67 4.3 2.34 7.6 2 11 C1.34 11 0.68 11 0 11 C0 14.3 0 17.6 0 21 C-1.32 21 -2.64 21 -4 21 C-3.67 20.34 -3.34 19.68 -3 19 C-2.67 19 -2.34 19 -2 19 C-1.34 12.73 -0.68 6.46 0 0 Z " fill="#423920" transform="translate(57,306)"/>
<path d="M0 0 C2.35716404 2.15454249 3.78966144 4.19719874 5.1875 7.0625 C5.53167969 7.75472656 5.87585938 8.44695312 6.23046875 9.16015625 C7 11 7 11 7 13 C7.66 13 8.32 13 9 13 C10.125 18.625 10.125 18.625 9 22 C7.49394598 18.71106997 5.99619468 15.41842554 4.5 12.125 C4.07074219 11.18785156 3.64148438 10.25070313 3.19921875 9.28515625 C2.79316406 8.38925781 2.38710937 7.49335937 1.96875 6.5703125 C1.59169922 5.74289551 1.21464844 4.91547852 0.82617188 4.06298828 C0 2 0 2 0 0 Z " fill="#E24E1C" transform="translate(141,87)"/>
<path d="M0 0 C0.99 0 1.98 0 3 0 C3.125 6.625 3.125 6.625 2 10 C1.34 10 0.68 10 0 10 C-1.14226716 12.28453433 -2.06253473 14.62508799 -3 17 C-3.33 17 -3.66 17 -4 17 C-4 14.69 -4 12.38 -4 10 C-3.01 9.67 -2.02 9.34 -1 9 C-0.16666667 7.08333333 -0.16666667 7.08333333 0 5 C-0.33 4.34 -0.66 3.68 -1 3 C-0.67 2.01 -0.34 1.02 0 0 Z " fill="#50381D" transform="translate(62,277)"/>
<path d="M0 0 C1.078125 1.796875 1.078125 1.796875 2 4 C1.34247599 5.70956242 0.66820561 7.41719205 -0.13671875 9.0625 C-1.04990416 11.11200211 -1.56826224 13.0641029 -2.0625 15.25 C-3 19 -3 19 -5 22 C-4.47458553 14.2501365 -2.44408524 7.3549914 0 0 Z " fill="#C7431B" transform="translate(89,103)"/>
<path d="M0 0 C1.32 1.32 2.64 2.64 4 4 C3.01 4.33 2.02 4.66 1 5 C0.67 6.98 0.34 8.96 0 11 C-0.66 11 -1.32 11 -2 11 C-2.33 11.99 -2.66 12.98 -3 14 C-2.88512252 12.41590006 -2.75765492 10.83271037 -2.625 9.25 C-2.55539063 8.36828125 -2.48578125 7.4865625 -2.4140625 6.578125 C-2.00149945 4.00933618 -1.28839043 2.24158985 0 0 Z " fill="#D4491C" transform="translate(73,285)"/>
<path d="M0 0 C1.21701352 3.58199015 0.8238374 6.36808069 0.1875 10.0625 C0.01605469 11.10535156 -0.15539062 12.14820313 -0.33203125 13.22265625 C-1 16 -1 16 -3 19 C-4.0625 17.1875 -4.0625 17.1875 -5 15 C-4.67 14.01 -4.34 13.02 -4 12 C-3.34 12.33 -2.68 12.66 -2 13 C-2.04125 11.783125 -2.0825 10.56625 -2.125 9.3125 C-2.13754508 5.78105873 -1.59998217 3.19996434 0 0 Z " fill="#684B27" transform="translate(105,166)"/>
<path d="M0 0 C-3.40858586 3.40858586 -8.32201465 3.93008394 -13 4.125 C-13.66 4.08375 -14.32 4.0425 -15 4 C-15.33 3.01 -15.66 2.02 -16 1 C-10.62915894 0.31798844 -5.41499441 -0.11521265 0 0 Z " fill="#E55221" transform="translate(291,387)"/>
<path d="M0 0 C2.475 0.99 2.475 0.99 5 2 C4.01 2.33 3.02 2.66 2 3 C1.67 9.27 1.34 15.54 1 22 C0.67 22 0.34 22 0 22 C0 14.74 0 7.48 0 0 Z " fill="#F6511D" transform="translate(163,180)"/>
<path d="M0 0 C0.66 0.33 1.32 0.66 2 1 C0.50829734 5.9723422 -1.60457417 10.41845739 -4 15 C-4.33 15 -4.66 15 -5 15 C-4.5188509 9.22621075 -2.81532819 5.04140164 0 0 Z " fill="#2D2D19" transform="translate(58,259)"/>
<path d="M0 0 C1.85486952 2.78230428 2.72462112 4.84363607 3.6875 8 C3.95949219 8.86625 4.23148437 9.7325 4.51171875 10.625 C5 13 5 13 4 16 C4 15.34 4 14.68 4 14 C3.34 14 2.68 14 2 14 C0.66416101 9.15758367 -0.25328119 5.06562383 0 0 Z " fill="#37331D" transform="translate(359,158)"/>
<path d="M0 0 C0.99 0.66 1.98 1.32 3 2 C1.04414675 3.00484204 -0.91476237 4.00373805 -2.875 5 C-3.96554687 5.556875 -5.05609375 6.11375 -6.1796875 6.6875 C-9 8 -9 8 -11 8 C-10 5 -10 5 -7.71484375 3.61328125 C-6.79832031 3.18402344 -5.88179688 2.75476563 -4.9375 2.3125 C-4.01839844 1.87550781 -3.09929687 1.43851562 -2.15234375 0.98828125 C-1.08693359 0.49908203 -1.08693359 0.49908203 0 0 Z " fill="#26311C" transform="translate(345,375)"/>
<path d="M0 0 C0.99 0 1.98 0 3 0 C3 0.66 3 1.32 3 2 C3.66 2 4.32 2 5 2 C4.67 3.32 4.34 4.64 4 6 C3.34 6 2.68 6 2 6 C1.71125 6.94875 1.4225 7.8975 1.125 8.875 C0 12 0 12 -2 14 C-1.49803707 11.15554341 -0.85647186 8.60131072 0.125 5.875 C1.31184379 2.97095304 1.31184379 2.97095304 0 0 Z " fill="#BD411B" transform="translate(111,80)"/>
<path d="M0 0 C1.98 0 3.96 0 6 0 C6.86883706 1.57533086 7.71959068 3.16064509 8.5625 4.75 C9.03816406 5.63171875 9.51382812 6.5134375 10.00390625 7.421875 C11.07998186 10.20701188 11.06528748 11.26980214 10 14 C9.74605469 13.38511719 9.49210937 12.77023438 9.23046875 12.13671875 C8.88628906 11.32847656 8.54210937 10.52023438 8.1875 9.6875 C7.85105469 8.88699219 7.51460938 8.08648437 7.16796875 7.26171875 C5.35664803 3.75417796 3.27540458 2.18360306 0 0 Z " fill="#E5501E" transform="translate(276,130)"/>
<path d="M0 0 C2.20805524 -0.0544452 4.41650554 -0.09299283 6.625 -0.125 C7.85476562 -0.14820312 9.08453125 -0.17140625 10.3515625 -0.1953125 C13.94316041 -0.0030428 16.66661175 0.69741444 20 2 C20 2.33 20 2.66 20 3 C16.7 3 13.4 3 10 3 C10 2.67 10 2.34 10 2 C6.7 1.67 3.4 1.34 0 1 C0 0.67 0 0.34 0 0 Z " fill="#4A361E" transform="translate(211,0)"/>
<path d="M0 0 C5.4185766 -0.22577402 9.77487721 0.53329887 15 2 C15 2.66 15 3.32 15 4 C9.76119922 3.44854729 5.02649303 2.57077907 0 1 C0 0.67 0 0.34 0 0 Z " fill="#31301A" transform="translate(45,362)"/>
<path d="M0 0 C0.33 0.66 0.66 1.32 1 2 C-0.21484375 4.6015625 -0.21484375 4.6015625 -1.9375 7.625 C-2.78634766 9.12933594 -2.78634766 9.12933594 -3.65234375 10.6640625 C-4.09707031 11.43492187 -4.54179688 12.20578125 -5 13 C-5.33 13 -5.66 13 -6 13 C-6.61690369 7.91054453 -4.70853769 5.14246941 -2 1 C-1.34 0.67 -0.68 0.34 0 0 Z " fill="#352F1A" transform="translate(73,235)"/>
<path d="M0 0 C0.66 0 1.32 0 2 0 C2 2.64 2 5.28 2 8 C1.360625 8.28875 0.72125 8.5775 0.0625 8.875 C-2.15206079 9.82823451 -2.15206079 9.82823451 -3 12 C-2.68950274 10.56206608 -2.3765224 9.1246682 -2.0625 7.6875 C-1.88847656 6.88699219 -1.71445313 6.08648437 -1.53515625 5.26171875 C-1 3 -1 3 0 0 Z " fill="#312E18" transform="translate(96,205)"/>
<path d="M0 0 C1.1875 1.5625 1.1875 1.5625 2 4 C0.6875 7.4375 0.6875 7.4375 -1 11 C-1.69140522 13.77888613 -1.69140522 13.77888613 -2 16 C-2.66 16 -3.32 16 -4 16 C-2.84941444 10.60204011 -1.57578241 5.29012667 0 0 Z " fill="#3A301A" transform="translate(70,134)"/>
<path d="M0 0 C5.94 0.99 5.94 0.99 12 2 C12.33 1.34 12.66 0.68 13 0 C13.66 1.32 14.32 2.64 15 4 C4.44191344 3.22095672 4.44191344 3.22095672 0 1 C0 0.67 0 0.34 0 0 Z " fill="#E3501E" transform="translate(140,389)"/>
<path d="M0 0 C1.98 0 3.96 0 6 0 C3.48617788 1.67588141 1.17052712 2.94030311 -1.5625 4.1875 C-2.34753906 4.55230469 -3.13257813 4.91710937 -3.94140625 5.29296875 C-4.62074219 5.52628906 -5.30007813 5.75960938 -6 6 C-6.66 5.67 -7.32 5.34 -8 5 C-5.94766315 2.7522025 -4.99332739 1.9977758 -2 1 C-1.34 1.33 -0.68 1.66 0 2 C0 1.34 0 0.68 0 0 Z " fill="#313922" transform="translate(328,383)"/>
<path d="M0 0 C4.55105375 0.54179211 8.06386006 1.62000841 12 4 C12.33 4.99 12.66 5.98 13 7 C8.1725201 5.58707905 4.2837641 3.57025846 0 1 C0 0.67 0 0.34 0 0 Z " fill="#35321D" transform="translate(32,355)"/>
<path d="M0 0 C7.66742597 5.0022779 7.66742597 5.0022779 9 9 C8.01 9 7.02 9 6 9 C5.67 8.34 5.34 7.68 5 7 C4.01 6.67 3.02 6.34 2 6 C0 3 0 3 0 0 Z " fill="#2C2D1A" transform="translate(326,61)"/>
<path d="M0 0 C0 0.66 0 1.32 0 2 C-1.43344 2.53190541 -2.87195367 3.05015258 -4.3125 3.5625 C-5.51326172 3.99755859 -5.51326172 3.99755859 -6.73828125 4.44140625 C-9 5 -9 5 -12 4 C-7.84698176 1.34668279 -4.92975386 0 0 0 Z " fill="#25341F" transform="translate(311,391)"/>
<path d="M0 0 C1.80330533 3.60661066 2.46599103 6.08393425 3 10 C4.98 10 6.96 10 9 10 C9 10.33 9 10.66 9 11 C6.36 11.33 3.72 11.66 1 12 C0.67 8.04 0.34 4.08 0 0 Z " fill="#ED521D" transform="translate(293,173)"/>
<path d="M0 0 C0.33 0 0.66 0 1 0 C1.02693575 2.12493141 1.04636628 4.24995912 1.0625 6.375 C1.07410156 7.55835938 1.08570313 8.74171875 1.09765625 9.9609375 C1 13 1 13 0 15 C-0.66 15 -1.32 15 -2 15 C-1.855625 14.01 -1.71125 13.02 -1.5625 12 C-0.99074821 8.00590535 -0.49180166 4.00467063 0 0 Z " fill="#F75720" transform="translate(150,248)"/>
<path d="M0 0 C0.33 0.99 0.66 1.98 1 3 C1.99 3.33 2.98 3.66 4 4 C3.1028125 4.061875 3.1028125 4.061875 2.1875 4.125 C-0.35100832 4.87739901 -0.35100832 4.87739901 -1.75 8.0625 C-2.1625 9.031875 -2.575 10.00125 -3 11 C-3.75 9.4375 -3.75 9.4375 -4 7 C-2.86915563 4.49713591 -1.47860484 2.32992278 0 0 Z " fill="#352C18" transform="translate(81,218)"/>
<path d="M0 0 C0.79921875 0.11085938 1.5984375 0.22171875 2.421875 0.3359375 C3.32679688 0.47902344 3.32679688 0.47902344 4.25 0.625 C3.92 1.285 3.59 1.945 3.25 2.625 C-0.71 2.295 -4.67 1.965 -8.75 1.625 C-4.77033543 -0.36483228 -4.07324868 -0.59900716 0 0 Z " fill="#26301B" transform="translate(170.75,404.375)"/>
<path d="M0 0 C1.35015859 4.05047576 0.62084998 6.7920168 0 11 C-0.33 10.34 -0.66 9.68 -1 9 C-1.66 9 -2.32 9 -3 9 C-3 6.36 -3 3.72 -3 1 C-2.01 1.33 -1.02 1.66 0 2 C0 1.34 0 0.68 0 0 Z " fill="#D84C1F" transform="translate(150,261)"/>
<path d="M0 0 C0.75 1.5625 0.75 1.5625 1 4 C-0.13084437 6.50286409 -1.52139516 8.67007722 -3 11 C-3.66 11 -4.32 11 -5 11 C-3.77472971 6.94718288 -2.30119506 3.55639236 0 0 Z " fill="#2C2A17" transform="translate(42,201)"/>
<path d="M0 0 C2.56616632 3.84924948 2.55097676 6.4349304 3 11 C1.68 11 0.36 11 -1 11 C-1 10.34 -1 9.68 -1 9 C-0.34 9 0.32 9 1 9 C0.67 6.03 0.34 3.06 0 0 Z " fill="#DB501F" transform="translate(283,175)"/>
<path d="M0 0 C0.66 0 1.32 0 2 0 C1.25 7.625 1.25 7.625 -1 11 C-2.26264601 6.70700357 -1.62950412 4.12168689 0 0 Z " fill="#30301B" transform="translate(382,333)"/>
<path d="M0 0 C1.04211409 3.12634226 0.99926113 4.04848841 0.25 7.125 C0.01023437 8.18074219 0.01023437 8.18074219 -0.234375 9.2578125 C-0.48703125 9.83273438 -0.7396875 10.40765625 -1 11 C-1.99 11.33 -2.98 11.66 -4 12 C-3.45660208 7.43545749 -2.20536179 4.0271824 0 0 Z " fill="#CF4118" transform="translate(72,160)"/>
<path d="M0 0 C2.39073445 3.82517513 2.55966552 7.59665524 3 12 C2.67 11.34 2.34 10.68 2 10 C1.34 10 0.68 10 0 10 C-0.74926071 6.33694766 -1.2380014 3.57644848 0 0 Z " fill="#44391F" transform="translate(373,214)"/>
<path d="M0 0 C0.66 0.99 1.32 1.98 2 3 C1.34 3 0.68 3 0 3 C-0.66 4.65 -1.32 6.3 -2 8 C-2.66 8 -3.32 8 -4 8 C-2.87548273 5.0280615 -1.77706209 2.66559313 0 0 Z M3 0 C3.33 0.66 3.66 1.32 4 2 C3.34 1.67 2.68 1.34 2 1 C2.33 0.67 2.66 0.34 3 0 Z " fill="#292717" transform="translate(166,23)"/>
<path d="M0 0 C-2.42341975 2.93361338 -4.28804726 3.4567874 -8 4 C-9.33542939 4.32483418 -10.66961551 4.6550855 -12 5 C-8.36219404 0.99841344 -5.42711258 -0.30150625 0 0 Z " fill="#0A1B18" transform="translate(216,251)"/>
<path d="M0 0 C0.33 0 0.66 0 1 0 C1.25 2.25 1.25 2.25 1 5 C-1 7.3125 -1 7.3125 -3 9 C-3.33 8.34 -3.66 7.68 -4 7 C-3.22265625 5.2734375 -3.22265625 5.2734375 -2.0625 3.375 C-1.381875 2.26125 -0.70125 1.1475 0 0 Z " fill="#40321C" transform="translate(16,246)"/>
<path d="M0 0 C1.8871875 0.0309375 1.8871875 0.0309375 3.8125 0.0625 C3.173125 0.371875 2.53375 0.68125 1.875 1 C-0.12360821 1.8970163 -0.12360821 1.8970163 -1.1875 3.0625 C-2.85367115 3.10313832 -4.52138095 3.105221 -6.1875 3.0625 C-6.5175 2.4025 -6.8475 1.7425 -7.1875 1.0625 C-4.43671116 0.14557039 -2.82801087 -0.04636083 0 0 Z " fill="#E7511F" transform="translate(344.1875,247.9375)"/>
<path d="M0 0 C1.32 1.32 2.64 2.64 4 4 C2.0625 4.5625 2.0625 4.5625 0 5 C-0.33 4.67 -0.66 4.34 -1 4 C-1.99 4 -2.98 4 -4 4 C-2.68 2.68 -1.36 1.36 0 0 Z " fill="#684423" transform="translate(227,43)"/>
<path d="M0 0 C0.66 0.33 1.32 0.66 2 1 C2.625 3.0625 2.625 3.0625 3 5 C0.69 5 -1.62 5 -4 5 C-4.33 4.34 -4.66 3.68 -5 3 C-3.35 3 -1.7 3 0 3 C0 2.01 0 1.02 0 0 Z " fill="#CF461B" transform="translate(62,352)"/>
<path d="M0 0 C0.66 0.33 1.32 0.66 2 1 C0.63016497 4.16115776 0.0109362 4.9927092 -3 7 C-3.99 6.67 -4.98 6.34 -6 6 C-4.02 4.02 -2.04 2.04 0 0 Z " fill="#39321D" transform="translate(100,65)"/>
<path d="M0 0 C2.97 0.33 5.94 0.66 9 1 C6.84658021 3.15341979 5.96076291 3.64111965 3 4 C2.01 3.34 1.02 2.68 0 2 C0 1.34 0 0.68 0 0 Z " fill="#BE411B" transform="translate(126,63)"/>
<path d="M0 0 C1.17571451 3.67410785 1.07366746 7.16929183 1 11 C0.34 11 -0.32 11 -1 11 C-1.33 11.66 -1.66 12.32 -2 13 C-1.85851011 11.3954444 -1.71164314 9.79136233 -1.5625 8.1875 C-1.48128906 7.29417969 -1.40007813 6.40085937 -1.31640625 5.48046875 C-1 3 -1 3 0 0 Z " fill="#554125" transform="translate(60,291)"/>
<path d="M0 0 C0.66 0.99 1.32 1.98 2 3 C1.01 4.98 0.02 6.96 -1 9 C-1.66 8.67 -2.32 8.34 -3 8 C-1.125 2.25 -1.125 2.25 0 0 Z " fill="#352B16" transform="translate(48,189)"/>
<path d="M0 0 C0.66 0.33 1.32 0.66 2 1 C-0.83430453 4.2542015 -2.68607774 5.5206753 -7 6 C-7 5.34 -7 4.68 -7 4 C-1.7265625 0.77734375 -1.7265625 0.77734375 0 0 Z " fill="#E9511E" transform="translate(341,181)"/>
<path d="M0 0 C-2.59482129 2.59482129 -4.39883625 2.69990302 -8 3 C-8.66 2.34 -9.32 1.68 -10 1 C-3.71428571 -1.42857143 -3.71428571 -1.42857143 0 0 Z " fill="#38321C" transform="translate(128,54)"/>
<path d="M0 0 C0.66 0.33 1.32 0.66 2 1 C0.70700306 3.88437779 -0.65941363 5.87219421 -3 8 C-3 4.42424104 -1.91159393 2.94704065 0 0 Z " fill="#2B2E1B" transform="translate(375,350)"/>
<path d="M0 0 C4 1 4 1 6 4 C5.67 4.99 5.34 5.98 5 7 C3.35 4.69 1.7 2.38 0 0 Z " fill="#3C341D" transform="translate(11,336)"/>
<path d="M0 0 C0.99 0.33 1.98 0.66 3 1 C2.34 1.66 1.68 2.32 1 3 C1.33 3.66 1.66 4.32 2 5 C1.01 5 0.02 5 -1 5 C-1.33 5.66 -1.66 6.32 -2 7 C-2.125 4.625 -2.125 4.625 -2 2 C-1.34 1.34 -0.68 0.68 0 0 Z " fill="#46341E" transform="translate(201,37)"/>
<path d="M0 0 C2.4375 0.375 2.4375 0.375 5 1 C5.33 1.66 5.66 2.32 6 3 C4.02 3.33 2.04 3.66 0 4 C0 2.68 0 1.36 0 0 Z " fill="#673C1C" transform="translate(218,39)"/>
<path d="M0 0 C0.99 0.33 1.98 0.66 3 1 C2.34 2.32 1.68 3.64 1 5 C0.01 4.01 -0.98 3.02 -2 2 C-1.34 1.34 -0.68 0.68 0 0 Z " fill="#673A1D" transform="translate(66,259)"/>
<path d="M0 0 C0.99 0.495 0.99 0.495 2 1 C1.34 2.32 0.68 3.64 0 5 C0 3.35 0 1.7 0 0 Z " fill="#633A1E" transform="translate(58,281)"/>
<path d="M0 0 C0 0.99 0 1.98 0 3 C-0.99 3.495 -0.99 3.495 -2 4 C-1.34 2.68 -0.68 1.36 0 0 Z " fill="#613C1E" transform="translate(60,274)"/>
<path d="M0 0 C0.66 0 1.32 0 2 0 C1.67 0.99 1.34 1.98 1 3 C0.34 2.34 -0.32 1.68 -1 1 C-0.67 0.67 -0.34 0.34 0 0 Z " fill="#663E1D" transform="translate(86,228)"/>
<path d="M0 0 C0.66 0.99 1.32 1.98 2 3 C1.01 3 0.02 3 -1 3 C-0.67 2.01 -0.34 1.02 0 0 Z " fill="#653D1E" transform="translate(89,208)"/>
<path d="M0 0 C0.99 1.485 0.99 1.485 2 3 C1.01 3.495 1.01 3.495 0 4 C0 2.68 0 1.36 0 0 Z " fill="#653D1B" transform="translate(93,199)"/>
<path d="M0 0 C0.33 1.32 0.66 2.64 1 4 C0.34 3.01 -0.32 2.02 -1 1 C-0.67 0.67 -0.34 0.34 0 0 Z " fill="#693C1B" transform="translate(99,187)"/>
<path d="M0 0 C0.66 0.66 1.32 1.32 2 2 C1.01 1.67 0.02 1.34 -1 1 C-0.67 0.67 -0.34 0.34 0 0 Z " fill="#5F3D20" transform="translate(59,278)"/>
<path d="M0 0 C0.99 0 1.98 0 3 0 C2.67 0.66 2.34 1.32 2 2 C1.34 1.34 0.68 0.68 0 0 Z " fill="#673D1C" transform="translate(214,38)"/>
<path d="M0 0 C0.66 0 1.32 0 2 0 C1.67 0.66 1.34 1.32 1 2 C0.67 1.34 0.34 0.68 0 0 Z " fill="#673A1C" transform="translate(68,258)"/>
<path d="M0 0 C0.66 0.66 1.32 1.32 2 2 C1.34 2 0.68 2 0 2 C0 1.34 0 0.68 0 0 Z " fill="#643B1D" transform="translate(73,243)"/>
<path d="" fill="#623D1D" transform="translate(0,0)"/>
<path d="M0 0 C0.66 0.66 1.32 1.32 2 2 C1.34 2 0.68 2 0 2 C0 1.34 0 0.68 0 0 Z " fill="#693D1D" transform="translate(85,223)"/>
<path d="M0 0 C3 1 3 1 3 1 Z " fill="#653D1F" transform="translate(86,217)"/>
<path d="" fill="#653E1E" transform="translate(0,0)"/>
<path d="" fill="#683F1C" transform="translate(0,0)"/>
<path d="M0 0 C3 1 3 1 3 1 Z " fill="#693F1D" transform="translate(220,47)"/>
<path d="" fill="#61391D" transform="translate(0,0)"/>
<path d="" fill="#61391E" transform="translate(0,0)"/>
<path d="" fill="#663A1C" transform="translate(0,0)"/>
<path d="" fill="#5E361B" transform="translate(0,0)"/>
<path d="" fill="#643B1E" transform="translate(0,0)"/>
<path d="" fill="#653C1E" transform="translate(0,0)"/>
<path d="" fill="#683E1E" transform="translate(0,0)"/>
<path d="M0 0 C2 1 2 1 2 1 Z " fill="#673C1E" transform="translate(61,261)"/>
<path d="M0 0 C2 1 2 1 2 1 Z " fill="#673A1B" transform="translate(68,250)"/>
<path d="" fill="#603A1C" transform="translate(0,0)"/>
<path d="" fill="#643C20" transform="translate(0,0)"/>
<path d="M0 0 C2 1 2 1 2 1 Z " fill="#623A1F" transform="translate(83,234)"/>
<path d="" fill="#623C1E" transform="translate(0,0)"/>
<path d="" fill="#5E3A1C" transform="translate(0,0)"/>
<path d="" fill="#69401E" transform="translate(0,0)"/>
<path d="" fill="#673D1E" transform="translate(0,0)"/>
<path d="" fill="#673C1D" transform="translate(0,0)"/>
<path d="" fill="#663D1C" transform="translate(0,0)"/>
<path d="" fill="#6A3D1C" transform="translate(0,0)"/>
<path d="" fill="#623B1B" transform="translate(0,0)"/>
<path d="M0 0 C2 1 2 1 2 1 Z " fill="#673C1D" transform="translate(207,41)"/>
<path d="" fill="#6A3B1C" transform="translate(0,0)"/>
<path d="" fill="#623D21" transform="translate(0,0)"/>
<path d="" fill="#633B1D" transform="translate(0,0)"/>
<path d="" fill="#663C1E" transform="translate(0,0)"/>
<path d="" fill="#633A1C" transform="translate(0,0)"/>
<path d="" fill="#613C1E" transform="translate(0,0)"/>
<path d="" fill="#634021" transform="translate(0,0)"/>
<path d="" fill="#643E1F" transform="translate(0,0)"/>
<path d="" fill="#623C20" transform="translate(0,0)"/>
<path d="" fill="#633B1C" transform="translate(0,0)"/>
<path d="" fill="#633D20" transform="translate(0,0)"/>
<path d="" fill="#643B1E" transform="translate(0,0)"/>
<path d="" fill="#633E1E" transform="translate(0,0)"/>
<path d="" fill="#623B1C" transform="translate(0,0)"/>
<path d="" fill="#643E1E" transform="translate(0,0)"/>
<path d="" fill="#673D1E" transform="translate(0,0)"/>
<path d="" fill="#663C20" transform="translate(0,0)"/>
<path d="" fill="#653C1E" transform="translate(0,0)"/>
<path d="" fill="#653E1E" transform="translate(0,0)"/>
<path d="" fill="#663D1D" transform="translate(0,0)"/>
<path d="" fill="#673B1E" transform="translate(0,0)"/>
<path d="" fill="#653B1D" transform="translate(0,0)"/>
<path d="" fill="#6B3D1C" transform="translate(0,0)"/>
<path d="" fill="#643C1E" transform="translate(0,0)"/>
<path d="" fill="#653C1E" transform="translate(0,0)"/>
<path d="" fill="#5E391C" transform="translate(0,0)"/>
<path d="" fill="#663D1E" transform="translate(0,0)"/>
<path d="" fill="#613B1D" transform="translate(0,0)"/>
<path d="" fill="#633B1C" transform="translate(0,0)"/>
<path d="" fill="#653C1C" transform="translate(0,0)"/>
<path d="" fill="#683B1E" transform="translate(0,0)"/>
<path d="" fill="#663C1E" transform="translate(0,0)"/>
<path d="" fill="#663C1D" transform="translate(0,0)"/>
<path d="" fill="#663B1D" transform="translate(0,0)"/>
<path d="" fill="#643B1E" transform="translate(0,0)"/>
<path d="" fill="#684020" transform="translate(0,0)"/>
<path d="" fill="#633C1D" transform="translate(0,0)"/>
<path d="" fill="#643E1D" transform="translate(0,0)"/>
<path d="" fill="#613E1D" transform="translate(0,0)"/>
<path d="" fill="#643F20" transform="translate(0,0)"/>
<path d="" fill="#653E1E" transform="translate(0,0)"/>
<path d="" fill="#5E3A1D" transform="translate(0,0)"/>
<path d="" fill="#693E1E" transform="translate(0,0)"/>
<path d="" fill="#623F1F" transform="translate(0,0)"/>
<path d="" fill="#6A3D1C" transform="translate(0,0)"/>
<path d="" fill="#663F1C" transform="translate(0,0)"/>
<path d="" fill="#693E1E" transform="translate(0,0)"/>
<path d="" fill="#673D1C" transform="translate(0,0)"/>
<path d="" fill="#6A3D1D" transform="translate(0,0)"/>
<path d="" fill="#663D1A" transform="translate(0,0)"/>
<path d="" fill="#673E1E" transform="translate(0,0)"/>
<path d="" fill="#6A3E1C" transform="translate(0,0)"/>
<path d="" fill="#653E1D" transform="translate(0,0)"/>
<path d="" fill="#673E1D" transform="translate(0,0)"/>
<path d="" fill="#663C1B" transform="translate(0,0)"/>
<path d="" fill="#6C401F" transform="translate(0,0)"/>
<path d="" fill="#673A1D" transform="translate(0,0)"/>
<path d="" fill="#5B3D1B" transform="translate(0,0)"/>
<path d="" fill="#6A3A1C" transform="translate(0,0)"/>
<path d="" fill="#6A3D1D" transform="translate(0,0)"/>
<path d="" fill="#6A3B1E" transform="translate(0,0)"/>
<path d="" fill="#663C1D" transform="translate(0,0)"/>
<path d="" fill="#6A3C1B" transform="translate(0,0)"/>
<path d="" fill="#6B3C1C" transform="translate(0,0)"/>
<path d="" fill="#6B3A1A" transform="translate(0,0)"/>
<path d="" fill="#683A1C" transform="translate(0,0)"/>
<path d="" fill="#6D3D1D" transform="translate(0,0)"/>
<path d="" fill="#693C1D" transform="translate(0,0)"/>
<path d="" fill="#68401D" transform="translate(0,0)"/>
<path d="" fill="#663B1C" transform="translate(0,0)"/>
<path d="" fill="#653819" transform="translate(0,0)"/>
</svg>
