<?xml version="1.0" encoding="UTF-8"?>
<svg version="1.1" xmlns="http://www.w3.org/2000/svg" width="393" height="251">
<path d="M0 0 C6.27769179 4.58291557 11.18632406 9.65243866 14 17 C14.0928125 18.7325 14.0928125 18.7325 14.1875 20.5 C15.35285464 25.5199892 18.4822054 27.35962542 22.3515625 30.5859375 C25.74583478 33.6798317 28.13048014 37.10186733 30.625 40.93359375 C31.96863119 43.09994592 31.96863119 43.09994592 34 45 C34.51796143 44.65743164 35.03592285 44.31486328 35.56958008 43.96191406 C51.71399727 33.34827213 64.20034928 26.45735016 83.890625 29.4375 C90.76868702 31.21248375 97.24462398 34.89608067 103 39 C103 39.66 103 40.32 103 41 C103.59296875 41.26296875 104.1859375 41.5259375 104.796875 41.796875 C114.59831726 47.14943567 121.03741093 61.29576224 124.5 71.5 C128.15832992 85.97000137 127.84681804 102.36497999 120.59765625 115.55078125 C114.15542672 125.67878513 104.15820392 133.17516428 94.9140625 140.62109375 C91.56018381 143.35904565 88.27793878 146.17201789 85 149 C80.81956744 152.60597009 76.6085331 156.15630566 72.3125 159.625 C62.58451532 167.56211857 54.01045023 175.41853087 47.06640625 185.92578125 C32.66785431 207.5632382 8.83001189 234.39867702 -17.125 241.25 C-34.24032563 244.44568019 -50.03738085 243.53762483 -65 234 C-84.53302014 220.55012042 -97.33638658 199.46071096 -102.55786133 176.55249023 C-105.72292046 158.28043437 -101.89722851 142.42966805 -92 127 C-102.82473305 132.75198159 -113.33764416 138.41289241 -123 146 C-124.54053576 147.12654813 -126.08211501 148.25167145 -127.625 149.375 C-130.28035316 151.2851483 -130.28035316 151.2851483 -132 154 C-132.66 154 -133.32 154 -134 154 C-134.20625 154.556875 -134.4125 155.11375 -134.625 155.6875 C-136.17534298 158.29489502 -138.0798282 159.85768779 -140.44140625 161.7265625 C-142.1825003 163.09981435 -142.1825003 163.09981435 -144.25 165.3125 C-158.35993669 179.10175631 -178.79104183 194.5640674 -199.23828125 195.08203125 C-216.24220536 194.32856395 -230.92485696 186.78763963 -243 175 C-243 174.34 -243 173.68 -243 173 C-243.66 173 -244.32 173 -245 173 C-245 172.34 -245 171.68 -245 171 C-245.66 171 -246.32 171 -247 171 C-248.6928786 168.82605158 -250.23498756 166.66947333 -251.75 164.375 C-252.19738525 163.69856445 -252.64477051 163.02212891 -253.10571289 162.32519531 C-264.70914283 144.30476464 -270.33765699 122.2804136 -265.75 101.0625 C-262.49382673 88.79505653 -256.6156315 78.34434929 -246 71 C-240.82977924 68.0076362 -235.42187993 65.49624622 -230 63 C-228.53240234 62.30390625 -228.53240234 62.30390625 -227.03515625 61.59375 C-219.78729903 58.34937202 -212.26042228 56.28615529 -204.63232422 54.15307617 C-187.73195861 49.42624097 -172.1292051 42.00379947 -156.38256836 34.33520508 C-134.74940707 23.80802856 -118.47209038 18.50337088 -94.4609375 23.77734375 C-90.12101766 24.05654853 -88.8163627 23.14179324 -85.3125 20.625 C-84.10601953 19.79487509 -82.89602287 18.96984977 -81.68359375 18.1484375 C-80.97444824 17.6647168 -80.26530273 17.18099609 -79.53466797 16.68261719 C-74.67885932 13.45913103 -69.70576531 10.42340757 -64.73178101 7.38690186 C-62.91691059 6.27566174 -61.10941693 5.15309719 -59.30200195 4.02978516 C-39.68908557 -8.03632252 -20.78617964 -13.11914617 0 0 Z " fill="#07291D" transform="translate(267,8)"/>
<path d="M0 0 C3.9610587 2.01816411 7.47573201 4.29748251 11 7 C12.16208984 7.85658203 12.16208984 7.85658203 13.34765625 8.73046875 C26.18116121 19.05450619 34.51980333 36.64488437 36.76855469 52.73974609 C38.10778148 65.81839763 39.74573355 83.11150403 31.33984375 94.1875 C24.40040027 101.02719789 15.59981074 103.37326317 6.0625 103.5625 C-1.46869002 103.48459419 -7.43082128 101.60893685 -14 98 C-14.95777344 97.48050781 -15.91554687 96.96101563 -16.90234375 96.42578125 C-32.50690492 87.24285019 -42.97198975 70.21734797 -48.375 53.25 C-50.0700538 46.39176976 -50.38674223 39.7395904 -50.4375 32.6875 C-50.45272705 31.18461426 -50.45272705 31.18461426 -50.46826172 29.65136719 C-50.33572515 18.36522482 -47.62522072 9.5726396 -39.5234375 1.53515625 C-26.54586362 -9.88094483 -14.71650175 -6.24263399 0 0 Z " fill="#14696C" transform="translate(60,90)"/>
<path d="M0 0 C0.86496094 -0.01611328 1.72992188 -0.03222656 2.62109375 -0.04882812 C13.44974776 -0.05694556 21.20311436 3.38384138 28.9609375 10.8359375 C39.70335736 22.48776857 44.67104747 36.37842154 44.8125 52 C44.82273193 52.86681396 44.83296387 53.73362793 44.84350586 54.62670898 C44.73947842 62.29200369 43.71526062 70.79218717 38.125 76.5 C37.51011719 77.14195312 36.89523437 77.78390625 36.26171875 78.4453125 C35.63910156 79.06148438 35.01648438 79.67765625 34.375 80.3125 C33.80394531 80.90804687 33.23289062 81.50359375 32.64453125 82.1171875 C29.05425048 85.81427297 25.24604967 89.20051875 21.34375 92.5625 C19.44476929 94.25048286 17.65494012 96.00019734 15.875 97.8125 C6.12053571 107.70089286 6.12053571 107.70089286 0.375 110.3125 C0.31892578 108.91451172 0.31892578 108.91451172 0.26171875 107.48828125 C-0.77680085 87.34914627 -6.09756417 65.27476985 -21.4921875 51.109375 C-22.19601562 50.51640625 -22.89984375 49.9234375 -23.625 49.3125 C-24.32882812 48.71953125 -25.03265625 48.1265625 -25.7578125 47.515625 C-34.77914371 40.60436787 -45.89301487 36.77170904 -56.625 33.3125 C-53.36859722 29.67878103 -49.63180306 27.39002644 -45.4375 25 C-40.24551678 21.96702842 -35.41607426 18.80474624 -30.7421875 15.00390625 C-24.98740739 10.40645277 -18.77394803 6.36180724 -12.625 2.3125 C-8.42465965 -0.4877269 -4.9376452 -0.01791598 0 0 Z " fill="#136163" transform="translate(315.625,63.6875)"/>
<path d="M0 0 C7.09866297 4.19272771 14.98119131 9.82408527 19.25 17.0625 C19.35546875 19.04296875 19.35546875 19.04296875 18.25 21.0625 C16.03540154 22.6837419 13.93741235 24.0332068 11.5625 25.375 C10.89492676 25.76598877 10.22735352 26.15697754 9.53955078 26.55981445 C3.93671505 29.79505979 -1.83142482 32.60272308 -7.7265625 35.26171875 C-12.50196135 38.10598086 -15.14474345 41.39083905 -17.0625 46.6875 C-18.94100694 56.26241404 -18.35598055 65.3693444 -13.75 74.0625 C-11.73556651 76.85733424 -9.63021827 79.47648464 -7.359375 82.06640625 C-5.75 84.0625 -5.75 84.0625 -5.75 86.0625 C-7.16772461 87.20410156 -7.16772461 87.20410156 -9.15234375 88.453125 C-9.87421875 88.91291748 -10.59609375 89.37270996 -11.33984375 89.84643555 C-12.11457031 90.33023682 -12.88929688 90.81403809 -13.6875 91.3125 C-15.24901967 92.30287829 -16.81022032 93.29375978 -18.37109375 94.28515625 C-19.50393799 95.00082764 -19.50393799 95.00082764 -20.65966797 95.73095703 C-23.91066886 97.80184688 -27.09809634 99.96360423 -30.28125 102.13671875 C-31.75 103.0625 -31.75 103.0625 -32.75 103.0625 C-32.85489746 102.02863159 -32.85489746 102.02863159 -32.96191406 100.97387695 C-35.57289537 75.84423132 -40.77252719 51.78996194 -60.8125 34.5 C-67.02660704 29.58410473 -73.78613746 25.79350372 -80.75 22.0625 C-77.66425751 18.61372898 -74.36407118 16.5594196 -70.25 14.5625 C-69.58653564 14.23499756 -68.92307129 13.90749512 -68.23950195 13.57006836 C-20.20589208 -9.66757046 -20.20589208 -9.66757046 0 0 Z " fill="#136567" transform="translate(170.75,42.9375)"/>
<path d="M0 0 C14.1492051 7.21290305 24.35581662 21.65709028 29.22460938 36.48339844 C31.74879932 45.30022446 31.25709105 54.42763546 27.53515625 62.82421875 C23.50733824 69.80035311 17.3934035 75.11542369 9.59765625 77.32421875 C-1.03901762 79.19369476 -8.81997461 75.0929764 -17.40234375 69.32421875 C-29.44228292 60.68015986 -36.92032015 47.62137555 -40.40234375 33.32421875 C-41.7342748 23.10488933 -39.61321546 14.10560206 -34.15234375 5.38671875 C-26.21547367 -4.89177449 -10.90679065 -4.47256883 0 0 Z " fill="#06271B" transform="translate(227.40234375,149.67578125)"/>
<path d="M0 0 C3.81531241 2.53631564 7.01505119 5.17814395 10.125 8.5625 C10.91261719 9.17480469 11.70023437 9.78710938 12.51171875 10.41796875 C23.80839029 19.68833149 29.7092988 33.03391745 34.125 46.5625 C34.455 47.5525 34.785 48.5425 35.125 49.5625 C36.38192787 63.32802732 35.86303357 79.30564885 27.6015625 90.98828125 C24.85456882 93.91695441 21.67931906 95.75789399 18.125 97.5625 C17.0525 98.14 15.98 98.7175 14.875 99.3125 C9.62479236 101.06256921 4.63167799 101.34630248 -0.875 101.5625 C-2.73511719 101.65917969 -2.73511719 101.65917969 -4.6328125 101.7578125 C-16.56753695 102.11947082 -23.85204665 99.59115739 -33.16015625 92.24609375 C-34.875 90.5625 -34.875 90.5625 -35.875 87.5625 C-37.18815764 86.85692276 -38.52507549 86.19489707 -39.875 85.5625 C-52.05149954 75.86301856 -62.5009769 57.86834184 -64.875 42.5625 C-65.17743059 39.05679454 -65.24487992 35.57999309 -65.25 32.0625 C-65.27449219 31.17691406 -65.29898438 30.29132813 -65.32421875 29.37890625 C-65.35272511 22.90796238 -63.93572801 18.23499169 -60.875 12.5625 C-60.42898437 11.70398438 -59.98296875 10.84546875 -59.5234375 9.9609375 C-55.67948552 3.85306287 -51.09511853 0.15676011 -44.875 -3.4375 C-44.13765625 -3.87320313 -43.4003125 -4.30890625 -42.640625 -4.7578125 C-28.72957718 -11.61739815 -12.52281677 -7.61679957 0 0 Z M-42.625 13.6875 C-49.82589377 22.88864203 -51.93950314 32.05101257 -50.875 43.5625 C-47.81690422 56.39507014 -40.73494804 71.25501119 -29.26904297 78.58984375 C-25.21315492 81.05740432 -21.06945526 83.34010288 -16.875 85.5625 C-16.19050781 85.95953125 -15.50601563 86.3565625 -14.80078125 86.765625 C-9.6554557 88.89472523 -3.33421788 88.31035268 1.88671875 86.72265625 C9.28611253 83.35723519 13.81147567 78.34125641 18 71.5 C22.23437472 59.68127055 20.12440013 48.58807193 15.125 37.5625 C8.16627037 24.82291035 -1.9573902 12.48204945 -16.3203125 8.10546875 C-26.28285748 5.98804711 -34.58685675 7.47620749 -42.625 13.6875 Z " fill="#136567" transform="translate(237.875,139.4375)"/>
<path d="M0 0 C15.8750093 5.66107671 27.51284602 16.03290045 34.7644043 31.10327148 C41.53699472 45.83314581 46.21950166 63.79474892 40.40234375 79.69140625 C34.53434827 91.78494532 23.80490015 101.65604208 14.3125 110.9375 C12.97779442 108.26808883 13.59543989 107.07954334 14.25 104.1875 C17.97482605 84.64491949 12.54102844 67.34390004 2.36328125 50.76171875 C-10.61790856 32.14569199 -27.14417343 22.56707001 -48.6875 16.9375 C-48.6875 16.2775 -48.6875 15.6175 -48.6875 14.9375 C-43.74506409 10.83187863 -37.80336362 7.77489406 -32.25 4.5625 C-31.32743408 4.02568604 -31.32743408 4.02568604 -30.38623047 3.47802734 C-25.92823051 0.9375 -25.92823051 0.9375 -23.6875 0.9375 C-23.6875 0.2775 -23.6875 -0.3825 -23.6875 -1.0625 C-16.83120111 -4.49064945 -6.94000138 -2.16875043 0 0 Z " fill="#135E5F" transform="translate(265.6875,107.0625)"/>
<path d="M0 0 C2.27903265 1.71798047 4.41683796 3.52774629 6.55078125 5.421875 C7.15535156 5.89882812 7.75992188 6.37578125 8.3828125 6.8671875 C14.92572699 12.50915891 18.08005423 20.70171959 21.55078125 28.421875 C22.01097656 29.40929687 22.47117188 30.39671875 22.9453125 31.4140625 C26.40540302 39.65470211 27.19725292 49.17895886 24.48828125 57.796875 C21.97465236 63.37737168 17.59479515 68.05919907 12.55078125 71.421875 C3.10260728 73.27445813 -4.5313545 73.19988868 -12.70703125 67.98046875 C-24.51383765 59.35549662 -31.05633623 47.09579854 -35.44921875 33.421875 C-35.64515625 32.82375 -35.84109375 32.225625 -36.04296875 31.609375 C-38.08884005 20.59314493 -37.19325774 8.9621294 -31.07421875 -0.515625 C-23.54438147 -10.11116986 -8.80871902 -5.67579343 0 0 Z " fill="#05261A" transform="translate(59.44921875,104.578125)"/>
<path d="M0 0 C0.7940625 0.24492188 1.588125 0.48984375 2.40625 0.7421875 C17.5357294 6.01882692 28.00034059 19.10336567 35 33 C36.90154881 37.26689001 38.52307635 41.56922905 40 46 C40.32097656 46.94230469 40.64195313 47.88460937 40.97265625 48.85546875 C42.78714933 54.97410821 43.3252398 60.90437873 43.4375 67.25 C43.45981689 67.99467529 43.48213379 68.73935059 43.50512695 69.5065918 C43.46876199 78.3491743 39.20780823 84.36244881 33.359375 90.68359375 C22.77531915 101.07489362 22.77531915 101.07489362 17 103 C17.15984375 102.1028125 17.3196875 101.205625 17.484375 100.28125 C19.55790429 85.63419202 19.220295 69.20489537 15 55 C14.68289062 53.91203125 14.36578125 52.8240625 14.0390625 51.703125 C10.97235322 42.61174571 5.84718862 35.46993417 0 28 C-0.59941406 27.20335938 -1.19882813 26.40671875 -1.81640625 25.5859375 C-9.0760554 16.52449591 -19.4052114 12.06952145 -30 8 C-31.91741279 7.23102449 -33.83413764 6.46033023 -35.75 5.6875 C-37.16630695 5.12409488 -38.58282785 4.56122525 -40 4 C-30.99523685 -5.00476315 -11.16516469 -3.73603588 0 0 Z " fill="#136668" transform="translate(86,73)"/>
<path d="M0 0 C3.52018678 2.82268847 6.75783894 5.86591098 10 9 C10.6290625 9.52078125 11.258125 10.0415625 11.90625 10.578125 C19.37903686 17.03189547 26.1241334 30.22633713 27.23120117 40.05200195 C28.01810216 52.8113336 26.93295146 63.4192239 18.4375 73.5625 C16.14657815 76.02272786 13.72723558 78.03662909 11 80 C11.02356567 79.16359985 11.02356567 79.16359985 11.04760742 78.31030273 C11.57156962 56.78805806 9.56386711 36.42059374 -6 20 C-16.02130401 9.72499209 -26.21584977 6.26060064 -40 4 C-37.50782421 1.30800611 -35.54504861 -0.49446849 -32.0625 -1.6875 C-31.41410156 -1.91824219 -30.76570313 -2.14898437 -30.09765625 -2.38671875 C-20.25968324 -5.26299764 -8.75100858 -5.95068584 0 0 Z " fill="#146769" transform="translate(357,51)"/>
<path d="M0 0 C8.01049255 4.43325347 15.72132041 10.70953597 19.75 19.125 C20.23828125 22.16015625 20.23828125 22.16015625 19.75 25.125 C17.73046875 27.43359375 17.73046875 27.43359375 14.9375 29.5625 C13.93847656 30.32820313 12.93945312 31.09390625 11.91015625 31.8828125 C8.11112566 34.57829279 4.24394117 37.11000571 0.2578125 39.51953125 C-2.35376893 41.12384964 -2.35376893 41.12384964 -4.9453125 43.32421875 C-7.25 45.125 -7.25 45.125 -9.25 45.125 C-9.518125 44.23039062 -9.78625 43.33578125 -10.0625 42.4140625 C-14.19807913 29.65362426 -20.40960757 20.98187856 -32.25 14.125 C-35.20172082 12.65132605 -38.17555037 11.3206193 -41.25 10.125 C-39.80747564 6.38394781 -38.22629966 5.27513111 -34.625 3.625 C-30.8840386 1.92288582 -30.8840386 1.92288582 -27.3046875 -0.08203125 C-18.71288786 -5.34497345 -8.81328329 -4.06102269 0 0 Z " fill="#136263" transform="translate(273.25,37.875)"/>
<path d="M0 0 C0.70382813 -0.020625 1.40765625 -0.04125 2.1328125 -0.0625 C8.01012072 -0.10619746 11.95798537 1.25101001 16.48046875 5.1953125 C21.61097066 10.90952421 25.14369364 15.92650436 25.30078125 23.79296875 C25.1271731 26.34307961 24.75737091 28.7464157 24.25 31.25 C24.0025 32.4875 23.755 33.725 23.5 35 C19.87753221 40.23245347 14.25610671 42.44671372 8.25 44.25 C2.3056171 43.76564287 -3.3573812 40.66896923 -7.5234375 36.45703125 C-9.09681796 34.45636219 -10.44541721 32.43487878 -11.75 30.25 C-12.16378906 29.57066406 -12.57757813 28.89132813 -13.00390625 28.19140625 C-16.32769151 21.87968859 -16.97473256 15.25619067 -15.75 8.25 C-11.91901066 1.21873297 -7.63433301 0.0547264 0 0 Z " fill="#136667" transform="translate(175.75,83.75)"/>
<path d="M0 0 C5.90934413 -0.51875922 9.2626164 0.81984089 13.875 4.3125 C14.48069824 4.75964355 15.08639648 5.20678711 15.71044922 5.66748047 C21.41935219 10.04061247 25.92244907 15.0722828 30 21 C30.46148437 21.66515625 30.92296875 22.3303125 31.3984375 23.015625 C36.00828379 30.79678399 35.79223345 41.36469336 34 50 C32 52 32 52 29.125 52.25 C21.0122642 51.60098114 12.78153195 44.33727525 7.5625 38.4375 C1.25516639 30.42155152 -1.3568621 22.465312 -1.1875 12.3125 C-1.18685547 11.56677734 -1.18621094 10.82105469 -1.18554688 10.05273438 C-1.15733385 6.53864529 -0.94084757 3.3800125 0 0 Z " fill="#0C4D49" transform="translate(214,156)"/>
<path d="M0 0 C11.47971744 2.95599756 11.47971744 2.95599756 14.46484375 7.22265625 C14.65625 9.67578125 14.65625 9.67578125 13.46484375 12.22265625 C11.11960285 14.0457264 8.95306415 15.4993288 6.40234375 16.97265625 C5.33282471 17.61509277 5.33282471 17.61509277 4.24169922 18.27050781 C-2.05808482 22.02633432 -8.45770355 25.61440377 -14.87109375 29.171875 C-19.49360289 31.74274007 -24.02591963 34.45858092 -28.53515625 37.22265625 C-29.00824219 36.65417969 -29.48132813 36.08570313 -29.96875 35.5 C-34.6956281 29.98070179 -39.64084237 25.46601647 -45.53515625 21.22265625 C-44.29266214 17.49517391 -43.37926354 17.31626392 -39.9765625 15.55078125 C-39.03232422 15.050625 -38.08808594 14.55046875 -37.11523438 14.03515625 C-36.11943359 13.51953125 -35.12363281 13.00390625 -34.09765625 12.47265625 C-27.26954141 8.91892244 -20.88218192 5.24990623 -14.73120117 0.60131836 C-9.82418728 -2.47927169 -5.37856705 -1.18269044 0 0 Z " fill="#136567" transform="translate(227.53515625,19.77734375)"/>
<path d="M0 0 C8.32749127 4.95148129 13.98275289 13.41800615 16.75 22.5625 C17.58549689 27.04434404 18.20708087 31.38882198 15.55859375 35.33984375 C13.72731885 37.00343564 11.85351504 38.25774239 9.75 39.5625 C8.83476562 40.18253906 7.91953125 40.80257812 6.9765625 41.44140625 C-1.12818625 46.81922211 -1.12818625 46.81922211 -5.25 47.5625 C-5.19199219 46.61890625 -5.13398438 45.6753125 -5.07421875 44.703125 C-4.7500933 35.47944066 -5.83067732 28.87288813 -10.25 20.5625 C-10.806875 19.44875 -11.36375 18.335 -11.9375 17.1875 C-16.3044422 12.23043047 -22.38147441 9.44242459 -28.25 6.5625 C-28.25 5.9025 -28.25 5.2425 -28.25 4.5625 C-19.16472974 -0.85000143 -10.31814582 -4.33281514 0 0 Z " fill="#136566" transform="translate(213.25,69.4375)"/>
<path d="M0 0 C5.37774119 0.13444353 8.21757852 2.2568296 11.984375 5.80078125 C20.5263111 15.12076191 26.99317199 28.82640435 27.25 41.625 C27.27578125 42.40101563 27.3015625 43.17703125 27.328125 43.9765625 C27.21984375 44.64429688 27.1115625 45.31203125 27 46 C24 48 24 48 20.8125 48 C12.17952641 45.73561348 7.9718179 40.13614834 3.5390625 32.6875 C3.03117187 31.800625 2.52328125 30.91375 2 30 C1.57460938 29.29875 1.14921875 28.5975 0.7109375 27.875 C-2.5585885 22.41794941 -3.16879698 18.40310271 -3.25 12.0625 C-3.27578125 10.85722656 -3.3015625 9.65195313 -3.328125 8.41015625 C-2.97882259 4.7799062 -2.1101651 2.9264658 0 0 Z " fill="#0D5350" transform="translate(50,111)"/>
<path d="M0 0 C4.9364342 4.14722372 6.86302221 8.27978612 8.625 14.375 C9.0375 15.468125 9.45 16.56125 9.875 17.6875 C10.69890169 20.63981438 11.12379902 22.33767024 10.625 25.375 C8.56270502 27.41643361 6.69870305 29.00816428 4.375 30.6875 C3.78847656 31.14189453 3.20195312 31.59628906 2.59765625 32.06445312 C-0.73861751 34.55728689 -2.094985 35.375 -6.375 35.375 C-6.72111328 33.90740234 -6.72111328 33.90740234 -7.07421875 32.41015625 C-9.93324998 20.72944024 -13.56365458 9.74572483 -24.42578125 3.125 C-26.38329251 2.12228237 -28.34502482 1.22011519 -30.375 0.375 C-31.365 -0.0375 -32.355 -0.45 -33.375 -0.875 C-34.035 -1.1225 -34.695 -1.37 -35.375 -1.625 C-34.875 -3.5 -34.875 -3.5 -33.375 -5.625 C-21.04751881 -10.02767185 -10.43283314 -7.55692019 0 0 Z " fill="#115B5B" transform="translate(244.375,62.625)"/>
<path d="M0 0 C-0.05800781 1.17433594 -0.11601562 2.34867188 -0.17578125 3.55859375 C-0.6706268 17.8493145 0.19178414 31.73262438 10.25 42.75 C14.63449505 47.20727591 19.23329823 50.58075011 25 53 C25.9178125 53.38800781 26.835625 53.77601563 27.78125 54.17578125 C30.17540894 55.15429284 32.57739799 56.09468526 35 57 C35 57.66 35 58.32 35 59 C29.35695646 61.33979854 25.41008565 61.28237622 19.68359375 59.12890625 C6.61198997 53.21702285 -1.89469693 42.76689641 -7.4375 29.75 C-10.00951356 22.03395931 -10.62791092 12.43797029 -7.8125 4.6875 C-5.78062802 1.67472431 -3.80194883 0 0 0 Z " fill="#126363" transform="translate(205,158)"/>
<path d="M0 0 C0.78375 0.04125 1.5675 0.0825 2.375 0.125 C2.35928955 0.714021 2.3435791 1.30304199 2.32739258 1.90991211 C2.264308 4.62734027 2.22578009 7.34461361 2.1875 10.0625 C2.16236328 10.98869141 2.13722656 11.91488281 2.11132812 12.86914062 C1.9743015 25.88666984 7.52521107 38.32428626 16.453125 47.80712891 C20.85644017 52.27546556 24.56522378 54.92476297 30.375 57.125 C30.375 57.785 30.375 58.445 30.375 59.125 C27.08107733 60.77196134 23.92139735 60.75655021 20.375 60.125 C9.13528081 54.73609354 0.96681659 44.55102578 -3.41650391 33.04785156 C-4.18121387 30.83584809 -4.88742704 28.61592846 -5.5625 26.375 C-5.77406738 25.67842285 -5.98563477 24.9818457 -6.20361328 24.26416016 C-8.44357107 16.21746922 -8.05196128 9.76975977 -4.625 2.125 C-2.625 0.125 -2.625 0.125 0 0 Z " fill="#136667" transform="translate(37.625,108.875)"/>
<path d="M0 0 C13.31705938 -0.69520612 21.54624301 0.15991094 32 9.125 C34.43788673 11.36263175 36.15126221 13.22689331 38 16 C38 16.99 38 17.98 38 19 C35.62164564 18.52432913 33.2437187 18.04723158 30.8671875 17.5625 C29.02356675 17.20080874 27.17452748 16.86522898 25.3203125 16.5625 C19.92223764 15.64367875 16.43761935 14.3764495 12 11 C7.81631395 8.23028339 3.7733657 5.64084446 -1 4 C-0.67 2.68 -0.34 1.36 0 0 Z " fill="#146767" transform="translate(234,10)"/>
<path d="M0 0 C6.77754845 0.12160673 9.82425566 2.01309104 14.625 6.6875 C16.75118108 10.2038764 16.75625344 12.32497245 16.25 16.375 C14.05 20.975 14.05 20.975 11.25 22.375 C8.5776379 22.50915472 5.92749512 22.41818541 3.25 22.375 C2.59 21.055 1.93 19.735 1.25 18.375 C2.095625 17.653125 2.94125 16.93125 3.8125 16.1875 C6.57865257 13.64793986 6.57865257 13.64793986 6.125 10.625 C5.44908102 8.43983481 5.44908102 8.43983481 4.25 7.375 C1.91702567 7.33407063 -0.41705225 7.33258277 -2.75 7.375 C-2.75 8.035 -2.75 8.695 -2.75 9.375 C-5.61724686 8.80155063 -6.6114515 8.5135485 -8.75 6.375 C-8.03966321 0.69230566 -5.26757172 0.06551706 0 0 Z " fill="#05261A" transform="translate(173.75,94.625)"/>
<path d="M0 0 C0.11766716 3.47887472 0.18773315 6.9572277 0.25 10.4375 C0.30027344 11.89833008 0.30027344 11.89833008 0.3515625 13.38867188 C0.44226073 20.16836446 -0.70765102 25.06207973 -4 31 C-6.22189824 28.77810176 -6.92598892 26.91517292 -8 24 C-8.33 24 -8.66 24 -9 24 C-9.58002026 7.3083059 -9.58002026 7.3083059 -6 2 C-2.34782609 0 -2.34782609 0 0 0 Z " fill="#0F5958" transform="translate(205,158)"/>
<path d="M0 0 C8.24367143 3.60997376 14.04648595 13.24932557 18 21 C18.6953125 24.3359375 18.6953125 24.3359375 19 27 C16.66404204 24.0680645 14.98262135 21.09981361 13.3125 17.75 C10.69044246 12.81630484 7.67520093 9.28421657 3.5390625 5.55859375 C2 4 2 4 2 2 C1.34 2 0.68 2 0 2 C0 1.34 0 0.68 0 0 Z " fill="#03180D" transform="translate(235,156)"/>
<path d="M0 0 C8.14857965 1.33630896 14.99134328 5.46571092 21 11 C19.265625 11.67578125 19.265625 11.67578125 17 12 C14.859375 10.85546875 14.859375 10.85546875 12.75 9.1875 C12.04359375 8.64480469 11.3371875 8.10210937 10.609375 7.54296875 C10.07828125 7.03378906 9.5471875 6.52460938 9 6 C9 5.34 9 4.68 9 4 C8.01 4.33 7.02 4.66 6 5 C3.8125 4.0625 3.8125 4.0625 2 3 C2 2.34 2 1.68 2 1 C1.34 0.67 0.68 0.34 0 0 Z " fill="#183928" transform="translate(252,2)"/>
<path d="M0 0 C9.41300606 2.73101943 16.95198146 8.64465896 22 17 C21.67 17.66 21.34 18.32 21 19 C20.45472656 18.34773438 19.90945313 17.69546875 19.34765625 17.0234375 C14.93288747 11.90683368 10.75211747 7.74007053 4.9453125 4.25390625 C3.01705042 3.01099033 1.55518152 1.67744422 0 0 Z " fill="#041910" transform="translate(270,36)"/>
<path d="M0 0 C0.66 0.33 1.32 0.66 2 1 C1.39671875 1.58007812 0.7934375 2.16015625 0.171875 2.7578125 C-5.04015622 7.71800588 -5.04015622 7.71800588 -9.25 13.5 C-11 16 -11 16 -13.75 16.875 C-14.4925 16.91625 -15.235 16.9575 -16 17 C-14.88559348 13.65678045 -14.02527657 12.93980381 -11.375 10.75 C-7.36917659 7.35878848 -3.6577926 3.76066802 0 0 Z " fill="#041A10" transform="translate(341,151)"/>
<path d="M0 0 C2.10827055 3.16240582 2.33817465 4.50657469 2.625 8.1875 C2.69976562 9.08855469 2.77453125 9.98960937 2.8515625 10.91796875 C2.90054687 11.60503906 2.94953125 12.29210937 3 13 C3.99 13 4.98 13 6 13 C4.71034824 14.37562854 3.37310707 15.70766393 2 17 C1.34 17 0.68 17 0 17 C0 11.39 0 5.78 0 0 Z " fill="#166A6D" transform="translate(316,157)"/>
<path d="M0 0 C0.66 0.33 1.32 0.66 2 1 C1.01 2.32 0.02 3.64 -1 5 C-0.67 5.33 -0.34 5.66 0 6 C2.33944736 5.71269945 4.6739143 5.38063221 7 5 C7.66 3.35 8.32 1.7 9 0 C9.33 0 9.66 0 10 0 C10.25 2.3125 10.25 2.3125 10 5 C8.5 6.8125 8.5 6.8125 6 8 C3.27920155 8.23884872 0.74185932 8.13709297 -2 8 C-2.66 6.68 -3.32 5.36 -4 4 C-2.68 2.68 -1.36 1.36 0 0 Z " fill="#031C11" transform="translate(179,109)"/>
<path d="M0 0 C0 3 0 3 -2.40625 5.69921875 C-3.4299968 6.70302243 -4.4616054 7.69885649 -5.5 8.6875 C-6.02464844 9.19861328 -6.54929687 9.70972656 -7.08984375 10.23632812 C-8.38660904 11.49772708 -9.69246117 12.74977212 -11 14 C-12.31625194 11.36749612 -11.74813658 10.19820944 -11.0625 7.375 C-10.86785156 6.55773437 -10.67320312 5.74046875 -10.47265625 4.8984375 C-10.31667969 4.27195313 -10.16070312 3.64546875 -10 3 C-9.67 3 -9.34 3 -9 3 C-8.67 4.65 -8.34 6.3 -8 8 C-5.36 5.36 -2.72 2.72 0 0 Z " fill="#18757A" transform="translate(291,204)"/>
<path d="M0 0 C4.57989423 -0.46733615 7.24854513 -0.17261016 10.9375 2.5 C11.948125 3.325 12.95875 4.15 14 5 C13.01 5.495 13.01 5.495 12 6 C9.9911515 5.01789629 7.99212671 4.01559401 6 3 C3.26427415 2.30092586 3.26427415 2.30092586 1 2 C0.67 3.32 0.34 4.64 0 6 C0 4.02 0 2.04 0 0 Z " fill="#105958" transform="translate(214,156)"/>
<path d="M0 0 C0.33 0 0.66 0 1 0 C1.05814085 3.58326501 1.09364357 7.16640838 1.125 10.75 C1.14175781 11.76578125 1.15851563 12.7815625 1.17578125 13.828125 C1.18222656 14.8078125 1.18867188 15.7875 1.1953125 16.796875 C1.20578613 17.69760742 1.21625977 18.59833984 1.22705078 19.52636719 C0.98721676 22.13926856 0.32312064 23.75664666 -1 26 C-1.33 24.02 -1.66 22.04 -2 20 C-1.34 20 -0.68 20 0 20 C0 13.4 0 6.8 0 0 Z " fill="#1B4534" transform="translate(392,87)"/>
<path d="M0 0 C-1 3 -1 3 -3 4 C-3.4125 4.515625 -3.825 5.03125 -4.25 5.5625 C-6.7767 7.63800357 -8.83490943 7.21100604 -12 7 C-3.55172414 0 -3.55172414 0 0 0 Z " fill="#183B2B" transform="translate(220,6)"/>
<path d="M0 0 C0.99 0.495 0.99 0.495 2 1 C2.4140625 4.16015625 2.4140625 4.16015625 2.625 8.0625 C2.69976562 9.35285156 2.77453125 10.64320312 2.8515625 11.97265625 C2.90054688 12.97167969 2.94953125 13.97070312 3 15 C4.32 14.67 5.64 14.34 7 14 C4.59660228 16.76390737 3.83736322 17.04065919 0 18 C0 12.06 0 6.12 0 0 Z " fill="#18787E" transform="translate(208,99)"/>
<path d="M0 0 C1.07370894 2.00425669 1.94835945 3.6798286 2.3125 5.9375 C3.35976245 9.07928735 5.60910798 10.79302275 8 13 C5.01023995 12.66780444 3.15414892 12.10141377 0.625 10.4375 C-1.23440291 7.64839564 -1.1471269 6.95538137 -0.75 3.75 C-0.5025 2.5125 -0.255 1.275 0 0 Z " fill="#133526" transform="translate(280,25)"/>
<path d="M0 0 C4.95 0 9.9 0 15 0 C15 0.33 15 0.66 15 1 C14.31292969 1.04898437 13.62585938 1.09796875 12.91796875 1.1484375 C11.56638672 1.26058594 11.56638672 1.26058594 10.1875 1.375 C9.29417969 1.44460938 8.40085938 1.51421875 7.48046875 1.5859375 C4.75601501 1.86645036 4.75601501 1.86645036 2 4 C1.01 4 0.02 4 -1 4 C-0.67 2.68 -0.34 1.36 0 0 Z " fill="#177072" transform="translate(234,10)"/>
<path d="M0 0 C0.66 0.33 1.32 0.66 2 1 C0.95199219 1.93972656 0.95199219 1.93972656 -0.1171875 2.8984375 C-1.02726563 3.71570313 -1.93734375 4.53296875 -2.875 5.375 C-3.77992188 6.18710938 -4.68484375 6.99921875 -5.6171875 7.8359375 C-7.10896183 9.19076205 -8.57505435 10.57505435 -10 12 C-10 11.34 -10 10.68 -10 10 C-10.66 9.67 -11.32 9.34 -12 9 C-11.38511719 8.60167969 -10.77023438 8.20335937 -10.13671875 7.79296875 C-9.32847656 7.26316406 -8.52023438 6.73335937 -7.6875 6.1875 C-6.88699219 5.66542969 -6.08648437 5.14335937 -5.26171875 4.60546875 C-3.2762598 3.19610151 -1.6508148 1.77903343 0 0 Z " fill="#177274" transform="translate(251,217)"/>
<path d="M0 0 C0.33 0 0.66 0 1 0 C1 5.94 1 11.88 1 18 C1.66 18.33 2.32 18.66 3 19 C1.68 19.99 0.36 20.98 -1 22 C-0.67 14.74 -0.34 7.48 0 0 Z " fill="#1D8087" transform="translate(369,109)"/>
<path d="M0 0 C0.33 0.66 0.66 1.32 1 2 C-0.32 2.99 -1.64 3.98 -3 5 C-1.68 5.99 -0.36 6.98 1 8 C-1.64 7.67 -4.28 7.34 -7 7 C-7 6.01 -7 5.02 -7 4 C-4.69 2.68 -2.38 1.36 0 0 Z " fill="#187275" transform="translate(267,91)"/>
<path d="M0 0 C0.99 0 1.98 0 3 0 C3.33 2.31 3.66 4.62 4 7 C4.99 7.33 5.98 7.66 7 8 C7.33 8.99 7.66 9.98 8 11 C7.01 11 6.02 11 5 11 C4.16151196 9.54462432 3.32936066 8.08559627 2.5 6.625 C1.80390625 5.40683594 1.80390625 5.40683594 1.09375 4.1640625 C0 2 0 2 0 0 Z " fill="#163929" transform="translate(8,158)"/>
<path d="M0 0 C5.40489519 1.52012677 8.98492628 5.27385218 13 9 C12.67 9.66 12.34 10.32 12 11 C10 9.625 10 9.625 8 8 C8 7.34 8 6.68 8 6 C7.4225 5.7525 6.845 5.505 6.25 5.25 C3.6997003 3.83316683 1.98214299 2.12372463 0 0 Z " fill="#061F15" transform="translate(239,140)"/>
<path d="M0 0 C-0.33 0.66 -0.66 1.32 -1 2 C-5.68395246 3.14242743 -10.21355271 3.08252495 -15 3 C-10.44719878 0.34419929 -5.08408244 -1.69469415 0 0 Z " fill="#1C3F2F" transform="translate(73,61)"/>
<path d="M0 0 C0.33 1.32 0.66 2.64 1 4 C-1.64 6.31 -4.28 8.62 -7 11 C-7.66 10.67 -8.32 10.34 -9 10 C-6.03 6.7 -3.06 3.4 0 0 Z " fill="#041E13" transform="translate(125,156)"/>
<path d="M0 0 C4.52615993 3.67832017 8.39424999 7.41086363 12 12 C8.16780823 10.43873668 5.82638778 7.97133075 3 5 C2.401875 4.443125 1.80375 3.88625 1.1875 3.3125 C0 2 0 2 0 0 Z " fill="#167476" transform="translate(49,152)"/>
<path d="M0 0 C1.32 0.33 2.64 0.66 4 1 C1.36 2.98 -1.28 4.96 -4 7 C-4.66 6.67 -5.32 6.34 -6 6 C-4 4 -2 2 0 0 Z " fill="#143B2B" transform="translate(101,186)"/>
<path d="M0 0 C3.81684226 1.55500981 6.19195732 4.03595495 9 7 C8.67 7.99 8.34 8.98 8 10 C7.59007812 9.50628906 7.18015625 9.01257812 6.7578125 8.50390625 C6.21898437 7.86324219 5.68015625 7.22257812 5.125 6.5625 C4.59132812 5.92441406 4.05765625 5.28632812 3.5078125 4.62890625 C2.0777243 2.89194996 2.0777243 2.89194996 0 2 C0 1.34 0 0.68 0 0 Z " fill="#05231A" transform="translate(189,47)"/>
<path d="M0 0 C2 2 2 2 2.1953125 4.1640625 C2.16050781 5.38222656 2.16050781 5.38222656 2.125 6.625 C2.10695313 7.44226563 2.08890625 8.25953125 2.0703125 9.1015625 C2.04710938 9.72804687 2.02390625 10.35453125 2 11 C1.01 11.33 0.02 11.66 -1 12 C-0.67 8.04 -0.34 4.08 0 0 Z " fill="#105E5D" transform="translate(75,146)"/>
<path d="M0 0 C2.29013653 3.4352048 2.17842973 4.985331 2 9 C2.66 9.33 3.32 9.66 4 10 C2.02 10.99 2.02 10.99 0 12 C0 8.04 0 4.08 0 0 Z " fill="#19797E" transform="translate(138,134)"/>
<path d="M0 0 C0.66 0.33 1.32 0.66 2 1 C0.93283928 2.20205464 -0.15438337 3.38632333 -1.25 4.5625 C-2.15492188 5.55443359 -2.15492188 5.55443359 -3.078125 6.56640625 C-3.71234375 7.03949219 -4.3465625 7.51257813 -5 8 C-6.32 7.67 -7.64 7.34 -9 7 C-6.03 4.69 -3.06 2.38 0 0 Z " fill="#041E11" transform="translate(251,90)"/>
<path d="M0 0 C0.99 0.33 1.98 0.66 3 1 C1.68 1.99 0.36 2.98 -1 4 C1.97 4.495 1.97 4.495 5 5 C5 5.33 5 5.66 5 6 C3.741875 6.04125 2.48375 6.0825 1.1875 6.125 C0.47980469 6.14820313 -0.22789062 6.17140625 -0.95703125 6.1953125 C-3 6 -3 6 -6 4 C-3.1875 1.9375 -3.1875 1.9375 0 0 Z " fill="#197476" transform="translate(323,50)"/>
<path d="M0 0 C6.52307692 0.61538462 6.52307692 0.61538462 8.9375 2.5625 C9.288125 3.036875 9.63875 3.51125 10 4 C9.01 4.495 9.01 4.495 8 5 C6.0546875 4.22265625 6.0546875 4.22265625 3.875 3.0625 C3.15054688 2.68222656 2.42609375 2.30195313 1.6796875 1.91015625 C1.12539062 1.60980469 0.57109375 1.30945313 0 1 C0 0.67 0 0.34 0 0 Z " fill="#133628" transform="translate(206,243)"/>
<path d="M0 0 C0.66 0.99 1.32 1.98 2 3 C0.741875 2.87625 -0.51625 2.7525 -1.8125 2.625 C-2.87404297 2.52058594 -2.87404297 2.52058594 -3.95703125 2.4140625 C-6 2 -6 2 -9 0 C-5.85135005 -1.57432497 -3.35512575 -0.71895552 0 0 Z " fill="#143B2C" transform="translate(56,198)"/>
<path d="M0 0 C-1.90401138 1.90401138 -3.33425686 2.93520439 -6.046875 3.19921875 C-8.03233273 3.1886578 -10.0169914 3.09915043 -12 3 C-8.52582963 0.68388642 -4.04642977 -2.02321489 0 0 Z " fill="#1B4030" transform="translate(58,65)"/>
<path d="M0 0 C1.8125 0.1875 1.8125 0.1875 4 1 C5.8125 3.4375 5.8125 3.4375 7 6 C6.67 6.66 6.34 7.32 6 8 C1.125 3.375 1.125 3.375 0 0 Z " fill="#153A2C" transform="translate(292,45)"/>
<path d="M0 0 C2.31 0.66 4.62 1.32 7 2 C7 2.66 7 3.32 7 4 C4.29120665 5.35439668 1.99066732 5.06501451 -1 5 C-0.01 4.34 0.98 3.68 2 3 C1.34 2.01 0.68 1.02 0 0 Z " fill="#18777A" transform="translate(61,164)"/>
<path d="M0 0 C0.33 0.66 0.66 1.32 1 2 C1.66 2.33 2.32 2.66 3 3 C2.67 3.99 2.34 4.98 2 6 C2.66 6 3.32 6 4 6 C4.625 7.875 4.625 7.875 5 10 C4.34 10.66 3.68 11.32 3 12 C2.49440092 10.56445975 1.9957251 9.1264798 1.5 7.6875 C1.2215625 6.88699219 0.943125 6.08648437 0.65625 5.26171875 C0 3 0 3 0 0 Z " fill="#183D2E" transform="translate(3,143)"/>
<path d="M0 0 C1.0625 1.875 1.0625 1.875 2 4 C1.67 4.66 1.34 5.32 1 6 C0.34 6 -0.32 6 -1 6 C-1.33 7.65 -1.66 9.3 -2 11 C-3.13643966 7.59068103 -2.86747764 6.99664544 -1.5625 3.8125 C-1.13130859 2.73935547 -1.13130859 2.73935547 -0.69140625 1.64453125 C-0.46324219 1.10183594 -0.23507813 0.55914062 0 0 Z " fill="#184030" transform="translate(168,147)"/>
<path d="M0 0 C0.99 0.33 1.98 0.66 3 1 C0.64722731 3.72426311 -1.62496331 4.8141763 -5 6 C-3.63016497 2.83884224 -3.0109362 2.0072908 0 0 Z " fill="#173C2C" transform="translate(164,137)"/>
<path d="M0 0 C0.66 0.33 1.32 0.66 2 1 C-0.06756277 3.7972908 -1.14440371 4.02692273 -4.6875 4.6875 C-5.780625 4.790625 -6.87375 4.89375 -8 5 C-5.45378681 2.99940392 -3.01962385 1.20784954 0 0 Z " fill="#1A3C2B" transform="translate(124,36)"/>
<path d="M0 0 C3.7952131 1.49097658 5.61042731 3.75700849 8 7 C5 7 5 7 3.3125 5.625 C2 4 2 4 2 2 C1.34 2 0.68 2 0 2 C0 1.34 0 0.68 0 0 Z " fill="#051F16" transform="translate(235,156)"/>
<path d="M0 0 C0.66 0.33 1.32 0.66 2 1 C1 3 1 3 -2.0625 4.125 C-3.5165625 4.558125 -3.5165625 4.558125 -5 5 C-5.66 4.34 -6.32 3.68 -7 3 C-4.69631264 1.93347808 -2.35981813 0.93578995 0 0 Z " fill="#1A3E2F" transform="translate(44,68)"/>
<path d="M0 0 C0.66 0.33 1.32 0.66 2 1 C0.25 3.0625 0.25 3.0625 -2 5 C-4.25 4.75 -4.25 4.75 -6 4 C-4.02 2.68 -2.04 1.36 0 0 Z " fill="#1C3E2C" transform="translate(188,24)"/>
</svg>
