<?xml version="1.0" encoding="UTF-8"?>
<svg version="1.1" xmlns="http://www.w3.org/2000/svg" width="386" height="296">
<path d="M0 0 C55.75180631 -1.18225877 55.75180631 -1.18225877 72.51269531 11.06201172 C80.7022453 20.84952268 77.48236289 34.70271529 76.44628906 46.53662109 C76.23092664 48.9517568 76.0134052 51.36668306 75.79443359 53.78149414 C74.48911584 68.30426414 73.82270719 82.42173871 75.82519531 96.93701172 C76.02495972 98.46068359 76.02495972 98.46068359 76.22875977 100.01513672 C77.40165031 108.74413583 78.85571632 117.41281638 80.51269531 126.06201172 C95.1912535 111.38345353 94.44523917 80.50498326 95.75 61.62890625 C95.86263184 60.02764893 95.86263184 60.02764893 95.97753906 58.39404297 C96.06636353 56.9763562 96.06636353 56.9763562 96.15698242 55.5300293 C96.58878984 52.53405041 97.55651913 50.37175356 99.75097656 48.23388672 C120.02179355 34.74997298 154.60981697 38.99149341 177.36035156 42.68701172 C188.11319685 44.98652663 201.24821098 47.94672359 207.59472656 57.72998047 C212.24886194 67.69705577 209.35530338 81.26434726 208.22793579 91.7633667 C207.58781648 97.85598109 207.06312648 103.96078807 206.51269531 110.06201172 C206.37855225 111.44888184 206.37855225 111.44888184 206.24169922 112.86376953 C205.26295643 123.90143302 207.70581189 132.72514445 211.22900391 143.17333984 C214.43195269 152.96993065 216.31373559 162.77659788 217.95019531 172.93701172 C218.07525452 173.70237244 218.20031372 174.46773315 218.3291626 175.25628662 C224.27414905 211.96754036 224.27414905 211.96754036 217.63769531 223.24951172 C216.93644531 224.17763672 216.23519531 225.10576172 215.51269531 226.06201172 C214.91070312 226.85994141 214.30871094 227.65787109 213.68847656 228.47998047 C207.06595359 236.33902478 197.77255212 241.24109828 188.82519531 245.99951172 C187.94677979 246.47211426 187.06836426 246.9447168 186.16333008 247.43164062 C178.06491724 251.62191715 168.83506437 255.03995958 159.71582031 252.18701172 C156.27557275 251.71544126 156.27557275 251.71544126 153.32128906 254.45654297 C152.18287424 255.58116086 151.05993702 256.72159062 149.95019531 257.87451172 C148.71062101 259.088159 147.46705554 260.29774197 146.21972656 261.50341797 C145.59791504 262.10814941 144.97610352 262.71288086 144.33544922 263.3359375 C118.00402105 288.27073487 83.28345647 295.96717294 47.94238281 296.13623047 C26.34150989 295.39647455 -3.01051617 290.87106655 -19.48730469 275.74951172 C-27.58119532 266.54548646 -28.25140673 257.9602919 -27.65039062 246.16601562 C-27.41280328 243.10085435 -26.97765814 240.09657613 -26.48730469 237.06201172 C-27.0187207 237.22805908 -27.55013672 237.39410645 -28.09765625 237.56518555 C-57.20838957 246.55086479 -89.48751589 250.49973388 -119.48730469 243.06201172 C-120.58220215 242.81257813 -120.58220215 242.81257813 -121.69921875 242.55810547 C-134.82980089 239.5421487 -152.58519111 234.90294971 -160.48730469 223.06201172 C-168.40404346 209.57246288 -164.11910944 191.96694345 -160.64355469 177.56591797 C-155.85539812 161.69483004 -145.22631979 150.76657237 -130.93652344 142.80102539 C-125.96346383 140.1681294 -120.86118524 137.85984297 -115.71777344 135.58544922 C-115.01824051 135.27608429 -114.31870758 134.96671936 -113.59797668 134.64797974 C-112.53035347 134.17592606 -112.53035347 134.17592606 -111.44116211 133.69433594 C-97.83743099 127.67491873 -84.87437061 121.86241353 -73.48730469 112.06201172 C-72.53855469 111.24603516 -71.58980469 110.43005859 -70.61230469 109.58935547 C-60.3004376 99.92198007 -52.6847227 88.15424191 -47.48730469 75.06201172 C-47.12121094 74.18029297 -46.75511719 73.29857422 -46.37792969 72.39013672 C-40.84738335 57.67037494 -39.22753701 41.10370456 -38.25830078 25.5078125 C-37.77292768 18.64063345 -37.07202313 11.85350764 -32.24121094 6.63623047 C-22.66749486 1.1635956 -10.79707996 0.26918515 0 0 Z " fill="#0F261A" transform="translate(164.4873046875,-0.06201171875)"/>
<path d="M0 0 C-0.40786048 10.28237732 -0.96572632 20.43391279 -2.35253906 30.63305664 C-3.06999967 36.65385562 -2.92314771 42.5257318 -2.73022461 48.5793457 C-2.36375231 61.5810347 -2.7081737 68.7164403 -11 79 C-12.50983439 81.37872061 -13.86252043 83.8268498 -15.1875 86.3125 C-15.51951416 86.93237793 -15.85152832 87.55225586 -16.19360352 88.19091797 C-21.79529781 99.04201633 -25.21182971 110.91054779 -24.9296875 123.1640625 C-24.67806858 137.4482749 -24.67806858 137.4482749 -28.08984375 141.453125 C-31.00489197 142.97547443 -33.87333338 143.98740834 -37 145 C-38.987281 146.02926905 -40.94624833 147.1148359 -42.875 148.25 C-43.87402344 148.83652344 -44.87304688 149.42304688 -45.90234375 150.02734375 C-51.56103797 153.63092582 -56.7572875 157.82710115 -62 162 C-94.22095938 187.55051864 -127.51538667 196.91950801 -168.875 192.375 C-184.60237803 189.78396883 -205.59580805 185.55344093 -215.87890625 172.21875 C-218.60752634 166.81855414 -217.7179681 161.63028125 -216.17578125 155.98046875 C-210.12800201 139.44987215 -195.61412754 130.01017433 -180.609375 122.390625 C-177.37436243 120.7411302 -174.21698075 118.99771295 -171.078125 117.171875 C-170.27117187 116.70571777 -169.46421875 116.23956055 -168.6328125 115.75927734 C-167.07431873 114.85388188 -165.52190224 113.93792241 -163.9765625 113.01025391 C-158.74753874 110 -158.74753874 110 -155.2578125 110 C-152.57091022 111.19004669 -150.80037943 112.64807624 -148.625 114.625 C-140.05380729 121.78917463 -128.76865259 127.45908188 -117.42578125 127.2734375 C-110.10715983 126.44847212 -104.54847599 122.17887432 -99.04296875 117.5859375 C-97.03264572 116.02534257 -95.41398785 114.81733447 -93 114 C-91.03515625 114.6796875 -91.03515625 114.6796875 -89.0625 115.875 C-85.86506831 117.65599933 -83.73893081 118.46736635 -80 118 C-79.25042843 114.52852158 -79.25042843 114.52852158 -79 111 C-82.3 110.01 -85.6 109.02 -89 108 C-89 107.34 -89 106.68 -89 106 C-87.84760917 104.84760917 -86.6908207 103.69926445 -85.51171875 102.57421875 C-82.69325856 99.63923307 -80.37845678 96.29387657 -78 93 C-77.38253906 93.13277344 -76.76507813 93.26554687 -76.12890625 93.40234375 C-70.42372675 94.59200827 -64.80069316 95.4386426 -59 96 C-58.67 94.35 -58.34 92.7 -58 91 C-58.61488281 90.73445313 -59.22976563 90.46890625 -59.86328125 90.1953125 C-60.67152344 89.84210938 -61.47976563 89.48890625 -62.3125 89.125 C-63.11300781 88.77695313 -63.91351563 88.42890625 -64.73828125 88.0703125 C-67 87 -67 87 -70 85 C-69.07749374 78.70593833 -65.89308162 73.60149845 -63 68 C-58.71 68 -54.42 68 -50 68 C-49.67 66.68 -49.34 65.36 -49 64 C-51.19948132 60.70077803 -51.50324145 60.57190099 -55.125 59.8125 C-56.40375 59.544375 -57.6825 59.27625 -59 59 C-58.37724549 52.39880225 -56.83272188 46.37468479 -55 40 C-50.38 39.67 -45.76 39.34 -41 39 C-40.01 36.03 -40.01 36.03 -39 33 C-39.92683594 32.95101562 -40.85367188 32.90203125 -41.80859375 32.8515625 C-43.00613281 32.77679688 -44.20367187 32.70203125 -45.4375 32.625 C-46.63246094 32.55539063 -47.82742188 32.48578125 -49.05859375 32.4140625 C-50.51458984 32.20910156 -50.51458984 32.20910156 -52 32 C-53.35622005 29.2875599 -52.78064863 27.7823824 -52.2578125 24.80859375 C-52.07863281 23.78185547 -51.89945313 22.75511719 -51.71484375 21.69726562 C-51.42287109 20.08368164 -51.42287109 20.08368164 -51.125 18.4375 C-50.93808594 17.35791016 -50.75117188 16.27832031 -50.55859375 15.16601562 C-49.1351461 7.1351461 -49.1351461 7.1351461 -48 6 C-46.43222949 5.9369731 -44.86168019 5.94070022 -43.29296875 5.97265625 C-42.3194043 5.98651367 -41.34583984 6.00037109 -40.34277344 6.01464844 C-39.3015332 6.03043945 -38.26029297 6.04623047 -37.1875 6.0625 C-25.3423022 6.13863993 -15.26539894 5.20683958 -4.1796875 0.8046875 C-2 0 -2 0 0 0 Z " fill="#EF9708" transform="translate(365,69)"/>
<path d="M0 0 C-0.43804593 6.00584029 -0.89760328 12.00606928 -1.4765625 18 C-1.65106622 19.85416436 -1.82554434 21.70833112 -2 23.5625 C-2.14296509 25.00955322 -2.14296509 25.00955322 -2.28881836 26.48583984 C-2.80292666 32.11164065 -3.03564244 37.6385819 -2.96484375 43.2890625 C-2.79942627 64.05510772 -2.79942627 64.05510772 -7.4934082 69.54956055 C-9.87801727 71.84144601 -12.44141388 73.90661135 -15 76 C-16.88028301 78.03006939 -18.57750706 80.17199035 -20.25 82.375 C-20.86693726 83.18529663 -20.86693726 83.18529663 -21.49633789 84.01196289 C-33.7262603 100.56845081 -36.59453721 118.03095757 -37 138 C-37.99257812 138.47308594 -38.98515625 138.94617188 -40.0078125 139.43359375 C-50.34078788 144.43428782 -59.90422952 150.09209209 -69.34375 156.62109375 C-101.52596496 178.77638726 -143.84573454 186.90070498 -182.1875 180.3125 C-194.82942122 177.95095152 -209.61030208 174.65967349 -219.0625 165.3125 C-221.81048616 160.61433012 -222.10496346 157.31095341 -221 152 C-213.17102225 130.64603901 -195.24369083 122.25313685 -175.8203125 113.19921875 C-162.55072033 107.10964167 -162.55072033 107.10964167 -158 108 C-156.80011647 109.36653401 -155.61237661 110.74864446 -154.53125 112.2109375 C-148.7296224 118.98936975 -140.32062478 123.18836279 -131.56640625 124.3125 C-121.29876705 124.82508105 -113.65792264 120.10648815 -105.54296875 114.29296875 C-103 113 -103 113 -100.328125 113.234375 C-98 114 -98 114 -95.5625 115.0625 C-92.57691417 116.1547875 -90.15470377 116.14673041 -87 116 C-86.67 114.35 -86.34 112.7 -86 111 C-88.97 109.35 -91.94 107.7 -95 106 C-91.57360692 101.29866997 -88.23473064 96.98562883 -84 93 C-83.27554688 93.2165625 -82.55109375 93.433125 -81.8046875 93.65625 C-74.52796515 95.87285816 -74.52796515 95.87285816 -67 96 C-64.71271266 94.16116119 -64.71271266 94.16116119 -64.875 91.375 C-64.91625 90.59125 -64.9575 89.8075 -65 89 C-65.78246094 88.81824219 -66.56492188 88.63648437 -67.37109375 88.44921875 C-68.38300781 88.19785156 -69.39492187 87.94648437 -70.4375 87.6875 C-71.44683594 87.44386719 -72.45617187 87.20023437 -73.49609375 86.94921875 C-74.32238281 86.63597656 -75.14867187 86.32273437 -76 86 C-77 83 -77 83 -75.78515625 80.08203125 C-75.21667969 79.00308594 -74.64820313 77.92414063 -74.0625 76.8125 C-73.49660156 75.72582031 -72.93070313 74.63914062 -72.34765625 73.51953125 C-71.68056641 72.27236328 -71.68056641 72.27236328 -71 71 C-65.58500559 70.88478735 -60.37084106 71.31798844 -55 72 C-54.01 69.69 -53.02 67.38 -52 65 C-56.95 64.01 -61.9 63.02 -67 62 C-65.68 55.73 -64.36 49.46 -63 43 C-58.38 42.67 -53.76 42.34 -49 42 C-49.99 39.03 -49.99 39.03 -51 36 C-53.97 35.67 -56.94 35.34 -60 35 C-60.20824606 28.92615668 -59.50483644 23.59339568 -58.125 17.6875 C-57.95097656 16.89021484 -57.77695313 16.09292969 -57.59765625 15.27148438 C-56.75954445 11.58068836 -56.13877432 9.20816148 -54 6 C-51.54124989 5.69736097 -49.32102877 5.58296305 -46.859375 5.59375 C-46.1407428 5.58291382 -45.4221106 5.57207764 -44.68170166 5.56091309 C-42.37104562 5.52658869 -40.06087723 5.51108219 -37.75 5.5 C-24.96496006 5.43695199 -11.77871866 0 0 0 Z " fill="#F09708" transform="translate(233,29)"/>
<path d="M0 0 C1.60061572 8.59685539 3.06042374 19.31014039 -2 27 C-10.31182579 37.11065376 -28.96383896 47.86355701 -42.0625 49.75 C-43.031875 49.8325 -44.00125 49.915 -45 50 C-45.66 47.69 -46.32 45.38 -47 43 C-56.254378 44.2559513 -63.0979503 51.93080467 -69.3125 58.375 C-92.52493901 82.26255965 -124.2124542 92.07745238 -156.875 92.5625 C-178.07864158 92.67707579 -208.5107376 89.72724421 -224.8125 74.75 C-229.11816175 70.14942991 -231.13665431 65.30486501 -231.1875 59 C-231.125625 58.01 -231.06375 57.02 -231 56 C-227.40019618 57.71210182 -224.04373542 59.76673498 -220.625 61.8125 C-208.3958461 68.86649179 -196.04049422 71.92360728 -182.15722656 73.7175293 C-180.22309211 73.97078796 -178.29454694 74.26590397 -176.3671875 74.56640625 C-169.94888687 75.35261234 -163.45608046 75.19867895 -157 75.1875 C-156.30614197 75.18656342 -155.61228394 75.18562683 -154.8973999 75.18466187 C-123.7565508 75.09334896 -99.78840364 66.81679323 -75 48 C-61.34892929 37.81586789 -47.39814533 28.93302421 -32.19433594 21.23535156 C-24.18335699 17.17506936 -16.17605861 12.98923912 -9.125 7.375 C-8.42632812 6.82585937 -7.72765625 6.27671875 -7.0078125 5.7109375 C-4.9145316 3.97517744 -4.9145316 3.97517744 -2.8046875 1.7890625 C-1 0 -1 0 0 0 Z " fill="#935E17" transform="translate(376,194)"/>
<path d="M0 0 C0 3.92056611 -1.34418849 5.01133395 -3.75 8.0625 C-6.60654248 11.80675273 -8.45024449 14.85970352 -9.75 19.375 C-11.30341864 23.4892845 -12.8165739 24.9668996 -16.8125 26.8125 C-26.58353842 30.18925592 -36.86118453 32.08519905 -47 34 C-48.05840088 34.20351074 -48.05840088 34.20351074 -49.13818359 34.41113281 C-76.53215091 39.48012338 -111.45326052 37.08694087 -135.24609375 21.390625 C-139.18627616 18.26656055 -142.40276802 14.79169593 -144 10 C-144.06740865 8.43881572 -144.08514456 6.8749748 -144.0625 5.3125 C-144.05347656 4.50425781 -144.04445312 3.69601563 -144.03515625 2.86328125 C-144.02355469 2.24839844 -144.01195312 1.63351563 -144 1 C-138.47120419 2.63350785 -138.47120419 2.63350785 -136.171875 4.421875 C-131.70152287 7.67011648 -126.15987814 9.13415121 -121 11 C-119.989375 11.37640625 -118.97875 11.7528125 -117.9375 12.140625 C-104.99424948 16.75337917 -92.23740337 17.32636418 -78.64355469 17.26074219 C-76.00432366 17.25001757 -73.36577304 17.26069716 -70.7265625 17.2734375 C-61.30290844 17.28128875 -52.27559927 16.85894915 -43 15 C-41.78183594 14.76539063 -40.56367187 14.53078125 -39.30859375 14.2890625 C-25.44366908 11.08220918 -12.89456075 5.90284336 0 0 Z " fill="#8F5D18" transform="translate(153,201)"/>
<path d="M0 0 C0.33 0 0.66 0 1 0 C7.94778483 35.14544347 7.94778483 35.14544347 2.078125 44.37084961 C0.18387949 47.03424797 -1.8916694 49.50227722 -4 52 C-4.71349609 53.09828125 -4.71349609 53.09828125 -5.44140625 54.21875 C-9.69495979 60.51240916 -16.90628028 61.58125606 -24 63 C-24.99 63 -25.98 63 -27 63 C-27.56100396 44.11286665 -24.54677218 27.04344897 -11.4375 12.5 C-9.96456551 10.99387981 -8.48562794 9.4936009 -7 8 C-5.65601718 6.46760838 -4.32180285 4.92656408 -3 3.375 C-2.02266687 2.23025332 -1.03007943 1.09752511 0 0 Z " fill="#EF9B08" transform="translate(231,102)"/>
<path d="M0 0 C2.82361664 0.0235524 5.64628071 0.02054497 8.4699707 0.01391602 C22.50512779 0.03489762 36.18171231 0.90801503 49.83911133 4.39868164 C50.55260742 4.57206055 51.26610352 4.74543945 52.0012207 4.92407227 C54.88514981 5.63216775 57.70840564 6.39677974 60.52661133 7.33618164 C60.19661133 8.98618164 59.86661133 10.63618164 59.52661133 12.33618164 C57.50796736 12.98882593 55.48657406 13.6329691 53.46411133 14.27368164 C52.33875977 14.63333008 51.2134082 14.99297852 50.05395508 15.36352539 C24.88382209 22.30412685 -9.1838489 17.98095153 -32.47338867 6.33618164 C-32.14338867 5.34618164 -31.81338867 4.35618164 -31.47338867 3.33618164 C-21.74650407 -0.82691197 -10.3489356 -0.09205807 0 0 Z " fill="#955D17" transform="translate(171.473388671875,9.663818359375)"/>
<path d="M0 0 C0.74695129 -0.01243744 1.49390259 -0.02487488 2.26348877 -0.03768921 C45.31913178 -0.61545651 45.31913178 -0.61545651 63.06640625 9.2734375 C63.56140625 10.7584375 63.56140625 10.7584375 64.06640625 12.2734375 C53.36843176 17.50355836 42.02385158 17.68014726 30.31640625 17.6484375 C29.59529663 17.64822601 28.87418701 17.64801453 28.13122559 17.64779663 C10.27626819 17.59578089 -12.38874289 17.02513199 -26.93359375 5.2734375 C-25.08215981 4.6198114 -23.22728617 3.97592532 -21.37109375 3.3359375 C-20.33855469 2.97628906 -19.30601562 2.61664063 -18.2421875 2.24609375 C-12.23653275 0.48055888 -6.2300723 0.09603697 0 0 Z " fill="#955E18" transform="translate(298.93359375,49.7265625)"/>
<path d="M0 0 C1.06734375 0.38671875 2.1346875 0.7734375 3.234375 1.171875 C14.67378084 5.20641256 26.06500683 7.88209933 38 10 C37.36075451 14.14687742 36.71250742 18.29229697 36.0625 22.4375 C35.78889648 24.21350586 35.78889648 24.21350586 35.50976562 26.02539062 C35.33251953 27.15009766 35.15527344 28.27480469 34.97265625 29.43359375 C34.81031494 30.47572021 34.64797363 31.51784668 34.48071289 32.59155273 C34 35 34 35 33 36 C25.14429713 36.05987578 17.56237469 34.88605407 9.9375 33.125 C9.22400391 32.96362549 8.51050781 32.80225098 7.77539062 32.63598633 C3.72227846 31.64623939 0.44839715 30.3527076 -3 28 C-2.22095672 9.17995444 -2.22095672 9.17995444 0 0 Z " fill="#EF9C09" transform="translate(270,64)"/>
<path d="M0 0 C0.79019531 0.38671875 1.58039063 0.7734375 2.39453125 1.171875 C12.34798227 5.76752553 22.23909588 8.04972953 33 10 C32.2162936 14.0640775 31.42164737 18.12594107 30.625 22.1875 C30.40328125 23.33798828 30.1815625 24.48847656 29.953125 25.67382812 C29.62441406 27.34155273 29.62441406 27.34155273 29.2890625 29.04296875 C28.99056396 30.57473755 28.99056396 30.57473755 28.68603516 32.13745117 C28.02311414 34.90355401 27.12675133 37.39255501 26 40 C15.03267964 40.63273002 5.48788633 37.31069744 -4 32 C-3.43739111 21.19402929 -1.78964322 10.65907 0 0 Z " fill="#F09C08" transform="translate(137,23)"/>
<path d="M0 0 C2.21529591 2.21529591 2.48772456 3.21111529 3.21875 6.18359375 C3.42798096 7.02365967 3.63721191 7.86372559 3.8527832 8.72924805 C4.06636475 9.62297119 4.27994629 10.51669434 4.5 11.4375 C4.72067139 12.34604736 4.94134277 13.25459473 5.16870117 14.19067383 C6.66558013 20.42739073 8.14950004 26.637399 9 33 C9.15339844 33.77214844 9.30679687 34.54429687 9.46484375 35.33984375 C9.93895843 39.13925595 9.64522106 41.15250141 7.29296875 44.2421875 C2.01376411 49.30251964 -10.18773452 60 -18 60 C-18.86485215 37.68200991 -13.60458276 18.08791116 0 0 Z " fill="#EF9B08" transform="translate(365,144)"/>
<path d="M0 0 C0.53625 0.10957031 1.0725 0.21914062 1.625 0.33203125 C18.21649296 3.78245329 18.21649296 3.78245329 35 6 C34.59060025 12.76215448 33.43046191 18.67162748 31 25 C24.98307841 24.37898745 19.33558565 23.19864107 13.5 21.625 C12.69691406 21.41617188 11.89382813 21.20734375 11.06640625 20.9921875 C5.9062829 19.620615 0.97074523 17.9495354 -4 16 C-3.71515154 14.26969709 -3.42180062 12.54079286 -3.125 10.8125 C-2.96257812 9.84957031 -2.80015625 8.88664062 -2.6328125 7.89453125 C-2.01960483 5.08967396 -1.14333657 2.62775253 0 0 Z " fill="#EF9F09" transform="translate(266,102)"/>
<path d="M0 0 C7.02566217 1.51754303 13.95518251 3.27668045 20.89453125 5.14453125 C26.23769144 6.56995696 31.5943744 7.83238487 37 9 C35.22535291 14.80326959 33.19321272 19.82479318 30 25 C17.56167444 23.52076179 6.1515567 18.47234907 -5 13 C-4.55527344 11.89591797 -4.55527344 11.89591797 -4.1015625 10.76953125 C-3.16603827 8.41745083 -2.25934049 6.05914041 -1.375 3.6875 C-0.92125 2.470625 -0.4675 1.25375 0 0 Z " fill="#EE9D09" transform="translate(257,126)"/>
<path d="M0 0 C3.82007001 0.9550175 7.15857529 2.00165558 10.625 3.875 C15.25642112 6.23582181 20.03333682 7.75466055 25 9.25 C25.87011719 9.518125 26.74023438 9.78625 27.63671875 10.0625 C29.75598815 10.71458289 31.87697519 11.36027211 34 12 C32.63813878 15.92495389 30.88881019 18.72433228 28.1875 21.875 C27.52105469 22.67679688 26.85460937 23.47859375 26.16796875 24.3046875 C24 26 24 26 21.74609375 25.77392578 C18.61926546 24.89269839 15.83797148 23.6888298 12.89453125 22.3125 C11.17266602 21.51199219 11.17266602 21.51199219 9.41601562 20.6953125 C8.22685547 20.13585937 7.03769531 19.57640625 5.8125 19 C4.59983845 18.43440442 3.38694988 17.86929533 2.17382812 17.3046875 C-6.24553571 13.37723214 -6.24553571 13.37723214 -9 12 C-7.54718935 6.67302761 -3.91888622 3.63597198 0 0 Z " fill="#F09F09" transform="translate(245,146)"/>
<path d="M0 0 C2.06160672 1.15948083 4.07983926 2.39766495 6.0625 3.6875 C12.16443618 7.58426792 18.45858559 10.88840828 25 14 C19.89426992 19.45543762 13.63554072 23.17024569 6.0625 23.75 C-2.84920111 23.2595762 -10.01872827 16.50463382 -15.85546875 10.28515625 C-16.23316406 9.86105469 -16.61085938 9.43695313 -17 9 C-14.32025752 6.15784889 -11.58085057 3.53170384 -8.5 1.125 C-7.9534375 0.69445312 -7.406875 0.26390625 -6.84375 -0.1796875 C-4.1578588 -1.37468147 -2.77908464 -0.90187622 0 0 Z " fill="#F09F08" transform="translate(98,123)"/>
<path d="M0 0 C0.86238281 0.28875 1.72476563 0.5775 2.61328125 0.875 C11.67517573 3.88517948 20.54235421 6.55955695 30 8 C29.67373505 14.32278971 29.38495108 19.55464391 26 25 C15.11276753 23.48206855 5.1303355 19.07564755 -5 15 C-4.54705135 13.24859857 -4.08741252 11.49892656 -3.625 9.75 C-3.36976562 8.77546875 -3.11453125 7.8009375 -2.8515625 6.796875 C-2.10401491 4.34162697 -1.22876183 2.24382595 0 0 Z " fill="#F09F08" transform="translate(131,64)"/>
<path d="M0 0 C2.25673532 0.77963952 4.49339438 1.61892344 6.7109375 2.50390625 C7.32393707 2.7466478 7.93693665 2.98938934 8.56851196 3.23948669 C10.50626774 4.00828251 12.44062889 4.78523276 14.375 5.5625 C15.69639797 6.08843518 17.01801067 6.6138312 18.33984375 7.13867188 C21.56240178 8.41955781 24.7819703 9.70777284 28 11 C28 11.99 28 12.98 28 14 C26.3203125 15.5703125 26.3203125 15.5703125 24.125 17.125 C23.40570313 17.64320313 22.68640625 18.16140625 21.9453125 18.6953125 C17.37569987 21.76007278 13.38481666 21.92705635 8 21 C0.43404566 18.19324452 -6.8764542 14.25890587 -13 9 C-12.41473513 5.83956971 -11.52015053 4.02262642 -9.3125 1.6875 C-8.83425781 1.15511719 -8.35601562 0.62273437 -7.86328125 0.07421875 C-5.03792695 -1.55465427 -3.1394135 -0.68779818 0 0 Z " fill="#F1A008" transform="translate(233,167)"/>
<path d="M0 0 C3.4176021 1.13556108 6.83167001 2.28087649 10.2421875 3.4375 C11.78643952 3.9583891 13.33071074 4.47922132 14.875 5 C15.63941406 5.26039062 16.40382812 5.52078125 17.19140625 5.7890625 C22.08650093 7.43461215 26.97435638 8.80941472 32 10 C31.41503256 13.66579598 30.42173293 16.50499144 28.625 19.75 C28.20476562 20.52859375 27.78453125 21.3071875 27.3515625 22.109375 C26 24 26 24 23 25 C20.55151367 24.33496094 20.55151367 24.33496094 17.66796875 23.234375 C16.62189453 22.83863281 15.57582031 22.44289063 14.49804688 22.03515625 C13.40556641 21.61105469 12.31308594 21.18695313 11.1875 20.75 C10.10662109 20.34136719 9.02574219 19.93273437 7.91210938 19.51171875 C2.80841778 17.56297954 -2.18547204 15.58791381 -7 13 C-5.35821735 8.22390502 -2.73453298 4.20617096 0 0 Z " fill="#EF9D09" transform="translate(122,87)"/>
<path d="M0 0 C2.66423973 0.78151032 5.01093523 1.75728936 7.51171875 2.9609375 C14.43538476 6.20019027 21.52477652 8.98048853 28.63671875 11.7734375 C27.40306323 15.31717345 26.20116702 17.6509316 23.38671875 20.1484375 C22.8246875 20.67179687 22.26265625 21.19515625 21.68359375 21.734375 C18.59679628 23.30133707 16.95016251 22.71172311 13.63671875 21.7734375 C10.71734493 20.48602969 7.9322084 18.99624596 5.13671875 17.4609375 C4.40324219 17.06970703 3.66976562 16.67847656 2.9140625 16.27539062 C-1.34114062 13.98032132 -5.38691457 11.52291889 -9.36328125 8.7734375 C-7.69354051 4.67498296 -4.88968504 -0.46876319 0 0 Z " fill="#F09C08" transform="translate(111.36328125,107.2265625)"/>
<path d="M0 0 C0.66 0.33 1.32 0.66 2 1 C2.68603516 3.59204102 2.68603516 3.59204102 3.2890625 7.00390625 C3.50820312 8.21884766 3.72734375 9.43378906 3.953125 10.68554688 C4.17484375 11.96494141 4.3965625 13.24433594 4.625 14.5625 C4.85445312 15.84576172 5.08390625 17.12902344 5.3203125 18.45117188 C5.8880398 21.63281027 6.4475502 24.81567935 7 28 C6.34 28 5.68 28 5 28 C5 26.35 5 24.7 5 23 C4.34 23 3.68 23 3 23 C3 22.34 3 21.68 3 21 C2.34 21 1.68 21 1 21 C0.566875 22.2065625 0.566875 22.2065625 0.125 23.4375 C-1 26 -1 26 -3 27 C-4.15265227 21.23673867 -3.85345679 17.83918147 -1.76953125 12.38671875 C-0.46872931 8.35225182 -0.25499262 4.21177458 0 0 Z " fill="#1B2B18" transform="translate(238,98)"/>
<path d="M0 0 C2 1 2 1 3 3 C1.35 3.33 -0.3 3.66 -2 4 C-1.99057373 4.58845703 -1.98114746 5.17691406 -1.97143555 5.78320312 C-1.91263486 12.39472596 -2.24887764 18.91405057 -2.8125 25.5 C-2.88275391 26.48742187 -2.95300781 27.47484375 -3.02539062 28.4921875 C-3.14624023 29.90371094 -3.14624023 29.90371094 -3.26953125 31.34375 C-3.33760986 32.19130859 -3.40568848 33.03886719 -3.47583008 33.91210938 C-4 36 -4 36 -7 38 C-6.74884181 33.68612141 -6.47050308 29.37439726 -6.1875 25.0625 C-6.11724609 23.85013672 -6.04699219 22.63777344 -5.97460938 21.38867188 C-4.85440134 4.85440134 -4.85440134 4.85440134 0 0 Z " fill="#33391A" transform="translate(132,7)"/>
<path d="M0 0 C2.42680407 1.02181224 3.71077238 1.98540867 5.375 4 C2.4453125 3.36523438 2.4453125 3.36523438 -0.484375 2.73046875 C-2.93938096 2.80418244 -2.93938096 2.80418244 -4.890625 5.48828125 C-5.46296875 6.31714844 -6.0353125 7.14601563 -6.625 8 C-4.90228773 9.15551453 -3.17153083 10.29904119 -1.4375 11.4375 C-0.47457031 12.07558594 0.48835938 12.71367188 1.48046875 13.37109375 C4.24285651 14.92563585 6.28928461 15.49112764 9.375 16 C10.375 17 11.375 18 12.375 19 C15.5739654 20.26625714 17.92673186 21 21.375 21 C20.715 21.66 20.055 22.32 19.375 23 C13.86156989 22.77580932 9.59851355 20.28169681 4.875 17.6875 C4.14152344 17.29626953 3.40804687 16.90503906 2.65234375 16.50195312 C-1.60285937 14.20688382 -5.64863332 11.74948139 -9.625 9 C-7.84336476 4.62689531 -5.0822594 0 0 0 Z " fill="#F1BA0A" transform="translate(111.625,107)"/>
<path d="M0 0 C0 0.66 0 1.32 0 2 C8.91 2 17.82 2 27 2 C27 1.34 27 0.68 27 0 C30.96 0.33 34.92 0.66 39 1 C39 1.33 39 1.66 39 2 C33.65994178 2.74936436 28.4591766 3.1489409 23.0625 3.1328125 C21.97594116 3.13424759 21.97594116 3.13424759 20.86743164 3.13571167 C19.34814364 3.13638693 17.82885264 3.13457874 16.30957031 3.13037109 C14.00579242 3.12501347 11.70220945 3.13033847 9.3984375 3.13671875 C7.91145791 3.13605785 6.42447844 3.13477645 4.9375 3.1328125 C4.26017822 3.13483673 3.58285645 3.13686096 2.88500977 3.13894653 C-1.82873543 3.11623686 -6.34186694 2.65367057 -11 2 C-11 1.67 -11 1.34 -11 1 C-7.27569643 0.30710631 -3.78916254 -0.11144596 0 0 Z " fill="#283518" transform="translate(66,243)"/>
<path d="M0 0 C1.2065625 0.0309375 1.2065625 0.0309375 2.4375 0.0625 C2.4375 0.7225 2.4375 1.3825 2.4375 2.0625 C1.1175 2.3925 -0.2025 2.7225 -1.5625 3.0625 C-1.59988281 3.99191406 -1.63726562 4.92132813 -1.67578125 5.87890625 C-2.32875659 18.15740334 -2.32875659 18.15740334 -5.5625 24.0625 C-3.2525 24.0625 -0.9425 24.0625 1.4375 24.0625 C1.4375 24.3925 1.4375 24.7225 1.4375 25.0625 C-1.5325 25.0625 -4.5025 25.0625 -7.5625 25.0625 C-6.92319083 21.08225618 -6.27496675 17.10351621 -5.625 13.125 C-5.44259766 11.98869141 -5.26019531 10.85238281 -5.07226562 9.68164062 C-4.89501953 8.60205078 -4.71777344 7.52246094 -4.53515625 6.41015625 C-4.37281494 5.40992432 -4.21047363 4.40969238 -4.04321289 3.37915039 C-3.37642041 0.16574569 -3.32955746 0.08120872 0 0 Z " fill="#ECB108" transform="translate(319.5625,74.9375)"/>
<path d="M0 0 C0.66 0 1.32 0 2 0 C2 1.65 2 3.3 2 5 C2.33 5 2.66 5 3 5 C3.37125 6.3921875 3.37125 6.3921875 3.75 7.8125 C5.06454245 11.16458325 5.97963384 12.1877803 9 14 C8.67 14.66 8.34 15.32 8 16 C7.34 15.34 6.68 14.68 6 14 C4.03309626 13.32707499 4.03309626 13.32707499 1.875 12.875 C0.59625 12.58625 -0.6825 12.2975 -2 12 C-1 3.42857143 -1 3.42857143 0 0 Z " fill="#EDAA09" transform="translate(308,116)"/>
<path d="M0 0 C0 3 0 3 -2.5 5.6875 C-3.325 6.450625 -4.15 7.21375 -5 8 C-5 7.01 -5 6.02 -5 5 C-6.20398438 5.51691406 -7.40796875 6.03382813 -8.6484375 6.56640625 C-10.22378608 7.23217857 -11.79931639 7.89752099 -13.375 8.5625 C-14.1690625 8.90474609 -14.963125 9.24699219 -15.78125 9.59960938 C-16.54179687 9.91865234 -17.30234375 10.23769531 -18.0859375 10.56640625 C-18.7876709 10.86490479 -19.4894043 11.16340332 -20.21240234 11.47094727 C-22 12 -22 12 -24 11 C-16.03053704 7.26201737 -8.06182622 3.53588869 0 0 Z " fill="#AC6B18" transform="translate(153,201)"/>
<path d="M0 0 C3.95363363 1.16811903 6.79224156 2.43379325 10 5 C11.31836295 5.69580267 12.64791086 6.37224433 14 7 C11 8 11 8 8.73828125 7.00390625 C7.93777344 6.52824219 7.13726562 6.05257812 6.3125 5.5625 C5.50425781 5.08941406 4.69601563 4.61632812 3.86328125 4.12890625 C3.24839844 3.75636719 2.63351563 3.38382813 2 3 C2.28427417 4.58467728 2.57774818 6.1677057 2.875 7.75 C3.03742187 8.63171875 3.19984375 9.5134375 3.3671875 10.421875 C3.96796264 12.86947744 4.77997117 14.80599857 6 17 C0.1038973 11.40626154 0.1038973 11.40626154 -0.09765625 6.73828125 C-0.08605469 5.93777344 -0.07445312 5.13726562 -0.0625 4.3125 C-0.05347656 3.50425781 -0.04445313 2.69601563 -0.03515625 1.86328125 C-0.02355469 1.24839844 -0.01195312 0.63351563 0 0 Z " fill="#A76A19" transform="translate(9,202)"/>
<path d="M0 0 C5.75 0.875 5.75 0.875 8 2 C7.67 2.66 7.34 3.32 7 4 C5.33333333 4.33333333 3.66666667 4.66666667 2 5 C1.67 5.66 1.34 6.32 1 7 C0.34 7 -0.32 7 -1 7 C-1.15149298 10.62885324 -1.15149298 10.62885324 0 14 C-1.65 13.67 -3.3 13.34 -5 13 C-4.731875 12.34 -4.46375 11.68 -4.1875 11 C-2.74294953 7.35060933 -1.37128822 3.67754567 0 0 Z " fill="#F1B308" transform="translate(257,126)"/>
<path d="M0 0 C0.99 0 1.98 0 3 0 C3.18451025 9.41002278 3.18451025 9.41002278 2 14 C1.67 14 1.34 14 1 14 C0.67 15.65 0.34 17.3 0 19 C-0.66 19 -1.32 19 -2 19 C-1.34 12.73 -0.68 6.46 0 0 Z " fill="#E6A209" transform="translate(135,34)"/>
<path d="M0 0 C0.33 0 0.66 0 1 0 C0.67 7.26 0.34 14.52 0 22 C-0.66 22 -1.32 22 -2 22 C-2 25.3 -2 28.6 -2 32 C-2.33 32 -2.66 32 -3 32 C-3.53132662 21.03892859 -1.90858766 10.75852688 0 0 Z " fill="#42441F" transform="translate(3,181)"/>
<path d="M0 0 C5.44876003 1.72066106 10.71169451 3.84705349 16 6 C13.47598278 6.91625283 12.29258938 7.09936056 9.7109375 6.22265625 C8.94007813 5.83980469 8.16921875 5.45695312 7.375 5.0625 C4.32116186 3.46533357 4.32116186 3.46533357 1 3 C0.67386719 3.63808594 0.34773438 4.27617188 0.01171875 4.93359375 C-0.42527344 5.75988281 -0.86226563 6.58617188 -1.3125 7.4375 C-1.95638672 8.67306641 -1.95638672 8.67306641 -2.61328125 9.93359375 C-4 12 -4 12 -7 13 C-5.35821735 8.22390502 -2.73453298 4.20617096 0 0 Z " fill="#EFBA09" transform="translate(122,87)"/>
<path d="M0 0 C0.33 0 0.66 0 1 0 C1.5602932 5.82304721 2.07540575 11.65109267 2.25 17.5 C2.27578125 18.2734375 2.3015625 19.046875 2.328125 19.84375 C1.91441107 22.56244155 0.77505154 23.94467717 -1 26 C-1.14368684 17.28299826 -0.71961582 8.68679101 0 0 Z " fill="#353A19" transform="translate(384,190)"/>
<path d="M0 0 C0.66 0 1.32 0 2 0 C2.02712351 2.39591038 2.0468982 4.79150957 2.0625 7.1875 C2.07087891 7.86103516 2.07925781 8.53457031 2.08789062 9.22851562 C2.10606538 12.95434131 1.89299392 16.3788042 1 20 C0.34 19.67 -0.32 19.34 -1 19 C-1.10349817 12.58311325 -0.74507544 6.37305598 0 0 Z " fill="#343815" transform="translate(260,65)"/>
<path d="M0 0 C0.99 0.66 1.98 1.32 3 2 C1.63875 3.051875 1.63875 3.051875 0.25 4.125 C-2.91969526 6.74638305 -4.87920111 9.49252491 -7 13 C-5.8553125 13.433125 -5.8553125 13.433125 -4.6875 13.875 C-2 15 -2 15 1 17 C0.67 17.66 0.34 18.32 0 19 C-3.3 17.02 -6.6 15.04 -10 13 C-6.72803436 8.61259153 -3.45187242 4.24845837 0 0 Z " fill="#EFB809" transform="translate(148,122)"/>
<path d="M0 0 C0.99 0 1.98 0 3 0 C1.50871999 3.79598549 -0.65733441 5.71720399 -4 8 C-4.99 8 -5.98 8 -7 8 C-7.33 8.99 -7.66 9.98 -8 11 C-9.32 10.67 -10.64 10.34 -12 10 C-11.30132812 9.44570312 -10.60265625 8.89140625 -9.8828125 8.3203125 C-8.97273438 7.59585938 -8.06265625 6.87140625 -7.125 6.125 C-6.22007813 5.40570313 -5.31515625 4.68640625 -4.3828125 3.9453125 C-1.99734824 2.06439526 -1.99734824 2.06439526 0 0 Z " fill="#2B3317" transform="translate(95,108)"/>
<path d="M0 0 C3.60945598 0.69817944 7.18432916 1.47876382 10.75 2.375 C11.71421875 2.60960937 12.6784375 2.84421875 13.671875 3.0859375 C14.82429688 3.53839844 14.82429688 3.53839844 16 4 C16.33 4.99 16.66 5.98 17 7 C10.93267948 5.96232949 5.5626148 4.66038099 0 2 C0 1.34 0 0.68 0 0 Z " fill="#293319" transform="translate(20,233)"/>
<path d="M0 0 C0.66 0.33 1.32 0.66 2 1 C2 1.99 2 2.98 2 4 C2.969375 4.309375 3.93875 4.61875 4.9375 4.9375 C8 6 8 6 9 7 C9.04092937 9.33297433 9.04241723 11.66705225 9 14 C8.01 14.495 8.01 14.495 7 15 C7 12.36 7 9.72 7 7 C3.7 6.01 0.4 5.02 -3 4 C-3 3.34 -3 2.68 -3 2 C-2.01 1.34 -1.02 0.68 0 0 Z " fill="#F1B608" transform="translate(279,173)"/>
<path d="M0 0 C3.7602985 0.58107632 6.53035032 1.65199496 9.8125 3.5625 C10.60269531 4.01753906 11.39289063 4.47257812 12.20703125 4.94140625 C12.79871094 5.29074219 13.39039063 5.64007813 14 6 C14 6.66 14 7.32 14 8 C10.0397381 7.43726296 7.47032673 6.26476935 4.1875 4 C3.39730469 3.46375 2.60710937 2.9275 1.79296875 2.375 C1.20128906 1.92125 0.60960937 1.4675 0 1 C0 0.67 0 0.34 0 0 Z " fill="#293218" transform="translate(147,276)"/>
<path d="M0 0 C0.33 0 0.66 0 1 0 C1.12152487 7.73708326 0.84800767 15.307359 0 23 C-0.33 23 -0.66 23 -1 23 C-1.19389096 20.5211787 -1.38040123 18.04219069 -1.5625 15.5625 C-1.61857422 14.85544922 -1.67464844 14.14839844 -1.73242188 13.41992188 C-1.86190993 11.61572163 -1.93521608 9.80768048 -2 8 C-1.67 7.67 -1.34 7.34 -1 7 C-0.63239269 4.67182036 -0.29758419 2.3381615 0 0 Z " fill="#49481E" transform="translate(241,21)"/>
<path d="M0 0 C3.5786304 1.65167557 6.74820188 3.78286492 10 6 C9.01 6.495 9.01 6.495 8 7 C5.375 5.5625 5.375 5.5625 3 4 C2.67 5.98 2.34 7.96 2 10 C-0.4294516 6.3558226 -0.16179575 4.28758728 0 0 Z " fill="#AC6D19" transform="translate(145,250)"/>
<path d="M0 0 C3.465 1.485 3.465 1.485 7 3 C6.67 3.66 6.34 4.32 6 5 C3.525 4.01 3.525 4.01 1 3 C1.309375 4.3303125 1.309375 4.3303125 1.625 5.6875 C2.02550239 9.2252711 1.56683516 10.86632967 0 14 C-0.33 14 -0.66 14 -1 14 C-1.18451025 4.58997722 -1.18451025 4.58997722 0 0 Z " fill="#F5BF0A" transform="translate(270,64)"/>
<path d="M0 0 C3.00617269 3.00617269 2.59585316 5.82381598 3 10 C1 7 1 7 1 4 C-1.27521866 6.16687491 -3.15794162 8.45620509 -5 11 C-4.46884894 6.48521602 -2.63379708 3.65333143 0 0 Z " fill="#F4BD07" transform="translate(365,144)"/>
<path d="M0 0 C0.33 4.62 0.66 9.24 1 14 C0.67 14 0.34 14 0 14 C-0.33 10.7 -0.66 7.4 -1 4 C-3.475 5.485 -3.475 5.485 -6 7 C-2.86206897 0 -2.86206897 0 0 0 Z " fill="#F8C508" transform="translate(232,102)"/>
<path d="M0 0 C6.625 -0.25 6.625 -0.25 10 2 C7.36 1.67 4.72 1.34 2 1 C2.33 1.99 2.66 2.98 3 4 C1.35 5.32 -0.3 6.64 -2 8 C-1.47731534 5.23723823 -0.89130413 2.6739124 0 0 Z " fill="#F3BA08" transform="translate(162,100)"/>
<path d="M0 0 C0 0.33 0 0.66 0 1 C-1.56116819 1.33951619 -3.12401338 1.67132544 -4.6875 2 C-5.99267578 2.2784375 -5.99267578 2.2784375 -7.32421875 2.5625 C-9.93712964 2.98972047 -12.35813038 3.07616201 -15 3 C-13.68 2.67 -12.36 2.34 -11 2 C-11 1.34 -11 0.68 -11 0 C-7.01803543 -1.05404945 -4.01804691 -0.84098656 0 0 Z " fill="#343518" transform="translate(122,241)"/>
<path d="M0 0 C0.66 0 1.32 0 2 0 C1.796875 1.890625 1.796875 1.890625 1 4 C-1.109375 5.046875 -1.109375 5.046875 -3.75 5.75 C-5.04164063 6.11351562 -5.04164063 6.11351562 -6.359375 6.484375 C-8.97935083 6.99596791 -11.33832863 7.09574357 -14 7 C-10.42007609 5.09944543 -6.79481178 3.94639176 -2.92578125 2.78125 C-0.80955877 2.16970394 -0.80955877 2.16970394 0 0 Z " fill="#BA7118" transform="translate(230,18)"/>
<path d="M0 0 C-3.03525486 2.02350324 -4.19426202 2.32124018 -7.6875 2.625 C-8.49574219 2.69976562 -9.30398437 2.77453125 -10.13671875 2.8515625 C-10.75160156 2.90054687 -11.36648437 2.94953125 -12 3 C-12 2.34 -12 1.68 -12 1 C-7.58774263 -0.47075246 -4.51718381 -1.36884358 0 0 Z " fill="#2C3418" transform="translate(262,289)"/>
<path d="M0 0 C0 0.66 0 1.32 0 2 C1.65 2 3.3 2 5 2 C5 2.33 5 2.66 5 3 C-0.28 2.67 -5.56 2.34 -11 2 C-11 1.67 -11 1.34 -11 1 C-7.27569643 0.30710631 -3.78916254 -0.11144596 0 0 Z " fill="#333B1C" transform="translate(66,243)"/>
<path d="M0 0 C4.21912747 0.4794463 6.79663178 1.16625119 10 4 C9.67 5.65 9.34 7.3 9 9 C8.7215625 8.13375 8.7215625 8.13375 8.4375 7.25 C6.29448878 3.89572157 3.51177437 2.82092004 0 1 C0 0.67 0 0.34 0 0 Z " fill="#151718" transform="translate(138,136)"/>
<path d="M0 0 C1.62580966 0.11398665 3.25067157 0.24155659 4.875 0.375 C5.77992188 0.44460937 6.68484375 0.51421875 7.6171875 0.5859375 C10 1 10 1 12 3 C8.04 3 4.08 3 0 3 C0 2.01 0 1.02 0 0 Z " fill="#37401D" transform="translate(339,43)"/>
<path d="M0 0 C-1.47559669 4.42679007 -3.90057368 4.91432696 -8 7 C-8.66 7 -9.32 7 -10 7 C-10 6.34 -10 5.68 -10 5 C-8.3203125 3.7109375 -8.3203125 3.7109375 -6.125 2.375 C-5.40570313 1.92898438 -4.68640625 1.48296875 -3.9453125 1.0234375 C-2 0 -2 0 0 0 Z " fill="#2A2F16" transform="translate(297,271)"/>
<path d="M0 0 C-4.84060277 3.06242216 -8.29290936 4.53411505 -14 5 C-13.67 3.35 -13.34 1.7 -13 0 C-12.67 0.99 -12.34 1.98 -12 3 C-10.95199219 2.54947266 -10.95199219 2.54947266 -9.8828125 2.08984375 C-8.97273438 1.70957031 -8.06265625 1.32929688 -7.125 0.9375 C-6.22007812 0.55464844 -5.31515625 0.17179688 -4.3828125 -0.22265625 C-2 -1 -2 -1 0 0 Z " fill="#B26E1A" transform="translate(345,239)"/>
<path d="M0 0 C0.99 0.33 1.98 0.66 3 1 C0.62567936 3.62424913 -1.94270891 5.24205762 -5 7 C-5.99 7.66 -6.98 8.32 -8 9 C-6.40758592 4.70048197 -3.64459275 2.60328053 0 0 Z " fill="#F7B707" transform="translate(167,202)"/>
<path d="M0 0 C0.66 0.33 1.32 0.66 2 1 C-0.3500189 3.72107452 -2.55674975 4.96702492 -6 6 C-6.99 5.67 -7.98 5.34 -9 5 C-7.54735962 4.1361871 -6.0876837 3.28419546 -4.625 2.4375 C-3.40683594 1.72400391 -3.40683594 1.72400391 -2.1640625 0.99609375 C-1.44992187 0.66738281 -0.73578125 0.33867187 0 0 Z " fill="#F1B408" transform="translate(261,191)"/>
<path d="M0 0 C2.31 0 4.62 0 7 0 C7.33 0.99 7.66 1.98 8 3 C4.37 3 0.74 3 -3 3 C-2.01 2.67 -1.02 2.34 0 2 C0 1.34 0 0.68 0 0 Z " fill="#E2940B" transform="translate(322,75)"/>
<path d="M0 0 C1.90318884 2.85478326 2.4619099 4.41941308 3.125 7.6875 C3.29257812 8.49574219 3.46015625 9.30398437 3.6328125 10.13671875 C3.75398438 10.75160156 3.87515625 11.36648437 4 12 C1.02449969 8.9315153 0.03525487 7.53763669 -0.25 3.1875 C-0.1675 2.135625 -0.085 1.08375 0 0 Z " fill="#333C1D" transform="translate(371,132)"/>
<path d="M0 0 C5.75 1.625 5.75 1.625 8 5 C6.02 5 4.04 5 2 5 C1.34 3.35 0.68 1.7 0 0 Z " fill="#2F3718" transform="translate(230,8)"/>
<path d="M0 0 C-2.97 1.32 -5.94 2.64 -9 4 C-9.66 3.34 -10.32 2.68 -11 2 C-4.5 -1.125 -4.5 -1.125 0 0 Z " fill="#3B3B19" transform="translate(145,4)"/>
<path d="M0 0 C-1.28650706 0.69710731 -2.57940665 1.38242876 -3.875 2.0625 C-4.95394531 2.63677734 -4.95394531 2.63677734 -6.0546875 3.22265625 C-6.69664062 3.47917969 -7.33859375 3.73570312 -8 4 C-8.66 3.67 -9.32 3.34 -10 3 C-6.81859267 -0.48439851 -4.56758339 -1.41752588 0 0 Z " fill="#303415" transform="translate(353,246)"/>
<path d="M0 0 C0.66 0.33 1.32 0.66 2 1 C0.29374499 3.78388975 -0.47626739 4.85384206 -3.6875 5.75 C-4.8321875 5.87375 -4.8321875 5.87375 -6 6 C-4 4 -2 2 0 0 Z " fill="#383A17" transform="translate(28,146)"/>
<path d="M0 0 C1.2065625 0.0309375 1.2065625 0.0309375 2.4375 0.0625 C2.4375 0.7225 2.4375 1.3825 2.4375 2.0625 C1.1175 2.3925 -0.2025 2.7225 -1.5625 3.0625 C-1.8925 4.7125 -2.2225 6.3625 -2.5625 8.0625 C-2.8925 8.0625 -3.2225 8.0625 -3.5625 8.0625 C-3.60491723 5.72955225 -3.60342937 3.39547433 -3.5625 1.0625 C-2.5625 0.0625 -2.5625 0.0625 0 0 Z " fill="#F7C109" transform="translate(319.5625,74.9375)"/>
<path d="M0 0 C-1.98 0.33 -3.96 0.66 -6 1 C-6 1.66 -6 2.32 -6 3 C-5.34 3.33 -4.68 3.66 -4 4 C-5.65 3.67 -7.3 3.34 -9 3 C-8.67 2.01 -8.34 1.02 -8 0 C-5.04215769 -1.22393475 -3.00272755 -0.96516243 0 0 Z " fill="#B77119" transform="translate(148,13)"/>
<path d="M0 0 C2.14210449 1.76956458 2.96060573 2.87575652 3.8125 5.5625 C3.874375 6.366875 3.93625 7.17125 4 8 C3.34 8.66 2.68 9.32 2 10 C0.39644899 6.49223216 -0.22036864 3.85645121 0 0 Z " fill="#3F401B" transform="translate(137,257)"/>
<path d="M0 0 C-2.64 1.65 -5.28 3.3 -8 5 C-8 4.01 -8 3.02 -8 2 C-3.71900826 -1.23966942 -3.71900826 -1.23966942 0 0 Z " fill="#353617" transform="translate(371,235)"/>
</svg>
