<?xml version="1.0" encoding="UTF-8"?>
<svg version="1.1" xmlns="http://www.w3.org/2000/svg" width="151" height="319">
<path d="M0 0 C5.74807279 5.93681548 7.55280495 14.65036398 7.74609375 22.6015625 C7.51912179 30.23454531 6.61338925 38.20686926 2.30859375 44.6640625 C3.13101563 45.0765625 3.9534375 45.4890625 4.80078125 45.9140625 C16.55325758 51.9938655 27.11388103 58.23965997 31.55859375 71.3515625 C33.91614116 82.77347877 33.46244783 94.75616136 33.46972656 106.36523438 C33.47436617 108.10958458 33.47939233 109.85393378 33.48477173 111.59828186 C33.49778033 116.29864788 33.50431687 120.9989997 33.50878239 125.69938087 C33.51172949 128.6435375 33.51583705 131.58769038 33.52028656 134.53184509 C33.53392573 143.76624992 33.54361208 153.00064602 33.54748845 162.23506021 C33.55197256 172.85445092 33.56955194 183.47371313 33.59848905 194.09306479 C33.62015548 202.33295497 33.63019523 210.5728091 33.63152957 218.81272745 C33.63257324 223.72081884 33.63838841 228.62878885 33.65634918 233.53684998 C33.67291803 238.15317015 33.67494295 242.76927875 33.66621017 247.38561821 C33.66544473 249.07013456 33.66971673 250.75466273 33.67966843 252.43914986 C33.75300454 265.63593635 33.62131041 279.31005052 24.30859375 289.6640625 C7.49422278 305.91795444 -17.27035814 309.09934641 -39.69140625 308.9765625 C-40.41684631 308.97407501 -41.14228638 308.97158752 -41.88970947 308.96902466 C-64.13809866 308.85128404 -89.47500879 306.77826618 -106.6328125 290.86328125 C-118.62771588 278.36754683 -117.99699584 260.38226365 -117.95019531 244.10961914 C-117.95291313 242.49957116 -117.95647845 240.88952442 -117.96081543 239.27947998 C-117.96985438 234.94622668 -117.96642883 230.61306972 -117.96005726 226.27981496 C-117.954945 221.70887471 -117.9597038 217.13794196 -117.96282959 212.56700134 C-117.96645747 204.88506616 -117.96170466 197.20316955 -117.95214844 189.52124023 C-117.94130115 180.70089193 -117.94476708 171.88063639 -117.95580125 163.0602904 C-117.96494989 155.43592456 -117.96612176 147.81158627 -117.96092391 140.1872167 C-117.95784093 135.65668217 -117.95729087 131.12619083 -117.96399689 126.59565926 C-118.00469481 94.32624019 -118.00469481 94.32624019 -116.92480469 80.27124023 C-116.83377661 78.94563001 -116.83377661 78.94563001 -116.74090958 77.59323978 C-115.86658542 68.26081857 -111.55231947 60.97004892 -104.69140625 54.6640625 C-90.93140625 44.6640625 -90.93140625 44.6640625 -85.69140625 44.6640625 C-86.05234375 43.96925781 -86.41328125 43.27445313 -86.78515625 42.55859375 C-90.14969508 35.18464616 -91.20860343 28.90626237 -91.25390625 20.8515625 C-91.26808594 19.96895752 -91.28226563 19.08635254 -91.296875 18.17700195 C-91.1928886 11.26905535 -89.49458992 6.07426161 -85.0859375 0.7109375 C-77.92816126 -5.15667166 -70.293154 -7.86431117 -61.19140625 -9.0859375 C-60.32193359 -9.20662598 -59.45246094 -9.32731445 -58.55664062 -9.45166016 C-39.65821813 -11.88805416 -15.64487804 -12.35692446 0 0 Z " fill="#F09608" transform="translate(117.69140625,10.3359375)"/>
<path d="M0 0 C5.74807279 5.93681548 7.55280495 14.65036398 7.74609375 22.6015625 C7.51912179 30.23454531 6.61338925 38.20686926 2.30859375 44.6640625 C3.13101563 45.0765625 3.9534375 45.4890625 4.80078125 45.9140625 C16.55325758 51.9938655 27.11388103 58.23965997 31.55859375 71.3515625 C33.91614116 82.77347877 33.46244783 94.75616136 33.46972656 106.36523438 C33.47436617 108.10958458 33.47939233 109.85393378 33.48477173 111.59828186 C33.49778033 116.29864788 33.50431687 120.9989997 33.50878239 125.69938087 C33.51172949 128.6435375 33.51583705 131.58769038 33.52028656 134.53184509 C33.53392573 143.76624992 33.54361208 153.00064602 33.54748845 162.23506021 C33.55197256 172.85445092 33.56955194 183.47371313 33.59848905 194.09306479 C33.62015548 202.33295497 33.63019523 210.5728091 33.63152957 218.81272745 C33.63257324 223.72081884 33.63838841 228.62878885 33.65634918 233.53684998 C33.67291803 238.15317015 33.67494295 242.76927875 33.66621017 247.38561821 C33.66544473 249.07013456 33.66971673 250.75466273 33.67966843 252.43914986 C33.75300454 265.63593635 33.62131041 279.31005052 24.30859375 289.6640625 C7.49422278 305.91795444 -17.27035814 309.09934641 -39.69140625 308.9765625 C-40.41684631 308.97407501 -41.14228638 308.97158752 -41.88970947 308.96902466 C-64.13809866 308.85128404 -89.47500879 306.77826618 -106.6328125 290.86328125 C-118.62771588 278.36754683 -117.99699584 260.38226365 -117.95019531 244.10961914 C-117.95291313 242.49957116 -117.95647845 240.88952442 -117.96081543 239.27947998 C-117.96985438 234.94622668 -117.96642883 230.61306972 -117.96005726 226.27981496 C-117.954945 221.70887471 -117.9597038 217.13794196 -117.96282959 212.56700134 C-117.96645747 204.88506616 -117.96170466 197.20316955 -117.95214844 189.52124023 C-117.94130115 180.70089193 -117.94476708 171.88063639 -117.95580125 163.0602904 C-117.96494989 155.43592456 -117.96612176 147.81158627 -117.96092391 140.1872167 C-117.95784093 135.65668217 -117.95729087 131.12619083 -117.96399689 126.59565926 C-118.00469481 94.32624019 -118.00469481 94.32624019 -116.92480469 80.27124023 C-116.83377661 78.94563001 -116.83377661 78.94563001 -116.74090958 77.59323978 C-115.86658542 68.26081857 -111.55231947 60.97004892 -104.69140625 54.6640625 C-90.93140625 44.6640625 -90.93140625 44.6640625 -85.69140625 44.6640625 C-86.05234375 43.96925781 -86.41328125 43.27445313 -86.78515625 42.55859375 C-90.14969508 35.18464616 -91.20860343 28.90626237 -91.25390625 20.8515625 C-91.26808594 19.96895752 -91.28226563 19.08635254 -91.296875 18.17700195 C-91.1928886 11.26905535 -89.49458992 6.07426161 -85.0859375 0.7109375 C-77.92816126 -5.15667166 -70.293154 -7.86431117 -61.19140625 -9.0859375 C-60.32193359 -9.20662598 -59.45246094 -9.32731445 -58.55664062 -9.45166016 C-39.65821813 -11.88805416 -15.64487804 -12.35692446 0 0 Z M-105.69140625 83.6640625 C-112.43609558 97.15344116 -107.85629841 123.01024847 -107.85866332 138.13309669 C-107.85938087 140.7164544 -107.86152806 143.29980702 -107.86416054 145.88316345 C-107.87335861 154.92146128 -107.87750148 163.95974452 -107.87670898 172.99804688 C-107.8761062 181.38645695 -107.88671142 189.77480315 -107.90245265 198.16319704 C-107.91555581 205.40700724 -107.92089188 212.65079657 -107.92025357 219.89461851 C-107.91999988 224.20337409 -107.92278141 228.51207242 -107.93343163 232.82081604 C-107.94316243 236.86592124 -107.94315793 240.91091488 -107.93591499 244.95602417 C-107.93487609 246.43174911 -107.93719033 247.90748121 -107.94327545 249.38319397 C-108.17577056 266.91821533 -108.17577056 266.91821533 -100.56640625 282.1640625 C-83.74856799 296.78826969 -61.89837194 298.84049079 -40.44140625 298.8515625 C-39.20777344 298.86380859 -37.97414063 298.87605469 -36.703125 298.88867188 C-18.36648889 298.91759401 1.77558621 296.42633314 15.6875 283.41015625 C25.26493215 273.0942233 23.4578564 254.03431024 23.43798828 241.08666992 C23.43934661 239.65278072 23.44112895 238.21889187 23.44329834 236.78500366 C23.4478259 232.91858989 23.44610127 229.05220306 23.44291925 225.18578887 C23.44036595 221.10817762 23.4427419 217.0305685 23.44430542 212.95295715 C23.44612077 206.0963195 23.44373984 199.23969265 23.43896484 192.38305664 C23.43354738 184.5142362 23.43526906 176.64544178 23.44079125 168.776622 C23.44536927 161.97526111 23.44594955 155.17390795 23.44335258 148.37254602 C23.44181225 144.33105916 23.44153258 140.2895844 23.44488907 136.24809837 C23.45729605 119.02998137 23.32979284 101.85900261 22.30859375 84.6640625 C19.64274202 85.93323974 17.49571872 87.24245435 15.05859375 88.9765625 C-1.08632126 99.21480129 -22.27171038 99.86098199 -40.74731445 99.90429688 C-43.22447005 99.91394782 -45.7007743 99.94503084 -48.17773438 99.9765625 C-69.08682487 100.11465061 -88.73549079 96.6507523 -105.69140625 83.6640625 Z " fill="#0D271B" transform="translate(117.69140625,10.3359375)"/>
<path d="M0 0 C10.7449282 2.77540158 20.86374599 4.38081918 32 4.375 C33.53769043 4.37705444 33.53769043 4.37705444 35.10644531 4.37915039 C43.40084038 4.26040986 51.574334 3.64404545 59.1953125 0.171875 C63.58389126 -1.1798433 64.94444408 -0.85781745 68.88647461 1.12475586 C69.54268799 1.49608643 70.19890137 1.86741699 70.875 2.25 C71.56537354 2.61681885 72.25574707 2.9836377 72.96704102 3.36157227 C79.10972272 6.76238227 84.12005012 10.94299978 89 16 C89.33 16.33 89.66 16.66 90 17 C90.5625 19.625 90.5625 19.625 90 23 C79.3038043 35.89099949 60.62039483 38.11226715 44.99575806 39.81774902 C39.21596092 40.34555532 33.42373676 40.33756973 27.625 40.3125 C26.61385132 40.30976578 26.61385132 40.30976578 25.58227539 40.30697632 C15.0913463 40.25937204 5.17022939 39.71350838 -5 37 C-5.66402832 36.82307617 -6.32805664 36.64615234 -7.01220703 36.46386719 C-16.53080928 33.84381931 -25.42854568 30.61496519 -31 22 C-31.19896951 18.48487204 -30.88137316 16.18153121 -28.73828125 13.30859375 C-24.23264153 8.94470449 -18.77527781 5.99335076 -13.3125 3 C-12.57580078 2.58959473 -11.83910156 2.17918945 -11.08007812 1.75634766 C-6.96629705 -0.40404009 -4.57545213 -1.61107469 0 0 Z " fill="#F09A08" transform="translate(47,62)"/>
<path d="M0 0 C2.44242155 0.00853312 4.88251345 -0.02039018 7.32470703 -0.05200195 C18.43665344 -0.10110907 30.23847807 0.6800544 38.94580078 8.44604492 C39.82080078 11.19604492 39.82080078 11.19604492 39.94580078 13.44604492 C37.10476663 15.78418337 34.66462887 17.05891624 31.13330078 18.07104492 C30.32248047 18.31081055 29.51166016 18.55057617 28.67626953 18.79760742 C22.59800935 20.24108552 16.62136393 20.62346517 10.40673828 20.68432617 C9.2026683 20.69643379 9.2026683 20.69643379 7.97427368 20.70878601 C6.28169868 20.7225472 4.58909685 20.73330455 2.89648438 20.74121094 C1.19001958 20.7526952 -0.51641031 20.77309044 -2.22265625 20.80273438 C-13.74953064 21.0023967 -25.07506752 21.09879939 -35.05419922 14.44604492 C-35.67919922 12.19604492 -35.67919922 12.19604492 -35.05419922 9.44604492 C-27.26982392 -1.09198695 -11.74097707 -0.06243947 0 0 Z " fill="#078495" transform="translate(73.05419921875,10.553955078125)"/>
<path d="M0 0 C-0.44520405 13.55646338 -0.44520405 13.55646338 -5 19 C-11.34387061 23.44186919 -17.36923893 24.67296738 -25 25 C-25 18.73 -25 12.46 -25 6 C-22.091875 5.62875 -22.091875 5.62875 -19.125 5.25 C-13.65621848 4.42520016 -8.961153 3.06277565 -3.92578125 0.8046875 C-2 0 -2 0 0 0 Z " fill="#088494" transform="translate(115,33)"/>
<path d="M0 0 C1.07423153 18.05068835 1.14924721 36.07893038 1.1343255 54.15344357 C1.13175372 58.25496053 1.13415186 62.35647549 1.13571167 66.45799255 C1.13751604 73.32022512 1.13516937 80.18244682 1.13037109 87.04467773 C1.12489473 94.96802935 1.12672234 102.89135536 1.1321975 110.81470639 C1.13673432 117.65593801 1.13737749 124.49716194 1.13475883 131.33839458 C1.13320393 135.40879833 1.13298144 139.47919001 1.13629532 143.54959297 C1.13918357 147.36077456 1.13718081 151.1719229 1.13140106 154.98310089 C1.13008019 156.37910596 1.13045617 157.77511383 1.13266373 159.17111778 C1.13540066 161.07746149 1.13135831 162.98381133 1.12698364 164.89015198 C1.12660662 165.95574624 1.12622959 167.0213405 1.12584114 168.1192255 C1.00640172 170.85345079 0.61829118 173.33850647 0 176 C-0.33 176 -0.66 176 -1 176 C-1.33 119.24 -1.66 62.48 -2 4 C-8.93 7.465 -8.93 7.465 -16 11 C-17.65 11.33 -19.3 11.66 -21 12 C-19.51405445 9.02810891 -17.37561758 8.8441754 -14.3125 7.6875 C-10.31045566 6.08858573 -3.7251357 0 0 0 Z " fill="#DCA608" transform="translate(140,95)"/>
<path d="M0 0 C0.33 0 0.66 0 1 0 C1 62.37 1 124.74 1 189 C0.67 189 0.34 189 0 189 C-0.91711904 181.13748347 -1.30245109 173.29822695 -1.55200195 165.38891602 C-1.59404157 164.08128831 -1.63608118 162.7736606 -1.67939472 161.42640781 C-2.11163997 147.26121697 -2.16460038 133.09466149 -2.16725707 118.92393565 C-2.16798213 116.7369982 -2.17014223 114.55006654 -2.17275429 112.36313057 C-2.18189376 104.69056947 -2.18610174 97.01802535 -2.18530273 89.34545898 C-2.18469746 82.25368355 -2.19536596 75.16198304 -2.2110464 68.07022661 C-2.22416923 61.91065495 -2.229485 55.75110779 -2.22884732 49.59152228 C-2.22859475 45.94238029 -2.2313143 42.29330609 -2.24202538 38.64417839 C-2.25361155 34.59077707 -2.24893055 30.53754431 -2.24291992 26.48413086 C-2.24853943 25.30630035 -2.25415894 24.12846985 -2.25994873 22.91494751 C-2.23070752 15.11512762 -1.38901599 7.67332691 0 0 Z " fill="#0B1E12" transform="translate(2,91)"/>
<path d="M0 0 C3.96 0 7.92 0 12 0 C12 5.94 12 11.88 12 18 C8.04 18 4.08 18 0 18 C0 12.06 0 6.12 0 0 Z " fill="#098B9D" transform="translate(70,40)"/>
<path d="M0 0 C0.51949219 0.39832031 1.03898438 0.79664062 1.57421875 1.20703125 C5.27926842 4.02177323 8.93575065 6.71385974 13 9 C12.01 9.495 12.01 9.495 11 10 C8.6171875 8.78515625 8.6171875 8.78515625 5.875 7.0625 C4.96492188 6.49660156 4.05484375 5.93070312 3.1171875 5.34765625 C2.41851562 4.90292969 1.71984375 4.45820312 1 4 C0.03951015 35.70624562 -0.28775004 67.4102815 -0.53222656 99.12908936 C-0.58346847 105.68113208 -0.63860499 112.2331421 -0.69335938 118.78515625 C-0.79926467 131.52340911 -0.90117736 144.26169032 -1 157 C-1.33 157 -1.66 157 -2 157 C-2.02347539 139.59594809 -2.04105049 122.1919012 -2.05181217 104.78783703 C-2.05694427 96.70482539 -2.06392734 88.62182364 -2.07543945 80.53881836 C-2.08548144 73.48459993 -2.0918758 66.43038868 -2.09408849 59.3761633 C-2.09537963 55.64927201 -2.09836215 51.92240123 -2.10573006 48.19551659 C-2.15645198 21.44526079 -2.15645198 21.44526079 -1.55639648 9.6496582 C-1.51754113 8.88093226 -1.47868578 8.11220633 -1.43865299 7.32018566 C-1.13325859 2.26651718 -1.13325859 2.26651718 0 0 Z " fill="#FDD103" transform="translate(12,94)"/>
<path d="M0 0 C2.97 0.99 5.94 1.98 9 3 C9 8.61 9 14.22 9 20 C4 18 4 18 2.63671875 16.15234375 C0.20690947 10.48278877 -0.39136888 6.16405986 0 0 Z " fill="#0A8C9F" transform="translate(37,34)"/>
<path d="M0 0 C2.31 0 4.62 0 7 0 C7 5.94 7 11.88 7 18 C4.69 17.34 2.38 16.68 0 16 C0 10.72 0 5.44 0 0 Z " fill="#0A92A5" transform="translate(54,39)"/>
<path d="M0 0 C0.51949219 0.39832031 1.03898438 0.79664062 1.57421875 1.20703125 C5.27926842 4.02177323 8.93575065 6.71385974 13 9 C12.01 9.495 12.01 9.495 11 10 C7.7 8.02 4.4 6.04 1 4 C0.67 17.2 0.34 30.4 0 44 C-0.33 44 -0.66 44 -1 44 C-2.08134311 39.62313504 -2.15273564 35.3555228 -2.125 30.875 C-2.12101196 29.71194336 -2.12101196 29.71194336 -2.11694336 28.52539062 C-2.06938608 22.51029802 -1.86074897 16.50758635 -1.5625 10.5 C-1.52334473 9.68128418 -1.48418945 8.86256836 -1.44384766 8.01904297 C-1.12413371 2.24826741 -1.12413371 2.24826741 0 0 Z " fill="#F8BB05" transform="translate(12,94)"/>
<path d="M0 0 C11.385 0.99 11.385 0.99 23 2 C23 2.33 23 2.66 23 3 C32.57 3.33 42.14 3.66 52 4 C52 4.33 52 4.66 52 5 C47.57496513 5.05031527 43.15009206 5.08614055 38.72485352 5.10986328 C37.22677706 5.1197769 35.72871915 5.13331185 34.23071289 5.15087891 C7.27799515 5.45849636 7.27799515 5.45849636 0 0 Z " fill="#373C19" transform="translate(42,314)"/>
<path d="M0 0 C1.32 0.33 2.64 0.66 4 1 C3.01 1 2.02 1 1 1 C1.41205385 7.48984813 2.32310246 13.47881735 6 19 C7.32 19.66 8.64 20.32 10 21 C10 15.72 10 10.44 10 5 C10.66 4.67 11.32 4.34 12 4 C12.19425873 6.79134852 12.38069517 9.58283687 12.5625 12.375 C12.61857422 13.1690625 12.67464844 13.963125 12.73242188 14.78125 C13.11328125 20.7734375 13.11328125 20.7734375 12 23 C9.3125 23 9.3125 23 6 22 C1.69171127 16.9166752 -0.14045551 11.93871829 -0.0625 5.3125 C-0.05347656 4.31863281 -0.04445312 3.32476562 -0.03515625 2.30078125 C-0.02355469 1.54152344 -0.01195312 0.78226563 0 0 Z " fill="#051B11" transform="translate(36,33)"/>
<path d="M0 0 C-0.08772455 1.89666526 -0.19591301 3.79238993 -0.3125 5.6875 C-0.37050781 6.74324219 -0.42851563 7.79898438 -0.48828125 8.88671875 C-1.03782064 12.23009964 -2.08674018 14.23526262 -4 17 C-5.3609623 14.2780754 -4.70366248 12.8168043 -4.0625 9.875 C-3.86785156 8.96492188 -3.67320313 8.05484375 -3.47265625 7.1171875 C-3.23869141 6.06917969 -3.23869141 6.06917969 -3 5 C-4.65 4.67 -6.3 4.34 -8 4 C-2.7826087 0 -2.7826087 0 0 0 Z " fill="#0C96AA" transform="translate(115,33)"/>
<path d="M0 0 C0.66 0.33 1.32 0.66 2 1 C-3.57891458 6.45212107 -9.50891257 9.7151615 -17 12 C-17.66 11.67 -18.32 11.34 -19 11 C-18.04738281 10.54109375 -17.09476562 10.0821875 -16.11328125 9.609375 C-14.84619428 8.98991026 -13.5792761 8.37010019 -12.3125 7.75 C-11.68666016 7.44964844 -11.06082031 7.14929688 -10.41601562 6.83984375 C-6.54561174 4.93503765 -3.2880939 2.84171786 0 0 Z " fill="#F3BC08" transform="translate(138,95)"/>
<path d="M0 0 C-1.93108963 1.03290841 -3.870118 2.05098672 -5.8125 3.0625 C-6.89144531 3.63097656 -7.97039062 4.19945312 -9.08203125 4.78515625 C-12 6 -12 6 -15 5 C-14.34 5 -13.68 5 -13 5 C-13 4.34 -13 3.68 -13 3 C-11.5903653 2.29819469 -10.17192359 1.61406042 -8.75 0.9375 C-7.96109375 0.55464844 -7.1721875 0.17179687 -6.359375 -0.22265625 C-3.74006478 -1.08564091 -2.55144824 -0.93045933 0 0 Z " fill="#363818" transform="translate(133,307)"/>
<path d="M0 0 C0.33 0 0.66 0 1 0 C1.02687279 1.81242052 1.04633715 3.62495233 1.0625 5.4375 C1.07410156 6.44683594 1.08570313 7.45617187 1.09765625 8.49609375 C1 11 1 11 0 12 C-0.36760731 14.32817964 -0.70241581 16.6618385 -1 19 C-1.33 19 -1.66 19 -2 19 C-2.24991456 12.34949576 -1.73955334 6.43013467 0 0 Z " fill="#393D1B" transform="translate(3,79)"/>
<path d="M0 0 C1.9375 1 1.9375 1 4 3 C4.66549451 5.69924572 4.81680763 8.20631637 5 11 C3.0625 10.375 3.0625 10.375 1 9 C0.20851401 5.9000132 0 3.19474755 0 0 Z " fill="#0A7F8F" transform="translate(40,43)"/>
<path d="M0 0 C0 0.66 0 1.32 0 2 C-1.60341555 2.33692785 -3.20776555 2.66941093 -4.8125 3 C-5.70582031 3.185625 -6.59914063 3.37125 -7.51953125 3.5625 C-10 4 -10 4 -13 4 C-13.33 4.66 -13.66 5.32 -14 6 C-14.66 5.34 -15.32 4.68 -16 4 C-10.48758213 1.51400763 -6.12892216 0 0 0 Z " fill="#244F3F" transform="translate(56,2)"/>
<path d="M0 0 C0.51949219 0.39832031 1.03898438 0.79664062 1.57421875 1.20703125 C5.27926842 4.02177323 8.93575065 6.71385974 13 9 C12.01 9.495 12.01 9.495 11 10 C8.6875 8.78515625 8.6875 8.78515625 6 7.0625 C2.74062054 4.74903816 2.74062054 4.74903816 -1 4 C-0.67 2.68 -0.34 1.36 0 0 Z " fill="#ECB70A" transform="translate(12,94)"/>
<path d="M0 0 C1 3 1 3 0.22265625 5.04296875 C-0.16019531 5.75066406 -0.54304687 6.45835937 -0.9375 7.1875 C-1.31777344 7.90292969 -1.69804687 8.61835938 -2.08984375 9.35546875 C-2.54037109 10.16951172 -2.54037109 10.16951172 -3 11 C-3.99 11 -4.98 11 -6 11 C-5.67 10.34 -5.34 9.68 -5 9 C-4.34 9 -3.68 9 -3 9 C-2.67 6.69 -2.34 4.38 -2 2 C-1.34 2 -0.68 2 0 2 C0 1.34 0 0.68 0 0 Z " fill="#363918" transform="translate(148,285)"/>
<path d="M0 0 C1.4370809 -0.05422947 2.87475462 -0.09289723 4.3125 -0.125 C5.11300781 -0.14820312 5.91351563 -0.17140625 6.73828125 -0.1953125 C9 0 9 0 12 2 C11.67 2.33 11.34 2.66 11 3 C9.33050645 2.96232046 7.66240712 2.84571204 6 2.6875 C4.63875 2.56955078 4.63875 2.56955078 3.25 2.44921875 C2.13625 2.22685547 2.13625 2.22685547 1 2 C0.67 1.34 0.34 0.68 0 0 Z " fill="#EFAC09" transform="translate(37,96)"/>
<path d="M0 0 C0.66 0 1.32 0 2 0 C2.185625 1.11375 2.185625 1.11375 2.375 2.25 C2.95486701 4.80141485 3.73708739 6.7267573 5 9 C4.01 10.485 4.01 10.485 3 12 C2.49166409 10.75336669 1.99368855 9.50250613 1.5 8.25 C1.2215625 7.55390625 0.943125 6.8578125 0.65625 6.140625 C0 4 0 4 0 0 Z " fill="#403F15" transform="translate(2,281)"/>
<path d="M0 0 C2.72647685 2.35468455 3.98756342 4.5408417 5 8 C4.625 10.3125 4.625 10.3125 4 12 C3.67 10.02 3.34 8.04 3 6 C2.34 6 1.68 6 1 6 C0.67 4.02 0.34 2.04 0 0 Z " fill="#2F3A1D" transform="translate(144,73)"/>
<path d="M0 0 C2 1 2 1 3 3 C0.36 3.66 -2.28 4.32 -5 5 C-3.35 3.35 -1.7 1.7 0 0 Z " fill="#1A3C2B" transform="translate(38,7)"/>
</svg>
