<?xml version="1.0" encoding="UTF-8"?>
<svg version="1.1" xmlns="http://www.w3.org/2000/svg" width="400" height="380">
<path d="M0 0 C1.90153792 2.80759988 1.16029595 4.75822288 0.55859375 8.02734375 C0.36910156 9.11402344 0.17960938 10.20070313 -0.015625 11.3203125 C-0.53170603 13.78057182 -1.13866965 16.22272031 -1.8125 18.64453125 C-8.98166831 46.9513799 6.2459646 74.9626482 18.37609863 99.43063354 C24.06811644 110.94612188 28.75082785 122.45138115 32.24609375 134.83984375 C33.23609375 134.83984375 34.22609375 134.83984375 35.24609375 134.83984375 C35.49101562 134.15535156 35.7359375 133.47085938 35.98828125 132.765625 C37.47405101 129.30959535 39.38759832 126.21015226 41.37109375 123.02734375 C48.79219586 110.82322066 54.71554986 98.45630224 59.36938477 84.93310547 C61.22424506 79.74225407 62.85898855 76.27231485 67.24609375 72.83984375 C70.12109375 72.46484375 70.12109375 72.46484375 73.24609375 73.83984375 C88.18821619 88.57491599 94.22003495 111.12252607 99.24609375 130.83984375 C99.51945557 131.87818359 99.51945557 131.87818359 99.79833984 132.9375 C102.35499184 143.01147205 102.54993437 153.1245548 102.62109375 163.46484375 C102.6351123 164.75116699 102.64913086 166.03749023 102.66357422 167.36279297 C102.6178332 176.55908339 101.33895562 184.92015229 99.24609375 193.83984375 C99.80337158 193.3077832 100.36064941 192.77572266 100.93481445 192.22753906 C108.9488371 184.65890304 119.4404113 176.80982665 130.24609375 173.83984375 C136.44281506 174.03656506 136.44281506 174.03656506 139.24609375 176.83984375 C139.50947179 179.61756332 139.62558101 182.24608224 139.62109375 185.02734375 C139.62238281 185.85145752 139.62367188 186.67557129 139.625 187.5246582 C139.45159111 198.12920306 137.34891379 208.47534577 135.24609375 218.83984375 C136.0453125 218.865625 136.84453125 218.89140625 137.66796875 218.91796875 C152.18970262 219.66791745 165.77950594 224.37325594 176.24609375 234.83984375 C183.45336102 244.50032461 186.41259144 252.78031614 185.24609375 264.83984375 C184.46224974 267.93220397 183.41024897 270.87215273 182.24609375 273.83984375 C181.10517893 276.36657421 181.10517893 276.36657421 181.24609375 278.83984375 C182.34223458 280.66385675 183.55248846 282.27008388 184.921875 283.8984375 C189.90128416 291.19863323 189.0644477 301.39419089 188.24609375 309.83984375 C187.39341586 313.25516438 186.12129437 315.88160647 184.24609375 318.83984375 C183.90707031 319.49726563 183.56804687 320.1546875 183.21875 320.83203125 C176.42681451 333.25571396 163.41440519 340.75163925 150.3984375 345.078125 C133.16285129 349.24285773 115.17838253 347.17450968 98.24609375 342.83984375 C97.79169922 343.83564453 97.79169922 343.83564453 97.328125 344.8515625 C94.86292368 350.04744836 92.66488221 354.03763042 88.24609375 357.83984375 C87.74078125 358.35804688 87.23546875 358.87625 86.71484375 359.41015625 C69.19799236 376.54286616 43.45961412 378.26205731 20.37890625 378.0546875 C2.06410956 377.6657819 -20.23068868 373.36306132 -33.75390625 359.83984375 C-37.60099319 360.06614298 -41.16207498 360.70084753 -44.9140625 361.58203125 C-64.64969651 366.09180616 -86.98301761 365.68450524 -104.65625 354.65234375 C-106.75048685 353.03237428 -108.45039983 351.43381307 -109.6628418 349.06103516 C-110.81943228 346.84950709 -111.82311866 345.43887999 -113.75390625 343.83984375 C-117.89991817 343.0116542 -121.92739367 343.33189263 -126.12890625 343.58984375 C-136.24199668 343.9049628 -144.96475455 343.62987225 -154.75390625 340.83984375 C-155.80320313 340.56140625 -156.8525 340.28296875 -157.93359375 339.99609375 C-168.65099001 336.83268926 -178.42032826 331.26782699 -184.75390625 321.83984375 C-188.99531369 313.78116962 -189.0806515 305.65759679 -187.75390625 296.83984375 C-188.48738281 296.56527344 -189.22085938 296.29070312 -189.9765625 296.0078125 C-198.42202463 292.45620466 -205.734055 286.66802044 -209.56640625 278.21484375 C-212.79622135 269.03536924 -212.47140021 260.80638348 -208.75390625 251.83984375 C-206.98441205 248.64535864 -204.95963007 245.746401 -202.75390625 242.83984375 C-202.31304687 242.22238281 -201.8721875 241.60492188 -201.41796875 240.96875 C-194.59613152 232.11613464 -182.71495058 225.71582678 -171.75390625 223.83984375 C-169.97430931 223.75126501 -168.19195493 223.70925057 -166.41015625 223.70703125 C-165.41113281 223.70574219 -164.41210938 223.70445312 -163.3828125 223.703125 C-162.35027344 223.70699219 -161.31773437 223.71085938 -160.25390625 223.71484375 C-158.70509766 223.70904297 -158.70509766 223.70904297 -157.125 223.703125 C-156.12597656 223.70441406 -155.12695312 223.70570313 -154.09765625 223.70703125 C-153.19208984 223.70815918 -152.28652344 223.70928711 -151.35351562 223.71044922 C-148.73028606 223.84101944 -146.31199187 224.25914217 -143.75390625 224.83984375 C-144.15222656 223.74929687 -144.55054688 222.65875 -144.9609375 221.53515625 C-154.5344116 194.60278755 -154.12212665 171.46596019 -141.9765625 145.42578125 C-140.11786334 141.53903294 -138.15848312 137.70913415 -136.18237305 133.88110352 C-129.36566302 120.6275664 -123.43097291 105.99142786 -126.75390625 90.83984375 C-127.09233166 86.54262813 -127.23120038 83.55578494 -124.75390625 79.83984375 C-120.88474261 79.20591298 -119.17364391 79.57722714 -115.83203125 81.66796875 C-114.89875 82.4671875 -113.96546875 83.26640625 -113.00390625 84.08984375 C-112.0603125 84.87875 -111.11671875 85.66765625 -110.14453125 86.48046875 C-107.96780496 88.6287411 -107.05665239 90.16329259 -105.75390625 92.83984375 C-104.26890625 93.33484375 -104.26890625 93.33484375 -102.75390625 93.83984375 C-95.92185648 102.04638873 -91.1549524 111.46167728 -86.60644531 121.05419922 C-85.35866398 123.66767937 -84.05701217 126.25361819 -82.75390625 128.83984375 C-81.80153802 124.97572676 -81.59539914 121.26204321 -81.46435547 117.30712891 C-80.60539709 91.87705243 -75.33318076 68.13806874 -62.75390625 45.83984375 C-62.13902344 44.72480469 -61.52414063 43.60976563 -60.890625 42.4609375 C-56.14168073 34.29039363 -50.39512976 27.26477667 -44.06835938 20.29199219 C-43.01441916 19.12764664 -41.98203628 17.9438034 -40.95703125 16.75390625 C-32.88904717 7.89575878 -12.26201435 -8.11095381 0 0 Z " fill="#0D261B" transform="translate(211.75390625,2.16015625)"/>
<path d="M0 0 C-0.0721875 0.58523438 -0.144375 1.17046875 -0.21875 1.7734375 C-3.11744775 28.58639167 2.05506659 51.94907159 13.8125 76 C14.49402814 77.41609476 15.17436812 78.83276196 15.85351562 80.25 C17.20933507 83.07537383 18.56942607 85.89861834 19.93359375 88.7199707 C30.85544075 111.33036691 30.85544075 111.33036691 33.375 119.3125 C33.61557129 120.05032715 33.85614258 120.7881543 34.10400391 121.54833984 C36.01584061 127.6053442 37.28167788 133.68371928 38 140 C41.98027737 141.04713965 41.98027737 141.04713965 45.8125 139.625 C62.16701797 127.16244327 70.94902356 105.67711791 78.91455078 87.43896484 C80.18915216 84.57498198 81.55878291 81.78320283 83 79 C101.53537626 100.70698509 106.83924854 136.39659712 105 164 C103.74354226 174.95716466 101.28640781 185.23433454 96.97265625 195.37890625 C95.69464077 198.82287567 95.57926993 201.38172143 96 205 C96.99 205.33 97.98 205.66 99 206 C103.47863661 203.4265017 107.30929093 200.13372408 111.1875 196.75 C131.17522199 179.60825934 131.17522199 179.60825934 142 176 C144.28332138 200.50764947 132.35224213 224.99186691 117.625 243.75 C110.19914862 252.53187642 101.62996967 259.75966619 92 266 C90.99066406 266.6703125 89.98132813 267.340625 88.94140625 268.03125 C77.43300781 275.43641394 64.77335146 281.24070337 50.8984375 281.34375 C50.14011627 281.3583728 49.38179504 281.37299561 48.60049438 281.38806152 C46.19204944 281.43417983 43.78367809 281.46854248 41.375 281.5 C28.69366848 281.66784495 16.43603159 281.97565712 4.1875 285.6875 C-4.34693745 288.06635182 -9.58326764 285.88449953 -17.44677734 282.37426758 C-26.20540728 278.50457932 -35.05008241 276.13289573 -44.5625 275 C-65.76251298 272.32553682 -83.16335915 261.0822806 -98 246 C-98.63421875 245.43539062 -99.2684375 244.87078125 -99.921875 244.2890625 C-112.67595163 232.76358959 -122.16443744 213.6032571 -126 197 C-126.16483887 196.38785645 -126.32967773 195.77571289 -126.49951172 195.14501953 C-131.95811899 173.51997504 -127.18985778 153.2408007 -117.07763672 134.0546875 C-109.28398491 119.19483846 -102.82172812 103.98238116 -102 87 C-101.34 87 -100.68 87 -100 87 C-85.94430948 102.65955562 -79.17766151 121.67620592 -75.67578125 142.0859375 C-75.24604495 145.10667881 -75.24604495 145.10667881 -73 147 C-69.91652174 147.16681109 -69.91652174 147.16681109 -67 147 C-63.7728421 141.12751981 -61.98916376 135.82954759 -60.8125 129.25 C-60.64306885 128.33532959 -60.4736377 127.42065918 -60.29907227 126.47827148 C-59.23019885 120.33475658 -58.65778075 114.29009805 -58.4375 108.0625 C-57.09714075 71.28594032 -45.32127474 37.84371754 -18.3125 12.046875 C-15.02097546 9.13343098 -11.62204724 6.48724274 -8 4 C-7.41992188 3.5875 -6.83984375 3.175 -6.2421875 2.75 C-2.2890625 0 -2.2890625 0 0 0 Z " fill="#EE9608" transform="translate(199,13)"/>
<path d="M0 0 C0.99 0 1.98 0 3 0 C7.80632009 6.64161013 11.08325906 14.13881153 14.5 21.5625 C14.78957581 22.18993103 15.07915161 22.81736206 15.37750244 23.46380615 C19.53163303 32.49373633 23.38877853 41.38919609 26 51 C26.28069336 52.0199707 26.56138672 53.03994141 26.85058594 54.09082031 C28.71421724 60.8872567 30.53749061 67.693439 32.32324219 74.51074219 C32.82517091 76.35694177 33.39498881 78.18496644 34 80 C36.01508358 80.73323796 36.01508358 80.73323796 38 81 C38.22945313 80.29101562 38.45890625 79.58203125 38.6953125 78.8515625 C43.09114836 69.2438973 53.67710396 61.31866367 61.50048828 54.35546875 C63.03387932 52.96937513 64.53301662 51.55305234 66.02734375 50.125 C66.76114258 49.43204834 66.76114258 49.43204834 67.50976562 48.72509766 C68.85355127 47.4543838 70.19067703 46.17663765 71.52734375 44.8984375 C74.12378784 42.9049591 75.78040488 42.33405459 79 42 C82.93763059 51.58727449 83.18157951 60.47203409 83.1875 70.75 C83.19974609 71.8534375 83.21199219 72.956875 83.22460938 74.09375 C83.24490547 85.62193104 81.35492663 95.95053921 77.5625 106.8125 C77.26279297 107.70130859 76.96308594 108.59011719 76.65429688 109.50585938 C74.97060014 114.44007693 73.12398292 119.23890067 71 124 C81.82792423 121.79021955 92.2908168 117.18742705 101.94921875 111.8828125 C104 111 104 111 108 111 C107.26010065 124.56482139 97.87948535 133.75133226 88.32275391 142.54296875 C67.28424859 161.20033396 67.28424859 161.20033396 59.0390625 161.34375 C57.84410156 161.37339844 56.64914063 161.40304687 55.41796875 161.43359375 C54.16628906 161.45550781 52.91460937 161.47742188 51.625 161.5 C40.20265655 161.70635477 29.17286379 162.34042022 18.1875 165.6875 C8.96041966 168.25941607 3.1878729 165.32884238 -5.27734375 161.5625 C-14.50361231 157.57694546 -23.97272176 155.40927666 -34 155 C-34.11085937 154.39800781 -34.22171875 153.79601562 -34.3359375 153.17578125 C-35.42558974 149.60556772 -38.34424834 147.48907114 -41 145 C-60.00593917 126.51751846 -69.83092387 104.20030473 -70.27832031 77.70776367 C-70.28959961 76.60795166 -70.30087891 75.50813965 -70.3125 74.375 C-70.33022461 73.32610596 -70.34794922 72.27721191 -70.36621094 71.1965332 C-70.35946348 64.0324167 -69.22755038 57.80485879 -67 51 C-60.07312173 54.28010456 -55.07068758 60.4214248 -50.5625 66.5 C-45.51533314 73.20602589 -39.31041594 78.8635013 -32 83 C-31.94839722 82.00540771 -31.94839722 82.00540771 -31.89575195 80.99072266 C-30.36387066 53.49285975 -24.2654146 28.48460644 -6 7 C-5.40960938 6.24976563 -4.81921875 5.49953125 -4.2109375 4.7265625 C-2.625 2.75 -2.625 2.75 0 0 Z " fill="#D44415" transform="translate(185,133)"/>
<path d="M0 0 C6.83048616 5.83878425 10.90988268 10.6665807 11.83203125 19.734375 C11.71747161 26.58249548 7.70555565 31.97432398 3.14453125 36.796875 C-11.78146316 50.66814175 -32.8793605 53.67169894 -52.48046875 53.484375 C-53.53004761 53.47881592 -53.53004761 53.47881592 -54.60083008 53.47314453 C-72.85611723 53.33565178 -90.5453116 49.69135279 -104.98046875 37.671875 C-109.49517265 33.04705637 -108.94548417 28.99824854 -108.875 22.71875 C-107.98591781 12.88654697 -101.5656312 5.55802334 -94.54296875 -0.953125 C-69.10472728 -21.26814022 -25.8231617 -19.83345753 0 0 Z " fill="#5B634C" transform="translate(289.54296875,316.953125)"/>
<path d="M0 0 C5.9683715 4.49095495 10.63426836 10.90280509 13 18 C13.92701094 28.12113578 12.28214002 35.27115793 5.8125 43.125 C-5.03570501 54.71180621 -17.25031652 59.64103124 -32.9921875 60.22265625 C-38.67106741 60.35485132 -44.32571705 60.24949611 -50 60 C-50.85190918 59.96374512 -51.70381836 59.92749023 -52.58154297 59.89013672 C-57.71077609 59.58805571 -62.26009007 59.05210218 -67 57 C-69.1847574 54.05189363 -70.10464436 51.54755981 -71.0859375 48.0234375 C-72.41314156 43.63345483 -74.90666712 41.3091468 -78 38 C-78 37.34 -78 36.68 -78 36 C-78.5775 35.731875 -79.155 35.46375 -79.75 35.1875 C-82.0325868 33.98280141 -83.9737942 32.59201885 -86 31 C-85.5140409 25.02203742 -84.27842785 20.4580352 -81.5625 15.125 C-81.21268066 14.43172607 -80.86286133 13.73845215 -80.50244141 13.02416992 C-77.06319496 6.55582786 -72.57282104 1.74203197 -67 -3 C-66.38511719 -3.53109375 -65.77023437 -4.0621875 -65.13671875 -4.609375 C-63.7740069 -5.75905745 -62.3889045 -6.88210125 -61 -8 C-60.484375 -8.5775 -59.96875 -9.155 -59.4375 -9.75 C-45.94385353 -21.48360563 -12.58253811 -7.88965289 0 0 Z " fill="#60654D" transform="translate(378,279)"/>
<path d="M0 0 C2.1796875 1.83203125 2.1796875 1.83203125 4.1796875 4.83203125 C3.550625 5.25613281 2.9215625 5.68023437 2.2734375 6.1171875 C-9.87848729 14.44418415 -21.37343134 24.17582801 -25.8203125 38.83203125 C-26.0709939 40.75309791 -26.26904884 42.68165987 -26.41796875 44.61328125 C-26.53603882 46.0837793 -26.53603882 46.0837793 -26.65649414 47.58398438 C-26.7105542 48.32583984 -26.76461426 49.06769531 -26.8203125 49.83203125 C-66.35110568 51.19545137 -66.35110568 51.19545137 -81.8203125 38.83203125 C-87.0631722 33.67547377 -89.00810658 30.34787449 -89.2578125 22.89453125 C-89.32409172 12.81768007 -85.40098653 6.33735069 -78.6953125 -0.91796875 C-55.1768136 -22.97397276 -24.21226813 -17.79075354 0 0 Z " fill="#5B634D" transform="translate(123.8203125,286.16796875)"/>
<path d="M0 0 C-0.845625 0.99 -1.69125 1.98 -2.5625 3 C-3.10777344 3.64195312 -3.65304688 4.28390625 -4.21484375 4.9453125 C-5.38902647 6.29677883 -6.58931701 7.62607011 -7.81640625 8.9296875 C-17.26399733 19.09145933 -17.71170621 28.63758287 -18 42 C-19.37070781 42.65489373 -20.74683444 43.29844963 -22.125 43.9375 C-23.27355469 44.47697266 -23.27355469 44.47697266 -24.4453125 45.02734375 C-38.96418076 50.55516974 -60.48513315 48.34476687 -74.5 42.1875 C-79.16791785 39.62162549 -82.29846108 36.10461676 -84 31 C-85.66085081 20.33658289 -81.15498325 11.76987552 -75.0703125 3.3203125 C-70.71612707 -1.87323398 -65.86241449 -5.64567936 -60 -9 C-59.05833984 -9.62068359 -59.05833984 -9.62068359 -58.09765625 -10.25390625 C-40.06776052 -20.50059947 -15.87251759 -9.31095282 0 0 Z " fill="#59614B" transform="translate(190,309)"/>
<path d="M0 0 C0.92554688 0.00942627 1.85109375 0.01885254 2.8046875 0.02856445 C10.64985576 0.2016602 17.97906612 0.59367459 24.4375 5.4375 C27.08128649 8.88911013 29.59328626 12.412106 32.04296875 16.00390625 C33.30792326 17.82772428 34.66701693 19.58650778 36.0625 21.3125 C37.6875 23.375 37.6875 23.375 38.6875 26.375 C37.88570313 26.40078125 37.08390625 26.4265625 36.2578125 26.453125 C17.28799968 27.39946487 0.2611397 31.17320393 -13.3125 45.375 C-15.09989242 47.64747936 -16.69576352 49.97439129 -18.3125 52.375 C-21.13592222 53.78671111 -23.17807672 53.62406786 -26.3125 53.375 C-31.52506468 50.83058786 -37.21795213 46.97480627 -39.75 41.58203125 C-41.321694 35.41531522 -41.71041039 28.63519511 -39.171875 22.71484375 C-37.68902062 20.43983294 -36.09148244 18.42451894 -34.3125 16.375 C-33.85617188 15.75109375 -33.39984375 15.1271875 -32.9296875 14.484375 C-25.01489344 4.08207423 -12.61205804 -0.19734859 0 0 Z " fill="#5E6852" transform="translate(51.3125,235.625)"/>
<path d="M0 0 C13.20888574 -1.1793648 26.8850878 4.45870195 37.0546875 12.65625 C42.27384687 17.42062785 44.62742588 21.96990243 45.27734375 29 C45.45233155 34.71160183 45.32232868 38.19229156 42 43 C41.00742187 42.46890625 40.01484375 41.9378125 38.9921875 41.390625 C21.0987853 31.99175609 5.0587364 30.06783146 -15 29 C-14.50371094 28.16339844 -14.00742187 27.32679688 -13.49609375 26.46484375 C-8.45610956 17.86443509 -4.07582659 9.09418809 0 0 Z " fill="#616A53" transform="translate(342,230)"/>
<path d="M0 0 C1 2 1 2 0.37109375 4.1015625 C0.06300781 4.93429687 -0.24507813 5.76703125 -0.5625 6.625 C-2.25574092 11.8725214 -1.81097706 14.85301256 0 20 C-4.49171158 18.24584045 -8.8992064 16.31542936 -13.3125 14.375 C-14.05306641 14.05015625 -14.79363281 13.7253125 -15.55664062 13.390625 C-17.37140913 12.59446849 -19.18574802 11.79733283 -21 11 C-18.80372541 8.80372541 -17.32355218 8.24888069 -14.4375 7.1875 C-9.34647231 5.22371203 -4.69481201 2.76699065 0 0 Z " fill="#1D3E2F" transform="translate(290,288)"/>
<path d="M0 0 C0.33 0 0.66 0 1 0 C1.06673083 8.95212623 0.87711856 17.86867472 0.5 26.8125 C0.45230469 27.99392578 0.40460938 29.17535156 0.35546875 30.39257812 C0.23930502 33.2618223 0.12078869 36.13094746 0 39 C-0.99 39.495 -0.99 39.495 -2 40 C-3.84760274 13.08184932 -3.84760274 13.08184932 0 0 Z " fill="#1D2A17" transform="translate(133,98)"/>
<path d="M0 0 C0.99 0 1.98 0 3 0 C3 0.66 3 1.32 3 2 C3.92619141 2.07347656 3.92619141 2.07347656 4.87109375 2.1484375 C10.73478159 2.66608422 16.27872775 3.61582123 22 5 C22 5.66 22 6.32 22 7 C33.55 7.33 45.1 7.66 57 8 C57 8.33 57 8.66 57 9 C18.00461995 9.81257738 18.00461995 9.81257738 0 2 C0 1.34 0 0.68 0 0 Z " fill="#25402B" transform="translate(196,371)"/>
<path d="M0 0 C3.125 -0.1875 3.125 -0.1875 6 0 C6.33 0.66 6.66 1.32 7 2 C4.03 1.505 4.03 1.505 1 1 C1.08378906 2.10859375 1.16757813 3.2171875 1.25390625 4.359375 C1.35710305 5.82289328 1.45994926 7.28643631 1.5625 8.75 C1.61857422 9.47960937 1.67464844 10.20921875 1.73242188 10.9609375 C1.9785531 14.5708621 1.9235777 17.52692645 1 21 C0.93311409 22.91561254 0.91468281 24.83335592 0.9375 26.75 C0.94652344 27.73484375 0.95554687 28.7196875 0.96484375 29.734375 C0.97644531 30.48203125 0.98804687 31.2296875 1 32 C0.01 32 -0.98 32 -2 32 C-1.91621094 30.90300781 -1.83242187 29.80601563 -1.74609375 28.67578125 C-1.64287811 27.22137904 -1.54003306 25.76695049 -1.4375 24.3125 C-1.38142578 23.59126953 -1.32535156 22.87003906 -1.26757812 22.12695312 C-0.99867605 18.20098285 -1.08020229 14.81916005 -2 11 C-2.33842541 6.70278438 -2.47729413 3.71594119 0 0 Z " fill="#333A1B" transform="translate(87,82)"/>
<path d="M0 0 C0.33 0 0.66 0 1 0 C1.26456953 6.87880773 0.25097863 13.24640589 -1 20 C-1.19078125 21.06089844 -1.3815625 22.12179688 -1.578125 23.21484375 C-2.04591551 25.81108107 -2.52000712 28.40599595 -3 31 C-1.35 31.33 0.3 31.66 2 32 C-1 33 -1 33 -4 32 C-4.88705379 27.77087733 -4.96740161 24.54181765 -4.125 20.3125 C-3.18613846 15.29272031 -2.64306593 10.37319748 -2.34375 5.27734375 C-2 3 -2 3 0 0 Z " fill="#343F20" transform="translate(350,190)"/>
<path d="M0 0 C-0.0721875 0.58523438 -0.144375 1.17046875 -0.21875 1.7734375 C-1.73811845 15.82759564 -1.16116654 29.94159079 0 44 C-4.49188316 37.26217526 -3.14991006 28.11350121 -3.125 20.3125 C-3.12886719 19.08982422 -3.13273438 17.86714844 -3.13671875 16.60742188 C-3.13478516 14.84688477 -3.13478516 14.84688477 -3.1328125 13.05078125 C-3.13168457 11.98512939 -3.13055664 10.91947754 -3.12939453 9.8215332 C-3.01707958 7.37243145 -2.70798173 5.33521482 -2 3 C-3.32 3.33 -4.64 3.66 -6 4 C-2.25 0 -2.25 0 0 0 Z " fill="#F5C107" transform="translate(199,13)"/>
<path d="M0 0 C0.66 0 1.32 0 2 0 C7.85107099 6.70532735 13.72513263 14.69892314 17 23 C16.67 23.99 16.34 24.98 16 26 C15.56429687 25.154375 15.12859375 24.30875 14.6796875 23.4375 C9.5369742 12.20634367 9.5369742 12.20634367 1 4 C1.04125 5.258125 1.0825 6.51625 1.125 7.8125 C1.2390374 11.29064073 1.05925681 11.91111478 -1 15 C-0.67 10.05 -0.34 5.1 0 0 Z " fill="#EFBC0C" transform="translate(97,100)"/>
<path d="M0 0 C0.66 0.33 1.32 0.66 2 1 C1.76228882 2.08704224 1.76228882 2.08704224 1.51977539 3.19604492 C1.03901777 5.78951662 0.80242678 8.2319784 0.68359375 10.86328125 C0.64169922 11.74951172 0.59980469 12.63574219 0.55664062 13.54882812 C0.49766602 14.9168457 0.49766602 14.9168457 0.4375 16.3125 C0.39431641 17.24384766 0.35113281 18.17519531 0.30664062 19.13476562 C0.20102775 21.42304454 0.09892248 23.71142372 0 26 C-0.66 26 -1.32 26 -2 26 C-3.79492834 7.58985667 -3.79492834 7.58985667 0 0 Z " fill="#28321A" transform="translate(62,173)"/>
<path d="M0 0 C1.84132596 6.30514646 0.21510158 11.94282762 -2.16796875 17.8359375 C-3.69533764 21.80853076 -4.81927775 25.91352867 -6 30 C-7.61658506 25.95853736 -6.33945427 22.38779197 -5.25 18.375 C-5.0653418 17.66730469 -4.88068359 16.95960937 -4.69042969 16.23046875 C-3.25408863 10.78279179 -1.70403459 5.37029083 0 0 Z " fill="#3B411D" transform="translate(140,66)"/>
<path d="M0 0 C0.66 0.33 1.32 0.66 2 1 C0.625 2.5 0.625 2.5 -1 4 C-1.66 4 -2.32 4 -3 4 C-3.309375 4.8353125 -3.309375 4.8353125 -3.625 5.6875 C-4.96846753 7.94696811 -6.05157702 8.9998656 -8.0625 10.625 C-11.00824713 12.67119397 -11.00824713 12.67119397 -12 15 C-12.66 15 -13.32 15 -14 15 C-14.4021875 15.86625 -14.4021875 15.86625 -14.8125 16.75 C-16.01719859 19.0325868 -17.40798115 20.9737942 -19 23 C-19.66 22.67 -20.32 22.34 -21 22 C-14.80387791 13.91296326 -8.32859078 5.98382987 0 0 Z " fill="#F6B507" transform="translate(187,20)"/>
<path d="M0 0 C-2.914811 2.914811 -6.39768606 3.56152194 -10.2734375 4.8046875 C-13.2628954 6.11525214 -14.78841846 7.63911338 -17 10 C-18.96879323 11.06011943 -20.96435867 12.07470849 -23 13 C-20.50913629 6.86558565 -14.2748892 4.33817012 -8.8125 1.125 C-5.67843873 -0.12862451 -3.34529469 -0.23894962 0 0 Z " fill="#6C7860" transform="translate(43,237)"/>
<path d="M0 0 C2.73251686 3.27098341 4.21683758 6.59882422 5.75 10.5625 C6.42289063 12.26599609 6.42289063 12.26599609 7.109375 14.00390625 C8 17 8 17 7 20 C7 19.34 7 18.68 7 18 C6.34 18 5.68 18 5 18 C4.15621025 15.94175571 3.32536378 13.87820214 2.5 11.8125 C2.0359375 10.66394531 1.571875 9.51539062 1.09375 8.33203125 C0.09194348 5.28009923 -0.23870804 3.16884928 0 0 Z " fill="#343819" transform="translate(233,110)"/>
<path d="M0 0 C0.66 0 1.32 0 2 0 C1.86722656 0.57363281 1.73445312 1.14726562 1.59765625 1.73828125 C-0.34613965 11.08836519 -0.62534608 20.48576222 -1 30 C-1.33 30 -1.66 30 -2 30 C-2.25858421 26.68912581 -2.47633307 23.37670938 -2.6875 20.0625 C-2.76033203 19.13630859 -2.83316406 18.21011719 -2.90820312 17.25585938 C-3.28984713 10.85770985 -2.49598746 5.90981883 0 0 Z " fill="#4F491D" transform="translate(209,14)"/>
<path d="M0 0 C10.24714829 8.57414449 10.24714829 8.57414449 14 13 C14 13.66 14 14.32 14 15 C12.54077307 14.88590407 11.08259402 14.75834456 9.625 14.625 C8.81289062 14.55539062 8.00078125 14.48578125 7.1640625 14.4140625 C5 14 5 14 3 12 C5.31 12 7.62 12 10 12 C9.278125 11.30132812 8.55625 10.60265625 7.8125 9.8828125 C6.884375 8.97273438 5.95625 8.06265625 5 7.125 C4.071875 6.22007812 3.14375 5.31515625 2.1875 4.3828125 C0 2 0 2 0 0 Z " fill="#F5B407" transform="translate(138,272)"/>
<path d="M0 0 C2.248136 3.37220401 3.16868014 6.63804748 4.1875 10.5 C4.37763672 11.17675781 4.56777344 11.85351562 4.76367188 12.55078125 C5.65867411 15.89960881 6.11900532 17.64298405 5 21 C1.16850815 17.16850815 0.19127261 10.18208077 -0.12890625 4.85546875 C-0.12560878 3.23641224 -0.06883387 1.61759598 0 0 Z " fill="#343B1B" transform="translate(305,115)"/>
<path d="M0 0 C0.66 0 1.32 0 2 0 C3.17133058 2.45620851 4.33721722 4.91474917 5.5 7.375 C6.00080078 8.42300781 6.00080078 8.42300781 6.51171875 9.4921875 C9 14.7734375 9 14.7734375 9 17 C8.34 17 7.68 17 7 17 C5.82592979 14.73272667 4.66060261 12.46165376 3.5 10.1875 C3.16613281 9.54490234 2.83226562 8.90230469 2.48828125 8.24023438 C0.99760916 5.30452301 0 3.33873483 0 0 Z " fill="#2D3317" transform="translate(223,91)"/>
<path d="M0 0 C0.33 0.66 0.66 1.32 1 2 C0.54625 2.433125 0.0925 2.86625 -0.375 3.3125 C-2.20024334 5.10798342 -2.20024334 5.10798342 -4 8 C-4.66 8 -5.32 8 -6 8 C-6.33 8.99 -6.66 9.98 -7 11 C-10.0625 12.6875 -10.0625 12.6875 -13 14 C-11.47238013 10.37190281 -9.29392861 8.05653702 -6.5 5.3125 C-5.7059375 4.52488281 -4.911875 3.73726562 -4.09375 2.92578125 C-2 1 -2 1 0 0 Z " fill="#383D1A" transform="translate(178,13)"/>
<path d="M0 0 C-3.11930825 1.7435756 -5.99110451 2.54645178 -9.5 3.1875 C-10.90765625 3.45626953 -10.90765625 3.45626953 -12.34375 3.73046875 C-14.91111354 3.99098064 -16.57415258 3.80670869 -19 3 C-18.67 2.34 -18.34 1.68 -18 1 C-15.69 1.33 -13.38 1.66 -11 2 C-11 1.34 -11 0.68 -11 0 C-3.57142857 -1.28571429 -3.57142857 -1.28571429 0 0 Z " fill="#203725" transform="translate(170,362)"/>
<path d="M0 0 C0.33 0 0.66 0 1 0 C1.05418326 2.08304538 1.09287551 4.16649768 1.125 6.25 C1.14820313 7.41015625 1.17140625 8.5703125 1.1953125 9.765625 C1.0103949 12.82786046 0.60823023 14.44202751 -1 17 C-2.26708251 11.93166998 -2.97547868 6.4386967 -1 1.5 C-0.67 1.005 -0.34 0.51 0 0 Z " fill="#203523" transform="translate(2,260)"/>
<path d="M0 0 C1.32 0.66 2.64 1.32 4 2 C3.45660208 6.56454251 2.20536179 9.9728176 0 14 C-0.33 14 -0.66 14 -1 14 C-0.67 9.38 -0.34 4.76 0 0 Z " fill="#1E3725" transform="translate(392,266)"/>
<path d="M0 0 C0.05406122 1.93719378 0.09282025 3.87481921 0.125 5.8125 C0.14820313 6.89144531 0.17140625 7.97039062 0.1953125 9.08203125 C0 12 0 12 -2 15 C-2 11.04 -2 7.08 -2 3 C-3.65 3.66 -5.3 4.32 -7 5 C-7 4.34 -7 3.68 -7 3 C-1.125 0 -1.125 0 0 0 Z " fill="#ECB50B" transform="translate(341,189)"/>
<path d="M0 0 C1.12642186 3.37926557 0.96344705 3.72928278 -0.43359375 6.79296875 C-0.75263672 7.50517578 -1.07167969 8.21738281 -1.40039062 8.95117188 C-1.74263672 9.68916016 -2.08488281 10.42714844 -2.4375 11.1875 C-2.77587891 11.93708984 -3.11425781 12.68667969 -3.46289062 13.45898438 C-4.2999411 15.30992698 -5.14885404 17.15549666 -6 19 C-6.66 18.34 -7.32 17.68 -8 17 C-7.525625 16.113125 -7.05125 15.22625 -6.5625 14.3125 C-5.20262851 11.42957244 -4.45939614 9.12389377 -4 6 C-3.34 6 -2.68 6 -2 6 C-1.34 4.02 -0.68 2.04 0 0 Z " fill="#0D121C" transform="translate(278,97)"/>
<path d="M0 0 C2.98067169 0.86936258 4.21106624 1.39036978 6 3.875 C6 4.535 6 5.195 6 5.875 C5.319375 5.565625 4.63875 5.25625 3.9375 4.9375 C0.63034088 3.74129351 -2.51545878 3.28494603 -6 2.875 C-4.05972988 0.18018039 -3.40614751 -0.14192281 0 0 Z " fill="#27341A" transform="translate(282,75.125)"/>
<path d="M0 0 C0 0.33 0 0.66 0 1 C-4.62 1.33 -9.24 1.66 -14 2 C-14 2.66 -14 3.32 -14 4 C-14.99 4.33 -15.98 4.66 -17 5 C-17.66 4.34 -18.32 3.68 -19 3 C-12.1054279 -0.10931683 -7.65341413 -1.35060249 0 0 Z " fill="#41421A" transform="translate(210,1)"/>
<path d="M0 0 C0 3 0 3 -2.25 5.5625 C-5 8 -5 8 -7.1875 9.0625 C-9.52860931 10.27341861 -10.04071126 11.60177814 -11 14 C-11 10.30159372 -10.17133056 9.68584567 -7.75 7 C-7.14671875 6.319375 -6.5434375 5.63875 -5.921875 4.9375 C-4.06233388 3.06284066 -2.15205789 1.52358081 0 0 Z " fill="#07150E" transform="translate(47,272)"/>
<path d="M0 0 C0.33 0.99 0.66 1.98 1 3 C-3.51350747 6.52273754 -6.28341664 7.45732667 -12 7 C-11.67 6.34 -11.34 5.68 -11 5 C-9.906875 4.690625 -8.81375 4.38125 -7.6875 4.0625 C-4.34157308 3.09841936 -2.56326882 2.25567656 0 0 Z " fill="#DE5B14" transform="translate(255,287)"/>
<path d="M0 0 C-2.54712074 2.00130916 -4.9527375 3.85727656 -8 5 C-10.125 4.546875 -10.125 4.546875 -12 4 C-10.56988027 3.13353333 -9.13059381 2.28218171 -7.6875 1.4375 C-6.48673828 0.72400391 -6.48673828 0.72400391 -5.26171875 -0.00390625 C-3 -1 -3 -1 0 0 Z " fill="#273318" transform="translate(340,179)"/>
<path d="M0 0 C0.33 0 0.66 0 1 0 C1.1799928 5.21979128 0.97094808 9.07262981 -1 14 C-1.33 14 -1.66 14 -2 14 C-2.05410687 12.22950311 -2.09284119 10.45853151 -2.125 8.6875 C-2.14820313 7.70136719 -2.17140625 6.71523437 -2.1953125 5.69921875 C-2 3 -2 3 0 0 Z " fill="#25331B" transform="translate(350,190)"/>
<path d="M0 0 C0.66 0.33 1.32 0.66 2 1 C1.07038578 2.15224028 0.1309875 3.29659176 -0.8125 4.4375 C-1.59560547 5.39462891 -1.59560547 5.39462891 -2.39453125 6.37109375 C-4 8 -4 8 -7 9 C-6.82374165 6.62051228 -6.30280227 5.29774151 -4.59765625 3.62109375 C-3.09350908 2.37884514 -1.54870149 1.18623944 0 0 Z " fill="#293217" transform="translate(320,188)"/>
<path d="M0 0 C3 1 3 1 4.203125 2.77734375 C4.54859375 3.49019531 4.8940625 4.20304687 5.25 4.9375 C5.78367187 6.00291016 5.78367187 6.00291016 6.328125 7.08984375 C6.54984375 7.72019531 6.7715625 8.35054687 7 9 C6.67 9.66 6.34 10.32 6 11 C3.46166551 9.73083275 3.10599099 8.58375191 1.875 6.0625 C1.52179688 5.35222656 1.16859375 4.64195313 0.8046875 3.91015625 C0 2 0 2 0 0 Z " fill="#2D3318" transform="translate(118,113)"/>
<path d="M0 0 C0.99 0 1.98 0 3 0 C2.67 2.97 2.34 5.94 2 9 C1.01 9.33 0.02 9.66 -1 10 C-0.67 6.7 -0.34 3.4 0 0 Z " fill="#1E2E17" transform="translate(210,4)"/>
<path d="M0 0 C0.33 0 0.66 0 1 0 C1.02705729 1.77074917 1.04642195 3.54161711 1.0625 5.3125 C1.07410156 6.29863281 1.08570313 7.28476563 1.09765625 8.30078125 C1 11 1 11 0 14 C-0.66 14 -1.32 14 -2 14 C-1.43393721 9.30976546 -0.81462495 4.65499974 0 0 Z " fill="#1C2414" transform="translate(311,181)"/>
<path d="M0 0 C0.66 0 1.32 0 2 0 C2.33 1.32 2.66 2.64 3 4 C2.34 4 1.68 4 1 4 C1.04125 5.258125 1.0825 6.51625 1.125 7.8125 C1.2390374 11.29064073 1.05925681 11.91111478 -1 15 C-0.67 10.05 -0.34 5.1 0 0 Z " fill="#F7C508" transform="translate(97,100)"/>
<path d="M0 0 C0.99 0.33 1.98 0.66 3 1 C1.375 6.75 1.375 6.75 -2 9 C-2.33 8.34 -2.66 7.68 -3 7 C-2.06421005 4.64018187 -1.06652192 2.30368736 0 0 Z " fill="#1E3623" transform="translate(305,347)"/>
<path d="M0 0 C0 0.66 0 1.32 0 2 C1.98 2 3.96 2 6 2 C6 2.33 6 2.66 6 3 C0.87416389 3.10251672 -3.94997778 3.03590199 -9 2 C-9 1.67 -9 1.34 -9 1 C-2.25 0 -2.25 0 0 0 Z " fill="#2A452F" transform="translate(138,363)"/>
<path d="M0 0 C2.97 0 5.94 0 9 0 C8.67 0.99 8.34 1.98 8 3 C5.69 3 3.38 3 1 3 C0.67 2.01 0.34 1.02 0 0 Z " fill="#515D48" transform="translate(342,230)"/>
<path d="M0 0 C5.4611399 0.35233161 5.4611399 0.35233161 8 1 C9.5 3.0625 9.5 3.0625 10 5 C9.484375 4.67 8.96875 4.34 8.4375 4 C5.21973488 2.67989123 2.4429472 2.86757895 -1 3 C-0.67 2.01 -0.34 1.02 0 0 Z " fill="#2F4730" transform="translate(172,359)"/>
<path d="M0 0 C0.6875 1.6875 0.6875 1.6875 1 4 C-0.3125 6.75 -0.3125 6.75 -2 9 C-2.66 9 -3.32 9 -4 9 C-2.94124926 5.59687262 -1.99097846 2.98646769 0 0 Z " fill="#3A3817" transform="translate(262,110)"/>
<path d="M0 0 C2.0625 2.3125 2.0625 2.3125 4 5 C3.67 5.99 3.34 6.98 3 8 C0.9375 5.6875 0.9375 5.6875 -1 3 C-0.67 2.01 -0.34 1.02 0 0 Z " fill="#2C3B26" transform="translate(28,321)"/>
<path d="M0 0 C0.99 0 1.98 0 3 0 C3.99 1.98 4.98 3.96 6 6 C5.01 6.495 5.01 6.495 4 7 C2.35 5.02 0.7 3.04 -1 1 C-0.67 0.67 -0.34 0.34 0 0 Z " fill="#1B201A" transform="translate(281,90)"/>
</svg>
