<?xml version="1.0" encoding="UTF-8"?>
<svg version="1.1" xmlns="http://www.w3.org/2000/svg" width="242" height="138">
<path d="M0 0 C8.7152006 6.62355245 13.72620552 15.48842887 15.5625 26.1875 C16.50383341 33.72978872 15.19205831 40.48519061 11.5625 47.1875 C3.19997285 57.6808634 -12.23751427 61.86513765 -24.375 66.5625 C-25.85784371 67.14163507 -27.34050769 67.72123054 -28.82299805 68.30126953 C-37.21645315 71.57928084 -45.63815877 74.77584826 -54.07763672 77.93334961 C-64.94901883 82.06198108 -75.64251033 86.65153463 -86.35473633 91.17333984 C-87.50549652 91.6573954 -87.50549652 91.6573954 -88.67950439 92.15122986 C-90.13129533 92.76211458 -91.58207753 93.37540401 -93.03167725 93.99147034 C-95.62121259 95.08010078 -98.11189294 96.11191441 -100.85327148 96.74829102 C-101.37606689 96.89322998 -101.8988623 97.03816895 -102.4375 97.1875 C-103.12096682 98.84734798 -103.78338315 100.51586805 -104.4375 102.1875 C-117.26459334 121.49861854 -148.42772552 129.70867145 -169.9375 134.5625 C-179.60087368 136.18687499 -189.46591538 135.92524618 -197.9375 130.625 C-212.05480476 120.44283246 -219.11311033 107.31376648 -224.4375 91.1875 C-224.70691406 90.39859375 -224.97632813 89.6096875 -225.25390625 88.796875 C-228.57005871 77.01641729 -227.59542492 62.16694252 -222.4375 51.1875 C-213.44836479 36.70263757 -198.5633631 33.01142886 -183.18286133 28.22045898 C-180.87220153 27.49912639 -178.56595989 26.7647647 -176.25976562 26.02929688 C-145.85796758 16.43340881 -145.85796758 16.43340881 -131.89453125 23.46875 C-130.29263673 24.36283066 -128.70877747 25.29065729 -127.15234375 26.26171875 C-119.73420285 28.79135817 -111.11636866 25.04188025 -104.03125 22.671875 C-102.94743042 22.31720154 -101.86361084 21.96252808 -100.74694824 21.59710693 C-97.30753185 20.46926441 -93.8723607 19.32913322 -90.4375 18.1875 C-88.22805538 17.45840592 -86.01842216 16.72988312 -83.80859375 16.00195312 C-79.40058902 14.54824249 -74.99300615 13.09326482 -70.5859375 11.63671875 C-69.49120117 11.27497559 -68.39646484 10.91323242 -67.26855469 10.54052734 C-65.03280583 9.80019362 -62.79778737 9.05765077 -60.56347656 8.31298828 C-12.43005217 -7.71520479 -12.43005217 -7.71520479 0 0 Z " fill="#11271A" transform="translate(226.4375,2.8125)"/>
<path d="M0 0 C5.79786622 5.20506693 9.33383112 11.91765543 10.34765625 19.65234375 C10.52614765 24.81307329 10.005369 28.64739661 7 33 C-1.25912218 40.3364815 -12.37000479 44.55945879 -22.66796875 48.23046875 C-24.34355039 48.83819363 -26.01866186 49.44721603 -27.69335938 50.05737305 C-28.99515137 50.53151138 -28.99515137 50.53151138 -30.32324219 51.01522827 C-37.69806343 53.72840442 -45.02280004 56.57645511 -52.35327148 59.40673828 C-55.19441334 60.50266672 -58.03760125 61.59316947 -60.88085938 62.68359375 C-70.09860995 66.23301999 -79.2514236 69.85567113 -88.24589539 73.94372559 C-92.80255104 76 -92.80255104 76 -95 76 C-95.01417969 74.80246094 -95.02835938 73.60492188 -95.04296875 72.37109375 C-95.47494775 54.48642481 -100.1725292 41.40193643 -111 27 C-91.03666607 20.22326559 -71.01175797 13.68153596 -50.875 7.4375 C-49.90519196 7.13672546 -48.93538391 6.83595093 -47.93618774 6.52606201 C-41.96035408 4.67458443 -35.98330657 2.82719643 -30 1 C-29.11322571 0.72777618 -28.22645142 0.45555237 -27.31280518 0.17507935 C-26.42856873 -0.09402252 -25.54433228 -0.36312439 -24.63330078 -0.64038086 C-23.83417267 -0.88437119 -23.03504456 -1.12836151 -22.21170044 -1.37974548 C-14.56679776 -3.52370012 -6.84577068 -4.51529555 0 0 Z " fill="#DF570D" transform="translate(222,12)"/>
<path d="M0 0 C14.02325787 7.83406652 22.19409366 21.73870552 26.7421875 36.7421875 C29.54040698 48.12672429 30.03820133 62.97022629 23.99609375 73.328125 C20.47336857 78.11810115 16.2413982 80.00282635 10.58984375 80.88671875 C1.70286748 81.46213448 -5.35573127 78.10381137 -12.26171875 72.671875 C-24.05584447 61.61909433 -30.65162931 44.65296344 -31.27148438 28.6784668 C-31.44517393 19.71794668 -30.09819641 12.36260955 -24.5625 5.125 C-17.09371662 -2.34378338 -9.71827271 -4.32581651 0 0 Z " fill="#0E221A" transform="translate(39.9375,48.5)"/>
<path d="M0 0 C2.26003856 1.47130027 4.42410996 3.01887623 6.578125 4.640625 C7.609375 5.383125 8.640625 6.125625 9.703125 6.890625 C19.75932339 16.50959737 25.43804844 29.16284672 25.890625 43.015625 C25.63336031 53.83587499 22.48278357 61.93402626 14.71484375 69.44140625 C6.33946483 76.55495784 -8.32438916 84.640625 -19.421875 84.640625 C-19.26332031 83.54878906 -19.10476562 82.45695312 -18.94140625 81.33203125 C-16.33828908 60.28978212 -18.45149197 39.10845663 -31.78222656 21.8828125 C-37.0487953 15.57588944 -42.79416536 9.03071817 -50.421875 5.640625 C-46.57924375 1.79799375 -40.47192458 1.0314464 -35.359375 -0.484375 C-34.15603516 -0.85691406 -32.95269531 -1.22945312 -31.71289062 -1.61328125 C-20.45820976 -4.96940127 -10.59174659 -5.94504486 0 0 Z " fill="#DF590D" transform="translate(93.421875,36.359375)"/>
<path d="M0 0 C14.02325787 7.83406652 22.19409366 21.73870552 26.7421875 36.7421875 C29.54040698 48.12672429 30.03820133 62.97022629 23.99609375 73.328125 C20.47336857 78.11810115 16.2413982 80.00282635 10.58984375 80.88671875 C1.70286748 81.46213448 -5.35573127 78.10381137 -12.26171875 72.671875 C-24.05584447 61.61909433 -30.65162931 44.65296344 -31.27148438 28.6784668 C-31.44517393 19.71794668 -30.09819641 12.36260955 -24.5625 5.125 C-17.09371662 -2.34378338 -9.71827271 -4.32581651 0 0 Z M-18.1875 13.5 C-23.06003389 21.85291525 -21.86455171 34.59709179 -19.875 43.8125 C-16.45877446 55.43405229 -10.03746317 64.09802284 0.1875 70.4375 C4.26227354 71.94339457 7.0171032 72.34153468 11.11328125 70.65625 C14.82616465 68.64708458 17.37678737 66.75115558 19.0625 62.8125 C22.55690999 50.50212754 18.51363788 35.71837859 12.46875 24.734375 C8.14578394 17.86566225 3.0022777 10.90751168 -3.9375 6.5 C-11.01111615 5.18119021 -14.09271394 8.04028525 -18.1875 13.5 Z " fill="#E3630E" transform="translate(39.9375,48.5)"/>
<path d="M0 0 C7.0256234 2.42262876 11.53314226 9.80918261 15 16 C18.74066641 24.64141291 22.19721718 34.79517158 19.328125 44.203125 C18.62479786 45.83537478 17.82213329 47.42424454 17 49 C12.264818 48.71588908 9.02176628 47.99629786 5.4765625 44.70703125 C2.39401671 41.14334736 0.14582624 37.17771481 -2 33 C-2.34417969 32.33484375 -2.68835938 31.6696875 -3.04296875 30.984375 C-5.24922756 25.72249952 -5.30422326 20.37618909 -5.375 14.75 C-5.39602783 13.57824219 -5.39602783 13.57824219 -5.41748047 12.3828125 C-5.37893641 7.78124466 -4.96973969 4.73752605 -2 1 C-1.34 0.67 -0.68 0.34 0 0 Z " fill="#EBA616" transform="translate(32,63)"/>
<path d="M0 0 C5.01090981 5.01090981 4.20234103 14.05391403 4.25 20.75 C4.25918457 21.4706665 4.26836914 22.19133301 4.27783203 22.93383789 C4.25242911 27.33108372 3.61865581 30.91482106 2 35 C1.34 33.68 0.68 32.36 0 31 C-1.32 31 -2.64 31 -4 31 C-6.28239171 33.92321965 -6.28239171 33.92321965 -8 37 C-8 34 -8 34 -6.5625 30.5 C-4.56722987 25.45535477 -4.28654133 20.37512008 -4 15 C-3.01 15.33 -2.02 15.66 -1 16 C-0.3125 18.0625 -0.3125 18.0625 0 20 C0.83854735 13.09811029 1.01593448 6.88577812 0 0 Z " fill="#EB730E" transform="translate(64,81)"/>
<path d="M0 0 C-2.85478326 1.90318884 -4.41941308 2.4619099 -7.6875 3.125 C-8.49574219 3.29257812 -9.30398437 3.46015625 -10.13671875 3.6328125 C-10.75160156 3.75398438 -11.36648437 3.87515625 -12 4 C-9.57168965 6.44987617 -7.13591953 8.87405825 -4.60546875 11.21875 C2.91728338 18.31614458 9.86199418 26.95497049 13 37 C12.67 37.99 12.34 38.98 12 40 C11.47792969 38.91203125 10.95585938 37.8240625 10.41796875 36.703125 C4.26233639 24.27130066 -3.72504248 10.89998112 -17 5 C-14.71636622 2.71636622 -13.25204532 2.2847151 -10.1875 1.375 C-9.33542969 1.11460938 -8.48335937 0.85421875 -7.60546875 0.5859375 C-4.98020834 -0.0044509 -2.68079363 -0.10588413 0 0 Z " fill="#EE6810" transform="translate(60,37)"/>
<path d="M0 0 C5.75429353 6.92091742 5.18776593 16.14593261 5.25 24.75 C5.25926514 25.55381104 5.26853027 26.35762207 5.27807617 27.18579102 C5.25183058 32.16267662 4.58994663 36.2806346 3 41 C3.99 41.33 4.98 41.66 6 42 C3.525 42.495 3.525 42.495 1 43 C1.16113281 41.91203125 1.32226562 40.8240625 1.48828125 39.703125 C2.14871398 34.38693376 2.19101347 29.10145793 2.1875 23.75 C2.18814453 22.73671631 2.18878906 21.72343262 2.18945312 20.67944336 C2.13943944 13.59625458 1.66410221 6.9089958 0 0 Z " fill="#F26910" transform="translate(73,78)"/>
<path d="M0 0 C5.26315683 4.61366088 6.79040396 10.53517484 9 17 C9.25136719 17.71671875 9.50273438 18.4334375 9.76171875 19.171875 C11.60793469 25.29974068 11.17385492 31.66395388 11 38 C13.475 37.505 13.475 37.505 16 37 C13.79038253 39.54106009 12.26011642 40.30621489 9 41 C8.98582031 39.80246094 8.97164062 38.60492188 8.95703125 37.37109375 C8.63673057 24.32489729 6.85943458 13.35216367 0 2 C0 1.34 0 0.68 0 0 Z " fill="#F26A0F" transform="translate(118,47)"/>
<path d="M0 0 C0.515625 0.37125 1.03125 0.7425 1.5625 1.125 C-18.43776233 6.39152676 -18.43776233 6.39152676 -26.4375 2.125 C-26.4375 1.795 -26.4375 1.465 -26.4375 1.125 C-25.29152344 1.14820313 -24.14554688 1.17140625 -22.96484375 1.1953125 C-21.4349024 1.21408479 -19.90495394 1.23228341 -18.375 1.25 C-17.62283203 1.26675781 -16.87066406 1.28351563 -16.09570312 1.30078125 C-12.24049077 1.33415971 -9.37832989 1.10740068 -5.62890625 -0.0078125 C-2.4375 -0.875 -2.4375 -0.875 0 0 Z " fill="#333218" transform="translate(63.4375,133.875)"/>
<path d="M0 0 C0.33 0 0.66 0 1 0 C1 3.63 1 7.26 1 11 C0.34 11 -0.32 11 -1 11 C-1 15.95 -1 20.9 -1 26 C-1.33 26 -1.66 26 -2 26 C-2.05449228 23.16640156 -2.09390733 20.33387515 -2.125 17.5 C-2.14175781 16.70851563 -2.15851563 15.91703125 -2.17578125 15.1015625 C-2.21989226 9.72001921 -1.50594058 5.17000073 0 0 Z " fill="#4C3E1C" transform="translate(2,59)"/>
<path d="M0 0 C0 3.93602341 -1.58022978 4.99361881 -4 8 C-4.87822312 10.08533633 -4.87822312 10.08533633 -5 12 C-4.67 12.66 -4.34 13.32 -4 14 C-4.99 14.495 -4.99 14.495 -6 15 C-6.66 15.99 -7.32 16.98 -8 18 C-8.6640051 11.62555101 -6.87898454 8.02628982 -3 3 C-2.0197045 1.98067634 -1.02522896 0.97411784 0 0 Z " fill="#F26D0F" transform="translate(18,52)"/>
<path d="M0 0 C-2.47223763 2.47223763 -3.96806683 2.58009771 -7.375 3.1875 C-8.33148438 3.36667969 -9.28796875 3.54585937 -10.2734375 3.73046875 C-12.87310329 3.98745577 -14.54700305 3.81960325 -17 3 C-15.1096624 2.29753005 -13.21243172 1.61359151 -11.3125 0.9375 C-10.25675781 0.55464844 -9.20101562 0.17179687 -8.11328125 -0.22265625 C-4.90666208 -1.0233052 -3.1313693 -0.9237249 0 0 Z " fill="#3C391B" transform="translate(125,27)"/>
<path d="M0 0 C0.81210938 0.55300781 0.81210938 0.55300781 1.640625 1.1171875 C-0.29496099 1.78939101 -2.23291872 2.45476827 -4.171875 3.1171875 C-5.25082031 3.4884375 -6.32976562 3.8596875 -7.44140625 4.2421875 C-10.359375 5.1171875 -10.359375 5.1171875 -13.359375 5.1171875 C-13.359375 4.4571875 -13.359375 3.7971875 -13.359375 3.1171875 C-11.61703675 2.39021189 -9.86510155 1.68620506 -8.109375 0.9921875 C-7.13484375 0.59773437 -6.1603125 0.20328125 -5.15625 -0.203125 C-2.359375 -0.8828125 -2.359375 -0.8828125 0 0 Z " fill="#282E17" transform="translate(78.359375,128.8828125)"/>
<path d="M0 0 C-0.99 0.66 -1.98 1.32 -3 2 C-3.556875 2.53625 -4.11375 3.0725 -4.6875 3.625 C-8.16029682 5.68990622 -11.00062589 5.19996871 -15 5 C-14 3 -14 3 -12.109375 2.1484375 C-4.28930818 -0.41509434 -4.28930818 -0.41509434 0 0 Z " fill="#E46110" transform="translate(133,33)"/>
<path d="M0 0 C3.06188727 4.08251636 3.37243503 4.56497929 3.1875 9.25 C3.16042969 10.14203125 3.13335937 11.0340625 3.10546875 11.953125 C3.07066406 12.62859375 3.03585938 13.3040625 3 14 C2.01 14.495 2.01 14.495 1 15 C0.67 10.05 0.34 5.1 0 0 Z " fill="#292E16" transform="translate(239,25)"/>
<path d="M0 0 C-3.77312992 3.94463583 -3.77312992 3.94463583 -7.1640625 4.09765625 C-8.38222656 4.08025391 -8.38222656 4.08025391 -9.625 4.0625 C-10.85089844 4.04896484 -10.85089844 4.04896484 -12.1015625 4.03515625 C-13.04128906 4.01775391 -13.04128906 4.01775391 -14 4 C-9.49667324 0.99778216 -5.42232421 -0.31896025 0 0 Z " fill="#38391D" transform="translate(181,8)"/>
<path d="M0 0 C0 0.66 0 1.32 0 2 C-1.78710586 2.86366822 -3.5798465 3.71568594 -5.375 4.5625 C-6.37273437 5.03816406 -7.37046875 5.51382813 -8.3984375 6.00390625 C-9.25695312 6.33261719 -10.11546875 6.66132812 -11 7 C-11.66 6.67 -12.32 6.34 -13 6 C-10.83049884 3.57206296 -8.99994161 2.3943719 -5.9375 1.3125 C-5.24527344 1.06113281 -4.55304688 0.80976562 -3.83984375 0.55078125 C-2 0 -2 0 0 0 Z " fill="#2D2F18" transform="translate(222,59)"/>
<path d="M0 0 C-2.40804568 2.40804568 -4.42203775 3.00768759 -7.625 4.125 C-8.62789062 4.47820312 -9.63078125 4.83140625 -10.6640625 5.1953125 C-11.82035156 5.59363281 -11.82035156 5.59363281 -13 6 C-13 5.01 -13 4.02 -13 3 C-8.37802694 0.78145293 -5.23175837 -0.38281159 0 0 Z " fill="#383317" transform="translate(157,86)"/>
<path d="M0 0 C0.33 0.66 0.66 1.32 1 2 C2.32 1.67 3.64 1.34 5 1 C3.54341873 3.91316254 1.63839986 4.09207774 -1.375 5.1875 C-2.35210937 5.55230469 -3.32921875 5.91710938 -4.3359375 6.29296875 C-7 7 -7 7 -10 6 C-8.865625 5.731875 -7.73125 5.46375 -6.5625 5.1875 C-5.386875 4.795625 -4.21125 4.40375 -3 4 C-2.67 3.01 -2.34 2.02 -2 1 C-1.34 0.67 -0.68 0.34 0 0 Z " fill="#EB6514" transform="translate(198,56)"/>
<path d="M0 0 C1.32 0.66 2.64 1.32 4 2 C-0.64203897 4.53309233 -4.65155992 6.46515599 -10 7 C-7.80873464 5.21452452 -5.95659637 3.98284043 -3.3125 2.9375 C-0.84061395 2.23196154 -0.84061395 2.23196154 0 0 Z " fill="#E86613" transform="translate(90,112)"/>
<path d="M0 0 C0.66 0 1.32 0 2 0 C1.39009109 3.55780196 0.4216319 6.6828589 -1 10 C-1.33 10 -1.66 10 -2 10 C-2.25 3.375 -2.25 3.375 0 0 Z " fill="#212713" transform="translate(5,53)"/>
<path d="M0 0 C0.99 0.66 1.98 1.32 3 2 C-1.455 3.485 -1.455 3.485 -6 5 C-6.33 4.34 -6.66 3.68 -7 3 C-3.6875 1.375 -3.6875 1.375 0 0 Z " fill="#2F3119" transform="translate(163,81)"/>
<path d="M0 0 C0 0.66 0 1.32 0 2 C-4.12168689 3.62950412 -6.70700357 4.26264601 -11 3 C-7.13828168 1.00255949 -4.44822596 0 0 0 Z " fill="#493E1D" transform="translate(134,23)"/>
<path d="M0 0 C3.7952131 1.49097658 5.61042731 3.75700849 8 7 C7.67 7.66 7.34 8.32 7 9 C5.29115995 7.37660195 3.62553283 5.70680947 2 4 C2 3.34 2 2.68 2 2 C1.34 2 0.68 2 0 2 C0 1.34 0 0.68 0 0 Z " fill="#E36310" transform="translate(101,43)"/>
<path d="M0 0 C2 0 2 0 4.625 2.3125 C7 5 7 5 7 8 C1.125 3.375 1.125 3.375 0 0 Z " fill="#423A1B" transform="translate(14,118)"/>
<path d="M0 0 C0 0.66 0 1.32 0 2 C-4.455 2.495 -4.455 2.495 -9 3 C-6.01800145 0.01800145 -4.21244839 0 0 0 Z " fill="#3F3B1B" transform="translate(155,16)"/>
</svg>
