<svg viewBox="0 0 220 180" xmlns="http://www.w3.org/2000/svg">
  <!-- Kosár alap -->
  <rect x="25" y="70" width="170" height="80" rx="10" ry="10"
        fill="#C88A3D" stroke="#3B240E" stroke-width="4" />
  <!-- Kosár díszcsík -->
  <rect x="25" y="95" width="170" height="15"
        fill="#D79B4A" stroke="#3B240E" stroke-width="4" />
  <!-- Kosár perem -->
  <rect x="35" y="60" width="150" height="20" rx="10" ry="10"
        fill="#E4AE5C" stroke="#3B240E" stroke-width="4" />
  <!-- Fogantyú -->
  <path d="M60 60 C 60 25, 160 25, 160 60"
        fill="none" stroke="#3B240E" stroke-width="6" />

  <!-- Bagett -->
  <path d="M90 40 C 115 20, 155 20, 175 40
           C 185 50, 180 65, 165 75
           C 145 90, 115 95, 95 80
           C 75 65, 75 50, 90 40 Z"
        fill="#F2C47C" stroke="#3B240E" stroke-width="4" />
  <!-- Bagett bevágások -->
  <path d="M100 40 C 115 42, 125 48, 135 55"
        fill="none" stroke="#E59E3D" stroke-width="3" />
  <path d="M115 35 C 130 37, 140 43, 150 50"
        fill="none" stroke="#E59E3D" stroke-width="3" />
  <path d="M130 32 C 145 34, 155 40, 165 47"
        fill="none" stroke="#E59E3D" stroke-width="3" />

  <!-- Szőlő -->
  <circle cx="65" cy="62" r="7" fill="#6A2E9B" stroke="#3B240E" stroke-width="3" />
  <circle cx="75" cy="55" r="7" fill="#6A2E9B" stroke="#3B240E" stroke-width="3" />
  <circle cx="55" cy="55" r="7" fill="#6A2E9B" stroke="#3B240E" stroke-width="3" />
  <circle cx="65" cy="48" r="7" fill="#7C3BB3" stroke="#3B240E" stroke-width="3" />
  <circle cx="75" cy="65" r="7" fill="#7C3BB3" stroke="#3B240E" stroke-width="3" />
  <!-- Szőlő levél -->
  <path d="M60 40 C 58 35, 60 30, 67 30
           C 75 30, 77 37, 73 42
           C 70 45, 65 45, 60 40 Z"
        fill="#4A8C3D" stroke="#2D5423" stroke-width="3" />

  <!-- Banán -->
  <path d="M120 65 C 135 85, 160 95, 185 90
           C 180 100, 170 110, 150 112
           C 135 114, 120 108, 110 95
           C 105 88, 105 75, 120 65 Z"
        fill="#F4D548" stroke="#3B240E" stroke-width="4" />
  <!-- Banán végek -->
  <circle cx="118" cy="68" r="3" fill="#C29B1A" stroke="#3B240E" stroke-width="2" />
  <circle cx="186" cy="88" r="3" fill="#C29B1A" stroke="#3B240E" stroke-width="2" />
</svg>