<?xml version="1.0" encoding="UTF-8"?>
<svg version="1.1" xmlns="http://www.w3.org/2000/svg" width="266" height="217">
<path d="M0 0 C1.61273804 0.20266479 1.61273804 0.20266479 3.25805664 0.40942383 C22.20662649 3.0924436 40.40659945 9.63918263 57.5 18.125 C58.14437012 18.43904785 58.78874023 18.7530957 59.45263672 19.07666016 C76.81786027 27.61121008 95.59330273 39.55607657 108.5 54.125 C108.5 54.785 108.5 55.445 108.5 56.125 C109.16 56.125 109.82 56.125 110.5 56.125 C114.26214812 62.54256085 115.14182547 67.42893251 115.2421875 74.8046875 C115.27069794 75.90457001 115.29920837 77.00445251 115.32858276 78.13766479 C115.41680257 82.1333437 115.46500923 86.12858708 115.5 90.125 C115.5072963 90.91997391 115.51459259 91.71494781 115.52210999 92.53401184 C115.6371885 105.76852104 115.64206823 119.00252917 115.62695312 132.23742676 C115.62432604 136.28953931 115.62918435 140.34163016 115.63394356 144.3937397 C115.63756008 148.32461949 115.63640676 152.25548687 115.63381577 156.18636703 C115.63315316 158.04978314 115.63395137 159.9132004 115.63629532 161.77661514 C115.63884771 164.36819716 115.63494811 166.95969385 115.62939453 169.55126953 C115.63141876 170.30452515 115.63344299 171.05778076 115.63552856 171.8338623 C115.58815183 183.82779058 115.58815183 183.82779058 113.375 188.5 C108.46058329 192.75916115 100.57346796 192.70553608 94.37109375 193.31640625 C93.34983398 193.42228058 92.32857422 193.52815491 91.27636719 193.63723755 C87.83064963 193.9931481 84.38409807 194.34022796 80.9375 194.6875 C78.46550863 194.94115579 75.99358675 195.19548958 73.52172852 195.45043945 C69.45182239 195.86994342 65.38187694 196.28899879 61.31163025 196.70518494 C50.38916466 197.82259379 39.4693831 198.96454151 28.55041313 200.11557961 C25.70909514 200.41508021 22.86774432 200.71426742 20.02638245 201.01335144 C19.08380805 201.11257054 18.14123365 201.21178965 17.1700964 201.31401539 C15.75474023 201.46299794 15.75474023 201.46299794 14.31079102 201.61499023 C8.68132995 202.20756617 3.05189261 202.80036218 -2.5774231 203.39431763 C-21.38739076 205.37798983 -40.19759888 207.32014211 -59.03244019 209.0534668 C-68.12505924 209.89267211 -77.20986814 210.79404159 -86.29296875 211.73046875 C-87.57007217 211.86142441 -88.8471756 211.99238007 -90.16297913 212.12730408 C-95.32315756 212.65660516 -100.48324458 213.18649142 -105.64233398 213.72631836 C-109.50445203 214.12955242 -113.36735191 214.52443401 -117.23046875 214.91796875 C-118.94788521 215.10071602 -118.94788521 215.10071602 -120.69999695 215.28715515 C-126.29855526 215.85080669 -131.89212679 216.27101904 -137.5168457 216.45043945 C-139.06007256 216.50371147 -139.06007256 216.50371147 -140.63447571 216.55805969 C-144.26951448 216.00870516 -145.88341659 214.65236259 -148.5 212.125 C-150.31188821 208.72173597 -150.7554837 205.89575669 -150.765625 202.0703125 C-150.76820313 201.12542969 -150.77078125 200.18054688 -150.7734375 199.20703125 C-150.76570312 198.23121094 -150.75796875 197.25539062 -150.75 196.25 C-150.75773438 195.28191406 -150.76546875 194.31382812 -150.7734375 193.31640625 C-150.74471623 182.76133796 -150.74471623 182.76133796 -148.5 178.125 C-145.98230188 176.18205808 -143.28341123 174.94580227 -140.375 173.6875 C-139.24384766 173.1625293 -139.24384766 173.1625293 -138.08984375 172.62695312 C-136.23667156 171.77074066 -134.36956615 170.94479837 -132.5 170.125 C-132.5 167.485 -132.5 164.845 -132.5 162.125 C-133.35271484 161.85236328 -133.35271484 161.85236328 -134.22265625 161.57421875 C-147.81769723 157.14845416 -147.81769723 157.14845416 -150.5 153.125 C-150.76069641 151.11642456 -150.76069641 151.11642456 -150.7746582 148.79638672 C-150.78419022 147.9247287 -150.79372223 147.05307068 -150.80354309 146.15499878 C-150.80263168 145.21439606 -150.80172028 144.27379333 -150.80078125 143.3046875 C-150.80506638 142.33145538 -150.8093515 141.35822327 -150.81376648 140.35549927 C-150.81951324 138.29267148 -150.82000751 136.22982343 -150.81567383 134.16699219 C-150.81253291 131.03284326 -150.83590239 127.89965587 -150.86132812 124.765625 C-150.86360319 122.75781368 -150.86430365 120.74999985 -150.86328125 118.7421875 C-150.872491 117.81373016 -150.88170074 116.88527283 -150.89118958 115.92868042 C-150.83997679 108.60645244 -150.02057959 101.39956264 -144.72265625 95.9453125 C-143.6850078 95.02874473 -142.63130435 94.13003866 -141.5625 93.25 C-140.77456055 92.56164062 -140.77456055 92.56164062 -139.97070312 91.859375 C-132.19503026 85.125 -132.19503026 85.125 -129.5 85.125 C-129.5 84.465 -129.5 83.805 -129.5 83.125 C-127.62109375 81.6015625 -127.62109375 81.6015625 -124.9375 79.75 C-120.20268541 76.39490674 -115.63834616 72.8969371 -111.125 69.25 C-104.32764524 63.76945533 -97.43714953 58.42684133 -90.5 53.125 C-88.49962788 51.5838162 -86.49963747 50.04213686 -84.5 48.5 C-82.8511423 47.23386145 -81.20168909 45.96850095 -79.55224609 44.703125 C-78.00402739 43.51258423 -76.45782357 42.3194226 -74.91259766 41.125 C-72.0493059 38.91220941 -69.18117036 36.70581161 -66.3125 34.5 C-65.37857422 33.77603027 -64.44464844 33.05206055 -63.48242188 32.30615234 C-62.60779297 31.63535645 -61.73316406 30.96456055 -60.83203125 30.2734375 C-60.04546143 29.66677246 -59.2588916 29.06010742 -58.44848633 28.43505859 C-56.5 27.125 -56.5 27.125 -54.5 27.125 C-54.5 26.465 -54.5 25.805 -54.5 25.125 C-52.48983878 23.56391735 -50.47607496 22.11740207 -48.375 20.6875 C-42.48022196 16.5902532 -36.79648164 12.29942377 -31.20849609 7.79321289 C-21.16725259 -0.24364507 -12.63081972 -1.62114879 0 0 Z " fill="#EEA414" transform="translate(150.5,0.875)"/>
<path d="M0 0 C1.61273804 0.20266479 1.61273804 0.20266479 3.25805664 0.40942383 C22.20662649 3.0924436 40.40659945 9.63918263 57.5 18.125 C58.14437012 18.43904785 58.78874023 18.7530957 59.45263672 19.07666016 C76.81786027 27.61121008 95.59330273 39.55607657 108.5 54.125 C108.5 54.785 108.5 55.445 108.5 56.125 C109.16 56.125 109.82 56.125 110.5 56.125 C114.26214812 62.54256085 115.14182547 67.42893251 115.2421875 74.8046875 C115.27069794 75.90457001 115.29920837 77.00445251 115.32858276 78.13766479 C115.41680257 82.1333437 115.46500923 86.12858708 115.5 90.125 C115.5072963 90.91997391 115.51459259 91.71494781 115.52210999 92.53401184 C115.6371885 105.76852104 115.64206823 119.00252917 115.62695312 132.23742676 C115.62432604 136.28953931 115.62918435 140.34163016 115.63394356 144.3937397 C115.63756008 148.32461949 115.63640676 152.25548687 115.63381577 156.18636703 C115.63315316 158.04978314 115.63395137 159.9132004 115.63629532 161.77661514 C115.63884771 164.36819716 115.63494811 166.95969385 115.62939453 169.55126953 C115.63141876 170.30452515 115.63344299 171.05778076 115.63552856 171.8338623 C115.58815183 183.82779058 115.58815183 183.82779058 113.375 188.5 C108.46058329 192.75916115 100.57346796 192.70553608 94.37109375 193.31640625 C93.34983398 193.42228058 92.32857422 193.52815491 91.27636719 193.63723755 C87.83064963 193.9931481 84.38409807 194.34022796 80.9375 194.6875 C78.46550863 194.94115579 75.99358675 195.19548958 73.52172852 195.45043945 C69.45182239 195.86994342 65.38187694 196.28899879 61.31163025 196.70518494 C50.38916466 197.82259379 39.4693831 198.96454151 28.55041313 200.11557961 C25.70909514 200.41508021 22.86774432 200.71426742 20.02638245 201.01335144 C19.08380805 201.11257054 18.14123365 201.21178965 17.1700964 201.31401539 C15.75474023 201.46299794 15.75474023 201.46299794 14.31079102 201.61499023 C8.68132995 202.20756617 3.05189261 202.80036218 -2.5774231 203.39431763 C-21.38739076 205.37798983 -40.19759888 207.32014211 -59.03244019 209.0534668 C-68.12505924 209.89267211 -77.20986814 210.79404159 -86.29296875 211.73046875 C-87.57007217 211.86142441 -88.8471756 211.99238007 -90.16297913 212.12730408 C-95.32315756 212.65660516 -100.48324458 213.18649142 -105.64233398 213.72631836 C-109.50445203 214.12955242 -113.36735191 214.52443401 -117.23046875 214.91796875 C-118.94788521 215.10071602 -118.94788521 215.10071602 -120.69999695 215.28715515 C-126.29855526 215.85080669 -131.89212679 216.27101904 -137.5168457 216.45043945 C-139.06007256 216.50371147 -139.06007256 216.50371147 -140.63447571 216.55805969 C-144.26951448 216.00870516 -145.88341659 214.65236259 -148.5 212.125 C-150.31188821 208.72173597 -150.7554837 205.89575669 -150.765625 202.0703125 C-150.76820313 201.12542969 -150.77078125 200.18054688 -150.7734375 199.20703125 C-150.76570312 198.23121094 -150.75796875 197.25539062 -150.75 196.25 C-150.75773438 195.28191406 -150.76546875 194.31382812 -150.7734375 193.31640625 C-150.74471623 182.76133796 -150.74471623 182.76133796 -148.5 178.125 C-145.98230188 176.18205808 -143.28341123 174.94580227 -140.375 173.6875 C-139.24384766 173.1625293 -139.24384766 173.1625293 -138.08984375 172.62695312 C-136.23667156 171.77074066 -134.36956615 170.94479837 -132.5 170.125 C-132.5 167.485 -132.5 164.845 -132.5 162.125 C-133.35271484 161.85236328 -133.35271484 161.85236328 -134.22265625 161.57421875 C-147.81769723 157.14845416 -147.81769723 157.14845416 -150.5 153.125 C-150.76069641 151.11642456 -150.76069641 151.11642456 -150.7746582 148.79638672 C-150.78419022 147.9247287 -150.79372223 147.05307068 -150.80354309 146.15499878 C-150.80263168 145.21439606 -150.80172028 144.27379333 -150.80078125 143.3046875 C-150.80506638 142.33145538 -150.8093515 141.35822327 -150.81376648 140.35549927 C-150.81951324 138.29267148 -150.82000751 136.22982343 -150.81567383 134.16699219 C-150.81253291 131.03284326 -150.83590239 127.89965587 -150.86132812 124.765625 C-150.86360319 122.75781368 -150.86430365 120.74999985 -150.86328125 118.7421875 C-150.872491 117.81373016 -150.88170074 116.88527283 -150.89118958 115.92868042 C-150.83997679 108.60645244 -150.02057959 101.39956264 -144.72265625 95.9453125 C-143.6850078 95.02874473 -142.63130435 94.13003866 -141.5625 93.25 C-140.77456055 92.56164062 -140.77456055 92.56164062 -139.97070312 91.859375 C-132.19503026 85.125 -132.19503026 85.125 -129.5 85.125 C-129.5 84.465 -129.5 83.805 -129.5 83.125 C-127.62109375 81.6015625 -127.62109375 81.6015625 -124.9375 79.75 C-120.20268541 76.39490674 -115.63834616 72.8969371 -111.125 69.25 C-104.32764524 63.76945533 -97.43714953 58.42684133 -90.5 53.125 C-88.49962788 51.5838162 -86.49963747 50.04213686 -84.5 48.5 C-82.8511423 47.23386145 -81.20168909 45.96850095 -79.55224609 44.703125 C-78.00402739 43.51258423 -76.45782357 42.3194226 -74.91259766 41.125 C-72.0493059 38.91220941 -69.18117036 36.70581161 -66.3125 34.5 C-65.37857422 33.77603027 -64.44464844 33.05206055 -63.48242188 32.30615234 C-62.60779297 31.63535645 -61.73316406 30.96456055 -60.83203125 30.2734375 C-60.04546143 29.66677246 -59.2588916 29.06010742 -58.44848633 28.43505859 C-56.5 27.125 -56.5 27.125 -54.5 27.125 C-54.5 26.465 -54.5 25.805 -54.5 25.125 C-52.48983878 23.56391735 -50.47607496 22.11740207 -48.375 20.6875 C-42.48022196 16.5902532 -36.79648164 12.29942377 -31.20849609 7.79321289 C-21.16725259 -0.24364507 -12.63081972 -1.62114879 0 0 Z M96.01733398 72.7800293 C94.64866684 72.99637276 94.64866684 72.99637276 93.25234985 73.21708679 C92.26028534 73.37619034 91.26822083 73.53529388 90.24609375 73.69921875 C88.69370499 73.94506462 88.69370499 73.94506462 87.10995483 74.19587708 C84.88172267 74.54878617 82.65363949 74.90263686 80.4256897 75.25732422 C64.4010962 77.80777789 48.37552448 80.32840662 32.3125 82.625 C16.53991884 84.89241301 0.83036534 87.51985766 -14.87963867 90.18359375 C-29.39877722 92.64126602 -43.94042494 94.92026128 -58.5 97.125 C-60.69580311 97.45839941 -62.89160389 97.79181411 -65.08740234 98.12524414 C-71.70356692 99.12871357 -78.32045935 100.12732632 -84.9375 101.125 C-86.08390961 101.29797607 -87.23031921 101.47095215 -88.41146851 101.64916992 C-105.10381194 104.16762762 -121.79879396 106.66592672 -138.5 109.125 C-138.5 121.995 -138.5 134.865 -138.5 148.125 C-135.2 149.115 -131.9 150.105 -128.5 151.125 C-123.9925623 155.6324377 -122.33100348 158.49066358 -122.125 164.75 C-122.19734432 170.79075077 -123.26354773 174.74631672 -127.5 179.125 C-131.24067768 182.02124747 -135.27808297 184.01404149 -139.5 186.125 C-139.5 192.065 -139.5 198.005 -139.5 204.125 C-123.68154026 203.44695957 -107.95584195 202.22525463 -92.1875 200.8125 C-90.93511536 200.70139893 -89.68273071 200.59029785 -88.39239502 200.47583008 C-66.73959624 198.55419362 -45.11379995 196.44095478 -23.5 194.125 C-21.74707958 193.93773877 -19.99414962 193.75056682 -18.24121094 193.56347656 C-17.34255814 193.46755722 -16.44390533 193.37163788 -15.51802063 193.27281189 C-14.6019957 193.17504959 -13.68597076 193.07728729 -12.7421875 192.9765625 C-10.84887688 192.77449615 -8.95556633 192.57242908 -7.06225586 192.37036133 C-6.10608368 192.26833405 -5.1499115 192.16630676 -4.1647644 192.06118774 C-2.22734395 191.85434375 -0.28994552 191.64729339 1.64743042 191.44003296 C19.32179289 189.54987989 37.00322011 187.7323332 54.6875 185.9375 C55.93349976 185.81103088 57.17949951 185.68456177 58.46325684 185.55426025 C60.89698195 185.30740788 63.33072787 185.06076047 65.76449585 184.81433105 C68.08682563 184.57916757 70.40911283 184.34358317 72.73135376 184.10754395 C78.03390601 183.56991836 83.33697268 183.04209091 88.64306641 182.54052734 C89.58305984 182.45050949 90.52305328 182.36049164 91.49153137 182.26774597 C93.23327036 182.10161666 94.97535512 181.93905901 96.71781921 181.78071594 C100.41894437 181.73965308 100.41894437 181.73965308 103.5 180.125 C103.5954693 178.72088683 103.62188529 177.31200191 103.62025452 175.90464783 C103.62162918 174.99454453 103.62300385 174.08444122 103.62442017 173.14675903 C103.62082489 172.14047455 103.61722961 171.13419006 103.61352539 170.09741211 C103.61374443 168.51711464 103.61374443 168.51711464 103.6139679 166.90489197 C103.61326826 163.404022 103.60547348 159.90320448 103.59765625 156.40234375 C103.59579225 153.98238657 103.59436826 151.56242901 103.59336853 149.14247131 C103.58954192 142.75884976 103.57971041 136.37525079 103.56866455 129.99163818 C103.55845351 123.48336086 103.55387157 116.9750799 103.54882812 110.46679688 C103.53808827 97.68618825 103.52120112 84.90559533 103.5 72.125 C100.87290117 72.125 98.60052151 72.3681761 96.01733398 72.7800293 Z " fill="#232D1D" transform="translate(150.5,0.875)"/>
<path d="M0 0 C1.175625 0.16113281 2.35125 0.32226562 3.5625 0.48828125 C39.9359575 5.86087857 74.64211231 21.12293613 101 47 C101.60199219 47.556875 102.20398438 48.11375 102.82421875 48.6875 C104 50 104 50 104 52 C94.79258923 54.1322425 85.55819582 55.49863738 76.1875 56.6875 C57.19986531 59.12448704 38.32660535 62.25661433 19.43186951 65.31968689 C10.91800264 66.69719881 2.39953967 68.04393725 -6.12109375 69.37890625 C-7.38516556 69.57719528 -8.64923737 69.77548431 -9.95161438 69.9797821 C-14.91292009 70.75780762 -19.87424317 71.53568224 -24.83633423 72.3086853 C-37.38400376 74.26409382 -49.90493434 76.29755846 -62.39285278 78.60598755 C-70.28668236 80.06424618 -78.19334469 81.38795749 -86.125 82.625 C-86.79547363 82.73016937 -87.46594727 82.83533875 -88.15673828 82.94369507 C-99.40534649 84.70054237 -110.65165812 86.08613112 -122 87 C-113.01905264 77.82521924 -102.71564008 70.18238606 -92.51171875 62.4375 C-87.87318143 58.91379123 -83.27870708 55.33503451 -78.6875 51.75 C-72.89244395 47.22924305 -67.0567318 42.77467937 -61.16015625 38.38671875 C-57.98719767 35.990331 -54.8520377 33.55101617 -51.72119141 31.10009766 C-42.30917825 23.73268689 -32.79429572 16.52484211 -23.10351562 9.52734375 C-21.20649111 8.14993133 -19.32880531 6.74996938 -17.453125 5.34375 C-11.34744231 0.94269953 -7.48399769 -1.30301745 0 0 Z " fill="#EFA714" transform="translate(145,12)"/>
<path d="M0 0 C4.86147495 3.2409833 9.12803169 7.38409506 11 13 C11.63583951 20.71346286 11.9265776 26.81019738 7 33 C1.71416597 38.62601146 -3.06899217 40.61334349 -10.8125 41.375 C-16.70116081 41.18061702 -22.35527387 39.19849662 -26.8984375 35.421875 C-31.69959021 30.22257792 -33.5866536 24.29849654 -33.37890625 17.1796875 C-32.36200336 11.32987498 -29.3658759 5.82210765 -24.875 1.9375 C-18.48002156 -2.37215938 -7.32132894 -2.61955806 0 0 Z " fill="#1B241D" transform="translate(210,109)"/>
<path d="M0 0 C5.99827227 3.00795712 10.45107353 7.97593435 12.65625 14.33203125 C13.40129804 20.82459272 12.15367885 25.78332448 8.65625 31.33203125 C4.20448689 36.38742326 -0.34157616 38.96974111 -7.10546875 39.58203125 C-14.79973828 39.89096052 -20.34493281 39.01844084 -26.09375 33.71875 C-31.07906434 28.31399815 -32.85348291 22.9589907 -32.65625 15.63671875 C-31.91009295 10.13381048 -29.40036586 6.38864711 -25.53125 2.51953125 C-16.65495433 -3.57204421 -9.82946005 -3.82106757 0 0 Z " fill="#1B241D" transform="translate(92.34375,126.66796875)"/>
<path d="M0 0 C3.94492256 2.18406632 6.56270669 4.38343122 8.8125 8.375 C9.71445261 12.9680202 9.83871131 17.20278618 7.80859375 21.5 C4.00664653 26.52593592 -1.15278542 28.94907588 -7.1875 30.375 C-14.47699501 31.21134363 -21.58497529 30.78450047 -28.1875 27.375 C-32.95666722 23.41760593 -34.96883639 20.634524 -35.5625 14.5 C-35.44157123 10.16268794 -33.99869712 7.71804522 -31.1875 4.375 C-23.10610694 -3.08474744 -10.12977241 -4.09973925 0 0 Z " fill="#1B241C" transform="translate(155.1875,34.625)"/>
<path d="M0 0 C3.85314485 1.78896011 5.50837224 3.30220575 7.9375 6.75 C9.37797369 11.1561548 9.09363987 13.47962185 8 18 C5.74548302 20.93087207 4.51557135 21.82814288 1 23 C-4.29487804 23.50704484 -8.65500981 23.64847741 -13.5 21.3125 C-16.97298792 18.09998617 -18.73394212 15.78638864 -19.4375 11.0625 C-18.87672496 7.13707473 -17.49711051 5.05202395 -15 2 C-10.36911708 -0.9469255 -5.2966709 -0.61410677 0 0 Z " fill="#EEAA14" transform="translate(87,134)"/>
<path d="M0 0 C3.57557806 2.00232371 5.72990507 4.07425204 7 8 C7.5911574 11.25136568 7.45389169 13.21011057 5.796875 16.09375 C3.22267834 19.68202413 1.20065311 22.35733215 -3 24 C-8.22343681 24.48365156 -11.61480585 23.92346277 -16 21 C-18.82657232 17.72712679 -19.90879625 15.7426591 -20.4375 11.4375 C-19.96474659 7.72300894 -19.33772514 5.90200363 -17 3 C-11.59614168 -0.89492755 -6.44887217 -0.81280799 0 0 Z " fill="#EFAB15" transform="translate(206,117)"/>
<path d="M0 0 C2 2 2 2 2.375 4.375 C1.88124105 7.83131262 0.72258898 8.8824308 -2 11 C-7.51553109 12.83446078 -14.58587534 13.10234652 -20.1171875 11.31640625 C-21.75 10.375 -21.75 10.375 -24 8 C-24.5861255 4.8088723 -24.63555576 3.04679773 -22.9375 0.25 C-15.43618154 -4.58956029 -7.55197033 -3.85002409 0 0 Z " fill="#EEAD15" transform="translate(153,44)"/>
<path d="M0 0 C0.66 0 1.32 0 2 0 C2.88591106 12.85290295 3.08824125 25.60142193 2.9140625 38.48046875 C2.89220151 40.39178514 2.87075657 42.30310633 2.84970093 44.21443176 C2.80464238 48.18687496 2.75549039 52.15923836 2.703125 56.1315918 C2.63677025 61.18077054 2.5794744 66.23000229 2.52509499 71.27932262 C2.48192541 75.21482846 2.43459491 79.15027592 2.38599777 83.08571815 C2.36337842 84.94612641 2.3418424 86.80654821 2.32149124 88.66698265 C2.20005073 99.4802633 1.86410489 110.21810979 1 121 C0.67 121 0.34 121 0 121 C0 81.07 0 41.14 0 0 Z " fill="#051414" transform="translate(263,65)"/>
<path d="M0 0 C0 35.64 0 71.28 0 108 C-1.98 108 -3.96 108 -6 108 C-4.02 107.505 -4.02 107.505 -2 107 C-2 72.35 -2 37.7 -2 2 C-3.32 1.67 -4.64 1.34 -6 1 C-3 0 -3 0 0 0 Z " fill="#FDD110" transform="translate(254,73)"/>
<path d="M0 0 C0.66 0 1.32 0 2 0 C2.95946577 13.09235569 2.98229397 26.00972748 2.5625 39.125 C2.50907493 40.97003221 2.45633736 42.81508446 2.40429688 44.66015625 C2.27741421 49.10704059 2.14137583 53.55355382 2 58 C1.67 58 1.34 58 1 58 C0.13298788 50.81629059 -0.13504331 43.75507995 -0.09765625 36.5234375 C-0.0962413 35.47217682 -0.09482635 34.42091614 -0.09336853 33.33779907 C-0.08782087 30.01683572 -0.07527842 26.69594259 -0.0625 23.375 C-0.05747823 21.1080739 -0.05291651 18.84114673 -0.04882812 16.57421875 C-0.03786865 11.04945566 -0.02118357 5.52473285 0 0 Z " fill="#131E15" transform="translate(263,65)"/>
<path d="M0 0 C0.05397335 2.4377963 0.09365616 4.87439685 0.125 7.3125 C0.15013672 8.34793945 0.15013672 8.34793945 0.17578125 9.40429688 C0.21217794 13.17135396 0.14378864 14.78431704 -2 18 C-2 12.72 -2 7.44 -2 2 C-3.32 1.67 -4.64 1.34 -6 1 C-3 0 -3 0 0 0 Z " fill="#F8D312" transform="translate(254,73)"/>
<path d="M0 0 C3.3 0.33 6.6 0.66 10 1 C10 1.33 10 1.66 10 2 C7.14694871 2.50720912 4.29283186 3.00593634 1.4375 3.5 C0.63763672 3.64308594 -0.16222656 3.78617187 -0.98632812 3.93359375 C-5.73524598 4.74769395 -10.18246077 5.15519589 -15 5 C-11.59568053 2.73045369 -9.83475798 2.63450051 -5.8125 2.375 C-4.72582031 2.30023438 -3.63914062 2.22546875 -2.51953125 2.1484375 C-1.27236328 2.07496094 -1.27236328 2.07496094 0 2 C0 1.34 0 0.68 0 0 Z " fill="#F6CE16" transform="translate(117,81)"/>
<path d="M0 0 C1.02802734 0.00966797 2.05605469 0.01933594 3.11523438 0.02929688 C4.72301758 0.06700195 4.72301758 0.06700195 6.36328125 0.10546875 C7.44673828 0.11900391 8.53019531 0.13253906 9.64648438 0.14648438 C12.3234153 0.18186232 14.99934963 0.23122686 17.67578125 0.29296875 C17.67578125 0.62296875 17.67578125 0.95296875 17.67578125 1.29296875 C14.65540036 1.63091346 11.63458369 1.96345308 8.61328125 2.29296875 C7.76572266 2.38835937 6.91816406 2.48375 6.04492188 2.58203125 C1.22105536 3.10353033 -3.47258139 3.39829602 -8.32421875 3.29296875 C-5.79060787 0.07680384 -4.00404798 -0.06636544 0 0 Z " fill="#655C27" transform="translate(131.32421875,202.70703125)"/>
<path d="M0 0 C0.66 0.33 1.32 0.66 2 1 C-2.61176471 7.09411765 -2.61176471 7.09411765 -6 9 C-7.32 8.67 -8.64 8.34 -10 8 C-6.7 5.36 -3.4 2.72 0 0 Z " fill="#46431E" transform="translate(111,15)"/>
<path d="M0 0 C1.04474487 0.08640747 1.04474487 0.08640747 2.1105957 0.17456055 C2.86791992 0.2293457 3.62524414 0.28413086 4.40551758 0.34057617 C5.19120117 0.4134082 5.97688477 0.48624023 6.78637695 0.5612793 C7.58366211 0.62250977 8.38094727 0.68374023 9.20239258 0.74682617 C11.16904648 0.89991899 13.13416685 1.07248639 15.09887695 1.2487793 C15.09887695 1.5787793 15.09887695 1.9087793 15.09887695 2.2487793 C8.49887695 2.5787793 1.89887695 2.9087793 -4.90112305 3.2487793 C-1.90112305 0.2487793 -1.90112305 0.2487793 0 0 Z " fill="#695E24" transform="translate(45.901123046875,210.751220703125)"/>
<path d="M0 0 C0.33 0 0.66 0 1 0 C1.48945148 7.34177215 1.48945148 7.34177215 -0.8125 10.4375 C-3 12 -3 12 -6 13 C-6.66 12.34 -7.32 11.68 -8 11 C-6.865625 10.484375 -5.73125 9.96875 -4.5625 9.4375 C-2.60110246 8.42041851 -2.60110246 8.42041851 -1 7 C0.0565109 3.36852515 0.0565109 3.36852515 0 0 Z " fill="#6A5C24" transform="translate(19,164)"/>
<path d="M0 0 C4.00870431 1.37441291 6.95149392 3.03388597 10 6 C11.3125 9.25 11.3125 9.25 12 12 C11.319375 11.29875 10.63875 10.5975 9.9375 9.875 C7.22379838 7.14570239 4.31945276 4.68645559 1.35546875 2.234375 C0.90816406 1.82703125 0.46085937 1.4196875 0 1 C0 0.67 0 0.34 0 0 Z " fill="#EDC615" transform="translate(92,126)"/>
<path d="M0 0 C6.93 0.495 6.93 0.495 14 1 C14 1.33 14 1.66 14 2 C8.06 2.33 2.12 2.66 -4 3 C-2.68 2.67 -1.36 2.34 0 2 C0 1.34 0 0.68 0 0 Z " fill="#665E27" transform="translate(241,191)"/>
<path d="M0 0 C3.99500618 1.3697164 6.80009492 3.25722422 10 6 C6.38238619 5.67112602 4.44334967 5.37334709 1.625 3 C0 1 0 1 0 0 Z " fill="#4C4A20" transform="translate(216,24)"/>
<path d="M0 0 C0.33 0.99 0.66 1.98 1 3 C-0.258125 2.87625 -1.51625 2.7525 -2.8125 2.625 C-3.87404297 2.52058594 -3.87404297 2.52058594 -4.95703125 2.4140625 C-7 2 -7 2 -10 0 C-6.30581799 -1.231394 -3.7943739 -0.64432764 0 0 Z " fill="#514C22" transform="translate(16,158)"/>
<path d="M0 0 C2.64 0.33 5.28 0.66 8 1 C4.36576791 3.32590854 1.22911669 3.16265833 -3 3 C-2.01 2.67 -1.02 2.34 0 2 C0 1.34 0 0.68 0 0 Z " fill="#F5C914" transform="translate(235,63)"/>
<path d="M0 0 C0.66 0.33 1.32 0.66 2 1 C2 1.66 2 2.32 2 3 C-3.625 6 -3.625 6 -7 6 C-4.69 4.02 -2.38 2.04 0 0 Z " fill="#4F491E" transform="translate(47,64)"/>
<path d="M0 0 C3.55780196 0.60990891 6.6828589 1.5783681 10 3 C8.125 4.0625 8.125 4.0625 6 5 C5.34 4.67 4.68 4.34 4 4 C4 3.34 4 2.68 4 2 C2.68 1.34 1.36 0.68 0 0 Z " fill="#6F6223" transform="translate(185,10)"/>
<path d="M0 0 C0.66 0.99 1.32 1.98 2 3 C0.71034824 4.37562854 -0.62689293 5.70766393 -2 7 C-2.66 7 -3.32 7 -4 7 C-2.92598892 4.08482708 -2.22189824 2.22189824 0 0 Z " fill="#43411D" transform="translate(6,97)"/>
<path d="M0 0 C4.455 0.99 4.455 0.99 9 2 C8.01 3.485 8.01 3.485 7 5 C6.34 5 5.68 5 5 5 C5 4.34 5 3.68 5 3 C4.01 3 3.02 3 2 3 C2 2.34 2 1.68 2 1 C1.34 0.67 0.68 0.34 0 0 Z " fill="#5A5221" transform="translate(168,5)"/>
</svg>
