<svg viewBox="0 0 220 160" xmlns="http://www.w3.org/2000/svg">
  <!-- Tányér -->
  <ellipse cx="110" cy="110" rx="90" ry="35"
           fill="#F5F5F5" stroke="#B0B0B0" stroke-width="3" />
  <ellipse cx="110" cy="110" rx="70" ry="25"
           fill="#FFFFFF" stroke="#D0D0D0" stroke-width="2" />

  <!-- Alsó kenyérszelet -->
  <path d="M55 80
           C 55 65, 75 55, 110 55
           C 145 55, 165 65, 165 80
           L 165 105
           C 165 115, 150 125, 110 125
           C 70 125, 55 115, 55 105 Z"
        fill="#F0C57A" stroke="#A66A2C" stroke-width="3" />
  <!-- Héj -->
  <path d="M55 82
           C 55 68, 75 60, 110 60
           C 145 60, 165 68, 165 82"
        fill="none" stroke="#C9822F" stroke-width="4" />

  <!-- Saláta -->
  <path d="M60 90
           C 70 85, 80 90, 90 88
           C 100 86, 110 90, 120 88
           C 130 86, 140 90, 150 88
           C 160 86, 168 90, 170 95
           L 170 100
           C 160 98, 150 102, 140 100
           C 130 98, 120 102, 110 100
           C 100 98, 90 102, 80 100
           C 70 98, 62 100, 55 98
           Z"
        fill="#7BC96F" stroke="#4E8A42" stroke-width="3" />

  <!-- Sajt -->
  <path d="M65 90 L160 90 L160 105
           C 150 108, 140 110, 130 110
           C 120 110, 110 108, 100 108
           C 90 108, 80 110, 70 110
           C 68 108, 66 100, 65 95 Z"
        fill="#FAD556" stroke="#C79726" stroke-width="3" />
  <!-- Sajt lyukak -->
  <circle cx="90" cy="98" r="4" fill="#F2C43F" />
  <circle cx="120" cy="96" r="3.5" fill="#F2C43F" />
  <circle cx="140" cy="102" r="3" fill="#F2C43F" />

  <!-- Felső kenyérszelet (kicsit eltolva) -->
  <path d="M60 70
           C 60 55, 80 45, 115 45
           C 145 45, 165 55, 170 68
           L 170 92
           C 165 95, 155 97, 145 97
           C 135 97, 125 95, 115 95
           C 100 95, 85 97, 70 97
           C 65 95, 60 90, 60 85 Z"
        fill="#F4CF8A" stroke="#A66A2C" stroke-width="3" />
</svg>