<?xml version="1.0" encoding="UTF-8"?>
<svg version="1.1" xmlns="http://www.w3.org/2000/svg" width="213" height="153">
<path d="M0 0 C6.74451316 5.68324418 10.74311763 10.61174431 11.7109375 19.4765625 C11.9825009 26.91260733 11.1564756 32.6793068 7.34375 39.11328125 C6.68375 39.11328125 6.02375 39.11328125 5.34375 39.11328125 C5.07852539 39.71350098 4.81330078 40.3137207 4.54003906 40.93212891 C1.26726369 46.89926669 -5.93433179 50.90501928 -11.40625 54.73828125 C-12.14447998 55.25624268 -12.88270996 55.7742041 -13.64331055 56.30786133 C-22.12982789 62.20799448 -30.85714176 67.69457834 -39.65625 73.11328125 C-40.7184375 73.77021973 -41.780625 74.4271582 -42.875 75.10400391 C-56.09048834 83.27108285 -69.34883307 91.25523718 -83.08129883 98.53515625 C-83.92329834 98.98246094 -84.76529785 99.42976563 -85.6328125 99.890625 C-86.36580566 100.27468506 -87.09879883 100.65874512 -87.85400391 101.05444336 C-89.81635775 102.10573315 -89.81635775 102.10573315 -91.65625 104.11328125 C-92.20702855 106.82783267 -92.54618059 109.54220812 -92.8984375 112.2890625 C-94.1415707 116.92197645 -96.70157508 119.4570506 -100.61376953 122.14624023 C-102.30928955 123.11799194 -102.30928955 123.11799194 -104.0390625 124.109375 C-104.65337128 124.46540298 -105.26768005 124.82143097 -105.90060425 125.18824768 C-107.85553262 126.31858138 -109.81800331 127.43497048 -111.78125 128.55078125 C-113.0760627 129.29528235 -114.3703387 130.04071769 -115.6640625 130.78710938 C-117.56093489 131.88115792 -119.45841764 132.97399195 -121.35900879 134.06156921 C-125.77923104 136.59224845 -130.1458368 139.19930046 -134.47900391 141.87597656 C-146.07789166 148.46749519 -157.87230986 149.60580098 -170.65625 146.11328125 C-173.71875 144.86328125 -173.71875 144.86328125 -175.65625 143.11328125 C-176.71875 140.30078125 -176.71875 140.30078125 -176.65625 137.11328125 C-173.86178849 131.27031627 -168.7592267 126.99469596 -163.65625 123.11328125 C-162.99625 123.11328125 -162.33625 123.11328125 -161.65625 123.11328125 C-161.65625 122.45328125 -161.65625 121.79328125 -161.65625 121.11328125 C-159.66294158 119.76996471 -157.66240134 118.43734113 -155.65625 117.11328125 C-153.28644987 114.15950627 -153.28644987 114.15950627 -153.65625 110.11328125 C-157.82445912 108.72387821 -160.73652005 110.21956385 -164.71875 111.61328125 C-165.50934814 111.88156738 -166.29994629 112.14985352 -167.11450195 112.42626953 C-171.31988555 113.87445359 -175.47453097 115.41584567 -179.6015625 117.07421875 C-180.79446899 117.5527832 -180.79446899 117.5527832 -182.01147461 118.04101562 C-183.53025717 118.65787696 -185.04443477 119.28624069 -186.55297852 119.92773438 C-191.0460155 121.76581854 -194.71365713 122.72255685 -199.65625 122.11328125 C-202.04420897 118.5313428 -202.36880803 116.24320942 -201.65625 112.11328125 C-192.82505138 85.54670029 -170.25084764 70.78445406 -146.65625 58.11328125 C-139.32272486 54.59953659 -130.7575832 55.19138749 -123.15625 57.67578125 C-122.4034375 57.96582031 -121.650625 58.25585938 -120.875 58.5546875 C-118.00768558 59.27656419 -116.46693086 59.05017487 -113.65625 58.11328125 C-110.81488363 56.23306319 -110.81488363 56.23306319 -107.90625 53.80078125 C-102.83740882 49.7612844 -97.66248905 45.94235978 -92.34375 42.23828125 C-86.70141648 38.29636834 -81.14247983 34.2697011 -75.65625 30.11328125 C-68.10068856 24.39659501 -60.3969422 18.91169138 -52.62548828 13.49316406 C-50.79254304 12.20878438 -48.97079719 10.91024951 -47.15234375 9.60546875 C-33.17397028 -0.3190082 -16.42133865 -11.66398025 0 0 Z " fill="#102A1C" transform="translate(201.65625,4.88671875)"/>
<path d="M0 0 C4.49543909 3.98459374 7.34943757 7.94511156 8.3125 13.9375 C6.56537663 24.80848984 -1.24335542 31.58534153 -9.76318359 37.91821289 C-19.92453351 45.24214883 -30.62926536 51.80940695 -41.25 58.4375 C-42.04486816 58.93427246 -42.83973633 59.43104492 -43.65869141 59.94287109 C-75.39783648 79.71916803 -75.39783648 79.71916803 -86.25 84.4375 C-86.91 84.1075 -87.57 83.7775 -88.25 83.4375 C-88.45407737 81.56679082 -88.65666502 79.6959066 -88.8515625 77.82421875 C-90.05207649 70.63290454 -93.20236624 64.61796623 -98.25 59.4375 C-98.91 59.1075 -99.57 58.7775 -100.25 58.4375 C-100.25 57.4475 -100.25 56.4575 -100.25 55.4375 C-98.22265625 53.81640625 -98.22265625 53.81640625 -95.3125 52 C-94.21550781 51.29488281 -93.11851563 50.58976562 -91.98828125 49.86328125 C-91.38580566 49.4760791 -90.78333008 49.08887695 -90.16259766 48.68994141 C-86.71960667 46.43534046 -83.36044628 44.06271668 -80 41.6875 C-79.27820557 41.17775635 -78.55641113 40.6680127 -77.81274414 40.14282227 C-72.89788469 36.65259133 -68.05807399 33.07301819 -63.25 29.4375 C-55.77242056 23.78744613 -48.18270668 18.31773306 -40.47802734 12.98144531 C-38.94183597 11.91691822 -37.40846928 10.84830726 -35.87744141 9.77636719 C-33.48955228 8.10865039 -31.09034689 6.45857218 -28.6875 4.8125 C-27.96191895 4.30332031 -27.23633789 3.79414063 -26.48876953 3.26953125 C-18.15159426 -2.37444998 -9.38786133 -4.51339487 0 0 Z " fill="#CD431A" transform="translate(196.25,12.5625)"/>
<path d="M0 0 C6.3276015 2.06656772 11.7918501 3.9901895 16.171875 9.13671875 C19.25295429 15.42725563 20.02650958 20.29492686 19.671875 27.19921875 C19.630625 28.05386719 19.589375 28.90851563 19.546875 29.7890625 C19.18144299 34.85181849 18.72794739 38.99711921 15.671875 43.19921875 C14.36106348 44.17782994 13.01020232 45.10367774 11.63671875 45.9921875 C10.83089355 46.51635254 10.02506836 47.04051758 9.19482422 47.58056641 C8.36225098 48.11472168 7.52967773 48.64887695 6.671875 49.19921875 C5.89473145 49.70372559 5.11758789 50.20823242 4.31689453 50.72802734 C1.96314394 52.25063598 -0.39995688 53.75770497 -2.765625 55.26171875 C-3.93834961 56.01678711 -3.93834961 56.01678711 -5.13476562 56.78710938 C-16.04564573 63.71735615 -27.93722992 70.69992251 -41.328125 69.19921875 C-41.988125 68.86921875 -42.648125 68.53921875 -43.328125 68.19921875 C-43.328125 67.53921875 -43.328125 66.87921875 -43.328125 66.19921875 C-41.68322938 65.07188522 -39.98449508 64.02268272 -38.265625 63.01171875 C-31.36028445 58.72809694 -25.13069005 54.1123436 -22.328125 46.19921875 C-21.7854327 41.85768032 -22.02391547 39.77504393 -24.078125 35.88671875 C-26.80132923 32.63400259 -28.67778794 31.51430658 -32.82421875 30.72265625 C-43.62852745 30.17741889 -52.59166043 34.29420056 -62.37963867 38.46484375 C-64.328125 39.19921875 -64.328125 39.19921875 -66.328125 39.19921875 C-65.9218802 31.07432285 -60.32018558 25.96099451 -54.765625 20.57421875 C-38.21226959 5.8702727 -22.2265283 -6.57669353 0 0 Z " fill="#B7B289" transform="translate(80.328125,73.80078125)"/>
<path d="M0 0 C0.66 0.33 1.32 0.66 2 1 C1.52949219 1.44730469 1.05898438 1.89460937 0.57421875 2.35546875 C-2.85076649 5.68117905 -5.78871658 8.70750866 -8 13 C-7.67 13.33 -7.34 13.66 -7 14 C-5.75283203 13.54947266 -5.75283203 13.54947266 -4.48046875 13.08984375 C-2.85044922 12.51943359 -2.85044922 12.51943359 -1.1875 11.9375 C-0.10855469 11.55464844 0.97039063 11.17179688 2.08203125 10.77734375 C5 10 5 10 8 11 C6.41800369 11.64910154 4.83434276 12.29414694 3.25 12.9375 C2.36828125 13.29714844 1.4865625 13.65679687 0.578125 14.02734375 C-3.27770885 15.4820447 -6.49936498 16.13879811 -10.625 16.125 C-11.40101562 16.12757813 -12.17703125 16.13015625 -12.9765625 16.1328125 C-15 16 -15 16 -17 15 C-17 14.34 -17 13.68 -17 13 C-15.33531839 11.85071804 -13.61571248 10.78050179 -11.875 9.75 C-7.23466995 6.8939517 -3.64003019 4.03354696 0 0 Z " fill="#D0CB9F" transform="translate(54,127)"/>
<path d="M0 0 C0.66 0.33 1.32 0.66 2 1 C0.85300925 4.44097224 -0.2726141 4.98424452 -3.2578125 6.8125 C-5.21037357 8.14339364 -6.79673767 9.67736816 -8.5 11.3125 C-11.23504978 13.74297853 -11.57134198 14.01558756 -15.4375 13.875 C-16.7059375 13.441875 -16.7059375 13.441875 -18 13 C-17.443125 12.75121094 -16.88625 12.50242187 -16.3125 12.24609375 C-13.5981525 10.78346393 -11.38528613 9.01508941 -9 7.0625 C-6.03955451 4.64811229 -3.07336972 2.26945588 0 0 Z " fill="#1B2A19" transform="translate(101,53)"/>
<path d="M0 0 C3.93583434 0.89961928 5.57907051 2.46185401 7.6875 5.75 C10.98027648 11.49682687 12.49637835 16.29889222 12 23 C11.37773431 24.35462454 10.71862098 25.69393488 10 27 C9.97421875 26.23816406 9.9484375 25.47632812 9.921875 24.69140625 C9.53061665 17.56872576 8.21956832 12.31840282 5 6 C4.67 5.01 4.34 4.02 4 3 C1.99983534 1.79117904 1.99983534 1.79117904 0 1 C0 0.67 0 0.34 0 0 Z " fill="#09100C" transform="translate(90,77)"/>
<path d="M0 0 C0.33 0.66 0.66 1.32 1 2 C-2.85053035 9.98628518 -9.15241513 14.67046026 -16 20 C-16 17 -16 17 -13.515625 14.51171875 C-12.43420174 13.56214389 -11.34529124 12.62104474 -10.25 11.6875 C-6.05466308 8.0993829 -2.88075878 4.73367401 0 0 Z " fill="#0C211A" transform="translate(203,32)"/>
<path d="M0 0 C0.85722656 0.27714844 1.71445312 0.55429688 2.59765625 0.83984375 C11.16422502 3.55573362 11.16422502 3.55573362 20 5 C20 5.33 20 5.66 20 6 C12.37110317 6.28255173 4.80981199 5.71728269 -2 2 C-1.34 1.34 -0.68 0.68 0 0 Z " fill="#364930" transform="translate(29,147)"/>
<path d="M0 0 C4.56846667 3.52960987 7.86175 6.46570589 10 12 C10 12.66 10 13.32 10 14 C6.08402356 12.69467452 5.46169654 11.02734726 3.3125 7.5625 C2.68988281 6.57378906 2.06726563 5.58507812 1.42578125 4.56640625 C0 2 0 2 0 0 Z " fill="#2C2E1A" transform="translate(202,6)"/>
<path d="M0 0 C-1.4980087 3.81311305 -3.62648024 5.72483551 -7 8 C-9.8125 8.75 -9.8125 8.75 -12 9 C-3.25 0 -3.25 0 0 0 Z " fill="#203622" transform="translate(42,127)"/>
<path d="M0 0 C0 0.99 0 1.98 0 3 C-0.66 3 -1.32 3 -2 3 C-2 3.66 -2 4.32 -2 5 C-6.95 7.475 -6.95 7.475 -12 10 C-10.68374806 6.05124418 -8.94634602 5.45007287 -5.4375 3.3125 C-4.42558594 2.68988281 -3.41367188 2.06726563 -2.37109375 1.42578125 C-1.58863281 0.95527344 -0.80617188 0.48476562 0 0 Z " fill="#07130D" transform="translate(84,124)"/>
<path d="M0 0 C0.66 0.99 1.32 1.98 2 3 C-0.25 5.5625 -0.25 5.5625 -3 8 C-4.32 7.67 -5.64 7.34 -7 7 C-4.69 4.69 -2.38 2.38 0 0 Z " fill="#253924" transform="translate(20,86)"/>
<path d="M0 0 C-3.3 2.31 -6.6 4.62 -10 7 C-10.66 6.67 -11.32 6.34 -12 6 C-4.8 -1.6 -4.8 -1.6 0 0 Z " fill="#33331B" transform="translate(185,63)"/>
<path d="M0 0 C-1.62445619 0.98006859 -3.24958261 1.95902636 -4.875 2.9375 C-5.77992187 3.48277344 -6.68484375 4.02804688 -7.6171875 4.58984375 C-9.05201636 5.43898017 -10.50875448 6.25437724 -12 7 C-11.02629214 3.39728091 -10.3100846 2.20222909 -7.125 0.125 C-3.87384798 -1.04541473 -3.12047598 -0.98612444 0 0 Z " fill="#2C3620" transform="translate(121,102)"/>
<path d="M0 0 C0.66 0.33 1.32 0.66 2 1 C-1.33333333 4.33333333 -4.66666667 7.66666667 -8 11 C-8.66 10.34 -9.32 9.68 -10 9 C-6.7 6.03 -3.4 3.06 0 0 Z " fill="#E0DAAB" transform="translate(54,127)"/>
<path d="M0 0 C0.66 0.33 1.32 0.66 2 1 C2 1.66 2 2.32 2 3 C-0.75 5.1875 -0.75 5.1875 -4 7 C-5.32 6.67 -6.64 6.34 -8 6 C-5.36 4.02 -2.72 2.04 0 0 Z " fill="#2A3C26" transform="translate(42,70)"/>
<path d="M0 0 C0.99 0.33 1.98 0.66 3 1 C-0.19990508 3.74277578 -3.00499382 5.6302836 -7 7 C-5.65117186 2.95351557 -3.65173931 2.04497401 0 0 Z " fill="#262D18" transform="translate(161,75)"/>
<path d="M0 0 C1.32 0.66 2.64 1.32 4 2 C-0.95 3.485 -0.95 3.485 -6 5 C-6.33 4.34 -6.66 3.68 -7 3 C-3.75 1.375 -3.75 1.375 0 0 Z " fill="#2B3D27" transform="translate(16,121)"/>
<path d="M0 0 C0.556875 0.226875 1.11375 0.45375 1.6875 0.6875 C-5.0625 4.6875 -5.0625 4.6875 -7.3125 4.6875 C-7.3125 4.0275 -7.3125 3.3675 -7.3125 2.6875 C-3.15982824 -0.42700382 -3.15982824 -0.42700382 0 0 Z " fill="#2F331C" transform="translate(128.3125,96.3125)"/>
<path d="M0 0 C2.64 0.66 5.28 1.32 8 2 C7.67 2.66 7.34 3.32 7 4 C4.69 4 2.38 4 0 4 C0 2.68 0 1.36 0 0 Z " fill="#1A311F" transform="translate(2,123)"/>
<path d="M0 0 C0.66 0.33 1.32 0.66 2 1 C1.34 2.32 0.68 3.64 0 5 C-2.97 4.505 -2.97 4.505 -6 4 C-5.38125 3.71125 -4.7625 3.4225 -4.125 3.125 C-1.86674235 2.06279958 -1.86674235 2.06279958 0 0 Z " fill="#283722" transform="translate(89,62)"/>
<path d="M0 0 C0.66 0.33 1.32 0.66 2 1 C1.67 1.99 1.34 2.98 1 4 C-0.98 4.33 -2.96 4.66 -5 5 C-3.35 3.35 -1.7 1.7 0 0 Z " fill="#28331F" transform="translate(101,53)"/>
<path d="M0 0 C2.25 0.25 2.25 0.25 4 1 C3.34 1 2.68 1 2 1 C2 1.66 2 2.32 2 3 C0.02 3.33 -1.96 3.66 -4 4 C-2.25 1.9375 -2.25 1.9375 0 0 Z " fill="#DE4D1E" transform="translate(176,12)"/>
</svg>
